<?xml version="1.0" encoding="UTF-8" standalone="no"?>
<!DOCTYPE svg PUBLIC "-//W3C//DTD SVG 1.1//EN"
 "http://www.w3.org/Graphics/SVG/1.1/DTD/svg11.dtd">
<!-- Generated by graphviz version 2.43.0 (0)
 -->
<!-- Title: main Pages: 1 -->
<svg width="1443pt" height="741pt"
 viewBox="0.00 0.00 1443.00 741.14" xmlns="http://www.w3.org/2000/svg" xmlns:xlink="http://www.w3.org/1999/xlink">
<g id="graph0" class="graph" transform="scale(1 1) rotate(0) translate(4 737.14)">
<title>main</title>
<polygon fill="white" stroke="transparent" points="-4,4 -4,-737.14 1439,-737.14 1439,4 -4,4"/>
<!-- Node1 -->
<g id="node1" class="node">
<title>Node1</title>
<g id="a_node1"><a xlink:title=" ">
<polygon fill="#bfbfbf" stroke="black" points="0,-312.5 0,-331.5 41,-331.5 41,-312.5 0,-312.5"/>
<text text-anchor="middle" x="20.5" y="-319.5" font-family="Helvetica,sans-Serif" font-size="10.00">main</text>
</a>
</g>
</g>
<!-- Node2 -->
<g id="node2" class="node">
<title>Node2</title>
<g id="a_node2"><a xlink:href="lexer_8h.html#a78c9ef2940e04bc9cd18a764bdb9e0a5" target="_top" xlink:title="Initializes an internal twin buffer and loads the active buffer with the first chunk of the file.">
<polygon fill="white" stroke="black" points="464,-702.5 464,-721.5 530,-721.5 530,-702.5 464,-702.5"/>
<text text-anchor="middle" x="497" y="-709.5" font-family="Helvetica,sans-Serif" font-size="10.00">buffer_init</text>
</a>
</g>
</g>
<!-- Node1&#45;&gt;Node2 -->
<g id="edge1" class="edge">
<title>Node1&#45;&gt;Node2</title>
<path fill="none" stroke="midnightblue" d="M23.71,-331.71C29.4,-355.21 46.33,-416.29 77,-458 186.91,-607.47 249.18,-625.52 422,-693 432.11,-696.95 443.32,-700.31 453.89,-703.07"/>
<polygon fill="midnightblue" stroke="midnightblue" points="453.23,-706.51 463.78,-705.52 454.91,-699.71 453.23,-706.51"/>
</g>
<!-- Node14 -->
<g id="node14" class="node">
<title>Node14</title>
<g id="a_node14"><a xlink:href="lexer_8h.html#a68b169dd0377b22e0729c7e7a9988262" target="_top" xlink:title="A wrapper function that fetches the next token from the file.">
<polygon fill="white" stroke="black" points="451,-664.5 451,-683.5 543,-683.5 543,-664.5 451,-664.5"/>
<text text-anchor="middle" x="497" y="-671.5" font-family="Helvetica,sans-Serif" font-size="10.00">get_next_token</text>
</a>
</g>
</g>
<!-- Node1&#45;&gt;Node14 -->
<g id="edge16" class="edge">
<title>Node1&#45;&gt;Node14</title>
<path fill="none" stroke="midnightblue" d="M29.99,-331.69C69.49,-376.2 241.17,-562.74 422,-655 427.95,-658.04 434.43,-660.62 440.99,-662.8"/>
<polygon fill="midnightblue" stroke="midnightblue" points="440.04,-666.16 450.62,-665.72 442.07,-659.46 440.04,-666.16"/>
</g>
<!-- Node15 -->
<g id="node15" class="node">
<title>Node15</title>
<g id="a_node15"><a xlink:href="parser_8h.html#af8e858bd867bc61808a62e29963b3497" target="_top" xlink:title="Parses the given code based on the specified grammar.">
<polygon fill="white" stroke="black" points="109,-208.5 109,-227.5 181,-227.5 181,-208.5 109,-208.5"/>
<text text-anchor="middle" x="145" y="-215.5" font-family="Helvetica,sans-Serif" font-size="10.00">parse_code</text>
</a>
</g>
</g>
<!-- Node1&#45;&gt;Node15 -->
<g id="edge18" class="edge">
<title>Node1&#45;&gt;Node15</title>
<path fill="none" stroke="midnightblue" d="M32.8,-312.4C53.86,-294.52 99.29,-255.96 125.09,-234.05"/>
<polygon fill="midnightblue" stroke="midnightblue" points="127.36,-236.71 132.72,-227.57 122.83,-231.38 127.36,-236.71"/>
</g>
<!-- Node37 -->
<g id="node37" class="node">
<title>Node37</title>
<g id="a_node37"><a xlink:href="lexer_8h.html#aee1807f4e95bea666b6c994915907414" target="_top" xlink:title="Retrieves a string representation of a token type (for printing purposes).">
<polygon fill="white" stroke="black" points="451,-284.5 451,-303.5 543,-303.5 543,-284.5 451,-284.5"/>
<text text-anchor="middle" x="497" y="-291.5" font-family="Helvetica,sans-Serif" font-size="10.00">token_to_string</text>
</a>
</g>
</g>
<!-- Node1&#45;&gt;Node37 -->
<g id="edge54" class="edge">
<title>Node1&#45;&gt;Node37</title>
<path fill="none" stroke="midnightblue" d="M41.05,-329.38C97.27,-349.4 263.18,-399.87 386,-349 406.91,-340.34 402.35,-324.21 422,-313 427.88,-309.64 434.36,-306.87 440.97,-304.58"/>
<polygon fill="midnightblue" stroke="midnightblue" points="442.17,-307.87 450.68,-301.56 440.09,-301.19 442.17,-307.87"/>
</g>
<!-- Node39 -->
<g id="node39" class="node">
<title>Node39</title>
<g id="a_node39"><a xlink:href="parser_8h.html#aad20e8a12c7bfb6d97191c3a26363f1a" target="_top" xlink:title="Deallocates all memory associated with the parse tree.">
<polygon fill="white" stroke="black" points="89,-170.5 89,-189.5 201,-189.5 201,-170.5 89,-170.5"/>
<text text-anchor="middle" x="145" y="-177.5" font-family="Helvetica,sans-Serif" font-size="10.00">parse_tree_cleanup</text>
</a>
</g>
</g>
<!-- Node1&#45;&gt;Node39 -->
<g id="edge45" class="edge">
<title>Node1&#45;&gt;Node39</title>
<path fill="none" stroke="midnightblue" d="M23.02,-312.36C27.19,-289.2 40.98,-230.06 77,-199 78.96,-197.31 81.07,-195.76 83.27,-194.36"/>
<polygon fill="midnightblue" stroke="midnightblue" points="85.05,-197.38 92.22,-189.59 81.75,-191.2 85.05,-197.38"/>
</g>
<!-- Node41 -->
<g id="node41" class="node">
<title>Node41</title>
<g id="a_node41"><a xlink:href="parser_8h.html#a8c9a76dff4106d2e5eb33c33aa0c85f5" target="_top" xlink:title="Prints the parse tree using in&#45;order traversal in the specified file.">
<polygon fill="white" stroke="black" points="77,-312.5 77,-331.5 213,-331.5 213,-312.5 77,-312.5"/>
<text text-anchor="middle" x="145" y="-319.5" font-family="Helvetica,sans-Serif" font-size="10.00">print_parse_tree_inorder</text>
</a>
</g>
</g>
<!-- Node1&#45;&gt;Node41 -->
<g id="edge48" class="edge">
<title>Node1&#45;&gt;Node41</title>
<path fill="none" stroke="midnightblue" d="M41.18,-322C48.48,-322 57.28,-322 66.61,-322"/>
<polygon fill="midnightblue" stroke="midnightblue" points="66.9,-325.5 76.9,-322 66.9,-318.5 66.9,-325.5"/>
</g>
<!-- Node43 -->
<g id="node43" class="node">
<title>Node43</title>
<g id="a_node43"><a xlink:href="driver_8c.html#a1ade15436b308d5973cd74a8b631827d" target="_top" xlink:title="This function removes all comments and prints the resulting comment&#45;free code on the terminal.">
<polygon fill="white" stroke="black" points="91.5,-132.5 91.5,-151.5 198.5,-151.5 198.5,-132.5 91.5,-132.5"/>
<text text-anchor="middle" x="145" y="-139.5" font-family="Helvetica,sans-Serif" font-size="10.00">removeComments</text>
</a>
</g>
</g>
<!-- Node1&#45;&gt;Node43 -->
<g id="edge53" class="edge">
<title>Node1&#45;&gt;Node43</title>
<path fill="none" stroke="midnightblue" d="M21.86,-312.41C23.44,-284.67 31.89,-203.66 77,-161 78.68,-159.41 80.48,-157.96 82.37,-156.62"/>
<polygon fill="midnightblue" stroke="midnightblue" points="84.3,-159.55 91.2,-151.51 80.79,-153.49 84.3,-159.55"/>
</g>
<!-- Node3 -->
<g id="node3" class="node">
<title>Node3</title>
<g id="a_node3"><a xlink:href="lexer_8c.html#a67dd8f227181df843e25a314e262a10c" target="_top" xlink:title="Deallocates the twin buffer (automatically called at program termination).">
<polygon fill="white" stroke="black" points="932.5,-711.5 932.5,-730.5 1021.5,-730.5 1021.5,-711.5 932.5,-711.5"/>
<text text-anchor="middle" x="977" y="-718.5" font-family="Helvetica,sans-Serif" font-size="10.00">buffer_cleanup</text>
</a>
</g>
</g>
<!-- Node2&#45;&gt;Node3 -->
<g id="edge2" class="edge">
<title>Node2&#45;&gt;Node3</title>
<path fill="none" stroke="midnightblue" d="M530.2,-715.83C596.32,-723.19 752.19,-738.01 883,-731 895.67,-730.32 909.26,-729.13 922.04,-727.79"/>
<polygon fill="midnightblue" stroke="midnightblue" points="922.52,-731.26 932.08,-726.7 921.76,-724.3 922.52,-731.26"/>
</g>
<!-- Node4 -->
<g id="node4" class="node">
<title>Node4</title>
<g id="a_node4"><a xlink:href="lexer_8c.html#a1ede1e9739c264c7e3af07630e5a68f3" target="_top" xlink:title=" ">
<polygon fill="white" stroke="black" points="608,-664.5 608,-683.5 736,-683.5 736,-664.5 608,-664.5"/>
<text text-anchor="middle" x="672" y="-671.5" font-family="Helvetica,sans-Serif" font-size="10.00">get_next_token_helper</text>
</a>
</g>
</g>
<!-- Node2&#45;&gt;Node4 -->
<g id="edge3" class="edge">
<title>Node2&#45;&gt;Node4</title>
<path fill="none" stroke="midnightblue" d="M530.13,-704.94C554.7,-699.55 589.09,-691.99 617.75,-685.7"/>
<polygon fill="midnightblue" stroke="midnightblue" points="618.6,-689.09 627.62,-683.53 617.1,-682.26 618.6,-689.09"/>
</g>
<!-- Node5 -->
<g id="node5" class="node">
<title>Node5</title>
<g id="a_node5"><a xlink:href="lexer_8c.html#a78c9ef2940e04bc9cd18a764bdb9e0a5" target="_top" xlink:title="Initializes an internal twin buffer and loads the active buffer with the first chunk of the file.">
<polygon fill="white" stroke="black" points="794.5,-702.5 794.5,-721.5 860.5,-721.5 860.5,-702.5 794.5,-702.5"/>
<text text-anchor="middle" x="827.5" y="-709.5" font-family="Helvetica,sans-Serif" font-size="10.00">buffer_init</text>
</a>
</g>
</g>
<!-- Node4&#45;&gt;Node5 -->
<g id="edge4" class="edge">
<title>Node4&#45;&gt;Node5</title>
<path fill="none" stroke="midnightblue" d="M736.32,-683.02C757.25,-687.91 779.55,-693.82 796.74,-699.16"/>
<polygon fill="midnightblue" stroke="midnightblue" points="796.13,-702.65 806.72,-702.4 798.29,-695.99 796.13,-702.65"/>
</g>
<!-- Node6 -->
<g id="node6" class="node">
<title>Node6</title>
<g id="a_node6"><a xlink:href="lexer_8c.html#ab8b57ff9976f6622383db94b907a00f3" target="_top" xlink:title=" ">
<polygon fill="white" stroke="black" points="787.5,-626.5 787.5,-645.5 867.5,-645.5 867.5,-626.5 787.5,-626.5"/>
<text text-anchor="middle" x="827.5" y="-633.5" font-family="Helvetica,sans-Serif" font-size="10.00">create_token</text>
</a>
</g>
</g>
<!-- Node4&#45;&gt;Node6 -->
<g id="edge7" class="edge">
<title>Node4&#45;&gt;Node6</title>
<path fill="none" stroke="midnightblue" d="M711.73,-664.41C731.9,-659.42 756.75,-653.27 778.16,-647.97"/>
<polygon fill="midnightblue" stroke="midnightblue" points="779.18,-651.32 788.04,-645.52 777.5,-644.53 779.18,-651.32"/>
</g>
<!-- Node7 -->
<g id="node7" class="node">
<title>Node7</title>
<g id="a_node7"><a xlink:href="symbol__table_8h.html#a838379e0d91707a08998e494fb420bf5" target="_top" xlink:title="Inserts a lexeme into the internal symbol table.">
<polygon fill="white" stroke="black" points="919,-654.5 919,-673.5 1035,-673.5 1035,-654.5 919,-654.5"/>
<text text-anchor="middle" x="977" y="-661.5" font-family="Helvetica,sans-Serif" font-size="10.00">symbol_table_insert</text>
</a>
</g>
</g>
<!-- Node4&#45;&gt;Node7 -->
<g id="edge15" class="edge">
<title>Node4&#45;&gt;Node7</title>
<path fill="none" stroke="midnightblue" d="M736.15,-671.92C786.64,-670.25 857.25,-667.92 908.78,-666.22"/>
<polygon fill="midnightblue" stroke="midnightblue" points="908.94,-669.72 918.82,-665.89 908.71,-662.72 908.94,-669.72"/>
</g>
<!-- Node12 -->
<g id="node12" class="node">
<title>Node12</title>
<g id="a_node12"><a xlink:href="lexer_8c.html#a960f17a4b92e6cce8b8edae91c728ead" target="_top" xlink:title=" ">
<polygon fill="white" stroke="black" points="772,-588.5 772,-607.5 883,-607.5 883,-588.5 772,-588.5"/>
<text text-anchor="middle" x="827.5" y="-595.5" font-family="Helvetica,sans-Serif" font-size="10.00">retract_and_update</text>
</a>
</g>
</g>
<!-- Node4&#45;&gt;Node12 -->
<g id="edge13" class="edge">
<title>Node4&#45;&gt;Node12</title>
<path fill="none" stroke="midnightblue" d="M687.63,-664.41C706.56,-652.28 740.8,-631.27 772,-617 776.49,-614.95 781.27,-612.98 786.07,-611.14"/>
<polygon fill="midnightblue" stroke="midnightblue" points="787.65,-614.29 795.83,-607.56 785.24,-607.72 787.65,-614.29"/>
</g>
<!-- Node13 -->
<g id="node13" class="node">
<title>Node13</title>
<g id="a_node13"><a xlink:href="lexer_8c.html#a6d0bc199864425dd309933a88f06bb51" target="_top" xlink:title=" ">
<polygon fill="white" stroke="black" points="789.5,-550.5 789.5,-569.5 865.5,-569.5 865.5,-550.5 789.5,-550.5"/>
<text text-anchor="middle" x="827.5" y="-557.5" font-family="Helvetica,sans-Serif" font-size="10.00">swap_buffer</text>
</a>
</g>
</g>
<!-- Node4&#45;&gt;Node13 -->
<g id="edge14" class="edge">
<title>Node4&#45;&gt;Node13</title>
<path fill="none" stroke="midnightblue" d="M680.68,-664.23C696.06,-645.26 732.61,-603.16 772,-579 775.22,-577.02 778.68,-575.22 782.23,-573.57"/>
<polygon fill="midnightblue" stroke="midnightblue" points="783.87,-576.68 791.75,-569.6 781.18,-570.22 783.87,-576.68"/>
</g>
<!-- Node5&#45;&gt;Node3 -->
<g id="edge5" class="edge">
<title>Node5&#45;&gt;Node3</title>
<path fill="none" stroke="midnightblue" d="M860.51,-713.95C878.48,-715.05 901.39,-716.45 922.06,-717.71"/>
<polygon fill="midnightblue" stroke="midnightblue" points="922.11,-721.22 932.31,-718.33 922.54,-714.23 922.11,-721.22"/>
</g>
<!-- Node5&#45;&gt;Node4 -->
<g id="edge6" class="edge">
<title>Node5&#45;&gt;Node4</title>
<path fill="none" stroke="midnightblue" d="M794.25,-709.63C767.17,-704.49 728.81,-694.94 702.53,-686.76"/>
<polygon fill="midnightblue" stroke="midnightblue" points="703.35,-683.35 692.75,-683.59 701.19,-690.01 703.35,-683.35"/>
</g>
<!-- Node6&#45;&gt;Node7 -->
<g id="edge8" class="edge">
<title>Node6&#45;&gt;Node7</title>
<path fill="none" stroke="midnightblue" d="M867.64,-643.43C882.41,-646.23 899.58,-649.49 915.83,-652.58"/>
<polygon fill="midnightblue" stroke="midnightblue" points="915.33,-656.05 925.81,-654.47 916.64,-649.17 915.33,-656.05"/>
</g>
<!-- Node8 -->
<g id="node8" class="node">
<title>Node8</title>
<g id="a_node8"><a xlink:href="symbol__table_8c.html#af00e4a3f1778752600e745a5f825e3ac" target="_top" xlink:title=" ">
<polygon fill="white" stroke="black" points="1071,-654.5 1071,-673.5 1188,-673.5 1188,-654.5 1071,-654.5"/>
<text text-anchor="middle" x="1129.5" y="-661.5" font-family="Helvetica,sans-Serif" font-size="10.00">symbol_table_resize</text>
</a>
</g>
</g>
<!-- Node7&#45;&gt;Node8 -->
<g id="edge9" class="edge">
<title>Node7&#45;&gt;Node8</title>
<path fill="none" stroke="midnightblue" d="M1035.33,-664C1043.59,-664 1052.17,-664 1060.62,-664"/>
<polygon fill="midnightblue" stroke="midnightblue" points="1060.83,-667.5 1070.83,-664 1060.83,-660.5 1060.83,-667.5"/>
</g>
<!-- Node9 -->
<g id="node9" class="node">
<title>Node9</title>
<g id="a_node9"><a xlink:href="symbol__table_8c.html#abd009617cc391aeb4c484a199286513e" target="_top" xlink:title=" ">
<polygon fill="white" stroke="black" points="1246,-676.5 1246,-695.5 1318,-695.5 1318,-676.5 1246,-676.5"/>
<text text-anchor="middle" x="1282" y="-683.5" font-family="Helvetica,sans-Serif" font-size="10.00">next_prime</text>
</a>
</g>
</g>
<!-- Node8&#45;&gt;Node9 -->
<g id="edge10" class="edge">
<title>Node8&#45;&gt;Node9</title>
<path fill="none" stroke="midnightblue" d="M1188.26,-672.44C1204.02,-674.75 1220.86,-677.21 1235.81,-679.39"/>
<polygon fill="midnightblue" stroke="midnightblue" points="1235.42,-682.87 1245.82,-680.86 1236.43,-675.95 1235.42,-682.87"/>
</g>
<!-- Node11 -->
<g id="node11" class="node">
<title>Node11</title>
<g id="a_node11"><a xlink:href="symbol__table_8c.html#a86044a0a95c64d3b677f00cba38ae8e1" target="_top" xlink:title=" ">
<polygon fill="white" stroke="black" points="1224,-627 1224,-657 1340,-657 1340,-627 1224,-627"/>
<text text-anchor="start" x="1232" y="-645" font-family="Helvetica,sans-Serif" font-size="10.00">symbol_table_insert</text>
<text text-anchor="middle" x="1282" y="-634" font-family="Helvetica,sans-Serif" font-size="10.00">_entry</text>
</a>
</g>
</g>
<!-- Node8&#45;&gt;Node11 -->
<g id="edge12" class="edge">
<title>Node8&#45;&gt;Node11</title>
<path fill="none" stroke="midnightblue" d="M1188.26,-655.56C1196.6,-654.34 1205.24,-653.07 1213.75,-651.83"/>
<polygon fill="midnightblue" stroke="midnightblue" points="1214.26,-655.29 1223.65,-650.38 1213.25,-648.37 1214.26,-655.29"/>
</g>
<!-- Node10 -->
<g id="node10" class="node">
<title>Node10</title>
<g id="a_node10"><a xlink:href="symbol__table_8c.html#aa29f6b8604796044e39772a51c0f2c63" target="_top" xlink:title=" ">
<polygon fill="white" stroke="black" points="1376,-676.5 1376,-695.5 1435,-695.5 1435,-676.5 1376,-676.5"/>
<text text-anchor="middle" x="1405.5" y="-683.5" font-family="Helvetica,sans-Serif" font-size="10.00">is_prime</text>
</a>
</g>
</g>
<!-- Node9&#45;&gt;Node10 -->
<g id="edge11" class="edge">
<title>Node9&#45;&gt;Node10</title>
<path fill="none" stroke="midnightblue" d="M1318.14,-686C1333.06,-686 1350.5,-686 1365.79,-686"/>
<polygon fill="midnightblue" stroke="midnightblue" points="1365.97,-689.5 1375.97,-686 1365.97,-682.5 1365.97,-689.5"/>
</g>
<!-- Node14&#45;&gt;Node4 -->
<g id="edge17" class="edge">
<title>Node14&#45;&gt;Node4</title>
<path fill="none" stroke="midnightblue" d="M543,-674C559.73,-674 579.17,-674 597.77,-674"/>
<polygon fill="midnightblue" stroke="midnightblue" points="597.99,-677.5 607.99,-674 597.99,-670.5 597.99,-677.5"/>
</g>
<!-- Node16 -->
<g id="node16" class="node">
<title>Node16</title>
<g id="a_node16"><a xlink:href="parser_8c.html#a38b7b58ee1b37118b65d39df4b90656a" target="_top" xlink:title="Computes the First set of a given non&#45;terminal.">
<polygon fill="white" stroke="black" points="265.5,-246.5 265.5,-265.5 369.5,-265.5 369.5,-246.5 265.5,-246.5"/>
<text text-anchor="middle" x="317.5" y="-253.5" font-family="Helvetica,sans-Serif" font-size="10.00">compute_first_set</text>
</a>
</g>
</g>
<!-- Node15&#45;&gt;Node16 -->
<g id="edge19" class="edge">
<title>Node15&#45;&gt;Node16</title>
<path fill="none" stroke="midnightblue" d="M181.33,-225.87C205.11,-231.17 236.9,-238.26 263.68,-244.23"/>
<polygon fill="midnightblue" stroke="midnightblue" points="263.14,-247.69 273.67,-246.45 264.67,-240.86 263.14,-247.69"/>
</g>
<!-- Node18 -->
<g id="node18" class="node">
<title>Node18</title>
<g id="a_node18"><a xlink:href="parser_8c.html#a1fe10306eb61573f8a6929b0987802d0" target="_top" xlink:title="Computes the Follow set of a given non&#45;terminal.">
<polygon fill="white" stroke="black" points="260,-208.5 260,-227.5 375,-227.5 375,-208.5 260,-208.5"/>
<text text-anchor="middle" x="317.5" y="-215.5" font-family="Helvetica,sans-Serif" font-size="10.00">compute_follow_set</text>
</a>
</g>
</g>
<!-- Node15&#45;&gt;Node18 -->
<g id="edge21" class="edge">
<title>Node15&#45;&gt;Node18</title>
<path fill="none" stroke="midnightblue" d="M181.33,-218C201.04,-218 226.25,-218 249.55,-218"/>
<polygon fill="midnightblue" stroke="midnightblue" points="249.74,-221.5 259.74,-218 249.74,-214.5 249.74,-221.5"/>
</g>
<!-- Node22 -->
<g id="node22" class="node">
<title>Node22</title>
<g id="a_node22"><a xlink:href="parser_8c.html#ad3a905e9370709865b9e0a8b31653443" target="_top" xlink:title="Finds a non&#45;terminal based on its name.">
<polygon fill="white" stroke="black" points="265.5,-132.5 265.5,-151.5 369.5,-151.5 369.5,-132.5 265.5,-132.5"/>
<text text-anchor="middle" x="317.5" y="-139.5" font-family="Helvetica,sans-Serif" font-size="10.00">find_non_terminal</text>
</a>
</g>
</g>
<!-- Node15&#45;&gt;Node22 -->
<g id="edge25" class="edge">
<title>Node15&#45;&gt;Node22</title>
<path fill="none" stroke="midnightblue" d="M181.2,-211.78C191.91,-208.92 203.38,-204.82 213,-199 232.9,-186.95 229.09,-173.03 249,-161 252.58,-158.84 256.41,-156.92 260.36,-155.21"/>
<polygon fill="midnightblue" stroke="midnightblue" points="261.66,-158.46 269.74,-151.59 259.15,-151.92 261.66,-158.46"/>
</g>
<!-- Node23 -->
<g id="node23" class="node">
<title>Node23</title>
<g id="a_node23"><a xlink:href="parser_8c.html#a24f97716740e58254357ada9b7921b5e" target="_top" xlink:title="Deallocates memory associated with all non&#45;terminals, their first and follow sets,...">
<polygon fill="white" stroke="black" points="249,-94.5 249,-113.5 386,-113.5 386,-94.5 249,-94.5"/>
<text text-anchor="middle" x="317.5" y="-101.5" font-family="Helvetica,sans-Serif" font-size="10.00">first_and_follow_cleanup</text>
</a>
</g>
</g>
<!-- Node15&#45;&gt;Node23 -->
<g id="edge26" class="edge">
<title>Node15&#45;&gt;Node23</title>
<path fill="none" stroke="midnightblue" d="M181.07,-213.88C192.26,-211.14 204.05,-206.58 213,-199 241.53,-174.85 220.45,-147.12 249,-123 250.99,-121.32 253.13,-119.78 255.36,-118.38"/>
<polygon fill="midnightblue" stroke="midnightblue" points="257.19,-121.38 264.41,-113.63 253.93,-115.18 257.19,-121.38"/>
</g>
<!-- Node24 -->
<g id="node24" class="node">
<title>Node24</title>
<g id="a_node24"><a xlink:href="parser_8c.html#a2ae8d13411ecb85d283dbcd2045c2bd6" target="_top" xlink:title="Generates the parsing table for the given grammar using a hash map.">
<polygon fill="white" stroke="black" points="258,-170.5 258,-189.5 377,-189.5 377,-170.5 258,-170.5"/>
<text text-anchor="middle" x="317.5" y="-177.5" font-family="Helvetica,sans-Serif" font-size="10.00">generate_parse_map</text>
</a>
</g>
</g>
<!-- Node15&#45;&gt;Node24 -->
<g id="edge27" class="edge">
<title>Node15&#45;&gt;Node24</title>
<path fill="none" stroke="midnightblue" d="M181.33,-210.13C205.11,-204.83 236.9,-197.74 263.68,-191.77"/>
<polygon fill="midnightblue" stroke="midnightblue" points="264.67,-195.14 273.67,-189.55 263.14,-188.31 264.67,-195.14"/>
</g>
<!-- Node26 -->
<g id="node26" class="node">
<title>Node26</title>
<g id="a_node26"><a xlink:href="parser_8c.html#a385276c7e31aeff5ad9c22370300ced6" target="_top" xlink:title="Generates a parse tree for the given source code.">
<polygon fill="white" stroke="black" points="259,-455.5 259,-474.5 376,-474.5 376,-455.5 259,-455.5"/>
<text text-anchor="middle" x="317.5" y="-462.5" font-family="Helvetica,sans-Serif" font-size="10.00">generate_parse_tree</text>
</a>
</g>
</g>
<!-- Node15&#45;&gt;Node26 -->
<g id="edge30" class="edge">
<title>Node15&#45;&gt;Node26</title>
<path fill="none" stroke="midnightblue" d="M154.16,-227.7C167.12,-243.24 192.97,-274.82 213,-303 248.95,-353.56 287.26,-416.11 305.55,-446.58"/>
<polygon fill="midnightblue" stroke="midnightblue" points="302.62,-448.5 310.76,-455.29 308.63,-444.91 302.62,-448.5"/>
</g>
<!-- Node38 -->
<g id="node38" class="node">
<title>Node38</title>
<g id="a_node38"><a xlink:href="lexer_8h.html#ab45c7162c82bb8baec1ef2a248bcf120" target="_top" xlink:title="Retrieves the token type based on the given string.">
<polygon fill="white" stroke="black" points="271.5,-56.5 271.5,-75.5 363.5,-75.5 363.5,-56.5 271.5,-56.5"/>
<text text-anchor="middle" x="317.5" y="-63.5" font-family="Helvetica,sans-Serif" font-size="10.00">string_to_token</text>
</a>
</g>
</g>
<!-- Node15&#45;&gt;Node38 -->
<g id="edge44" class="edge">
<title>Node15&#45;&gt;Node38</title>
<path fill="none" stroke="midnightblue" d="M181.35,-214.65C192.69,-211.97 204.5,-207.25 213,-199 251.12,-161.99 210.84,-121.97 249,-85 252.78,-81.33 257.21,-78.37 261.97,-75.96"/>
<polygon fill="midnightblue" stroke="midnightblue" points="263.55,-79.09 271.42,-72 260.85,-72.64 263.55,-79.09"/>
</g>
<!-- Node17 -->
<g id="node17" class="node">
<title>Node17</title>
<g id="a_node17"><a xlink:href="parser_8c.html#a2953594e876de2e3e2ec7d6f9b5c3c40" target="_top" xlink:title="Adds a given token to the first set of a non&#45;terminal.">
<polygon fill="white" stroke="black" points="450,-246.5 450,-265.5 544,-265.5 544,-246.5 450,-246.5"/>
<text text-anchor="middle" x="497" y="-253.5" font-family="Helvetica,sans-Serif" font-size="10.00">add_to_first_set</text>
</a>
</g>
</g>
<!-- Node16&#45;&gt;Node17 -->
<g id="edge20" class="edge">
<title>Node16&#45;&gt;Node17</title>
<path fill="none" stroke="midnightblue" d="M369.84,-256C391.77,-256 417.43,-256 439.86,-256"/>
<polygon fill="midnightblue" stroke="midnightblue" points="439.92,-259.5 449.92,-256 439.92,-252.5 439.92,-259.5"/>
</g>
<!-- Node19 -->
<g id="node19" class="node">
<title>Node19</title>
<g id="a_node19"><a xlink:href="parser_8c.html#ad57d45985f7e4a7acb09e809a7da75d8" target="_top" xlink:title="Adds a given token to the follow set of a non&#45;terminal.">
<polygon fill="white" stroke="black" points="444.5,-208.5 444.5,-227.5 549.5,-227.5 549.5,-208.5 444.5,-208.5"/>
<text text-anchor="middle" x="497" y="-215.5" font-family="Helvetica,sans-Serif" font-size="10.00">add_to_follow_set</text>
</a>
</g>
</g>
<!-- Node18&#45;&gt;Node19 -->
<g id="edge22" class="edge">
<title>Node18&#45;&gt;Node19</title>
<path fill="none" stroke="midnightblue" d="M375.15,-218C393.98,-218 415.05,-218 434.25,-218"/>
<polygon fill="midnightblue" stroke="midnightblue" points="434.4,-221.5 444.4,-218 434.4,-214.5 434.4,-221.5"/>
</g>
<!-- Node20 -->
<g id="node20" class="node">
<title>Node20</title>
<g id="a_node20"><a xlink:href="parser_8c.html#a66e98027ec5a1a7c880689156e4b664d" target="_top" xlink:title="Computes the first set of a sequence of symbols (terminals and non&#45;terminals).">
<polygon fill="white" stroke="black" points="422,-170.5 422,-189.5 572,-189.5 572,-170.5 422,-170.5"/>
<text text-anchor="middle" x="497" y="-177.5" font-family="Helvetica,sans-Serif" font-size="10.00">compute_first_of_sequence</text>
</a>
</g>
</g>
<!-- Node18&#45;&gt;Node20 -->
<g id="edge23" class="edge">
<title>Node18&#45;&gt;Node20</title>
<path fill="none" stroke="midnightblue" d="M363.29,-208.41C387.03,-203.33 416.38,-197.04 441.44,-191.68"/>
<polygon fill="midnightblue" stroke="midnightblue" points="442.49,-195.04 451.53,-189.52 441.02,-188.19 442.49,-195.04"/>
</g>
<!-- Node21 -->
<g id="node21" class="node">
<title>Node21</title>
<g id="a_node21"><a xlink:href="parser_8c.html#a2fb545f0baa318bfb9bdbab0e882cd32" target="_top" xlink:title="Adds a given token type to a set if it does not already exist.">
<polygon fill="white" stroke="black" points="637,-170.5 637,-189.5 707,-189.5 707,-170.5 637,-170.5"/>
<text text-anchor="middle" x="672" y="-177.5" font-family="Helvetica,sans-Serif" font-size="10.00">add_to_set</text>
</a>
</g>
</g>
<!-- Node20&#45;&gt;Node21 -->
<g id="edge24" class="edge">
<title>Node20&#45;&gt;Node21</title>
<path fill="none" stroke="midnightblue" d="M572.12,-180C590.63,-180 609.91,-180 626.47,-180"/>
<polygon fill="midnightblue" stroke="midnightblue" points="626.93,-183.5 636.93,-180 626.93,-176.5 626.93,-183.5"/>
</g>
<!-- Node24&#45;&gt;Node20 -->
<g id="edge28" class="edge">
<title>Node24&#45;&gt;Node20</title>
<path fill="none" stroke="midnightblue" d="M377.11,-180C388.2,-180 400.01,-180 411.7,-180"/>
<polygon fill="midnightblue" stroke="midnightblue" points="411.94,-183.5 421.94,-180 411.94,-176.5 411.94,-183.5"/>
</g>
<!-- Node25 -->
<g id="node25" class="node">
<title>Node25</title>
<g id="a_node25"><a xlink:href="hash__map_8h.html#a17fd9c089bb62d17bb6266babc287a82" target="_top" xlink:title="Inserts a production rule into the internal hash table for the LL(1) parser.">
<polygon fill="white" stroke="black" points="461.5,-132.5 461.5,-151.5 532.5,-151.5 532.5,-132.5 461.5,-132.5"/>
<text text-anchor="middle" x="497" y="-139.5" font-family="Helvetica,sans-Serif" font-size="10.00">map_insert</text>
</a>
</g>
</g>
<!-- Node24&#45;&gt;Node25 -->
<g id="edge29" class="edge">
<title>Node24&#45;&gt;Node25</title>
<path fill="none" stroke="midnightblue" d="M363.29,-170.41C390.25,-164.64 424.44,-157.32 451.37,-151.56"/>
<polygon fill="midnightblue" stroke="midnightblue" points="452.26,-154.94 461.3,-149.43 450.79,-148.1 452.26,-154.94"/>
</g>
<!-- Node26&#45;&gt;Node14 -->
<g id="edge33" class="edge">
<title>Node26&#45;&gt;Node14</title>
<path fill="none" stroke="midnightblue" d="M325.93,-474.5C339.21,-491.78 367.37,-529.83 386,-565 406.17,-603.07 389.63,-626.57 422,-655 427.55,-659.87 434.19,-663.53 441.17,-666.26"/>
<polygon fill="midnightblue" stroke="midnightblue" points="440.26,-669.64 450.85,-669.44 442.45,-662.99 440.26,-669.64"/>
</g>
<!-- Node27 -->
<g id="node27" class="node">
<title>Node27</title>
<g id="a_node27"><a xlink:href="parser_8c.html#ad327f860dea11c0c1e3338a030858e0d" target="_top" xlink:title="Creates a new parse tree node corresponding to a given non&#45;terminal.">
<polygon fill="white" stroke="black" points="423,-626.5 423,-645.5 571,-645.5 571,-626.5 423,-626.5"/>
<text text-anchor="middle" x="497" y="-633.5" font-family="Helvetica,sans-Serif" font-size="10.00">create_tree_node_nonterm</text>
</a>
</g>
</g>
<!-- Node26&#45;&gt;Node27 -->
<g id="edge31" class="edge">
<title>Node26&#45;&gt;Node27</title>
<path fill="none" stroke="midnightblue" d="M325.16,-474.88C347.77,-508.4 420.24,-615.76 422,-617 424.85,-619 427.9,-620.8 431.08,-622.4"/>
<polygon fill="midnightblue" stroke="midnightblue" points="429.73,-625.63 440.29,-626.44 432.54,-619.22 429.73,-625.63"/>
</g>
<!-- Node28 -->
<g id="node28" class="node">
<title>Node28</title>
<g id="a_node28"><a xlink:href="parser_8c.html#a3bdbe5934ffe1853ff744dfef15843d8" target="_top" xlink:title="Creates a new parse tree node corresponding to a given terminal.">
<polygon fill="white" stroke="black" points="432,-588.5 432,-607.5 562,-607.5 562,-588.5 432,-588.5"/>
<text text-anchor="middle" x="497" y="-595.5" font-family="Helvetica,sans-Serif" font-size="10.00">create_tree_node_term</text>
</a>
</g>
</g>
<!-- Node26&#45;&gt;Node28 -->
<g id="edge32" class="edge">
<title>Node26&#45;&gt;Node28</title>
<path fill="none" stroke="midnightblue" d="M324.41,-474.68C338.42,-496.8 375.98,-551.26 422,-579 425.64,-581.2 429.53,-583.14 433.55,-584.86"/>
<polygon fill="midnightblue" stroke="midnightblue" points="432.52,-588.21 443.11,-588.48 435,-581.66 432.52,-588.21"/>
</g>
<!-- Node29 -->
<g id="node29" class="node">
<title>Node29</title>
<g id="a_node29"><a xlink:href="hash__map_8h.html#aa4630dffff2a5ef840da3cfd9572b79f" target="_top" xlink:title="Retrieves the production rule associated with a given key from the internal hash table.">
<polygon fill="white" stroke="black" points="463,-550.5 463,-569.5 531,-569.5 531,-550.5 463,-550.5"/>
<text text-anchor="middle" x="497" y="-557.5" font-family="Helvetica,sans-Serif" font-size="10.00">map_fetch</text>
</a>
</g>
</g>
<!-- Node26&#45;&gt;Node29 -->
<g id="edge34" class="edge">
<title>Node26&#45;&gt;Node29</title>
<path fill="none" stroke="midnightblue" d="M328.79,-474.7C346.46,-490.83 384.32,-523.15 422,-541 431.63,-545.56 442.5,-549.13 452.89,-551.88"/>
<polygon fill="midnightblue" stroke="midnightblue" points="452.1,-555.29 462.64,-554.27 453.76,-548.49 452.1,-555.29"/>
</g>
<!-- Node30 -->
<g id="node30" class="node">
<title>Node30</title>
<g id="a_node30"><a xlink:href="stack_8h.html#a0401a54893bb4a3c36be29b4f4d2a673" target="_top" xlink:title="Deallocates all memory associated with the stack.">
<polygon fill="white" stroke="black" points="454,-512.5 454,-531.5 540,-531.5 540,-512.5 454,-512.5"/>
<text text-anchor="middle" x="497" y="-519.5" font-family="Helvetica,sans-Serif" font-size="10.00">stack_cleanup</text>
</a>
</g>
</g>
<!-- Node26&#45;&gt;Node30 -->
<g id="edge35" class="edge">
<title>Node26&#45;&gt;Node30</title>
<path fill="none" stroke="midnightblue" d="M342.52,-474.6C363.35,-482.74 394.4,-494.41 422,-503 429.74,-505.41 438.01,-507.75 446.11,-509.92"/>
<polygon fill="midnightblue" stroke="midnightblue" points="445.29,-513.33 455.85,-512.47 447.07,-506.55 445.29,-513.33"/>
</g>
<!-- Node31 -->
<g id="node31" class="node">
<title>Node31</title>
<g id="a_node31"><a xlink:href="stack_8h.html#a12f8e38a7f5d0af1137cc4fff111ef3c" target="_top" xlink:title="Initializes a stack.">
<polygon fill="white" stroke="black" points="457.5,-474.5 457.5,-493.5 536.5,-493.5 536.5,-474.5 457.5,-474.5"/>
<text text-anchor="middle" x="497" y="-481.5" font-family="Helvetica,sans-Serif" font-size="10.00">stack_create</text>
</a>
</g>
</g>
<!-- Node26&#45;&gt;Node31 -->
<g id="edge36" class="edge">
<title>Node26&#45;&gt;Node31</title>
<path fill="none" stroke="midnightblue" d="M376.13,-471.17C399.11,-473.63 425.28,-476.43 447.3,-478.79"/>
<polygon fill="midnightblue" stroke="midnightblue" points="447.1,-482.29 457.41,-479.87 447.84,-475.32 447.1,-482.29"/>
</g>
<!-- Node32 -->
<g id="node32" class="node">
<title>Node32</title>
<g id="a_node32"><a xlink:href="stack_8h.html#a4bf088087d46031158e6bdd2a93695f9" target="_top" xlink:title="Determines if the stack is empty.">
<polygon fill="white" stroke="black" points="457,-436.5 457,-455.5 537,-455.5 537,-436.5 457,-436.5"/>
<text text-anchor="middle" x="497" y="-443.5" font-family="Helvetica,sans-Serif" font-size="10.00">stack_empty</text>
</a>
</g>
</g>
<!-- Node26&#45;&gt;Node32 -->
<g id="edge37" class="edge">
<title>Node26&#45;&gt;Node32</title>
<path fill="none" stroke="midnightblue" d="M376.13,-458.83C398.94,-456.39 424.89,-453.61 446.79,-451.27"/>
<polygon fill="midnightblue" stroke="midnightblue" points="447.3,-454.73 456.87,-450.19 446.55,-447.77 447.3,-454.73"/>
</g>
<!-- Node33 -->
<g id="node33" class="node">
<title>Node33</title>
<g id="a_node33"><a xlink:href="stack_8h.html#a6ee1c21725f3cd3803d491e0dcd1ecb8" target="_top" xlink:title="Removes and returns the topmost node from the stack.">
<polygon fill="white" stroke="black" points="464,-398.5 464,-417.5 530,-417.5 530,-398.5 464,-398.5"/>
<text text-anchor="middle" x="497" y="-405.5" font-family="Helvetica,sans-Serif" font-size="10.00">stack_pop</text>
</a>
</g>
</g>
<!-- Node26&#45;&gt;Node33 -->
<g id="edge38" class="edge">
<title>Node26&#45;&gt;Node33</title>
<path fill="none" stroke="midnightblue" d="M342.52,-455.4C363.35,-447.26 394.4,-435.59 422,-427 432.27,-423.81 443.46,-420.73 453.95,-418.01"/>
<polygon fill="midnightblue" stroke="midnightblue" points="454.91,-421.38 463.75,-415.53 453.2,-414.6 454.91,-421.38"/>
</g>
<!-- Node35 -->
<g id="node35" class="node">
<title>Node35</title>
<g id="a_node35"><a xlink:href="stack_8h.html#ac96c2f73b6cf10cdf5189330c7b02be8" target="_top" xlink:title="Adds a node to the top of the stack.">
<polygon fill="white" stroke="black" points="461.5,-322.5 461.5,-341.5 532.5,-341.5 532.5,-322.5 461.5,-322.5"/>
<text text-anchor="middle" x="497" y="-329.5" font-family="Helvetica,sans-Serif" font-size="10.00">stack_push</text>
</a>
</g>
</g>
<!-- Node26&#45;&gt;Node35 -->
<g id="edge40" class="edge">
<title>Node26&#45;&gt;Node35</title>
<path fill="none" stroke="midnightblue" d="M330.17,-455.4C344.2,-443.58 368.09,-422.54 386,-402 404.24,-381.09 399.16,-366.75 422,-351 430.77,-344.95 441.32,-340.83 451.68,-338.02"/>
<polygon fill="midnightblue" stroke="midnightblue" points="452.55,-341.41 461.48,-335.7 450.94,-334.59 452.55,-341.41"/>
</g>
<!-- Node36 -->
<g id="node36" class="node">
<title>Node36</title>
<g id="a_node36"><a xlink:href="stack_8h.html#af0faaa6f406636514cacd26f54be0a19" target="_top" xlink:title="Returns the topmost node from the stack without removing it.">
<polygon fill="white" stroke="black" points="465,-360.5 465,-379.5 529,-379.5 529,-360.5 465,-360.5"/>
<text text-anchor="middle" x="497" y="-367.5" font-family="Helvetica,sans-Serif" font-size="10.00">stack_top</text>
</a>
</g>
</g>
<!-- Node26&#45;&gt;Node36 -->
<g id="edge41" class="edge">
<title>Node26&#45;&gt;Node36</title>
<path fill="none" stroke="midnightblue" d="M328.79,-455.3C346.46,-439.17 384.32,-406.85 422,-389 432.28,-384.13 443.97,-380.39 454.98,-377.57"/>
<polygon fill="midnightblue" stroke="midnightblue" points="455.92,-380.95 464.84,-375.24 454.3,-374.14 455.92,-380.95"/>
</g>
<!-- Node26&#45;&gt;Node37 -->
<g id="edge43" class="edge">
<title>Node26&#45;&gt;Node37</title>
<path fill="none" stroke="midnightblue" d="M331.8,-455.45C346.73,-444.15 370.84,-424.06 386,-402 410.17,-366.83 389.89,-341.1 422,-313 427.56,-308.14 434.2,-304.49 441.19,-301.76"/>
<polygon fill="midnightblue" stroke="midnightblue" points="442.46,-305.03 450.87,-298.58 440.28,-298.38 442.46,-305.03"/>
</g>
<!-- Node34 -->
<g id="node34" class="node">
<title>Node34</title>
<g id="a_node34"><a xlink:href="stack_8c.html#a4bf088087d46031158e6bdd2a93695f9" target="_top" xlink:title="Determines if the stack is empty.">
<polygon fill="white" stroke="black" points="632,-379.5 632,-398.5 712,-398.5 712,-379.5 632,-379.5"/>
<text text-anchor="middle" x="672" y="-386.5" font-family="Helvetica,sans-Serif" font-size="10.00">stack_empty</text>
</a>
</g>
</g>
<!-- Node33&#45;&gt;Node34 -->
<g id="edge39" class="edge">
<title>Node33&#45;&gt;Node34</title>
<path fill="none" stroke="midnightblue" d="M530.13,-404.47C555.83,-401.65 592.3,-397.64 621.69,-394.42"/>
<polygon fill="midnightblue" stroke="midnightblue" points="622.2,-397.88 631.76,-393.31 621.44,-390.92 622.2,-397.88"/>
</g>
<!-- Node36&#45;&gt;Node34 -->
<g id="edge42" class="edge">
<title>Node36&#45;&gt;Node34</title>
<path fill="none" stroke="midnightblue" d="M529.33,-373.44C555.02,-376.26 591.87,-380.31 621.54,-383.57"/>
<polygon fill="midnightblue" stroke="midnightblue" points="621.38,-387.07 631.71,-384.68 622.15,-380.11 621.38,-387.07"/>
</g>
<!-- Node40 -->
<g id="node40" class="node">
<title>Node40</title>
<g id="a_node40"><a xlink:href="parser_8c.html#aad20e8a12c7bfb6d97191c3a26363f1a" target="_top" xlink:title="Deallocates all memory associated with the parse tree.">
<polygon fill="white" stroke="black" points="261.5,-0.5 261.5,-19.5 373.5,-19.5 373.5,-0.5 261.5,-0.5"/>
<text text-anchor="middle" x="317.5" y="-7.5" font-family="Helvetica,sans-Serif" font-size="10.00">parse_tree_cleanup</text>
</a>
</g>
</g>
<!-- Node39&#45;&gt;Node40 -->
<g id="edge46" class="edge">
<title>Node39&#45;&gt;Node40</title>
<path fill="none" stroke="midnightblue" d="M199.23,-170.44C204.29,-167.97 209.01,-164.87 213,-161 251.12,-123.99 215.28,-88.06 249,-47 257.02,-37.24 268.32,-29.64 279.38,-23.94"/>
<polygon fill="midnightblue" stroke="midnightblue" points="281.01,-27.04 288.55,-19.59 278.01,-20.72 281.01,-27.04"/>
</g>
<!-- Node40&#45;&gt;Node40 -->
<g id="edge47" class="edge">
<title>Node40&#45;&gt;Node40</title>
<path fill="none" stroke="midnightblue" d="M290.99,-19.76C278.09,-28.57 286.93,-38 317.5,-38 338.04,-38 348.77,-33.74 349.69,-28.27"/>
<polygon fill="midnightblue" stroke="midnightblue" points="352.47,-26.14 344.01,-19.76 346.64,-30.02 352.47,-26.14"/>
</g>
<!-- Node41&#45;&gt;Node37 -->
<g id="edge52" class="edge">
<title>Node41&#45;&gt;Node37</title>
<path fill="none" stroke="midnightblue" d="M195.93,-331.53C245.01,-339.12 321.68,-346.18 386,-331 403.41,-326.89 405.24,-319.26 422,-313 428.51,-310.57 435.46,-308.33 442.39,-306.32"/>
<polygon fill="midnightblue" stroke="midnightblue" points="443.77,-309.57 452.48,-303.53 441.91,-302.82 443.77,-309.57"/>
</g>
<!-- Node42 -->
<g id="node42" class="node">
<title>Node42</title>
<g id="a_node42"><a xlink:href="parser_8c.html#a8c9a76dff4106d2e5eb33c33aa0c85f5" target="_top" xlink:title="Prints the parse tree using in&#45;order traversal in the specified file.">
<polygon fill="white" stroke="black" points="249.5,-284.5 249.5,-303.5 385.5,-303.5 385.5,-284.5 249.5,-284.5"/>
<text text-anchor="middle" x="317.5" y="-291.5" font-family="Helvetica,sans-Serif" font-size="10.00">print_parse_tree_inorder</text>
</a>
</g>
</g>
<!-- Node41&#45;&gt;Node42 -->
<g id="edge49" class="edge">
<title>Node41&#45;&gt;Node42</title>
<path fill="none" stroke="midnightblue" d="M204.2,-312.44C218.47,-310.1 233.86,-307.57 248.54,-305.16"/>
<polygon fill="midnightblue" stroke="midnightblue" points="249.26,-308.59 258.56,-303.51 248.13,-301.68 249.26,-308.59"/>
</g>
<!-- Node42&#45;&gt;Node37 -->
<g id="edge51" class="edge">
<title>Node42&#45;&gt;Node37</title>
<path fill="none" stroke="midnightblue" d="M385.61,-294C403.82,-294 423.34,-294 440.82,-294"/>
<polygon fill="midnightblue" stroke="midnightblue" points="440.85,-297.5 450.85,-294 440.85,-290.5 440.85,-297.5"/>
</g>
<!-- Node42&#45;&gt;Node42 -->
<g id="edge50" class="edge">
<title>Node42&#45;&gt;Node42</title>
<path fill="none" stroke="midnightblue" d="M290.99,-303.76C278.09,-312.57 286.93,-322 317.5,-322 338.04,-322 348.77,-317.74 349.69,-312.27"/>
<polygon fill="midnightblue" stroke="midnightblue" points="352.47,-310.14 344.01,-303.76 346.64,-314.02 352.47,-310.14"/>
</g>
</g>
</svg>
