<?xml version="1.0" encoding="UTF-8" standalone="no"?>
<!DOCTYPE svg PUBLIC "-//W3C//DTD SVG 1.1//EN"
 "http://www.w3.org/Graphics/SVG/1.1/DTD/svg11.dtd">
<!-- Generated by graphviz version 2.43.0 (0)
 -->
<!-- Title: src/main/hash_map.c Pages: 1 -->
<svg width="239pt" height="263pt"
 viewBox="0.00 0.00 239.00 263.00" xmlns="http://www.w3.org/2000/svg" xmlns:xlink="http://www.w3.org/1999/xlink">
<g id="graph0" class="graph" transform="scale(1 1) rotate(0) translate(4 259)">
<title>src/main/hash_map.c</title>
<polygon fill="white" stroke="transparent" points="-4,4 -4,-259 235,-259 235,4 -4,4"/>
<!-- Node1 -->
<g id="node1" class="node">
<title>Node1</title>
<g id="a_node1"><a xlink:title=" ">
<polygon fill="#bfbfbf" stroke="black" points="70,-235.5 70,-254.5 190,-254.5 190,-235.5 70,-235.5"/>
<text text-anchor="middle" x="130" y="-242.5" font-family="Helvetica,sans-Serif" font-size="10.00">src/main/hash_map.c</text>
</a>
</g>
</g>
<!-- Node2 -->
<g id="node2" class="node">
<title>Node2</title>
<g id="a_node2"><a xlink:href="hash__map_8h.html" target="_top" xlink:title=" ">
<polygon fill="white" stroke="black" points="82,-168.5 82,-198.5 178,-198.5 178,-168.5 82,-168.5"/>
<text text-anchor="start" x="90" y="-186.5" font-family="Helvetica,sans-Serif" font-size="10.00">../../include/hash</text>
<text text-anchor="middle" x="130" y="-175.5" font-family="Helvetica,sans-Serif" font-size="10.00">_map.h</text>
</a>
</g>
</g>
<!-- Node1&#45;&gt;Node2 -->
<g id="edge1" class="edge">
<title>Node1&#45;&gt;Node2</title>
<path fill="none" stroke="midnightblue" d="M130,-235.48C130,-228.47 130,-218.19 130,-208.7"/>
<polygon fill="midnightblue" stroke="midnightblue" points="133.5,-208.52 130,-198.52 126.5,-208.52 133.5,-208.52"/>
</g>
<!-- Node3 -->
<g id="node3" class="node">
<title>Node3</title>
<g id="a_node3"><a xlink:title=" ">
<polygon fill="white" stroke="#bfbfbf" points="0,-0.5 0,-19.5 50,-19.5 50,-0.5 0,-0.5"/>
<text text-anchor="middle" x="25" y="-7.5" font-family="Helvetica,sans-Serif" font-size="10.00">stdio.h</text>
</a>
</g>
</g>
<!-- Node2&#45;&gt;Node3 -->
<g id="edge2" class="edge">
<title>Node2&#45;&gt;Node3</title>
<path fill="none" stroke="midnightblue" d="M81.81,-173.24C58.63,-166.1 32.92,-153.63 19,-132 -1.22,-100.59 9.51,-54.51 17.97,-29.25"/>
<polygon fill="midnightblue" stroke="midnightblue" points="21.28,-30.39 21.36,-19.79 14.69,-28.02 21.28,-30.39"/>
</g>
<!-- Node4 -->
<g id="node4" class="node">
<title>Node4</title>
<g id="a_node4"><a xlink:title=" ">
<polygon fill="white" stroke="#bfbfbf" points="86.5,-0.5 86.5,-19.5 139.5,-19.5 139.5,-0.5 86.5,-0.5"/>
<text text-anchor="middle" x="113" y="-7.5" font-family="Helvetica,sans-Serif" font-size="10.00">stdlib.h</text>
</a>
</g>
</g>
<!-- Node2&#45;&gt;Node4 -->
<g id="edge3" class="edge">
<title>Node2&#45;&gt;Node4</title>
<path fill="none" stroke="midnightblue" d="M136.39,-168.43C146.27,-144.62 162.75,-95.19 149,-56 145.21,-45.21 137.63,-35.08 130.4,-27.18"/>
<polygon fill="midnightblue" stroke="midnightblue" points="132.67,-24.49 123.16,-19.81 127.67,-29.4 132.67,-24.49"/>
</g>
<!-- Node5 -->
<g id="node5" class="node">
<title>Node5</title>
<g id="a_node5"><a xlink:title=" ">
<polygon fill="white" stroke="#bfbfbf" points="169,-0.5 169,-19.5 231,-19.5 231,-0.5 169,-0.5"/>
<text text-anchor="middle" x="200" y="-7.5" font-family="Helvetica,sans-Serif" font-size="10.00">stdbool.h</text>
</a>
</g>
</g>
<!-- Node2&#45;&gt;Node5 -->
<g id="edge4" class="edge">
<title>Node2&#45;&gt;Node5</title>
<path fill="none" stroke="midnightblue" d="M141.37,-168.18C148.65,-158.44 157.87,-145 164,-132 180.31,-97.44 191.1,-53.81 196.33,-29.51"/>
<polygon fill="midnightblue" stroke="midnightblue" points="199.79,-30.04 198.39,-19.54 192.94,-28.62 199.79,-30.04"/>
</g>
<!-- Node6 -->
<g id="node6" class="node">
<title>Node6</title>
<g id="a_node6"><a xlink:href="lexerDef_8h.html" target="_top" xlink:title=" ">
<polygon fill="white" stroke="black" points="74,-56.5 74,-75.5 140,-75.5 140,-56.5 74,-56.5"/>
<text text-anchor="middle" x="107" y="-63.5" font-family="Helvetica,sans-Serif" font-size="10.00">lexerDef.h</text>
</a>
</g>
</g>
<!-- Node2&#45;&gt;Node6 -->
<g id="edge5" class="edge">
<title>Node2&#45;&gt;Node6</title>
<path fill="none" stroke="midnightblue" d="M127.18,-168.34C123.04,-147.53 115.3,-108.66 110.7,-85.58"/>
<polygon fill="midnightblue" stroke="midnightblue" points="114.11,-84.79 108.73,-75.67 107.25,-86.16 114.11,-84.79"/>
</g>
<!-- Node7 -->
<g id="node7" class="node">
<title>Node7</title>
<g id="a_node7"><a xlink:href="parserDef_8h.html" target="_top" xlink:title=" ">
<polygon fill="white" stroke="black" points="28.5,-112.5 28.5,-131.5 101.5,-131.5 101.5,-112.5 28.5,-112.5"/>
<text text-anchor="middle" x="65" y="-119.5" font-family="Helvetica,sans-Serif" font-size="10.00">parserDef.h</text>
</a>
</g>
</g>
<!-- Node2&#45;&gt;Node7 -->
<g id="edge9" class="edge">
<title>Node2&#45;&gt;Node7</title>
<path fill="none" stroke="midnightblue" d="M114.6,-168.4C104.76,-159.4 92.01,-147.72 81.89,-138.47"/>
<polygon fill="midnightblue" stroke="midnightblue" points="84.2,-135.83 74.46,-131.66 79.47,-140.99 84.2,-135.83"/>
</g>
<!-- Node6&#45;&gt;Node3 -->
<g id="edge6" class="edge">
<title>Node6&#45;&gt;Node3</title>
<path fill="none" stroke="midnightblue" d="M93.83,-56.32C81.15,-47.98 61.77,-35.21 46.79,-25.35"/>
<polygon fill="midnightblue" stroke="midnightblue" points="48.42,-22.23 38.14,-19.65 44.57,-28.08 48.42,-22.23"/>
</g>
<!-- Node6&#45;&gt;Node4 -->
<g id="edge7" class="edge">
<title>Node6&#45;&gt;Node4</title>
<path fill="none" stroke="midnightblue" d="M107.99,-56.08C108.79,-48.93 109.93,-38.64 110.92,-29.69"/>
<polygon fill="midnightblue" stroke="midnightblue" points="114.4,-30.08 112.03,-19.75 107.44,-29.3 114.4,-30.08"/>
</g>
<!-- Node6&#45;&gt;Node5 -->
<g id="edge8" class="edge">
<title>Node6&#45;&gt;Node5</title>
<path fill="none" stroke="midnightblue" d="M121.94,-56.32C136.59,-47.82 159.13,-34.73 176.24,-24.8"/>
<polygon fill="midnightblue" stroke="midnightblue" points="178.2,-27.7 185.1,-19.65 174.69,-21.65 178.2,-27.7"/>
</g>
<!-- Node7&#45;&gt;Node6 -->
<g id="edge10" class="edge">
<title>Node7&#45;&gt;Node6</title>
<path fill="none" stroke="midnightblue" d="M71.94,-112.08C77.93,-104.38 86.75,-93.03 94.05,-83.65"/>
<polygon fill="midnightblue" stroke="midnightblue" points="96.82,-85.79 100.19,-75.75 91.29,-81.5 96.82,-85.79"/>
</g>
</g>
</svg>
