<?xml version="1.0" encoding="UTF-8" standalone="no"?>
<!DOCTYPE svg PUBLIC "-//W3C//DTD SVG 1.1//EN"
 "http://www.w3.org/Graphics/SVG/1.1/DTD/svg11.dtd">
<!-- Generated by graphviz version 2.43.0 (0)
 -->
<!-- Title: map_fetch Pages: 1 -->
<svg width="414pt" height="66pt"
 viewBox="0.00 0.00 414.00 66.00" xmlns="http://www.w3.org/2000/svg" xmlns:xlink="http://www.w3.org/1999/xlink">
<g id="graph0" class="graph" transform="scale(1 1) rotate(0) translate(4 62)">
<title>map_fetch</title>
<polygon fill="white" stroke="transparent" points="-4,4 -4,-62 410,-62 410,4 -4,4"/>
<!-- Node1 -->
<g id="node1" class="node">
<title>Node1</title>
<g id="a_node1"><a xlink:title="Retrieves the production rule associated with a given key from the internal hash table.">
<polygon fill="#bfbfbf" stroke="black" points="338,-19.5 338,-38.5 406,-38.5 406,-19.5 338,-19.5"/>
<text text-anchor="middle" x="372" y="-26.5" font-family="Helvetica,sans-Serif" font-size="10.00">map_fetch</text>
</a>
</g>
</g>
<!-- Node2 -->
<g id="node2" class="node">
<title>Node2</title>
<g id="a_node2"><a xlink:href="parser_8c.html#a385276c7e31aeff5ad9c22370300ced6" target="_top" xlink:title="Generates a parse tree for the given source code.">
<polygon fill="white" stroke="black" points="185,-38.5 185,-57.5 302,-57.5 302,-38.5 185,-38.5"/>
<text text-anchor="middle" x="243.5" y="-45.5" font-family="Helvetica,sans-Serif" font-size="10.00">generate_parse_tree</text>
</a>
</g>
</g>
<!-- Node1&#45;&gt;Node2 -->
<g id="edge1" class="edge">
<title>Node1&#45;&gt;Node2</title>
<path fill="none" stroke="midnightblue" d="M327.76,-35.49C319.61,-36.72 310.97,-38.02 302.46,-39.29"/>
<polygon fill="midnightblue" stroke="midnightblue" points="328.39,-38.94 337.76,-33.99 327.35,-32.02 328.39,-38.94"/>
</g>
<!-- Node5 -->
<g id="node5" class="node">
<title>Node5</title>
<g id="a_node5"><a xlink:href="parser_8c.html#a08659a3e07cbbaa0a0b7234f35654876" target="_top" xlink:title="Prints the parsing table.">
<polygon fill="white" stroke="black" points="194.5,-0.5 194.5,-19.5 292.5,-19.5 292.5,-0.5 194.5,-0.5"/>
<text text-anchor="middle" x="243.5" y="-7.5" font-family="Helvetica,sans-Serif" font-size="10.00">print_parse_map</text>
</a>
</g>
</g>
<!-- Node1&#45;&gt;Node5 -->
<g id="edge4" class="edge">
<title>Node1&#45;&gt;Node5</title>
<path fill="none" stroke="midnightblue" d="M327.73,-22.5C316.46,-20.81 304.25,-18.97 292.74,-17.25"/>
<polygon fill="midnightblue" stroke="midnightblue" points="327.35,-25.98 337.76,-24.01 328.39,-19.06 327.35,-25.98"/>
</g>
<!-- Node3 -->
<g id="node3" class="node">
<title>Node3</title>
<g id="a_node3"><a xlink:href="parser_8h.html#af8e858bd867bc61808a62e29963b3497" target="_top" xlink:title="Parses the given code based on the specified grammar.">
<polygon fill="white" stroke="black" points="77,-38.5 77,-57.5 149,-57.5 149,-38.5 77,-38.5"/>
<text text-anchor="middle" x="113" y="-45.5" font-family="Helvetica,sans-Serif" font-size="10.00">parse_code</text>
</a>
</g>
</g>
<!-- Node2&#45;&gt;Node3 -->
<g id="edge2" class="edge">
<title>Node2&#45;&gt;Node3</title>
<path fill="none" stroke="midnightblue" d="M174.38,-48C165.64,-48 157,-48 149.1,-48"/>
<polygon fill="midnightblue" stroke="midnightblue" points="174.64,-51.5 184.64,-48 174.64,-44.5 174.64,-51.5"/>
</g>
<!-- Node4 -->
<g id="node4" class="node">
<title>Node4</title>
<g id="a_node4"><a xlink:href="driver_8c.html#a0ddf1224851353fc92bfbff6f499fa97" target="_top" xlink:title=" ">
<polygon fill="white" stroke="black" points="0,-38.5 0,-57.5 41,-57.5 41,-38.5 0,-38.5"/>
<text text-anchor="middle" x="20.5" y="-45.5" font-family="Helvetica,sans-Serif" font-size="10.00">main</text>
</a>
</g>
</g>
<!-- Node3&#45;&gt;Node4 -->
<g id="edge3" class="edge">
<title>Node3&#45;&gt;Node4</title>
<path fill="none" stroke="midnightblue" d="M66.67,-48C57.67,-48 48.68,-48 41.11,-48"/>
<polygon fill="midnightblue" stroke="midnightblue" points="66.75,-51.5 76.75,-48 66.75,-44.5 66.75,-51.5"/>
</g>
</g>
</svg>
