<?xml version="1.0" encoding="UTF-8" standalone="no"?>
<!DOCTYPE svg PUBLIC "-//W3C//DTD SVG 1.1//EN"
 "http://www.w3.org/Graphics/SVG/1.1/DTD/svg11.dtd">
<!-- Generated by graphviz version 2.43.0 (0)
 -->
<!-- Title: include/hash_map.h Pages: 1 -->
<svg width="239pt" height="196pt"
 viewBox="0.00 0.00 239.00 196.00" xmlns="http://www.w3.org/2000/svg" xmlns:xlink="http://www.w3.org/1999/xlink">
<g id="graph0" class="graph" transform="scale(1 1) rotate(0) translate(4 192)">
<title>include/hash_map.h</title>
<polygon fill="white" stroke="transparent" points="-4,4 -4,-192 235,-192 235,4 -4,4"/>
<!-- Node1 -->
<g id="node1" class="node">
<title>Node1</title>
<g id="a_node1"><a xlink:title=" ">
<polygon fill="#bfbfbf" stroke="black" points="73,-168.5 73,-187.5 187,-187.5 187,-168.5 73,-168.5"/>
<text text-anchor="middle" x="130" y="-175.5" font-family="Helvetica,sans-Serif" font-size="10.00">include/hash_map.h</text>
</a>
</g>
</g>
<!-- Node2 -->
<g id="node2" class="node">
<title>Node2</title>
<g id="a_node2"><a xlink:title=" ">
<polygon fill="white" stroke="#bfbfbf" points="0,-0.5 0,-19.5 50,-19.5 50,-0.5 0,-0.5"/>
<text text-anchor="middle" x="25" y="-7.5" font-family="Helvetica,sans-Serif" font-size="10.00">stdio.h</text>
</a>
</g>
</g>
<!-- Node1&#45;&gt;Node2 -->
<g id="edge1" class="edge">
<title>Node1&#45;&gt;Node2</title>
<path fill="none" stroke="midnightblue" d="M75.92,-168.47C54.48,-162.15 31.9,-151.14 19,-132 -1.98,-100.86 9.22,-54.32 17.92,-28.99"/>
<polygon fill="midnightblue" stroke="midnightblue" points="21.22,-30.14 21.39,-19.54 14.65,-27.72 21.22,-30.14"/>
</g>
<!-- Node3 -->
<g id="node3" class="node">
<title>Node3</title>
<g id="a_node3"><a xlink:title=" ">
<polygon fill="white" stroke="#bfbfbf" points="86.5,-0.5 86.5,-19.5 139.5,-19.5 139.5,-0.5 86.5,-0.5"/>
<text text-anchor="middle" x="113" y="-7.5" font-family="Helvetica,sans-Serif" font-size="10.00">stdlib.h</text>
</a>
</g>
</g>
<!-- Node1&#45;&gt;Node3 -->
<g id="edge2" class="edge">
<title>Node1&#45;&gt;Node3</title>
<path fill="none" stroke="midnightblue" d="M134.21,-168.23C143.37,-147.92 163.15,-96.33 149,-56 145.21,-45.21 137.63,-35.08 130.4,-27.18"/>
<polygon fill="midnightblue" stroke="midnightblue" points="132.67,-24.49 123.16,-19.81 127.67,-29.4 132.67,-24.49"/>
</g>
<!-- Node4 -->
<g id="node4" class="node">
<title>Node4</title>
<g id="a_node4"><a xlink:title=" ">
<polygon fill="white" stroke="#bfbfbf" points="169,-0.5 169,-19.5 231,-19.5 231,-0.5 169,-0.5"/>
<text text-anchor="middle" x="200" y="-7.5" font-family="Helvetica,sans-Serif" font-size="10.00">stdbool.h</text>
</a>
</g>
</g>
<!-- Node1&#45;&gt;Node4 -->
<g id="edge3" class="edge">
<title>Node1&#45;&gt;Node4</title>
<path fill="none" stroke="midnightblue" d="M137.79,-168.28C145.18,-159.62 156.14,-145.68 163,-132 180.17,-97.76 191.12,-54.02 196.35,-29.61"/>
<polygon fill="midnightblue" stroke="midnightblue" points="199.83,-30.09 198.41,-19.59 192.97,-28.68 199.83,-30.09"/>
</g>
<!-- Node5 -->
<g id="node5" class="node">
<title>Node5</title>
<g id="a_node5"><a xlink:href="lexerDef_8h.html" target="_top" xlink:title=" ">
<polygon fill="white" stroke="black" points="74,-56.5 74,-75.5 140,-75.5 140,-56.5 74,-56.5"/>
<text text-anchor="middle" x="107" y="-63.5" font-family="Helvetica,sans-Serif" font-size="10.00">lexerDef.h</text>
</a>
</g>
</g>
<!-- Node1&#45;&gt;Node5 -->
<g id="edge4" class="edge">
<title>Node1&#45;&gt;Node5</title>
<path fill="none" stroke="midnightblue" d="M128.2,-168.37C124.48,-150.62 115.92,-109.67 110.89,-85.6"/>
<polygon fill="midnightblue" stroke="midnightblue" points="114.27,-84.66 108.8,-75.59 107.42,-86.1 114.27,-84.66"/>
</g>
<!-- Node6 -->
<g id="node6" class="node">
<title>Node6</title>
<g id="a_node6"><a xlink:href="parserDef_8h.html" target="_top" xlink:title=" ">
<polygon fill="white" stroke="black" points="28.5,-112.5 28.5,-131.5 101.5,-131.5 101.5,-112.5 28.5,-112.5"/>
<text text-anchor="middle" x="65" y="-119.5" font-family="Helvetica,sans-Serif" font-size="10.00">parserDef.h</text>
</a>
</g>
</g>
<!-- Node1&#45;&gt;Node6 -->
<g id="edge8" class="edge">
<title>Node1&#45;&gt;Node6</title>
<path fill="none" stroke="midnightblue" d="M119.56,-168.32C109.85,-160.26 95.18,-148.08 83.5,-138.37"/>
<polygon fill="midnightblue" stroke="midnightblue" points="85.56,-135.53 75.63,-131.83 81.09,-140.92 85.56,-135.53"/>
</g>
<!-- Node5&#45;&gt;Node2 -->
<g id="edge5" class="edge">
<title>Node5&#45;&gt;Node2</title>
<path fill="none" stroke="midnightblue" d="M93.83,-56.32C81.15,-47.98 61.77,-35.21 46.79,-25.35"/>
<polygon fill="midnightblue" stroke="midnightblue" points="48.42,-22.23 38.14,-19.65 44.57,-28.08 48.42,-22.23"/>
</g>
<!-- Node5&#45;&gt;Node3 -->
<g id="edge6" class="edge">
<title>Node5&#45;&gt;Node3</title>
<path fill="none" stroke="midnightblue" d="M107.99,-56.08C108.79,-48.93 109.93,-38.64 110.92,-29.69"/>
<polygon fill="midnightblue" stroke="midnightblue" points="114.4,-30.08 112.03,-19.75 107.44,-29.3 114.4,-30.08"/>
</g>
<!-- Node5&#45;&gt;Node4 -->
<g id="edge7" class="edge">
<title>Node5&#45;&gt;Node4</title>
<path fill="none" stroke="midnightblue" d="M121.94,-56.32C136.59,-47.82 159.13,-34.73 176.24,-24.8"/>
<polygon fill="midnightblue" stroke="midnightblue" points="178.2,-27.7 185.1,-19.65 174.69,-21.65 178.2,-27.7"/>
</g>
<!-- Node6&#45;&gt;Node5 -->
<g id="edge9" class="edge">
<title>Node6&#45;&gt;Node5</title>
<path fill="none" stroke="midnightblue" d="M71.94,-112.08C77.93,-104.38 86.75,-93.03 94.05,-83.65"/>
<polygon fill="midnightblue" stroke="midnightblue" points="96.82,-85.79 100.19,-75.75 91.29,-81.5 96.82,-85.79"/>
</g>
</g>
</svg>
