<?xml version="1.0" encoding="UTF-8" standalone="no"?>
<!DOCTYPE svg PUBLIC "-//W3C//DTD SVG 1.1//EN"
 "http://www.w3.org/Graphics/SVG/1.1/DTD/svg11.dtd">
<!-- Generated by graphviz version 2.43.0 (0)
 -->
<!-- Title: include/lexer.h Pages: 1 -->
<svg width="403pt" height="140pt"
 viewBox="0.00 0.00 402.50 140.00" xmlns="http://www.w3.org/2000/svg" xmlns:xlink="http://www.w3.org/1999/xlink">
<g id="graph0" class="graph" transform="scale(1 1) rotate(0) translate(4 136)">
<title>include/lexer.h</title>
<polygon fill="white" stroke="transparent" points="-4,4 -4,-136 398.5,-136 398.5,4 -4,4"/>
<!-- Node1 -->
<g id="node1" class="node">
<title>Node1</title>
<g id="a_node1"><a xlink:title=" ">
<polygon fill="#bfbfbf" stroke="black" points="175.5,-112.5 175.5,-131.5 262.5,-131.5 262.5,-112.5 175.5,-112.5"/>
<text text-anchor="middle" x="219" y="-119.5" font-family="Helvetica,sans-Serif" font-size="10.00">include/lexer.h</text>
</a>
</g>
</g>
<!-- Node2 -->
<g id="node2" class="node">
<title>Node2</title>
<g id="a_node2"><a xlink:href="parser_8h.html" target="_top" xlink:title=" ">
<polygon fill="white" stroke="black" points="60,-56.5 60,-75.5 154,-75.5 154,-56.5 60,-56.5"/>
<text text-anchor="middle" x="107" y="-63.5" font-family="Helvetica,sans-Serif" font-size="10.00">include/parser.h</text>
</a>
</g>
</g>
<!-- Node1&#45;&gt;Node2 -->
<g id="edge1" class="edge">
<title>Node1&#45;&gt;Node2</title>
<path fill="none" stroke="midnightblue" d="M191.75,-107.86C170.98,-97.85 142.98,-84.35 124.95,-75.65"/>
<polygon fill="midnightblue" stroke="midnightblue" points="190.48,-111.13 201.01,-112.32 193.52,-104.83 190.48,-111.13"/>
</g>
<!-- Node5 -->
<g id="node5" class="node">
<title>Node5</title>
<g id="a_node5"><a xlink:href="lexer_8c.html" target="_top" xlink:title=" ">
<polygon fill="white" stroke="black" points="172.5,-56.5 172.5,-75.5 265.5,-75.5 265.5,-56.5 172.5,-56.5"/>
<text text-anchor="middle" x="219" y="-63.5" font-family="Helvetica,sans-Serif" font-size="10.00">src/main/lexer.c</text>
</a>
</g>
</g>
<!-- Node1&#45;&gt;Node5 -->
<g id="edge4" class="edge">
<title>Node1&#45;&gt;Node5</title>
<path fill="none" stroke="midnightblue" d="M219,-101.8C219,-92.91 219,-82.78 219,-75.75"/>
<polygon fill="midnightblue" stroke="midnightblue" points="215.5,-102.08 219,-112.08 222.5,-102.08 215.5,-102.08"/>
</g>
<!-- Node6 -->
<g id="node6" class="node">
<title>Node6</title>
<g id="a_node6"><a xlink:href="test__lexer_8c.html" target="_top" xlink:title=" ">
<polygon fill="white" stroke="black" points="283.5,-56.5 283.5,-75.5 394.5,-75.5 394.5,-56.5 283.5,-56.5"/>
<text text-anchor="middle" x="339" y="-63.5" font-family="Helvetica,sans-Serif" font-size="10.00">src/test/test_lexer.c</text>
</a>
</g>
</g>
<!-- Node1&#45;&gt;Node6 -->
<g id="edge5" class="edge">
<title>Node1&#45;&gt;Node6</title>
<path fill="none" stroke="midnightblue" d="M247.37,-108.23C269.82,-98.13 300.54,-84.31 320.07,-75.52"/>
<polygon fill="midnightblue" stroke="midnightblue" points="245.7,-105.15 238.01,-112.44 248.57,-111.53 245.7,-105.15"/>
</g>
<!-- Node3 -->
<g id="node3" class="node">
<title>Node3</title>
<g id="a_node3"><a xlink:href="driver_8c.html" target="_top" xlink:title=" ">
<polygon fill="white" stroke="black" points="0,-0.5 0,-19.5 98,-19.5 98,-0.5 0,-0.5"/>
<text text-anchor="middle" x="49" y="-7.5" font-family="Helvetica,sans-Serif" font-size="10.00">src/main/driver.c</text>
</a>
</g>
</g>
<!-- Node2&#45;&gt;Node3 -->
<g id="edge2" class="edge">
<title>Node2&#45;&gt;Node3</title>
<path fill="none" stroke="midnightblue" d="M90.09,-49.25C79.8,-39.67 67.03,-27.79 58.49,-19.83"/>
<polygon fill="midnightblue" stroke="midnightblue" points="87.98,-52.07 97.68,-56.32 92.75,-46.95 87.98,-52.07"/>
</g>
<!-- Node4 -->
<g id="node4" class="node">
<title>Node4</title>
<g id="a_node4"><a xlink:href="parser_8c.html" target="_top" xlink:title=" ">
<polygon fill="white" stroke="black" points="116,-0.5 116,-19.5 216,-19.5 216,-0.5 116,-0.5"/>
<text text-anchor="middle" x="166" y="-7.5" font-family="Helvetica,sans-Serif" font-size="10.00">src/main/parser.c</text>
</a>
</g>
</g>
<!-- Node2&#45;&gt;Node4 -->
<g id="edge3" class="edge">
<title>Node2&#45;&gt;Node4</title>
<path fill="none" stroke="midnightblue" d="M123.89,-49.54C134.41,-39.91 147.57,-27.87 156.35,-19.83"/>
<polygon fill="midnightblue" stroke="midnightblue" points="121.49,-46.99 116.48,-56.32 126.22,-52.15 121.49,-46.99"/>
</g>
</g>
</svg>
