<?xml version="1.0" encoding="UTF-8" standalone="no"?>
<!DOCTYPE svg PUBLIC "-//W3C//DTD SVG 1.1//EN"
 "http://www.w3.org/Graphics/SVG/1.1/DTD/svg11.dtd">
<!-- Generated by graphviz version 2.43.0 (0)
 -->
<!-- Title: get_next_token Pages: 1 -->
<svg width="963pt" height="180pt"
 viewBox="0.00 0.00 963.00 180.00" xmlns="http://www.w3.org/2000/svg" xmlns:xlink="http://www.w3.org/1999/xlink">
<g id="graph0" class="graph" transform="scale(1 1) rotate(0) translate(4 176)">
<title>get_next_token</title>
<polygon fill="white" stroke="transparent" points="-4,4 -4,-176 959,-176 959,4 -4,4"/>
<!-- Node1 -->
<g id="node1" class="node">
<title>Node1</title>
<g id="a_node1"><a xlink:title="A wrapper function that fetches the next token from the file.">
<polygon fill="#bfbfbf" stroke="black" points="0,-95.5 0,-114.5 92,-114.5 92,-95.5 0,-95.5"/>
<text text-anchor="middle" x="46" y="-102.5" font-family="Helvetica,sans-Serif" font-size="10.00">get_next_token</text>
</a>
</g>
</g>
<!-- Node2 -->
<g id="node2" class="node">
<title>Node2</title>
<g id="a_node2"><a xlink:href="lexer_8c.html#a1ede1e9739c264c7e3af07630e5a68f3" target="_top" xlink:title=" ">
<polygon fill="white" stroke="black" points="128,-95.5 128,-114.5 256,-114.5 256,-95.5 128,-95.5"/>
<text text-anchor="middle" x="192" y="-102.5" font-family="Helvetica,sans-Serif" font-size="10.00">get_next_token_helper</text>
</a>
</g>
</g>
<!-- Node1&#45;&gt;Node2 -->
<g id="edge1" class="edge">
<title>Node1&#45;&gt;Node2</title>
<path fill="none" stroke="midnightblue" d="M92.17,-105C100.29,-105 108.94,-105 117.62,-105"/>
<polygon fill="midnightblue" stroke="midnightblue" points="117.79,-108.5 127.79,-105 117.79,-101.5 117.79,-108.5"/>
</g>
<!-- Node3 -->
<g id="node3" class="node">
<title>Node3</title>
<g id="a_node3"><a xlink:href="lexer_8c.html#a78c9ef2940e04bc9cd18a764bdb9e0a5" target="_top" xlink:title="Initializes an internal twin buffer and loads the active buffer with the first chunk of the file.">
<polygon fill="white" stroke="black" points="314.5,-152.5 314.5,-171.5 380.5,-171.5 380.5,-152.5 314.5,-152.5"/>
<text text-anchor="middle" x="347.5" y="-159.5" font-family="Helvetica,sans-Serif" font-size="10.00">buffer_init</text>
</a>
</g>
</g>
<!-- Node2&#45;&gt;Node3 -->
<g id="edge2" class="edge">
<title>Node2&#45;&gt;Node3</title>
<path fill="none" stroke="midnightblue" d="M239.22,-114.62C255.82,-120.49 274.71,-127.67 292,-134 303.98,-138.39 317.52,-143.11 328.11,-147.86"/>
<polygon fill="midnightblue" stroke="midnightblue" points="326.7,-151.06 337.21,-152.4 329.83,-144.8 326.7,-151.06"/>
</g>
<!-- Node5 -->
<g id="node5" class="node">
<title>Node5</title>
<g id="a_node5"><a xlink:href="lexer_8c.html#ab8b57ff9976f6622383db94b907a00f3" target="_top" xlink:title=" ">
<polygon fill="white" stroke="black" points="307.5,-114.5 307.5,-133.5 387.5,-133.5 387.5,-114.5 307.5,-114.5"/>
<text text-anchor="middle" x="347.5" y="-121.5" font-family="Helvetica,sans-Serif" font-size="10.00">create_token</text>
</a>
</g>
</g>
<!-- Node2&#45;&gt;Node5 -->
<g id="edge5" class="edge">
<title>Node2&#45;&gt;Node5</title>
<path fill="none" stroke="midnightblue" d="M256.32,-112.84C270.01,-114.53 284.28,-116.3 297.32,-117.91"/>
<polygon fill="midnightblue" stroke="midnightblue" points="297.14,-121.42 307.49,-119.17 298,-114.47 297.14,-121.42"/>
</g>
<!-- Node6 -->
<g id="node6" class="node">
<title>Node6</title>
<g id="a_node6"><a xlink:href="symbol__table_8h.html#a838379e0d91707a08998e494fb420bf5" target="_top" xlink:title="Inserts a lexeme into the internal symbol table.">
<polygon fill="white" stroke="black" points="439,-95.5 439,-114.5 555,-114.5 555,-95.5 439,-95.5"/>
<text text-anchor="middle" x="497" y="-102.5" font-family="Helvetica,sans-Serif" font-size="10.00">symbol_table_insert</text>
</a>
</g>
</g>
<!-- Node2&#45;&gt;Node6 -->
<g id="edge13" class="edge">
<title>Node2&#45;&gt;Node6</title>
<path fill="none" stroke="midnightblue" d="M256.15,-105C306.64,-105 377.25,-105 428.78,-105"/>
<polygon fill="midnightblue" stroke="midnightblue" points="428.82,-108.5 438.82,-105 428.82,-101.5 428.82,-108.5"/>
</g>
<!-- Node11 -->
<g id="node11" class="node">
<title>Node11</title>
<g id="a_node11"><a xlink:href="lexer_8c.html#a960f17a4b92e6cce8b8edae91c728ead" target="_top" xlink:title=" ">
<polygon fill="white" stroke="black" points="292,-38.5 292,-57.5 403,-57.5 403,-38.5 292,-38.5"/>
<text text-anchor="middle" x="347.5" y="-45.5" font-family="Helvetica,sans-Serif" font-size="10.00">retract_and_update</text>
</a>
</g>
</g>
<!-- Node2&#45;&gt;Node11 -->
<g id="edge11" class="edge">
<title>Node2&#45;&gt;Node11</title>
<path fill="none" stroke="midnightblue" d="M218.69,-95.46C244.04,-86.05 282.98,-71.59 311.22,-61.1"/>
<polygon fill="midnightblue" stroke="midnightblue" points="312.57,-64.33 320.72,-57.57 310.13,-57.77 312.57,-64.33"/>
</g>
<!-- Node12 -->
<g id="node12" class="node">
<title>Node12</title>
<g id="a_node12"><a xlink:href="lexer_8c.html#a6d0bc199864425dd309933a88f06bb51" target="_top" xlink:title=" ">
<polygon fill="white" stroke="black" points="309.5,-0.5 309.5,-19.5 385.5,-19.5 385.5,-0.5 309.5,-0.5"/>
<text text-anchor="middle" x="347.5" y="-7.5" font-family="Helvetica,sans-Serif" font-size="10.00">swap_buffer</text>
</a>
</g>
</g>
<!-- Node2&#45;&gt;Node12 -->
<g id="edge12" class="edge">
<title>Node2&#45;&gt;Node12</title>
<path fill="none" stroke="midnightblue" d="M203.2,-95.36C220.34,-79.59 256.54,-48.15 292,-29 295.93,-26.88 300.13,-24.92 304.41,-23.14"/>
<polygon fill="midnightblue" stroke="midnightblue" points="305.73,-26.38 313.78,-19.5 303.19,-19.85 305.73,-26.38"/>
</g>
<!-- Node3&#45;&gt;Node2 -->
<g id="edge4" class="edge">
<title>Node3&#45;&gt;Node2</title>
<path fill="none" stroke="midnightblue" d="M314.45,-159.77C307.06,-157.43 299.25,-154.65 292,-152 264.2,-141.82 232.25,-129.43 212.35,-119.4"/>
<polygon fill="midnightblue" stroke="midnightblue" points="213.83,-116.22 203.36,-114.54 210.49,-122.37 213.83,-116.22"/>
</g>
<!-- Node4 -->
<g id="node4" class="node">
<title>Node4</title>
<g id="a_node4"><a xlink:href="lexer_8c.html#a67dd8f227181df843e25a314e262a10c" target="_top" xlink:title="Deallocates the twin buffer (automatically called at program termination).">
<polygon fill="white" stroke="black" points="452.5,-152.5 452.5,-171.5 541.5,-171.5 541.5,-152.5 452.5,-152.5"/>
<text text-anchor="middle" x="497" y="-159.5" font-family="Helvetica,sans-Serif" font-size="10.00">buffer_cleanup</text>
</a>
</g>
</g>
<!-- Node3&#45;&gt;Node4 -->
<g id="edge3" class="edge">
<title>Node3&#45;&gt;Node4</title>
<path fill="none" stroke="midnightblue" d="M380.51,-162C398.48,-162 421.39,-162 442.06,-162"/>
<polygon fill="midnightblue" stroke="midnightblue" points="442.31,-165.5 452.31,-162 442.31,-158.5 442.31,-165.5"/>
</g>
<!-- Node5&#45;&gt;Node6 -->
<g id="edge6" class="edge">
<title>Node5&#45;&gt;Node6</title>
<path fill="none" stroke="midnightblue" d="M387.64,-118.96C400.28,-117.33 414.67,-115.48 428.74,-113.66"/>
<polygon fill="midnightblue" stroke="midnightblue" points="429.43,-117.1 438.9,-112.36 428.53,-110.16 429.43,-117.1"/>
</g>
<!-- Node7 -->
<g id="node7" class="node">
<title>Node7</title>
<g id="a_node7"><a xlink:href="symbol__table_8c.html#af00e4a3f1778752600e745a5f825e3ac" target="_top" xlink:title=" ">
<polygon fill="white" stroke="black" points="591,-95.5 591,-114.5 708,-114.5 708,-95.5 591,-95.5"/>
<text text-anchor="middle" x="649.5" y="-102.5" font-family="Helvetica,sans-Serif" font-size="10.00">symbol_table_resize</text>
</a>
</g>
</g>
<!-- Node6&#45;&gt;Node7 -->
<g id="edge7" class="edge">
<title>Node6&#45;&gt;Node7</title>
<path fill="none" stroke="midnightblue" d="M555.33,-105C563.59,-105 572.17,-105 580.62,-105"/>
<polygon fill="midnightblue" stroke="midnightblue" points="580.83,-108.5 590.83,-105 580.83,-101.5 580.83,-108.5"/>
</g>
<!-- Node8 -->
<g id="node8" class="node">
<title>Node8</title>
<g id="a_node8"><a xlink:href="symbol__table_8c.html#abd009617cc391aeb4c484a199286513e" target="_top" xlink:title=" ">
<polygon fill="white" stroke="black" points="766,-117.5 766,-136.5 838,-136.5 838,-117.5 766,-117.5"/>
<text text-anchor="middle" x="802" y="-124.5" font-family="Helvetica,sans-Serif" font-size="10.00">next_prime</text>
</a>
</g>
</g>
<!-- Node7&#45;&gt;Node8 -->
<g id="edge8" class="edge">
<title>Node7&#45;&gt;Node8</title>
<path fill="none" stroke="midnightblue" d="M708.26,-113.44C724.02,-115.75 740.86,-118.21 755.81,-120.39"/>
<polygon fill="midnightblue" stroke="midnightblue" points="755.42,-123.87 765.82,-121.86 756.43,-116.95 755.42,-123.87"/>
</g>
<!-- Node10 -->
<g id="node10" class="node">
<title>Node10</title>
<g id="a_node10"><a xlink:href="symbol__table_8c.html#a86044a0a95c64d3b677f00cba38ae8e1" target="_top" xlink:title=" ">
<polygon fill="white" stroke="black" points="744,-68 744,-98 860,-98 860,-68 744,-68"/>
<text text-anchor="start" x="752" y="-86" font-family="Helvetica,sans-Serif" font-size="10.00">symbol_table_insert</text>
<text text-anchor="middle" x="802" y="-75" font-family="Helvetica,sans-Serif" font-size="10.00">_entry</text>
</a>
</g>
</g>
<!-- Node7&#45;&gt;Node10 -->
<g id="edge10" class="edge">
<title>Node7&#45;&gt;Node10</title>
<path fill="none" stroke="midnightblue" d="M708.26,-96.56C716.6,-95.34 725.24,-94.07 733.75,-92.83"/>
<polygon fill="midnightblue" stroke="midnightblue" points="734.26,-96.29 743.65,-91.38 733.25,-89.37 734.26,-96.29"/>
</g>
<!-- Node9 -->
<g id="node9" class="node">
<title>Node9</title>
<g id="a_node9"><a xlink:href="symbol__table_8c.html#aa29f6b8604796044e39772a51c0f2c63" target="_top" xlink:title=" ">
<polygon fill="white" stroke="black" points="896,-117.5 896,-136.5 955,-136.5 955,-117.5 896,-117.5"/>
<text text-anchor="middle" x="925.5" y="-124.5" font-family="Helvetica,sans-Serif" font-size="10.00">is_prime</text>
</a>
</g>
</g>
<!-- Node8&#45;&gt;Node9 -->
<g id="edge9" class="edge">
<title>Node8&#45;&gt;Node9</title>
<path fill="none" stroke="midnightblue" d="M838.14,-127C853.06,-127 870.5,-127 885.79,-127"/>
<polygon fill="midnightblue" stroke="midnightblue" points="885.97,-130.5 895.97,-127 885.97,-123.5 885.97,-130.5"/>
</g>
</g>
</svg>
