<?xml version="1.0" encoding="UTF-8" standalone="no"?>
<!DOCTYPE svg PUBLIC "-//W3C//DTD SVG 1.1//EN"
 "http://www.w3.org/Graphics/SVG/1.1/DTD/svg11.dtd">
<!-- Generated by graphviz version 2.43.0 (0)
 -->
<!-- Title: get_next_token_helper Pages: 1 -->
<svg width="835pt" height="180pt"
 viewBox="0.00 0.00 835.00 180.00" xmlns="http://www.w3.org/2000/svg" xmlns:xlink="http://www.w3.org/1999/xlink">
<g id="graph0" class="graph" transform="scale(1 1) rotate(0) translate(4 176)">
<title>get_next_token_helper</title>
<polygon fill="white" stroke="transparent" points="-4,4 -4,-176 831,-176 831,4 -4,4"/>
<!-- Node1 -->
<g id="node1" class="node">
<title>Node1</title>
<g id="a_node1"><a xlink:title=" ">
<polygon fill="#bfbfbf" stroke="black" points="0,-95.5 0,-114.5 128,-114.5 128,-95.5 0,-95.5"/>
<text text-anchor="middle" x="64" y="-102.5" font-family="Helvetica,sans-Serif" font-size="10.00">get_next_token_helper</text>
</a>
</g>
</g>
<!-- Node2 -->
<g id="node2" class="node">
<title>Node2</title>
<g id="a_node2"><a xlink:href="lexer_8c.html#a78c9ef2940e04bc9cd18a764bdb9e0a5" target="_top" xlink:title="Initializes an internal twin buffer and loads the active buffer with the first chunk of the file.">
<polygon fill="white" stroke="black" points="186.5,-152.5 186.5,-171.5 252.5,-171.5 252.5,-152.5 186.5,-152.5"/>
<text text-anchor="middle" x="219.5" y="-159.5" font-family="Helvetica,sans-Serif" font-size="10.00">buffer_init</text>
</a>
</g>
</g>
<!-- Node1&#45;&gt;Node2 -->
<g id="edge1" class="edge">
<title>Node1&#45;&gt;Node2</title>
<path fill="none" stroke="midnightblue" d="M111.22,-114.62C127.82,-120.49 146.71,-127.67 164,-134 175.98,-138.39 189.52,-143.11 200.11,-147.86"/>
<polygon fill="midnightblue" stroke="midnightblue" points="198.7,-151.06 209.21,-152.4 201.83,-144.8 198.7,-151.06"/>
</g>
<!-- Node4 -->
<g id="node4" class="node">
<title>Node4</title>
<g id="a_node4"><a xlink:href="lexer_8c.html#ab8b57ff9976f6622383db94b907a00f3" target="_top" xlink:title=" ">
<polygon fill="white" stroke="black" points="179.5,-114.5 179.5,-133.5 259.5,-133.5 259.5,-114.5 179.5,-114.5"/>
<text text-anchor="middle" x="219.5" y="-121.5" font-family="Helvetica,sans-Serif" font-size="10.00">create_token</text>
</a>
</g>
</g>
<!-- Node1&#45;&gt;Node4 -->
<g id="edge4" class="edge">
<title>Node1&#45;&gt;Node4</title>
<path fill="none" stroke="midnightblue" d="M128.32,-112.84C142.01,-114.53 156.28,-116.3 169.32,-117.91"/>
<polygon fill="midnightblue" stroke="midnightblue" points="169.14,-121.42 179.49,-119.17 170,-114.47 169.14,-121.42"/>
</g>
<!-- Node5 -->
<g id="node5" class="node">
<title>Node5</title>
<g id="a_node5"><a xlink:href="symbol__table_8h.html#a838379e0d91707a08998e494fb420bf5" target="_top" xlink:title="Inserts a lexeme into the internal symbol table.">
<polygon fill="white" stroke="black" points="311,-95.5 311,-114.5 427,-114.5 427,-95.5 311,-95.5"/>
<text text-anchor="middle" x="369" y="-102.5" font-family="Helvetica,sans-Serif" font-size="10.00">symbol_table_insert</text>
</a>
</g>
</g>
<!-- Node1&#45;&gt;Node5 -->
<g id="edge12" class="edge">
<title>Node1&#45;&gt;Node5</title>
<path fill="none" stroke="midnightblue" d="M128.15,-105C178.64,-105 249.25,-105 300.78,-105"/>
<polygon fill="midnightblue" stroke="midnightblue" points="300.82,-108.5 310.82,-105 300.82,-101.5 300.82,-108.5"/>
</g>
<!-- Node10 -->
<g id="node10" class="node">
<title>Node10</title>
<g id="a_node10"><a xlink:href="lexer_8c.html#a960f17a4b92e6cce8b8edae91c728ead" target="_top" xlink:title=" ">
<polygon fill="white" stroke="black" points="164,-38.5 164,-57.5 275,-57.5 275,-38.5 164,-38.5"/>
<text text-anchor="middle" x="219.5" y="-45.5" font-family="Helvetica,sans-Serif" font-size="10.00">retract_and_update</text>
</a>
</g>
</g>
<!-- Node1&#45;&gt;Node10 -->
<g id="edge10" class="edge">
<title>Node1&#45;&gt;Node10</title>
<path fill="none" stroke="midnightblue" d="M90.69,-95.46C116.04,-86.05 154.98,-71.59 183.22,-61.1"/>
<polygon fill="midnightblue" stroke="midnightblue" points="184.57,-64.33 192.72,-57.57 182.13,-57.77 184.57,-64.33"/>
</g>
<!-- Node11 -->
<g id="node11" class="node">
<title>Node11</title>
<g id="a_node11"><a xlink:href="lexer_8c.html#a6d0bc199864425dd309933a88f06bb51" target="_top" xlink:title=" ">
<polygon fill="white" stroke="black" points="181.5,-0.5 181.5,-19.5 257.5,-19.5 257.5,-0.5 181.5,-0.5"/>
<text text-anchor="middle" x="219.5" y="-7.5" font-family="Helvetica,sans-Serif" font-size="10.00">swap_buffer</text>
</a>
</g>
</g>
<!-- Node1&#45;&gt;Node11 -->
<g id="edge11" class="edge">
<title>Node1&#45;&gt;Node11</title>
<path fill="none" stroke="midnightblue" d="M75.2,-95.36C92.34,-79.59 128.54,-48.15 164,-29 167.93,-26.88 172.13,-24.92 176.41,-23.14"/>
<polygon fill="midnightblue" stroke="midnightblue" points="177.73,-26.38 185.78,-19.5 175.19,-19.85 177.73,-26.38"/>
</g>
<!-- Node2&#45;&gt;Node1 -->
<g id="edge3" class="edge">
<title>Node2&#45;&gt;Node1</title>
<path fill="none" stroke="midnightblue" d="M186.45,-159.77C179.06,-157.43 171.25,-154.65 164,-152 136.2,-141.82 104.25,-129.43 84.35,-119.4"/>
<polygon fill="midnightblue" stroke="midnightblue" points="85.83,-116.22 75.36,-114.54 82.49,-122.37 85.83,-116.22"/>
</g>
<!-- Node3 -->
<g id="node3" class="node">
<title>Node3</title>
<g id="a_node3"><a xlink:href="lexer_8c.html#a67dd8f227181df843e25a314e262a10c" target="_top" xlink:title="Deallocates the twin buffer (automatically called at program termination).">
<polygon fill="white" stroke="black" points="324.5,-152.5 324.5,-171.5 413.5,-171.5 413.5,-152.5 324.5,-152.5"/>
<text text-anchor="middle" x="369" y="-159.5" font-family="Helvetica,sans-Serif" font-size="10.00">buffer_cleanup</text>
</a>
</g>
</g>
<!-- Node2&#45;&gt;Node3 -->
<g id="edge2" class="edge">
<title>Node2&#45;&gt;Node3</title>
<path fill="none" stroke="midnightblue" d="M252.51,-162C270.48,-162 293.39,-162 314.06,-162"/>
<polygon fill="midnightblue" stroke="midnightblue" points="314.31,-165.5 324.31,-162 314.31,-158.5 314.31,-165.5"/>
</g>
<!-- Node4&#45;&gt;Node5 -->
<g id="edge5" class="edge">
<title>Node4&#45;&gt;Node5</title>
<path fill="none" stroke="midnightblue" d="M259.64,-118.96C272.28,-117.33 286.67,-115.48 300.74,-113.66"/>
<polygon fill="midnightblue" stroke="midnightblue" points="301.43,-117.1 310.9,-112.36 300.53,-110.16 301.43,-117.1"/>
</g>
<!-- Node6 -->
<g id="node6" class="node">
<title>Node6</title>
<g id="a_node6"><a xlink:href="symbol__table_8c.html#af00e4a3f1778752600e745a5f825e3ac" target="_top" xlink:title=" ">
<polygon fill="white" stroke="black" points="463,-95.5 463,-114.5 580,-114.5 580,-95.5 463,-95.5"/>
<text text-anchor="middle" x="521.5" y="-102.5" font-family="Helvetica,sans-Serif" font-size="10.00">symbol_table_resize</text>
</a>
</g>
</g>
<!-- Node5&#45;&gt;Node6 -->
<g id="edge6" class="edge">
<title>Node5&#45;&gt;Node6</title>
<path fill="none" stroke="midnightblue" d="M427.33,-105C435.59,-105 444.17,-105 452.62,-105"/>
<polygon fill="midnightblue" stroke="midnightblue" points="452.83,-108.5 462.83,-105 452.83,-101.5 452.83,-108.5"/>
</g>
<!-- Node7 -->
<g id="node7" class="node">
<title>Node7</title>
<g id="a_node7"><a xlink:href="symbol__table_8c.html#abd009617cc391aeb4c484a199286513e" target="_top" xlink:title=" ">
<polygon fill="white" stroke="black" points="638,-117.5 638,-136.5 710,-136.5 710,-117.5 638,-117.5"/>
<text text-anchor="middle" x="674" y="-124.5" font-family="Helvetica,sans-Serif" font-size="10.00">next_prime</text>
</a>
</g>
</g>
<!-- Node6&#45;&gt;Node7 -->
<g id="edge7" class="edge">
<title>Node6&#45;&gt;Node7</title>
<path fill="none" stroke="midnightblue" d="M580.26,-113.44C596.02,-115.75 612.86,-118.21 627.81,-120.39"/>
<polygon fill="midnightblue" stroke="midnightblue" points="627.42,-123.87 637.82,-121.86 628.43,-116.95 627.42,-123.87"/>
</g>
<!-- Node9 -->
<g id="node9" class="node">
<title>Node9</title>
<g id="a_node9"><a xlink:href="symbol__table_8c.html#a86044a0a95c64d3b677f00cba38ae8e1" target="_top" xlink:title=" ">
<polygon fill="white" stroke="black" points="616,-68 616,-98 732,-98 732,-68 616,-68"/>
<text text-anchor="start" x="624" y="-86" font-family="Helvetica,sans-Serif" font-size="10.00">symbol_table_insert</text>
<text text-anchor="middle" x="674" y="-75" font-family="Helvetica,sans-Serif" font-size="10.00">_entry</text>
</a>
</g>
</g>
<!-- Node6&#45;&gt;Node9 -->
<g id="edge9" class="edge">
<title>Node6&#45;&gt;Node9</title>
<path fill="none" stroke="midnightblue" d="M580.26,-96.56C588.6,-95.34 597.24,-94.07 605.75,-92.83"/>
<polygon fill="midnightblue" stroke="midnightblue" points="606.26,-96.29 615.65,-91.38 605.25,-89.37 606.26,-96.29"/>
</g>
<!-- Node8 -->
<g id="node8" class="node">
<title>Node8</title>
<g id="a_node8"><a xlink:href="symbol__table_8c.html#aa29f6b8604796044e39772a51c0f2c63" target="_top" xlink:title=" ">
<polygon fill="white" stroke="black" points="768,-117.5 768,-136.5 827,-136.5 827,-117.5 768,-117.5"/>
<text text-anchor="middle" x="797.5" y="-124.5" font-family="Helvetica,sans-Serif" font-size="10.00">is_prime</text>
</a>
</g>
</g>
<!-- Node7&#45;&gt;Node8 -->
<g id="edge8" class="edge">
<title>Node7&#45;&gt;Node8</title>
<path fill="none" stroke="midnightblue" d="M710.14,-127C725.06,-127 742.5,-127 757.79,-127"/>
<polygon fill="midnightblue" stroke="midnightblue" points="757.97,-130.5 767.97,-127 757.97,-123.5 757.97,-130.5"/>
</g>
</g>
</svg>
