<?xml version="1.0" encoding="UTF-8" standalone="no"?>
<!DOCTYPE svg PUBLIC "-//W3C//DTD SVG 1.1//EN"
 "http://www.w3.org/Graphics/SVG/1.1/DTD/svg11.dtd">
<!-- Generated by graphviz version 2.43.0 (0)
 -->
<!-- Title: token_to_string Pages: 1 -->
<svg width="532pt" height="202pt"
 viewBox="0.00 0.00 532.00 202.16" xmlns="http://www.w3.org/2000/svg" xmlns:xlink="http://www.w3.org/1999/xlink">
<g id="graph0" class="graph" transform="scale(1 1) rotate(0) translate(4 198.16)">
<title>token_to_string</title>
<polygon fill="white" stroke="transparent" points="-4,4 -4,-198.16 528,-198.16 528,4 -4,4"/>
<!-- Node1 -->
<g id="node1" class="node">
<title>Node1</title>
<g id="a_node1"><a xlink:title="Retrieves a string representation of a token type (for printing purposes).">
<polygon fill="#bfbfbf" stroke="black" points="432,-79.66 432,-98.66 524,-98.66 524,-79.66 432,-79.66"/>
<text text-anchor="middle" x="478" y="-86.66" font-family="Helvetica,sans-Serif" font-size="10.00">token_to_string</text>
</a>
</g>
</g>
<!-- Node2 -->
<g id="node2" class="node">
<title>Node2</title>
<g id="a_node2"><a xlink:href="parser_8c.html#a385276c7e31aeff5ad9c22370300ced6" target="_top" xlink:title="Generates a parse tree for the given source code.">
<polygon fill="white" stroke="black" points="264,-174.66 264,-193.66 381,-193.66 381,-174.66 264,-174.66"/>
<text text-anchor="middle" x="322.5" y="-181.66" font-family="Helvetica,sans-Serif" font-size="10.00">generate_parse_tree</text>
</a>
</g>
</g>
<!-- Node1&#45;&gt;Node2 -->
<g id="edge1" class="edge">
<title>Node1&#45;&gt;Node2</title>
<path fill="none" stroke="midnightblue" d="M461.37,-106.36C446.08,-122.27 421.43,-145.61 396,-160.16 385.53,-166.15 373.34,-170.92 361.98,-174.57"/>
<polygon fill="midnightblue" stroke="midnightblue" points="464.18,-108.48 468.47,-98.8 459.07,-103.69 464.18,-108.48"/>
</g>
<!-- Node4 -->
<g id="node4" class="node">
<title>Node4</title>
<g id="a_node4"><a xlink:href="driver_8c.html#a0ddf1224851353fc92bfbff6f499fa97" target="_top" xlink:title=" ">
<polygon fill="white" stroke="black" points="0,-136.66 0,-155.66 41,-155.66 41,-136.66 0,-136.66"/>
<text text-anchor="middle" x="20.5" y="-143.66" font-family="Helvetica,sans-Serif" font-size="10.00">main</text>
</a>
</g>
</g>
<!-- Node1&#45;&gt;Node4 -->
<g id="edge4" class="edge">
<title>Node1&#45;&gt;Node4</title>
<path fill="none" stroke="midnightblue" d="M452.28,-103.84C436.7,-112.3 415.84,-122.21 396,-127.16 263.99,-160.12 97.92,-151.93 41.39,-147.81"/>
<polygon fill="midnightblue" stroke="midnightblue" points="454.23,-106.76 461.25,-98.82 450.81,-100.65 454.23,-106.76"/>
</g>
<!-- Node5 -->
<g id="node5" class="node">
<title>Node5</title>
<g id="a_node5"><a xlink:href="parser_8c.html#a9f5ef3611435d73a8305d27de3927585" target="_top" xlink:title="Prints the first and/or follow sets of all non&#45;terminals.">
<polygon fill="white" stroke="black" points="249,-98.66 249,-117.66 396,-117.66 396,-98.66 249,-98.66"/>
<text text-anchor="middle" x="322.5" y="-105.66" font-family="Helvetica,sans-Serif" font-size="10.00">print_first_and_follow_sets</text>
</a>
</g>
</g>
<!-- Node1&#45;&gt;Node5 -->
<g id="edge5" class="edge">
<title>Node1&#45;&gt;Node5</title>
<path fill="none" stroke="midnightblue" d="M421.79,-96C413.43,-97.03 404.7,-98.11 396.04,-99.18"/>
<polygon fill="midnightblue" stroke="midnightblue" points="422.28,-99.46 431.78,-94.76 421.42,-92.51 422.28,-99.46"/>
</g>
<!-- Node6 -->
<g id="node6" class="node">
<title>Node6</title>
<g id="a_node6"><a xlink:href="parser_8c.html#a08659a3e07cbbaa0a0b7234f35654876" target="_top" xlink:title="Prints the parsing table.">
<polygon fill="white" stroke="black" points="273.5,-60.66 273.5,-79.66 371.5,-79.66 371.5,-60.66 273.5,-60.66"/>
<text text-anchor="middle" x="322.5" y="-67.66" font-family="Helvetica,sans-Serif" font-size="10.00">print_parse_map</text>
</a>
</g>
</g>
<!-- Node1&#45;&gt;Node6 -->
<g id="edge6" class="edge">
<title>Node1&#45;&gt;Node6</title>
<path fill="none" stroke="midnightblue" d="M421.77,-82.33C405.36,-80.29 387.53,-78.09 371.61,-76.12"/>
<polygon fill="midnightblue" stroke="midnightblue" points="421.42,-85.81 431.78,-83.56 422.28,-78.86 421.42,-85.81"/>
</g>
<!-- Node7 -->
<g id="node7" class="node">
<title>Node7</title>
<g id="a_node7"><a xlink:href="parser_8c.html#aceedd6d6c4ad5ddbc27d6d2b6aa8100f" target="_top" xlink:title="Prints the parse tree using pre&#45;order traversal.">
<polygon fill="white" stroke="black" points="274.5,-22.66 274.5,-41.66 370.5,-41.66 370.5,-22.66 274.5,-22.66"/>
<text text-anchor="middle" x="322.5" y="-29.66" font-family="Helvetica,sans-Serif" font-size="10.00">print_parse_tree</text>
</a>
</g>
</g>
<!-- Node1&#45;&gt;Node7 -->
<g id="edge7" class="edge">
<title>Node1&#45;&gt;Node7</title>
<path fill="none" stroke="midnightblue" d="M450.05,-75C434.53,-67.24 414.5,-57.86 396,-51.16 386.21,-47.62 375.46,-44.43 365.31,-41.73"/>
<polygon fill="midnightblue" stroke="midnightblue" points="448.57,-78.18 459.07,-79.59 451.74,-71.94 448.57,-78.18"/>
</g>
<!-- Node8 -->
<g id="node8" class="node">
<title>Node8</title>
<g id="a_node8"><a xlink:href="parser_8h.html#a8c9a76dff4106d2e5eb33c33aa0c85f5" target="_top" xlink:title="Prints the parse tree using in&#45;order traversal in the specified file.">
<polygon fill="white" stroke="black" points="77,-32.66 77,-51.66 213,-51.66 213,-32.66 77,-32.66"/>
<text text-anchor="middle" x="145" y="-39.66" font-family="Helvetica,sans-Serif" font-size="10.00">print_parse_tree_inorder</text>
</a>
</g>
</g>
<!-- Node1&#45;&gt;Node8 -->
<g id="edge8" class="edge">
<title>Node1&#45;&gt;Node8</title>
<path fill="none" stroke="midnightblue" d="M464.57,-71.33C450.42,-52.76 425.43,-24.81 396,-13.16 316.98,18.11 213.72,-14.88 168.67,-32.53"/>
<polygon fill="midnightblue" stroke="midnightblue" points="461.87,-73.58 470.61,-79.57 467.52,-69.44 461.87,-73.58"/>
</g>
<!-- Node3 -->
<g id="node3" class="node">
<title>Node3</title>
<g id="a_node3"><a xlink:href="parser_8h.html#af8e858bd867bc61808a62e29963b3497" target="_top" xlink:title="Parses the given code based on the specified grammar.">
<polygon fill="white" stroke="black" points="109,-174.66 109,-193.66 181,-193.66 181,-174.66 109,-174.66"/>
<text text-anchor="middle" x="145" y="-181.66" font-family="Helvetica,sans-Serif" font-size="10.00">parse_code</text>
</a>
</g>
</g>
<!-- Node2&#45;&gt;Node3 -->
<g id="edge2" class="edge">
<title>Node2&#45;&gt;Node3</title>
<path fill="none" stroke="midnightblue" d="M253.48,-184.16C228.75,-184.16 201.83,-184.16 181.11,-184.16"/>
<polygon fill="midnightblue" stroke="midnightblue" points="253.55,-187.66 263.55,-184.16 253.55,-180.66 253.55,-187.66"/>
</g>
<!-- Node3&#45;&gt;Node4 -->
<g id="edge3" class="edge">
<title>Node3&#45;&gt;Node4</title>
<path fill="none" stroke="midnightblue" d="M103.48,-171.59C82.58,-165.11 58.02,-157.49 41.28,-152.3"/>
<polygon fill="midnightblue" stroke="midnightblue" points="102.5,-174.95 113.09,-174.57 104.57,-168.27 102.5,-174.95"/>
</g>
<!-- Node8&#45;&gt;Node4 -->
<g id="edge9" class="edge">
<title>Node8&#45;&gt;Node4</title>
<path fill="none" stroke="midnightblue" d="M125.06,-58.24C99.24,-80.16 53.81,-118.73 32.78,-136.59"/>
<polygon fill="midnightblue" stroke="midnightblue" points="127.34,-60.9 132.7,-51.76 122.81,-55.56 127.34,-60.9"/>
</g>
<!-- Node8&#45;&gt;Node8 -->
<g id="edge10" class="edge">
<title>Node8&#45;&gt;Node8</title>
<path fill="none" stroke="midnightblue" d="M168.07,-61.19C166.81,-66.29 159.12,-70.16 145,-70.16 122.96,-70.16 116.59,-60.73 125.89,-51.92"/>
<polygon fill="midnightblue" stroke="midnightblue" points="171.25,-59.74 164.11,-51.92 164.81,-62.49 171.25,-59.74"/>
</g>
</g>
</svg>
