<?xml version="1.0" encoding="UTF-8" standalone="no"?>
<!DOCTYPE svg PUBLIC "-//W3C//DTD SVG 1.1//EN"
 "http://www.w3.org/Graphics/SVG/1.1/DTD/svg11.dtd">
<!-- Generated by graphviz version 2.43.0 (0)
 -->
<!-- Title: include/lexer.h Pages: 1 -->
<svg width="494pt" height="196pt"
 viewBox="0.00 0.00 494.26 196.00" xmlns="http://www.w3.org/2000/svg" xmlns:xlink="http://www.w3.org/1999/xlink">
<g id="graph0" class="graph" transform="scale(1 1) rotate(0) translate(4 192)">
<title>include/lexer.h</title>
<polygon fill="white" stroke="transparent" points="-4,4 -4,-192 490.26,-192 490.26,4 -4,4"/>
<!-- Node1 -->
<g id="node1" class="node">
<title>Node1</title>
<g id="a_node1"><a xlink:title=" ">
<polygon fill="#bfbfbf" stroke="black" points="175,-168.5 175,-187.5 262,-187.5 262,-168.5 175,-168.5"/>
<text text-anchor="middle" x="218.5" y="-175.5" font-family="Helvetica,sans-Serif" font-size="10.00">include/lexer.h</text>
</a>
</g>
</g>
<!-- Node2 -->
<g id="node2" class="node">
<title>Node2</title>
<g id="a_node2"><a xlink:title=" ">
<polygon fill="white" stroke="#bfbfbf" points="0,-112.5 0,-131.5 53,-131.5 53,-112.5 0,-112.5"/>
<text text-anchor="middle" x="26.5" y="-119.5" font-family="Helvetica,sans-Serif" font-size="10.00">ctype.h</text>
</a>
</g>
</g>
<!-- Node1&#45;&gt;Node2 -->
<g id="edge1" class="edge">
<title>Node1&#45;&gt;Node2</title>
<path fill="none" stroke="midnightblue" d="M188.08,-168.44C154.06,-158.87 98.99,-143.39 62.76,-133.2"/>
<polygon fill="midnightblue" stroke="midnightblue" points="63.64,-129.81 53.07,-130.47 61.75,-136.55 63.64,-129.81"/>
</g>
<!-- Node3 -->
<g id="node3" class="node">
<title>Node3</title>
<g id="a_node3"><a xlink:title=" ">
<polygon fill="white" stroke="#bfbfbf" points="127.5,-0.5 127.5,-19.5 177.5,-19.5 177.5,-0.5 127.5,-0.5"/>
<text text-anchor="middle" x="152.5" y="-7.5" font-family="Helvetica,sans-Serif" font-size="10.00">stdio.h</text>
</a>
</g>
</g>
<!-- Node1&#45;&gt;Node3 -->
<g id="edge2" class="edge">
<title>Node1&#45;&gt;Node3</title>
<path fill="none" stroke="midnightblue" d="M206.79,-168.38C196.58,-160.2 182.23,-146.95 174.5,-132 157.41,-98.92 153.39,-54.76 152.57,-29.97"/>
<polygon fill="midnightblue" stroke="midnightblue" points="156.07,-29.7 152.38,-19.77 149.07,-29.83 156.07,-29.7"/>
</g>
<!-- Node4 -->
<g id="node4" class="node">
<title>Node4</title>
<g id="a_node4"><a xlink:title=" ">
<polygon fill="white" stroke="#bfbfbf" points="196,-0.5 196,-19.5 249,-19.5 249,-0.5 196,-0.5"/>
<text text-anchor="middle" x="222.5" y="-7.5" font-family="Helvetica,sans-Serif" font-size="10.00">stdlib.h</text>
</a>
</g>
</g>
<!-- Node1&#45;&gt;Node4 -->
<g id="edge3" class="edge">
<title>Node1&#45;&gt;Node4</title>
<path fill="none" stroke="midnightblue" d="M211.12,-168.35C194.94,-148.3 159.17,-97.2 176.5,-56 181.53,-44.05 191.44,-33.69 200.79,-25.93"/>
<polygon fill="midnightblue" stroke="midnightblue" points="202.94,-28.69 208.71,-19.81 198.66,-23.15 202.94,-28.69"/>
</g>
<!-- Node5 -->
<g id="node5" class="node">
<title>Node5</title>
<g id="a_node5"><a xlink:title=" ">
<polygon fill="white" stroke="#bfbfbf" points="420,-56.5 420,-75.5 473,-75.5 473,-56.5 420,-56.5"/>
<text text-anchor="middle" x="446.5" y="-63.5" font-family="Helvetica,sans-Serif" font-size="10.00">string.h</text>
</a>
</g>
</g>
<!-- Node1&#45;&gt;Node5 -->
<g id="edge4" class="edge">
<title>Node1&#45;&gt;Node5</title>
<path fill="none" stroke="midnightblue" d="M252.31,-168.5C280.05,-160.85 319.92,-148.33 352.5,-132 380.55,-117.95 409.81,-96.45 428.09,-82.08"/>
<polygon fill="midnightblue" stroke="midnightblue" points="430.5,-84.63 436.12,-75.65 426.13,-79.16 430.5,-84.63"/>
</g>
<!-- Node6 -->
<g id="node6" class="node">
<title>Node6</title>
<g id="a_node6"><a xlink:title=" ">
<polygon fill="white" stroke="#bfbfbf" points="360.5,-0.5 360.5,-19.5 422.5,-19.5 422.5,-0.5 360.5,-0.5"/>
<text text-anchor="middle" x="391.5" y="-7.5" font-family="Helvetica,sans-Serif" font-size="10.00">stdbool.h</text>
</a>
</g>
</g>
<!-- Node1&#45;&gt;Node6 -->
<g id="edge5" class="edge">
<title>Node1&#45;&gt;Node6</title>
<path fill="none" stroke="midnightblue" d="M262.2,-175.79C324.93,-171.34 437.87,-152.51 482.5,-76 497.24,-50.73 463.1,-32.69 432.51,-22.12"/>
<polygon fill="midnightblue" stroke="midnightblue" points="433.36,-18.72 422.77,-18.95 431.2,-25.37 433.36,-18.72"/>
</g>
<!-- Node7 -->
<g id="node7" class="node">
<title>Node7</title>
<g id="a_node7"><a xlink:href="lexerDef_8h.html" target="_top" xlink:title=" ">
<polygon fill="white" stroke="black" points="185.5,-56.5 185.5,-75.5 251.5,-75.5 251.5,-56.5 185.5,-56.5"/>
<text text-anchor="middle" x="218.5" y="-63.5" font-family="Helvetica,sans-Serif" font-size="10.00">lexerDef.h</text>
</a>
</g>
</g>
<!-- Node1&#45;&gt;Node7 -->
<g id="edge6" class="edge">
<title>Node1&#45;&gt;Node7</title>
<path fill="none" stroke="midnightblue" d="M218.5,-168.37C218.5,-150.62 218.5,-109.67 218.5,-85.6"/>
<polygon fill="midnightblue" stroke="midnightblue" points="222,-85.59 218.5,-75.59 215,-85.59 222,-85.59"/>
</g>
<!-- Node8 -->
<g id="node8" class="node">
<title>Node8</title>
<g id="a_node8"><a xlink:href="symbol__table_8h.html" target="_top" xlink:title=" ">
<polygon fill="white" stroke="black" points="251.5,-112.5 251.5,-131.5 343.5,-131.5 343.5,-112.5 251.5,-112.5"/>
<text text-anchor="middle" x="297.5" y="-119.5" font-family="Helvetica,sans-Serif" font-size="10.00">symbol_table.h</text>
</a>
</g>
</g>
<!-- Node1&#45;&gt;Node8 -->
<g id="edge10" class="edge">
<title>Node1&#45;&gt;Node8</title>
<path fill="none" stroke="midnightblue" d="M231.19,-168.32C243.4,-159.98 262.08,-147.21 276.5,-137.35"/>
<polygon fill="midnightblue" stroke="midnightblue" points="278.56,-140.19 284.84,-131.65 274.61,-134.41 278.56,-140.19"/>
</g>
<!-- Node7&#45;&gt;Node3 -->
<g id="edge7" class="edge">
<title>Node7&#45;&gt;Node3</title>
<path fill="none" stroke="midnightblue" d="M207.9,-56.32C198.04,-48.26 183.15,-36.08 171.28,-26.37"/>
<polygon fill="midnightblue" stroke="midnightblue" points="173.25,-23.46 163.3,-19.83 168.82,-28.88 173.25,-23.46"/>
</g>
<!-- Node7&#45;&gt;Node4 -->
<g id="edge8" class="edge">
<title>Node7&#45;&gt;Node4</title>
<path fill="none" stroke="midnightblue" d="M219.16,-56.08C219.68,-49.01 220.44,-38.86 221.09,-29.99"/>
<polygon fill="midnightblue" stroke="midnightblue" points="224.6,-29.98 221.85,-19.75 217.62,-29.47 224.6,-29.98"/>
</g>
<!-- Node7&#45;&gt;Node6 -->
<g id="edge9" class="edge">
<title>Node7&#45;&gt;Node6</title>
<path fill="none" stroke="midnightblue" d="M245.91,-56.44C275.27,-47.28 322.02,-32.69 354.6,-22.52"/>
<polygon fill="midnightblue" stroke="midnightblue" points="355.71,-25.84 364.22,-19.52 353.63,-19.16 355.71,-25.84"/>
</g>
<!-- Node8&#45;&gt;Node3 -->
<g id="edge11" class="edge">
<title>Node8&#45;&gt;Node3</title>
<path fill="none" stroke="midnightblue" d="M251.31,-113.51C226.3,-107.29 196.52,-96.07 176.5,-76 164.16,-63.64 158.1,-44.39 155.16,-30.04"/>
<polygon fill="midnightblue" stroke="midnightblue" points="158.55,-29.08 153.42,-19.81 151.65,-30.26 158.55,-29.08"/>
</g>
<!-- Node8&#45;&gt;Node4 -->
<g id="edge13" class="edge">
<title>Node8&#45;&gt;Node4</title>
<path fill="none" stroke="midnightblue" d="M308.81,-112.34C323.98,-99.63 347.59,-75.36 334.5,-56 317.72,-31.17 284.73,-20.04 258.88,-15.05"/>
<polygon fill="midnightblue" stroke="midnightblue" points="259.47,-11.6 249.02,-13.37 258.29,-18.5 259.47,-11.6"/>
</g>
<!-- Node8&#45;&gt;Node5 -->
<g id="edge14" class="edge">
<title>Node8&#45;&gt;Node5</title>
<path fill="none" stroke="midnightblue" d="M321.11,-112.44C345.96,-103.44 385.27,-89.19 413.25,-79.05"/>
<polygon fill="midnightblue" stroke="midnightblue" points="414.79,-82.21 423,-75.52 412.41,-75.63 414.79,-82.21"/>
</g>
<!-- Node8&#45;&gt;Node6 -->
<g id="edge15" class="edge">
<title>Node8&#45;&gt;Node6</title>
<path fill="none" stroke="midnightblue" d="M309.79,-112.27C321.18,-103.82 338.16,-90.22 350.5,-76 363.31,-61.24 374.88,-42.1 382.44,-28.41"/>
<polygon fill="midnightblue" stroke="midnightblue" points="385.55,-30.02 387.19,-19.56 379.38,-26.71 385.55,-30.02"/>
</g>
<!-- Node8&#45;&gt;Node7 -->
<g id="edge16" class="edge">
<title>Node8&#45;&gt;Node7</title>
<path fill="none" stroke="midnightblue" d="M284.81,-112.32C272.6,-103.98 253.92,-91.21 239.5,-81.35"/>
<polygon fill="midnightblue" stroke="midnightblue" points="241.39,-78.41 231.16,-75.65 237.44,-84.19 241.39,-78.41"/>
</g>
<!-- Node9 -->
<g id="node9" class="node">
<title>Node9</title>
<g id="a_node9"><a xlink:title=" ">
<polygon fill="white" stroke="#bfbfbf" points="269.5,-56.5 269.5,-75.5 325.5,-75.5 325.5,-56.5 269.5,-56.5"/>
<text text-anchor="middle" x="297.5" y="-63.5" font-family="Helvetica,sans-Serif" font-size="10.00">assert.h</text>
</a>
</g>
</g>
<!-- Node8&#45;&gt;Node9 -->
<g id="edge12" class="edge">
<title>Node8&#45;&gt;Node9</title>
<path fill="none" stroke="midnightblue" d="M297.5,-112.08C297.5,-105.01 297.5,-94.86 297.5,-85.99"/>
<polygon fill="midnightblue" stroke="midnightblue" points="301,-85.75 297.5,-75.75 294,-85.75 301,-85.75"/>
</g>
</g>
</svg>
