<?xml version="1.0" encoding="UTF-8" standalone="no"?>
<!DOCTYPE svg PUBLIC "-//W3C//DTD SVG 1.1//EN"
 "http://www.w3.org/Graphics/SVG/1.1/DTD/svg11.dtd">
<!-- Generated by graphviz version 2.43.0 (0)
 -->
<!-- Title: include/lexerDef.h Pages: 1 -->
<svg width="656pt" height="252pt"
 viewBox="0.00 0.00 656.00 252.00" xmlns="http://www.w3.org/2000/svg" xmlns:xlink="http://www.w3.org/1999/xlink">
<g id="graph0" class="graph" transform="scale(1 1) rotate(0) translate(4 248)">
<title>include/lexerDef.h</title>
<polygon fill="white" stroke="transparent" points="-4,4 -4,-248 652,-248 652,4 -4,4"/>
<!-- Node1 -->
<g id="node1" class="node">
<title>Node1</title>
<g id="a_node1"><a xlink:title=" ">
<polygon fill="#bfbfbf" stroke="black" points="238,-224.5 238,-243.5 342,-243.5 342,-224.5 238,-224.5"/>
<text text-anchor="middle" x="290" y="-231.5" font-family="Helvetica,sans-Serif" font-size="10.00">include/lexerDef.h</text>
</a>
</g>
</g>
<!-- Node2 -->
<g id="node2" class="node">
<title>Node2</title>
<g id="a_node2"><a xlink:href="hash__map_8h.html" target="_top" xlink:title=" ">
<polygon fill="white" stroke="black" points="83,-112.5 83,-131.5 197,-131.5 197,-112.5 83,-112.5"/>
<text text-anchor="middle" x="140" y="-119.5" font-family="Helvetica,sans-Serif" font-size="10.00">include/hash_map.h</text>
</a>
</g>
</g>
<!-- Node1&#45;&gt;Node2 -->
<g id="edge1" class="edge">
<title>Node1&#45;&gt;Node2</title>
<path fill="none" stroke="midnightblue" d="M245.86,-221.31C224.89,-214.18 200.44,-203.4 182,-188 163.03,-172.15 149.63,-145.51 143.6,-131.77"/>
<polygon fill="midnightblue" stroke="midnightblue" points="244.94,-224.69 255.53,-224.43 247.09,-218.03 244.94,-224.69"/>
</g>
<!-- Node7 -->
<g id="node7" class="node">
<title>Node7</title>
<g id="a_node7"><a xlink:href="lexer_8h.html" target="_top" xlink:title=" ">
<polygon fill="white" stroke="black" points="368.5,-112.5 368.5,-131.5 455.5,-131.5 455.5,-112.5 368.5,-112.5"/>
<text text-anchor="middle" x="412" y="-119.5" font-family="Helvetica,sans-Serif" font-size="10.00">include/lexer.h</text>
</a>
</g>
</g>
<!-- Node1&#45;&gt;Node7 -->
<g id="edge6" class="edge">
<title>Node1&#45;&gt;Node7</title>
<path fill="none" stroke="midnightblue" d="M307.18,-217.51C333.25,-194.01 381.93,-150.11 402.47,-131.59"/>
<polygon fill="midnightblue" stroke="midnightblue" points="304.66,-215.07 299.57,-224.37 309.34,-220.27 304.66,-215.07"/>
</g>
<!-- Node10 -->
<g id="node10" class="node">
<title>Node10</title>
<g id="a_node10"><a xlink:href="parserDef_8h.html" target="_top" xlink:title=" ">
<polygon fill="white" stroke="black" points="191.5,-168.5 191.5,-187.5 302.5,-187.5 302.5,-168.5 191.5,-168.5"/>
<text text-anchor="middle" x="247" y="-175.5" font-family="Helvetica,sans-Serif" font-size="10.00">include/parserDef.h</text>
</a>
</g>
</g>
<!-- Node1&#45;&gt;Node10 -->
<g id="edge10" class="edge">
<title>Node1&#45;&gt;Node10</title>
<path fill="none" stroke="midnightblue" d="M276.58,-216.14C269.09,-206.74 260.06,-195.4 253.97,-187.75"/>
<polygon fill="midnightblue" stroke="midnightblue" points="273.93,-218.44 282.9,-224.08 279.41,-214.08 273.93,-218.44"/>
</g>
<!-- Node13 -->
<g id="node13" class="node">
<title>Node13</title>
<g id="a_node13"><a xlink:href="symbol__table_8h.html" target="_top" xlink:title=" ">
<polygon fill="white" stroke="black" points="383,-168.5 383,-187.5 513,-187.5 513,-168.5 383,-168.5"/>
<text text-anchor="middle" x="448" y="-175.5" font-family="Helvetica,sans-Serif" font-size="10.00">include/symbol_table.h</text>
</a>
</g>
</g>
<!-- Node1&#45;&gt;Node13 -->
<g id="edge16" class="edge">
<title>Node1&#45;&gt;Node13</title>
<path fill="none" stroke="midnightblue" d="M324.61,-221.17C354.36,-211 396.55,-196.59 423.08,-187.52"/>
<polygon fill="midnightblue" stroke="midnightblue" points="323.37,-217.9 315.04,-224.44 325.63,-224.52 323.37,-217.9"/>
</g>
<!-- Node3 -->
<g id="node3" class="node">
<title>Node3</title>
<g id="a_node3"><a xlink:href="parser_8h.html" target="_top" xlink:title=" ">
<polygon fill="white" stroke="black" points="138,-56.5 138,-75.5 232,-75.5 232,-56.5 138,-56.5"/>
<text text-anchor="middle" x="185" y="-63.5" font-family="Helvetica,sans-Serif" font-size="10.00">include/parser.h</text>
</a>
</g>
</g>
<!-- Node2&#45;&gt;Node3 -->
<g id="edge2" class="edge">
<title>Node2&#45;&gt;Node3</title>
<path fill="none" stroke="midnightblue" d="M154.05,-104.14C161.89,-94.74 171.33,-83.4 177.71,-75.75"/>
<polygon fill="midnightblue" stroke="midnightblue" points="151.14,-102.16 147.43,-112.08 156.52,-106.64 151.14,-102.16"/>
</g>
<!-- Node6 -->
<g id="node6" class="node">
<title>Node6</title>
<g id="a_node6"><a xlink:href="hash__map_8c.html" target="_top" xlink:title=" ">
<polygon fill="white" stroke="black" points="0,-56.5 0,-75.5 120,-75.5 120,-56.5 0,-56.5"/>
<text text-anchor="middle" x="60" y="-63.5" font-family="Helvetica,sans-Serif" font-size="10.00">src/main/hash_map.c</text>
</a>
</g>
</g>
<!-- Node2&#45;&gt;Node6 -->
<g id="edge5" class="edge">
<title>Node2&#45;&gt;Node6</title>
<path fill="none" stroke="midnightblue" d="M118.7,-106.62C104.08,-96.76 85.17,-83.99 72.82,-75.65"/>
<polygon fill="midnightblue" stroke="midnightblue" points="116.9,-109.63 127.15,-112.32 120.82,-103.83 116.9,-109.63"/>
</g>
<!-- Node4 -->
<g id="node4" class="node">
<title>Node4</title>
<g id="a_node4"><a xlink:href="driver_8c.html" target="_top" xlink:title=" ">
<polygon fill="white" stroke="black" points="77,-0.5 77,-19.5 175,-19.5 175,-0.5 77,-0.5"/>
<text text-anchor="middle" x="126" y="-7.5" font-family="Helvetica,sans-Serif" font-size="10.00">src/main/driver.c</text>
</a>
</g>
</g>
<!-- Node3&#45;&gt;Node4 -->
<g id="edge3" class="edge">
<title>Node3&#45;&gt;Node4</title>
<path fill="none" stroke="midnightblue" d="M168.11,-49.54C157.59,-39.91 144.43,-27.87 135.65,-19.83"/>
<polygon fill="midnightblue" stroke="midnightblue" points="165.78,-52.15 175.52,-56.32 170.51,-46.99 165.78,-52.15"/>
</g>
<!-- Node5 -->
<g id="node5" class="node">
<title>Node5</title>
<g id="a_node5"><a xlink:href="parser_8c.html" target="_top" xlink:title=" ">
<polygon fill="white" stroke="black" points="193,-0.5 193,-19.5 293,-19.5 293,-0.5 193,-0.5"/>
<text text-anchor="middle" x="243" y="-7.5" font-family="Helvetica,sans-Serif" font-size="10.00">src/main/parser.c</text>
</a>
</g>
</g>
<!-- Node3&#45;&gt;Node5 -->
<g id="edge4" class="edge">
<title>Node3&#45;&gt;Node5</title>
<path fill="none" stroke="midnightblue" d="M201.91,-49.25C212.2,-39.67 224.97,-27.79 233.51,-19.83"/>
<polygon fill="midnightblue" stroke="midnightblue" points="199.25,-46.95 194.32,-56.32 204.02,-52.07 199.25,-46.95"/>
</g>
<!-- Node7&#45;&gt;Node3 -->
<g id="edge7" class="edge">
<title>Node7&#45;&gt;Node3</title>
<path fill="none" stroke="midnightblue" d="M366.13,-110.09C323.25,-99.89 260.08,-84.86 220.8,-75.52"/>
<polygon fill="midnightblue" stroke="midnightblue" points="365.49,-113.53 376.03,-112.44 367.11,-106.72 365.49,-113.53"/>
</g>
<!-- Node8 -->
<g id="node8" class="node">
<title>Node8</title>
<g id="a_node8"><a xlink:href="lexer_8c.html" target="_top" xlink:title=" ">
<polygon fill="white" stroke="black" points="493.5,-56.5 493.5,-75.5 586.5,-75.5 586.5,-56.5 493.5,-56.5"/>
<text text-anchor="middle" x="540" y="-63.5" font-family="Helvetica,sans-Serif" font-size="10.00">src/main/lexer.c</text>
</a>
</g>
</g>
<!-- Node7&#45;&gt;Node8 -->
<g id="edge8" class="edge">
<title>Node7&#45;&gt;Node8</title>
<path fill="none" stroke="midnightblue" d="M441.62,-108.5C465.62,-98.38 498.78,-84.39 519.81,-75.52"/>
<polygon fill="midnightblue" stroke="midnightblue" points="440.14,-105.33 432.28,-112.44 442.86,-111.78 440.14,-105.33"/>
</g>
<!-- Node9 -->
<g id="node9" class="node">
<title>Node9</title>
<g id="a_node9"><a xlink:href="test__lexer_8c.html" target="_top" xlink:title=" ">
<polygon fill="white" stroke="black" points="364.5,-56.5 364.5,-75.5 475.5,-75.5 475.5,-56.5 364.5,-56.5"/>
<text text-anchor="middle" x="420" y="-63.5" font-family="Helvetica,sans-Serif" font-size="10.00">src/test/test_lexer.c</text>
</a>
</g>
</g>
<!-- Node7&#45;&gt;Node9 -->
<g id="edge9" class="edge">
<title>Node7&#45;&gt;Node9</title>
<path fill="none" stroke="midnightblue" d="M414.8,-102.1C416.13,-93.14 417.65,-82.86 418.7,-75.75"/>
<polygon fill="midnightblue" stroke="midnightblue" points="411.32,-101.68 413.32,-112.08 418.25,-102.7 411.32,-101.68"/>
</g>
<!-- Node10&#45;&gt;Node2 -->
<g id="edge11" class="edge">
<title>Node10&#45;&gt;Node2</title>
<path fill="none" stroke="midnightblue" d="M220.7,-163.73C200.89,-153.73 174.29,-140.31 157.15,-131.65"/>
<polygon fill="midnightblue" stroke="midnightblue" points="219.3,-166.94 229.81,-168.32 222.46,-160.69 219.3,-166.94"/>
</g>
<!-- Node10&#45;&gt;Node3 -->
<g id="edge12" class="edge">
<title>Node10&#45;&gt;Node3</title>
<path fill="none" stroke="midnightblue" d="M237.22,-159.64C223.75,-135.74 200.01,-93.63 189.84,-75.59"/>
<polygon fill="midnightblue" stroke="midnightblue" points="234.18,-161.38 242.13,-168.37 240.27,-157.94 234.18,-161.38"/>
</g>
<!-- Node11 -->
<g id="node11" class="node">
<title>Node11</title>
<g id="a_node11"><a xlink:href="stack_8h.html" target="_top" xlink:title=" ">
<polygon fill="white" stroke="black" points="253,-112.5 253,-131.5 343,-131.5 343,-112.5 253,-112.5"/>
<text text-anchor="middle" x="298" y="-119.5" font-family="Helvetica,sans-Serif" font-size="10.00">include/stack.h</text>
</a>
</g>
</g>
<!-- Node10&#45;&gt;Node11 -->
<g id="edge13" class="edge">
<title>Node10&#45;&gt;Node11</title>
<path fill="none" stroke="midnightblue" d="M262.38,-160.72C271.37,-151.2 282.36,-139.56 289.74,-131.75"/>
<polygon fill="midnightblue" stroke="midnightblue" points="259.74,-158.41 255.42,-168.08 264.83,-163.22 259.74,-158.41"/>
</g>
<!-- Node11&#45;&gt;Node3 -->
<g id="edge14" class="edge">
<title>Node11&#45;&gt;Node3</title>
<path fill="none" stroke="midnightblue" d="M271,-108.1C249.89,-98.01 221.14,-84.27 202.82,-75.52"/>
<polygon fill="midnightblue" stroke="midnightblue" points="269.56,-111.29 280.09,-112.44 272.58,-104.97 269.56,-111.29"/>
</g>
<!-- Node12 -->
<g id="node12" class="node">
<title>Node12</title>
<g id="a_node12"><a xlink:href="stack_8c.html" target="_top" xlink:title=" ">
<polygon fill="white" stroke="black" points="250,-56.5 250,-75.5 346,-75.5 346,-56.5 250,-56.5"/>
<text text-anchor="middle" x="298" y="-63.5" font-family="Helvetica,sans-Serif" font-size="10.00">src/main/stack.c</text>
</a>
</g>
</g>
<!-- Node11&#45;&gt;Node12 -->
<g id="edge15" class="edge">
<title>Node11&#45;&gt;Node12</title>
<path fill="none" stroke="midnightblue" d="M298,-101.8C298,-92.91 298,-82.78 298,-75.75"/>
<polygon fill="midnightblue" stroke="midnightblue" points="294.5,-102.08 298,-112.08 301.5,-102.08 294.5,-102.08"/>
</g>
<!-- Node13&#45;&gt;Node7 -->
<g id="edge17" class="edge">
<title>Node13&#45;&gt;Node7</title>
<path fill="none" stroke="midnightblue" d="M436.38,-159.57C430.18,-150.27 422.83,-139.25 417.83,-131.75"/>
<polygon fill="midnightblue" stroke="midnightblue" points="433.6,-161.7 442.06,-168.08 439.42,-157.82 433.6,-161.7"/>
</g>
<!-- Node13&#45;&gt;Node8 -->
<g id="edge18" class="edge">
<title>Node13&#45;&gt;Node8</title>
<path fill="none" stroke="midnightblue" d="M461.73,-160.59C481.56,-136.87 517.53,-93.87 532.81,-75.59"/>
<polygon fill="midnightblue" stroke="midnightblue" points="458.95,-158.45 455.22,-168.37 464.32,-162.94 458.95,-158.45"/>
</g>
<!-- Node14 -->
<g id="node14" class="node">
<title>Node14</title>
<g id="a_node14"><a xlink:href="symbol__table_8c.html" target="_top" xlink:title=" ">
<polygon fill="white" stroke="black" points="512,-112.5 512,-131.5 648,-131.5 648,-112.5 512,-112.5"/>
<text text-anchor="middle" x="580" y="-119.5" font-family="Helvetica,sans-Serif" font-size="10.00">src/main/symbol_table.c</text>
</a>
</g>
</g>
<!-- Node13&#45;&gt;Node14 -->
<g id="edge19" class="edge">
<title>Node13&#45;&gt;Node14</title>
<path fill="none" stroke="midnightblue" d="M478.22,-164.64C502.99,-154.5 537.4,-140.43 559.18,-131.52"/>
<polygon fill="midnightblue" stroke="midnightblue" points="476.85,-161.42 468.92,-168.44 479.5,-167.9 476.85,-161.42"/>
</g>
</g>
</svg>
