<?xml version="1.0" encoding="UTF-8" standalone="no"?>
<!DOCTYPE svg PUBLIC "-//W3C//DTD SVG 1.1//EN"
 "http://www.w3.org/Graphics/SVG/1.1/DTD/svg11.dtd">
<!-- Generated by graphviz version 2.43.0 (0)
 -->
<!-- Title: print_parse_tree_inorder Pages: 1 -->
<svg width="393pt" height="58pt"
 viewBox="0.00 0.00 393.00 57.66" xmlns="http://www.w3.org/2000/svg" xmlns:xlink="http://www.w3.org/1999/xlink">
<g id="graph0" class="graph" transform="scale(1 1) rotate(0) translate(4 53.66)">
<title>print_parse_tree_inorder</title>
<polygon fill="white" stroke="transparent" points="-4,4 -4,-53.66 389,-53.66 389,4 -4,4"/>
<!-- Node1 -->
<g id="node1" class="node">
<title>Node1</title>
<g id="a_node1"><a xlink:title="Prints the parse tree using in&#45;order traversal in the specified file.">
<polygon fill="#bfbfbf" stroke="black" points="249,-28.5 249,-47.5 385,-47.5 385,-28.5 249,-28.5"/>
<text text-anchor="middle" x="317" y="-35.5" font-family="Helvetica,sans-Serif" font-size="10.00">print_parse_tree_inorder</text>
</a>
</g>
</g>
<!-- Node2 -->
<g id="node2" class="node">
<title>Node2</title>
<g id="a_node2"><a xlink:href="driver_8c.html#a0ddf1224851353fc92bfbff6f499fa97" target="_top" xlink:title=" ">
<polygon fill="white" stroke="black" points="0,-28.5 0,-47.5 41,-47.5 41,-28.5 0,-28.5"/>
<text text-anchor="middle" x="20.5" y="-35.5" font-family="Helvetica,sans-Serif" font-size="10.00">main</text>
</a>
</g>
</g>
<!-- Node1&#45;&gt;Node2 -->
<g id="edge1" class="edge">
<title>Node1&#45;&gt;Node2</title>
<path fill="none" stroke="midnightblue" d="M238.87,-45.51C192,-48.93 130.98,-51.35 77,-47 65.03,-46.04 51.75,-43.92 41.18,-41.98"/>
<polygon fill="midnightblue" stroke="midnightblue" points="239.24,-48.99 248.95,-44.74 238.71,-42.01 239.24,-48.99"/>
</g>
<!-- Node3 -->
<g id="node3" class="node">
<title>Node3</title>
<g id="a_node3"><a xlink:href="parser_8h.html#a8c9a76dff4106d2e5eb33c33aa0c85f5" target="_top" xlink:title="Prints the parse tree using in&#45;order traversal in the specified file.">
<polygon fill="white" stroke="black" points="77,-0.5 77,-19.5 213,-19.5 213,-0.5 77,-0.5"/>
<text text-anchor="middle" x="145" y="-7.5" font-family="Helvetica,sans-Serif" font-size="10.00">print_parse_tree_inorder</text>
</a>
</g>
</g>
<!-- Node1&#45;&gt;Node3 -->
<g id="edge2" class="edge">
<title>Node1&#45;&gt;Node3</title>
<path fill="none" stroke="midnightblue" d="M247.97,-26.79C233.32,-24.38 217.98,-21.86 203.77,-19.51"/>
<polygon fill="midnightblue" stroke="midnightblue" points="247.54,-30.27 257.97,-28.44 248.67,-23.36 247.54,-30.27"/>
</g>
<!-- Node3&#45;&gt;Node2 -->
<g id="edge3" class="edge">
<title>Node3&#45;&gt;Node2</title>
<path fill="none" stroke="midnightblue" d="M92.3,-21.82C74.23,-25.95 55.02,-30.34 41.18,-33.5"/>
<polygon fill="midnightblue" stroke="midnightblue" points="93.22,-25.2 102.19,-19.56 91.66,-18.37 93.22,-25.2"/>
</g>
<!-- Node3&#45;&gt;Node3 -->
<g id="edge4" class="edge">
<title>Node3&#45;&gt;Node3</title>
<path fill="none" stroke="midnightblue" d="M168.07,-29.03C166.81,-34.13 159.12,-38 145,-38 122.96,-38 116.59,-28.57 125.89,-19.76"/>
<polygon fill="midnightblue" stroke="midnightblue" points="171.25,-27.58 164.11,-19.76 164.81,-30.33 171.25,-27.58"/>
</g>
</g>
</svg>
