<?xml version="1.0" encoding="UTF-8" standalone="no"?>
<!DOCTYPE svg PUBLIC "-//W3C//DTD SVG 1.1//EN"
 "http://www.w3.org/Graphics/SVG/1.1/DTD/svg11.dtd">
<!-- Generated by graphviz version 2.43.0 (0)
 -->
<!-- Title: compute_follow_set Pages: 1 -->
<svg width="415pt" height="66pt"
 viewBox="0.00 0.00 415.00 66.00" xmlns="http://www.w3.org/2000/svg" xmlns:xlink="http://www.w3.org/1999/xlink">
<g id="graph0" class="graph" transform="scale(1 1) rotate(0) translate(4 62)">
<title>compute_follow_set</title>
<polygon fill="white" stroke="transparent" points="-4,4 -4,-62 411,-62 411,4 -4,4"/>
<!-- Node1 -->
<g id="node1" class="node">
<title>Node1</title>
<g id="a_node1"><a xlink:title="Computes the Follow set of a given non&#45;terminal.">
<polygon fill="#bfbfbf" stroke="black" points="0,-19.5 0,-38.5 115,-38.5 115,-19.5 0,-19.5"/>
<text text-anchor="middle" x="57.5" y="-26.5" font-family="Helvetica,sans-Serif" font-size="10.00">compute_follow_set</text>
</a>
</g>
</g>
<!-- Node2 -->
<g id="node2" class="node">
<title>Node2</title>
<g id="a_node2"><a xlink:href="parser_8c.html#ad57d45985f7e4a7acb09e809a7da75d8" target="_top" xlink:title="Adds a given token to the follow set of a non&#45;terminal.">
<polygon fill="white" stroke="black" points="173.5,-38.5 173.5,-57.5 278.5,-57.5 278.5,-38.5 173.5,-38.5"/>
<text text-anchor="middle" x="226" y="-45.5" font-family="Helvetica,sans-Serif" font-size="10.00">add_to_follow_set</text>
</a>
</g>
</g>
<!-- Node1&#45;&gt;Node2 -->
<g id="edge1" class="edge">
<title>Node1&#45;&gt;Node2</title>
<path fill="none" stroke="midnightblue" d="M115.33,-35.49C130.79,-37.25 147.6,-39.17 163.31,-40.96"/>
<polygon fill="midnightblue" stroke="midnightblue" points="163.12,-44.46 173.45,-42.12 163.91,-37.51 163.12,-44.46"/>
</g>
<!-- Node3 -->
<g id="node3" class="node">
<title>Node3</title>
<g id="a_node3"><a xlink:href="parser_8c.html#a66e98027ec5a1a7c880689156e4b664d" target="_top" xlink:title="Computes the first set of a sequence of symbols (terminals and non&#45;terminals).">
<polygon fill="white" stroke="black" points="151,-0.5 151,-19.5 301,-19.5 301,-0.5 151,-0.5"/>
<text text-anchor="middle" x="226" y="-7.5" font-family="Helvetica,sans-Serif" font-size="10.00">compute_first_of_sequence</text>
</a>
</g>
</g>
<!-- Node1&#45;&gt;Node3 -->
<g id="edge2" class="edge">
<title>Node1&#45;&gt;Node3</title>
<path fill="none" stroke="midnightblue" d="M115.33,-22.51C123.53,-21.58 132.1,-20.6 140.69,-19.62"/>
<polygon fill="midnightblue" stroke="midnightblue" points="141.22,-23.08 150.76,-18.47 140.43,-16.13 141.22,-23.08"/>
</g>
<!-- Node4 -->
<g id="node4" class="node">
<title>Node4</title>
<g id="a_node4"><a xlink:href="parser_8c.html#a2fb545f0baa318bfb9bdbab0e882cd32" target="_top" xlink:title="Adds a given token type to a set if it does not already exist.">
<polygon fill="white" stroke="black" points="337,-0.5 337,-19.5 407,-19.5 407,-0.5 337,-0.5"/>
<text text-anchor="middle" x="372" y="-7.5" font-family="Helvetica,sans-Serif" font-size="10.00">add_to_set</text>
</a>
</g>
</g>
<!-- Node3&#45;&gt;Node4 -->
<g id="edge3" class="edge">
<title>Node3&#45;&gt;Node4</title>
<path fill="none" stroke="midnightblue" d="M301.11,-10C309.93,-10 318.7,-10 326.91,-10"/>
<polygon fill="midnightblue" stroke="midnightblue" points="326.96,-13.5 336.96,-10 326.96,-6.5 326.96,-13.5"/>
</g>
</g>
</svg>
