<?xml version="1.0" encoding="UTF-8" standalone="no"?>
<!DOCTYPE svg PUBLIC "-//W3C//DTD SVG 1.1//EN"
 "http://www.w3.org/Graphics/SVG/1.1/DTD/svg11.dtd">
<!-- Generated by graphviz version 2.43.0 (0)
 -->
<!-- Title: parse_code Pages: 1 -->
<svg width="1302pt" height="560pt"
 viewBox="0.00 0.00 1302.00 560.00" xmlns="http://www.w3.org/2000/svg" xmlns:xlink="http://www.w3.org/1999/xlink">
<g id="graph0" class="graph" transform="scale(1 1) rotate(0) translate(4 556)">
<title>parse_code</title>
<polygon fill="white" stroke="transparent" points="-4,4 -4,-556 1298,-556 1298,4 -4,4"/>
<!-- Node1 -->
<g id="node1" class="node">
<title>Node1</title>
<g id="a_node1"><a xlink:title="Parses the given code based on the specified grammar.">
<polygon fill="#bfbfbf" stroke="black" points="0,-418.5 0,-437.5 72,-437.5 72,-418.5 0,-418.5"/>
<text text-anchor="middle" x="36" y="-425.5" font-family="Helvetica,sans-Serif" font-size="10.00">parse_code</text>
</a>
</g>
</g>
<!-- Node2 -->
<g id="node2" class="node">
<title>Node2</title>
<g id="a_node2"><a xlink:href="parser_8c.html#a38b7b58ee1b37118b65d39df4b90656a" target="_top" xlink:title="Computes the First set of a given non&#45;terminal.">
<polygon fill="white" stroke="black" points="124.5,-532.5 124.5,-551.5 228.5,-551.5 228.5,-532.5 124.5,-532.5"/>
<text text-anchor="middle" x="176.5" y="-539.5" font-family="Helvetica,sans-Serif" font-size="10.00">compute_first_set</text>
</a>
</g>
</g>
<!-- Node1&#45;&gt;Node2 -->
<g id="edge1" class="edge">
<title>Node1&#45;&gt;Node2</title>
<path fill="none" stroke="midnightblue" d="M41.53,-437.74C51.03,-457.05 74.9,-500.27 108,-523 110.9,-524.99 114,-526.77 117.23,-528.37"/>
<polygon fill="midnightblue" stroke="midnightblue" points="116,-531.65 126.57,-532.4 118.77,-525.22 116,-531.65"/>
</g>
<!-- Node4 -->
<g id="node4" class="node">
<title>Node4</title>
<g id="a_node4"><a xlink:href="parser_8c.html#a1fe10306eb61573f8a6929b0987802d0" target="_top" xlink:title="Computes the Follow set of a given non&#45;terminal.">
<polygon fill="white" stroke="black" points="119,-494.5 119,-513.5 234,-513.5 234,-494.5 119,-494.5"/>
<text text-anchor="middle" x="176.5" y="-501.5" font-family="Helvetica,sans-Serif" font-size="10.00">compute_follow_set</text>
</a>
</g>
</g>
<!-- Node1&#45;&gt;Node4 -->
<g id="edge3" class="edge">
<title>Node1&#45;&gt;Node4</title>
<path fill="none" stroke="midnightblue" d="M46.66,-437.92C59.53,-450.6 83.55,-472.41 108,-485 112.49,-487.31 117.29,-489.37 122.19,-491.2"/>
<polygon fill="midnightblue" stroke="midnightblue" points="121.07,-494.52 131.67,-494.44 123.34,-487.89 121.07,-494.52"/>
</g>
<!-- Node8 -->
<g id="node8" class="node">
<title>Node8</title>
<g id="a_node8"><a xlink:href="parser_8c.html#ad3a905e9370709865b9e0a8b31653443" target="_top" xlink:title="Finds a non&#45;terminal based on its name.">
<polygon fill="white" stroke="black" points="124.5,-456.5 124.5,-475.5 228.5,-475.5 228.5,-456.5 124.5,-456.5"/>
<text text-anchor="middle" x="176.5" y="-463.5" font-family="Helvetica,sans-Serif" font-size="10.00">find_non_terminal</text>
</a>
</g>
</g>
<!-- Node1&#45;&gt;Node8 -->
<g id="edge7" class="edge">
<title>Node1&#45;&gt;Node8</title>
<path fill="none" stroke="midnightblue" d="M71.95,-437.59C89.83,-442.49 111.79,-448.52 130.88,-453.76"/>
<polygon fill="midnightblue" stroke="midnightblue" points="129.99,-457.14 140.56,-456.41 131.84,-450.39 129.99,-457.14"/>
</g>
<!-- Node9 -->
<g id="node9" class="node">
<title>Node9</title>
<g id="a_node9"><a xlink:href="parser_8c.html#a24f97716740e58254357ada9b7921b5e" target="_top" xlink:title="Deallocates memory associated with all non&#45;terminals, their first and follow sets,...">
<polygon fill="white" stroke="black" points="108,-418.5 108,-437.5 245,-437.5 245,-418.5 108,-418.5"/>
<text text-anchor="middle" x="176.5" y="-425.5" font-family="Helvetica,sans-Serif" font-size="10.00">first_and_follow_cleanup</text>
</a>
</g>
</g>
<!-- Node1&#45;&gt;Node9 -->
<g id="edge8" class="edge">
<title>Node1&#45;&gt;Node9</title>
<path fill="none" stroke="midnightblue" d="M72.31,-428C80.23,-428 88.93,-428 97.83,-428"/>
<polygon fill="midnightblue" stroke="midnightblue" points="97.92,-431.5 107.92,-428 97.92,-424.5 97.92,-431.5"/>
</g>
<!-- Node10 -->
<g id="node10" class="node">
<title>Node10</title>
<g id="a_node10"><a xlink:href="parser_8c.html#a2ae8d13411ecb85d283dbcd2045c2bd6" target="_top" xlink:title="Generates the parsing table for the given grammar using a hash map.">
<polygon fill="white" stroke="black" points="117,-380.5 117,-399.5 236,-399.5 236,-380.5 117,-380.5"/>
<text text-anchor="middle" x="176.5" y="-387.5" font-family="Helvetica,sans-Serif" font-size="10.00">generate_parse_map</text>
</a>
</g>
</g>
<!-- Node1&#45;&gt;Node10 -->
<g id="edge9" class="edge">
<title>Node1&#45;&gt;Node10</title>
<path fill="none" stroke="midnightblue" d="M71.95,-418.41C89.83,-413.51 111.79,-407.48 130.88,-402.24"/>
<polygon fill="midnightblue" stroke="midnightblue" points="131.84,-405.61 140.56,-399.59 129.99,-398.86 131.84,-405.61"/>
</g>
<!-- Node12 -->
<g id="node12" class="node">
<title>Node12</title>
<g id="a_node12"><a xlink:href="parser_8c.html#a385276c7e31aeff5ad9c22370300ced6" target="_top" xlink:title="Generates a parse tree for the given source code.">
<polygon fill="white" stroke="black" points="118,-228.5 118,-247.5 235,-247.5 235,-228.5 118,-228.5"/>
<text text-anchor="middle" x="176.5" y="-235.5" font-family="Helvetica,sans-Serif" font-size="10.00">generate_parse_tree</text>
</a>
</g>
</g>
<!-- Node1&#45;&gt;Node12 -->
<g id="edge12" class="edge">
<title>Node1&#45;&gt;Node12</title>
<path fill="none" stroke="midnightblue" d="M44.06,-418.32C66,-388.21 133.28,-295.92 162.13,-256.34"/>
<polygon fill="midnightblue" stroke="midnightblue" points="165.23,-258.03 168.29,-247.89 159.57,-253.91 165.23,-258.03"/>
</g>
<!-- Node36 -->
<g id="node36" class="node">
<title>Node36</title>
<g id="a_node36"><a xlink:href="lexer_8h.html#ab45c7162c82bb8baec1ef2a248bcf120" target="_top" xlink:title="Retrieves the token type based on the given string.">
<polygon fill="white" stroke="black" points="130.5,-190.5 130.5,-209.5 222.5,-209.5 222.5,-190.5 130.5,-190.5"/>
<text text-anchor="middle" x="176.5" y="-197.5" font-family="Helvetica,sans-Serif" font-size="10.00">string_to_token</text>
</a>
</g>
</g>
<!-- Node1&#45;&gt;Node36 -->
<g id="edge39" class="edge">
<title>Node1&#45;&gt;Node36</title>
<path fill="none" stroke="midnightblue" d="M37.26,-418.46C38.68,-385.59 47.94,-275.96 108,-219 111.77,-215.43 116.15,-212.52 120.85,-210.15"/>
<polygon fill="midnightblue" stroke="midnightblue" points="122.31,-213.33 130.17,-206.23 119.6,-206.88 122.31,-213.33"/>
</g>
<!-- Node3 -->
<g id="node3" class="node">
<title>Node3</title>
<g id="a_node3"><a xlink:href="parser_8c.html#a2953594e876de2e3e2ec7d6f9b5c3c40" target="_top" xlink:title="Adds a given token to the first set of a non&#45;terminal.">
<polygon fill="white" stroke="black" points="309,-532.5 309,-551.5 403,-551.5 403,-532.5 309,-532.5"/>
<text text-anchor="middle" x="356" y="-539.5" font-family="Helvetica,sans-Serif" font-size="10.00">add_to_first_set</text>
</a>
</g>
</g>
<!-- Node2&#45;&gt;Node3 -->
<g id="edge2" class="edge">
<title>Node2&#45;&gt;Node3</title>
<path fill="none" stroke="midnightblue" d="M228.84,-542C250.77,-542 276.43,-542 298.86,-542"/>
<polygon fill="midnightblue" stroke="midnightblue" points="298.92,-545.5 308.92,-542 298.92,-538.5 298.92,-545.5"/>
</g>
<!-- Node5 -->
<g id="node5" class="node">
<title>Node5</title>
<g id="a_node5"><a xlink:href="parser_8c.html#ad57d45985f7e4a7acb09e809a7da75d8" target="_top" xlink:title="Adds a given token to the follow set of a non&#45;terminal.">
<polygon fill="white" stroke="black" points="303.5,-494.5 303.5,-513.5 408.5,-513.5 408.5,-494.5 303.5,-494.5"/>
<text text-anchor="middle" x="356" y="-501.5" font-family="Helvetica,sans-Serif" font-size="10.00">add_to_follow_set</text>
</a>
</g>
</g>
<!-- Node4&#45;&gt;Node5 -->
<g id="edge4" class="edge">
<title>Node4&#45;&gt;Node5</title>
<path fill="none" stroke="midnightblue" d="M234.15,-504C252.98,-504 274.05,-504 293.25,-504"/>
<polygon fill="midnightblue" stroke="midnightblue" points="293.4,-507.5 303.4,-504 293.4,-500.5 293.4,-507.5"/>
</g>
<!-- Node6 -->
<g id="node6" class="node">
<title>Node6</title>
<g id="a_node6"><a xlink:href="parser_8c.html#a66e98027ec5a1a7c880689156e4b664d" target="_top" xlink:title="Computes the first set of a sequence of symbols (terminals and non&#45;terminals).">
<polygon fill="white" stroke="black" points="281,-456.5 281,-475.5 431,-475.5 431,-456.5 281,-456.5"/>
<text text-anchor="middle" x="356" y="-463.5" font-family="Helvetica,sans-Serif" font-size="10.00">compute_first_of_sequence</text>
</a>
</g>
</g>
<!-- Node4&#45;&gt;Node6 -->
<g id="edge5" class="edge">
<title>Node4&#45;&gt;Node6</title>
<path fill="none" stroke="midnightblue" d="M222.29,-494.41C246.03,-489.33 275.38,-483.04 300.44,-477.68"/>
<polygon fill="midnightblue" stroke="midnightblue" points="301.49,-481.04 310.53,-475.52 300.02,-474.19 301.49,-481.04"/>
</g>
<!-- Node7 -->
<g id="node7" class="node">
<title>Node7</title>
<g id="a_node7"><a xlink:href="parser_8c.html#a2fb545f0baa318bfb9bdbab0e882cd32" target="_top" xlink:title="Adds a given token type to a set if it does not already exist.">
<polygon fill="white" stroke="black" points="496,-456.5 496,-475.5 566,-475.5 566,-456.5 496,-456.5"/>
<text text-anchor="middle" x="531" y="-463.5" font-family="Helvetica,sans-Serif" font-size="10.00">add_to_set</text>
</a>
</g>
</g>
<!-- Node6&#45;&gt;Node7 -->
<g id="edge6" class="edge">
<title>Node6&#45;&gt;Node7</title>
<path fill="none" stroke="midnightblue" d="M431.12,-466C449.63,-466 468.91,-466 485.47,-466"/>
<polygon fill="midnightblue" stroke="midnightblue" points="485.93,-469.5 495.93,-466 485.93,-462.5 485.93,-469.5"/>
</g>
<!-- Node10&#45;&gt;Node6 -->
<g id="edge10" class="edge">
<title>Node10&#45;&gt;Node6</title>
<path fill="none" stroke="midnightblue" d="M224.26,-399.59C231.48,-402.07 238.64,-405.16 245,-409 264.91,-421.03 260.95,-435.2 281,-447 284.83,-449.26 288.93,-451.25 293.16,-453"/>
<polygon fill="midnightblue" stroke="midnightblue" points="291.98,-456.3 302.57,-456.49 294.41,-449.73 291.98,-456.3"/>
</g>
<!-- Node11 -->
<g id="node11" class="node">
<title>Node11</title>
<g id="a_node11"><a xlink:href="hash__map_8h.html#a17fd9c089bb62d17bb6266babc287a82" target="_top" xlink:title="Inserts a production rule into the internal hash table for the LL(1) parser.">
<polygon fill="white" stroke="black" points="320.5,-418.5 320.5,-437.5 391.5,-437.5 391.5,-418.5 320.5,-418.5"/>
<text text-anchor="middle" x="356" y="-425.5" font-family="Helvetica,sans-Serif" font-size="10.00">map_insert</text>
</a>
</g>
</g>
<!-- Node10&#45;&gt;Node11 -->
<g id="edge11" class="edge">
<title>Node10&#45;&gt;Node11</title>
<path fill="none" stroke="midnightblue" d="M222.29,-399.59C249.25,-405.36 283.44,-412.68 310.37,-418.44"/>
<polygon fill="midnightblue" stroke="midnightblue" points="309.79,-421.9 320.3,-420.57 311.26,-415.06 309.79,-421.9"/>
</g>
<!-- Node13 -->
<g id="node13" class="node">
<title>Node13</title>
<g id="a_node13"><a xlink:href="parser_8c.html#ad327f860dea11c0c1e3338a030858e0d" target="_top" xlink:title="Creates a new parse tree node corresponding to a given non&#45;terminal.">
<polygon fill="white" stroke="black" points="282,-380.5 282,-399.5 430,-399.5 430,-380.5 282,-380.5"/>
<text text-anchor="middle" x="356" y="-387.5" font-family="Helvetica,sans-Serif" font-size="10.00">create_tree_node_nonterm</text>
</a>
</g>
</g>
<!-- Node12&#45;&gt;Node13 -->
<g id="edge13" class="edge">
<title>Node12&#45;&gt;Node13</title>
<path fill="none" stroke="midnightblue" d="M182.21,-247.82C194.65,-272.61 230.84,-338.11 281,-371 284.12,-373.05 287.45,-374.88 290.91,-376.51"/>
<polygon fill="midnightblue" stroke="midnightblue" points="289.71,-379.8 300.29,-380.38 292.38,-373.33 289.71,-379.8"/>
</g>
<!-- Node14 -->
<g id="node14" class="node">
<title>Node14</title>
<g id="a_node14"><a xlink:href="parser_8c.html#a3bdbe5934ffe1853ff744dfef15843d8" target="_top" xlink:title="Creates a new parse tree node corresponding to a given terminal.">
<polygon fill="white" stroke="black" points="291,-342.5 291,-361.5 421,-361.5 421,-342.5 291,-342.5"/>
<text text-anchor="middle" x="356" y="-349.5" font-family="Helvetica,sans-Serif" font-size="10.00">create_tree_node_term</text>
</a>
</g>
</g>
<!-- Node12&#45;&gt;Node14 -->
<g id="edge14" class="edge">
<title>Node12&#45;&gt;Node14</title>
<path fill="none" stroke="midnightblue" d="M185.21,-247.75C201.02,-267.07 239.19,-310.32 281,-333 285.22,-335.29 289.73,-337.31 294.36,-339.1"/>
<polygon fill="midnightblue" stroke="midnightblue" points="293.39,-342.46 303.98,-342.44 295.68,-335.85 293.39,-342.46"/>
</g>
<!-- Node15 -->
<g id="node15" class="node">
<title>Node15</title>
<g id="a_node15"><a xlink:href="lexer_8h.html#a68b169dd0377b22e0729c7e7a9988262" target="_top" xlink:title="A wrapper function that fetches the next token from the file.">
<polygon fill="white" stroke="black" points="310,-304.5 310,-323.5 402,-323.5 402,-304.5 310,-304.5"/>
<text text-anchor="middle" x="356" y="-311.5" font-family="Helvetica,sans-Serif" font-size="10.00">get_next_token</text>
</a>
</g>
</g>
<!-- Node12&#45;&gt;Node15 -->
<g id="edge15" class="edge">
<title>Node12&#45;&gt;Node15</title>
<path fill="none" stroke="midnightblue" d="M192,-247.54C211.52,-259.99 247.63,-281.77 281,-295 287.21,-297.46 293.85,-299.69 300.5,-301.68"/>
<polygon fill="midnightblue" stroke="midnightblue" points="299.63,-305.08 310.2,-304.43 301.53,-298.34 299.63,-305.08"/>
</g>
<!-- Node27 -->
<g id="node27" class="node">
<title>Node27</title>
<g id="a_node27"><a xlink:href="hash__map_8h.html#aa4630dffff2a5ef840da3cfd9572b79f" target="_top" xlink:title="Retrieves the production rule associated with a given key from the internal hash table.">
<polygon fill="white" stroke="black" points="322,-266.5 322,-285.5 390,-285.5 390,-266.5 322,-266.5"/>
<text text-anchor="middle" x="356" y="-273.5" font-family="Helvetica,sans-Serif" font-size="10.00">map_fetch</text>
</a>
</g>
</g>
<!-- Node12&#45;&gt;Node27 -->
<g id="edge29" class="edge">
<title>Node12&#45;&gt;Node27</title>
<path fill="none" stroke="midnightblue" d="M222.29,-247.59C249.79,-253.48 284.83,-260.98 312,-266.79"/>
<polygon fill="midnightblue" stroke="midnightblue" points="311.48,-270.26 321.99,-268.93 312.94,-263.42 311.48,-270.26"/>
</g>
<!-- Node28 -->
<g id="node28" class="node">
<title>Node28</title>
<g id="a_node28"><a xlink:href="stack_8h.html#a0401a54893bb4a3c36be29b4f4d2a673" target="_top" xlink:title="Deallocates all memory associated with the stack.">
<polygon fill="white" stroke="black" points="313,-228.5 313,-247.5 399,-247.5 399,-228.5 313,-228.5"/>
<text text-anchor="middle" x="356" y="-235.5" font-family="Helvetica,sans-Serif" font-size="10.00">stack_cleanup</text>
</a>
</g>
</g>
<!-- Node12&#45;&gt;Node28 -->
<g id="edge30" class="edge">
<title>Node12&#45;&gt;Node28</title>
<path fill="none" stroke="midnightblue" d="M235.13,-238C256.88,-238 281.48,-238 302.71,-238"/>
<polygon fill="midnightblue" stroke="midnightblue" points="302.84,-241.5 312.84,-238 302.84,-234.5 302.84,-241.5"/>
</g>
<!-- Node29 -->
<g id="node29" class="node">
<title>Node29</title>
<g id="a_node29"><a xlink:href="stack_8h.html#a12f8e38a7f5d0af1137cc4fff111ef3c" target="_top" xlink:title="Initializes a stack.">
<polygon fill="white" stroke="black" points="316.5,-190.5 316.5,-209.5 395.5,-209.5 395.5,-190.5 316.5,-190.5"/>
<text text-anchor="middle" x="356" y="-197.5" font-family="Helvetica,sans-Serif" font-size="10.00">stack_create</text>
</a>
</g>
</g>
<!-- Node12&#45;&gt;Node29 -->
<g id="edge31" class="edge">
<title>Node12&#45;&gt;Node29</title>
<path fill="none" stroke="midnightblue" d="M222.29,-228.41C247.86,-222.94 279.94,-216.07 306.15,-210.46"/>
<polygon fill="midnightblue" stroke="midnightblue" points="307.21,-213.81 316.25,-208.3 305.74,-206.97 307.21,-213.81"/>
</g>
<!-- Node30 -->
<g id="node30" class="node">
<title>Node30</title>
<g id="a_node30"><a xlink:href="stack_8h.html#a4bf088087d46031158e6bdd2a93695f9" target="_top" xlink:title="Determines if the stack is empty.">
<polygon fill="white" stroke="black" points="316,-152.5 316,-171.5 396,-171.5 396,-152.5 316,-152.5"/>
<text text-anchor="middle" x="356" y="-159.5" font-family="Helvetica,sans-Serif" font-size="10.00">stack_empty</text>
</a>
</g>
</g>
<!-- Node12&#45;&gt;Node30 -->
<g id="edge32" class="edge">
<title>Node12&#45;&gt;Node30</title>
<path fill="none" stroke="midnightblue" d="M224.26,-228.41C231.48,-225.93 238.64,-222.84 245,-219 264.91,-206.97 260.95,-192.8 281,-181 288.64,-176.5 297.34,-173.06 306.02,-170.43"/>
<polygon fill="midnightblue" stroke="midnightblue" points="307.02,-173.78 315.75,-167.78 305.18,-167.03 307.02,-173.78"/>
</g>
<!-- Node31 -->
<g id="node31" class="node">
<title>Node31</title>
<g id="a_node31"><a xlink:href="stack_8h.html#a6ee1c21725f3cd3803d491e0dcd1ecb8" target="_top" xlink:title="Removes and returns the topmost node from the stack.">
<polygon fill="white" stroke="black" points="323,-114.5 323,-133.5 389,-133.5 389,-114.5 323,-114.5"/>
<text text-anchor="middle" x="356" y="-121.5" font-family="Helvetica,sans-Serif" font-size="10.00">stack_pop</text>
</a>
</g>
</g>
<!-- Node12&#45;&gt;Node31 -->
<g id="edge33" class="edge">
<title>Node12&#45;&gt;Node31</title>
<path fill="none" stroke="midnightblue" d="M229.59,-228.37C235.16,-225.92 240.44,-222.85 245,-219 273.55,-194.88 252.17,-166.79 281,-143 290.02,-135.56 301.61,-130.99 312.92,-128.19"/>
<polygon fill="midnightblue" stroke="midnightblue" points="313.63,-131.62 322.72,-126.17 312.22,-124.76 313.63,-131.62"/>
</g>
<!-- Node33 -->
<g id="node33" class="node">
<title>Node33</title>
<g id="a_node33"><a xlink:href="stack_8h.html#ac96c2f73b6cf10cdf5189330c7b02be8" target="_top" xlink:title="Adds a node to the top of the stack.">
<polygon fill="white" stroke="black" points="320.5,-76.5 320.5,-95.5 391.5,-95.5 391.5,-76.5 320.5,-76.5"/>
<text text-anchor="middle" x="356" y="-83.5" font-family="Helvetica,sans-Serif" font-size="10.00">stack_push</text>
</a>
</g>
</g>
<!-- Node12&#45;&gt;Node33 -->
<g id="edge35" class="edge">
<title>Node12&#45;&gt;Node33</title>
<path fill="none" stroke="midnightblue" d="M231.13,-228.49C236.22,-226.01 240.98,-222.9 245,-219 283.16,-182.03 242.42,-141.53 281,-105 289.04,-97.39 299.7,-92.72 310.42,-89.89"/>
<polygon fill="midnightblue" stroke="midnightblue" points="311.17,-93.3 320.21,-87.77 309.69,-86.46 311.17,-93.3"/>
</g>
<!-- Node34 -->
<g id="node34" class="node">
<title>Node34</title>
<g id="a_node34"><a xlink:href="stack_8h.html#af0faaa6f406636514cacd26f54be0a19" target="_top" xlink:title="Returns the topmost node from the stack without removing it.">
<polygon fill="white" stroke="black" points="324,-38.5 324,-57.5 388,-57.5 388,-38.5 324,-38.5"/>
<text text-anchor="middle" x="356" y="-45.5" font-family="Helvetica,sans-Serif" font-size="10.00">stack_top</text>
</a>
</g>
</g>
<!-- Node12&#45;&gt;Node34 -->
<g id="edge36" class="edge">
<title>Node12&#45;&gt;Node34</title>
<path fill="none" stroke="midnightblue" d="M232.08,-228.44C236.87,-225.96 241.29,-222.87 245,-219 293.05,-168.89 232.37,-116.55 281,-67 289.71,-58.13 301.96,-53.2 314,-50.53"/>
<polygon fill="midnightblue" stroke="midnightblue" points="314.73,-53.95 323.98,-48.77 313.52,-47.06 314.73,-53.95"/>
</g>
<!-- Node35 -->
<g id="node35" class="node">
<title>Node35</title>
<g id="a_node35"><a xlink:href="lexer_8h.html#aee1807f4e95bea666b6c994915907414" target="_top" xlink:title="Retrieves a string representation of a token type (for printing purposes).">
<polygon fill="white" stroke="black" points="310,-0.5 310,-19.5 402,-19.5 402,-0.5 310,-0.5"/>
<text text-anchor="middle" x="356" y="-7.5" font-family="Helvetica,sans-Serif" font-size="10.00">token_to_string</text>
</a>
</g>
</g>
<!-- Node12&#45;&gt;Node35 -->
<g id="edge38" class="edge">
<title>Node12&#45;&gt;Node35</title>
<path fill="none" stroke="midnightblue" d="M232.58,-228.44C237.21,-225.96 241.46,-222.86 245,-219 303.07,-155.64 222.2,-91.69 281,-29 286.24,-23.41 292.88,-19.38 300.03,-16.48"/>
<polygon fill="midnightblue" stroke="midnightblue" points="301.59,-19.65 310,-13.2 299.4,-13 301.59,-19.65"/>
</g>
<!-- Node16 -->
<g id="node16" class="node">
<title>Node16</title>
<g id="a_node16"><a xlink:href="lexer_8c.html#a1ede1e9739c264c7e3af07630e5a68f3" target="_top" xlink:title=" ">
<polygon fill="white" stroke="black" points="467,-304.5 467,-323.5 595,-323.5 595,-304.5 467,-304.5"/>
<text text-anchor="middle" x="531" y="-311.5" font-family="Helvetica,sans-Serif" font-size="10.00">get_next_token_helper</text>
</a>
</g>
</g>
<!-- Node15&#45;&gt;Node16 -->
<g id="edge16" class="edge">
<title>Node15&#45;&gt;Node16</title>
<path fill="none" stroke="midnightblue" d="M402,-314C418.73,-314 438.17,-314 456.77,-314"/>
<polygon fill="midnightblue" stroke="midnightblue" points="456.99,-317.5 466.99,-314 456.99,-310.5 456.99,-317.5"/>
</g>
<!-- Node17 -->
<g id="node17" class="node">
<title>Node17</title>
<g id="a_node17"><a xlink:href="lexer_8c.html#a78c9ef2940e04bc9cd18a764bdb9e0a5" target="_top" xlink:title="Initializes an internal twin buffer and loads the active buffer with the first chunk of the file.">
<polygon fill="white" stroke="black" points="653.5,-361.5 653.5,-380.5 719.5,-380.5 719.5,-361.5 653.5,-361.5"/>
<text text-anchor="middle" x="686.5" y="-368.5" font-family="Helvetica,sans-Serif" font-size="10.00">buffer_init</text>
</a>
</g>
</g>
<!-- Node16&#45;&gt;Node17 -->
<g id="edge17" class="edge">
<title>Node16&#45;&gt;Node17</title>
<path fill="none" stroke="midnightblue" d="M578.22,-323.62C594.82,-329.49 613.71,-336.67 631,-343 642.98,-347.39 656.52,-352.11 667.11,-356.86"/>
<polygon fill="midnightblue" stroke="midnightblue" points="665.7,-360.06 676.21,-361.4 668.83,-353.8 665.7,-360.06"/>
</g>
<!-- Node19 -->
<g id="node19" class="node">
<title>Node19</title>
<g id="a_node19"><a xlink:href="lexer_8c.html#ab8b57ff9976f6622383db94b907a00f3" target="_top" xlink:title=" ">
<polygon fill="white" stroke="black" points="646.5,-323.5 646.5,-342.5 726.5,-342.5 726.5,-323.5 646.5,-323.5"/>
<text text-anchor="middle" x="686.5" y="-330.5" font-family="Helvetica,sans-Serif" font-size="10.00">create_token</text>
</a>
</g>
</g>
<!-- Node16&#45;&gt;Node19 -->
<g id="edge20" class="edge">
<title>Node16&#45;&gt;Node19</title>
<path fill="none" stroke="midnightblue" d="M595.32,-321.84C609.01,-323.53 623.28,-325.3 636.32,-326.91"/>
<polygon fill="midnightblue" stroke="midnightblue" points="636.14,-330.42 646.49,-328.17 637,-323.47 636.14,-330.42"/>
</g>
<!-- Node20 -->
<g id="node20" class="node">
<title>Node20</title>
<g id="a_node20"><a xlink:href="symbol__table_8h.html#a838379e0d91707a08998e494fb420bf5" target="_top" xlink:title="Inserts a lexeme into the internal symbol table.">
<polygon fill="white" stroke="black" points="778,-304.5 778,-323.5 894,-323.5 894,-304.5 778,-304.5"/>
<text text-anchor="middle" x="836" y="-311.5" font-family="Helvetica,sans-Serif" font-size="10.00">symbol_table_insert</text>
</a>
</g>
</g>
<!-- Node16&#45;&gt;Node20 -->
<g id="edge28" class="edge">
<title>Node16&#45;&gt;Node20</title>
<path fill="none" stroke="midnightblue" d="M595.15,-314C645.64,-314 716.25,-314 767.78,-314"/>
<polygon fill="midnightblue" stroke="midnightblue" points="767.82,-317.5 777.82,-314 767.82,-310.5 767.82,-317.5"/>
</g>
<!-- Node25 -->
<g id="node25" class="node">
<title>Node25</title>
<g id="a_node25"><a xlink:href="lexer_8c.html#a960f17a4b92e6cce8b8edae91c728ead" target="_top" xlink:title=" ">
<polygon fill="white" stroke="black" points="631,-247.5 631,-266.5 742,-266.5 742,-247.5 631,-247.5"/>
<text text-anchor="middle" x="686.5" y="-254.5" font-family="Helvetica,sans-Serif" font-size="10.00">retract_and_update</text>
</a>
</g>
</g>
<!-- Node16&#45;&gt;Node25 -->
<g id="edge26" class="edge">
<title>Node16&#45;&gt;Node25</title>
<path fill="none" stroke="midnightblue" d="M557.69,-304.46C583.04,-295.05 621.98,-280.59 650.22,-270.1"/>
<polygon fill="midnightblue" stroke="midnightblue" points="651.57,-273.33 659.72,-266.57 649.13,-266.77 651.57,-273.33"/>
</g>
<!-- Node26 -->
<g id="node26" class="node">
<title>Node26</title>
<g id="a_node26"><a xlink:href="lexer_8c.html#a6d0bc199864425dd309933a88f06bb51" target="_top" xlink:title=" ">
<polygon fill="white" stroke="black" points="648.5,-209.5 648.5,-228.5 724.5,-228.5 724.5,-209.5 648.5,-209.5"/>
<text text-anchor="middle" x="686.5" y="-216.5" font-family="Helvetica,sans-Serif" font-size="10.00">swap_buffer</text>
</a>
</g>
</g>
<!-- Node16&#45;&gt;Node26 -->
<g id="edge27" class="edge">
<title>Node16&#45;&gt;Node26</title>
<path fill="none" stroke="midnightblue" d="M542.2,-304.36C559.34,-288.59 595.54,-257.15 631,-238 634.93,-235.88 639.13,-233.92 643.41,-232.14"/>
<polygon fill="midnightblue" stroke="midnightblue" points="644.73,-235.38 652.78,-228.5 642.19,-228.85 644.73,-235.38"/>
</g>
<!-- Node17&#45;&gt;Node16 -->
<g id="edge19" class="edge">
<title>Node17&#45;&gt;Node16</title>
<path fill="none" stroke="midnightblue" d="M653.45,-368.77C646.06,-366.43 638.25,-363.65 631,-361 603.2,-350.82 571.25,-338.43 551.35,-328.4"/>
<polygon fill="midnightblue" stroke="midnightblue" points="552.83,-325.22 542.36,-323.54 549.49,-331.37 552.83,-325.22"/>
</g>
<!-- Node18 -->
<g id="node18" class="node">
<title>Node18</title>
<g id="a_node18"><a xlink:href="lexer_8c.html#a67dd8f227181df843e25a314e262a10c" target="_top" xlink:title="Deallocates the twin buffer (automatically called at program termination).">
<polygon fill="white" stroke="black" points="791.5,-361.5 791.5,-380.5 880.5,-380.5 880.5,-361.5 791.5,-361.5"/>
<text text-anchor="middle" x="836" y="-368.5" font-family="Helvetica,sans-Serif" font-size="10.00">buffer_cleanup</text>
</a>
</g>
</g>
<!-- Node17&#45;&gt;Node18 -->
<g id="edge18" class="edge">
<title>Node17&#45;&gt;Node18</title>
<path fill="none" stroke="midnightblue" d="M719.51,-371C737.48,-371 760.39,-371 781.06,-371"/>
<polygon fill="midnightblue" stroke="midnightblue" points="781.31,-374.5 791.31,-371 781.31,-367.5 781.31,-374.5"/>
</g>
<!-- Node19&#45;&gt;Node20 -->
<g id="edge21" class="edge">
<title>Node19&#45;&gt;Node20</title>
<path fill="none" stroke="midnightblue" d="M726.64,-327.96C739.28,-326.33 753.67,-324.48 767.74,-322.66"/>
<polygon fill="midnightblue" stroke="midnightblue" points="768.43,-326.1 777.9,-321.36 767.53,-319.16 768.43,-326.1"/>
</g>
<!-- Node21 -->
<g id="node21" class="node">
<title>Node21</title>
<g id="a_node21"><a xlink:href="symbol__table_8c.html#af00e4a3f1778752600e745a5f825e3ac" target="_top" xlink:title=" ">
<polygon fill="white" stroke="black" points="930,-304.5 930,-323.5 1047,-323.5 1047,-304.5 930,-304.5"/>
<text text-anchor="middle" x="988.5" y="-311.5" font-family="Helvetica,sans-Serif" font-size="10.00">symbol_table_resize</text>
</a>
</g>
</g>
<!-- Node20&#45;&gt;Node21 -->
<g id="edge22" class="edge">
<title>Node20&#45;&gt;Node21</title>
<path fill="none" stroke="midnightblue" d="M894.33,-314C902.59,-314 911.17,-314 919.62,-314"/>
<polygon fill="midnightblue" stroke="midnightblue" points="919.83,-317.5 929.83,-314 919.83,-310.5 919.83,-317.5"/>
</g>
<!-- Node22 -->
<g id="node22" class="node">
<title>Node22</title>
<g id="a_node22"><a xlink:href="symbol__table_8c.html#abd009617cc391aeb4c484a199286513e" target="_top" xlink:title=" ">
<polygon fill="white" stroke="black" points="1105,-326.5 1105,-345.5 1177,-345.5 1177,-326.5 1105,-326.5"/>
<text text-anchor="middle" x="1141" y="-333.5" font-family="Helvetica,sans-Serif" font-size="10.00">next_prime</text>
</a>
</g>
</g>
<!-- Node21&#45;&gt;Node22 -->
<g id="edge23" class="edge">
<title>Node21&#45;&gt;Node22</title>
<path fill="none" stroke="midnightblue" d="M1047.26,-322.44C1063.02,-324.75 1079.86,-327.21 1094.81,-329.39"/>
<polygon fill="midnightblue" stroke="midnightblue" points="1094.42,-332.87 1104.82,-330.86 1095.43,-325.95 1094.42,-332.87"/>
</g>
<!-- Node24 -->
<g id="node24" class="node">
<title>Node24</title>
<g id="a_node24"><a xlink:href="symbol__table_8c.html#a86044a0a95c64d3b677f00cba38ae8e1" target="_top" xlink:title=" ">
<polygon fill="white" stroke="black" points="1083,-277 1083,-307 1199,-307 1199,-277 1083,-277"/>
<text text-anchor="start" x="1091" y="-295" font-family="Helvetica,sans-Serif" font-size="10.00">symbol_table_insert</text>
<text text-anchor="middle" x="1141" y="-284" font-family="Helvetica,sans-Serif" font-size="10.00">_entry</text>
</a>
</g>
</g>
<!-- Node21&#45;&gt;Node24 -->
<g id="edge25" class="edge">
<title>Node21&#45;&gt;Node24</title>
<path fill="none" stroke="midnightblue" d="M1047.26,-305.56C1055.6,-304.34 1064.24,-303.07 1072.75,-301.83"/>
<polygon fill="midnightblue" stroke="midnightblue" points="1073.26,-305.29 1082.65,-300.38 1072.25,-298.37 1073.26,-305.29"/>
</g>
<!-- Node23 -->
<g id="node23" class="node">
<title>Node23</title>
<g id="a_node23"><a xlink:href="symbol__table_8c.html#aa29f6b8604796044e39772a51c0f2c63" target="_top" xlink:title=" ">
<polygon fill="white" stroke="black" points="1235,-326.5 1235,-345.5 1294,-345.5 1294,-326.5 1235,-326.5"/>
<text text-anchor="middle" x="1264.5" y="-333.5" font-family="Helvetica,sans-Serif" font-size="10.00">is_prime</text>
</a>
</g>
</g>
<!-- Node22&#45;&gt;Node23 -->
<g id="edge24" class="edge">
<title>Node22&#45;&gt;Node23</title>
<path fill="none" stroke="midnightblue" d="M1177.14,-336C1192.06,-336 1209.5,-336 1224.79,-336"/>
<polygon fill="midnightblue" stroke="midnightblue" points="1224.97,-339.5 1234.97,-336 1224.97,-332.5 1224.97,-339.5"/>
</g>
<!-- Node32 -->
<g id="node32" class="node">
<title>Node32</title>
<g id="a_node32"><a xlink:href="stack_8c.html#a4bf088087d46031158e6bdd2a93695f9" target="_top" xlink:title="Determines if the stack is empty.">
<polygon fill="white" stroke="black" points="491,-76.5 491,-95.5 571,-95.5 571,-76.5 491,-76.5"/>
<text text-anchor="middle" x="531" y="-83.5" font-family="Helvetica,sans-Serif" font-size="10.00">stack_empty</text>
</a>
</g>
</g>
<!-- Node31&#45;&gt;Node32 -->
<g id="edge34" class="edge">
<title>Node31&#45;&gt;Node32</title>
<path fill="none" stroke="midnightblue" d="M389.13,-116.94C414.83,-111.3 451.3,-103.29 480.69,-96.83"/>
<polygon fill="midnightblue" stroke="midnightblue" points="481.74,-100.18 490.76,-94.62 480.24,-93.35 481.74,-100.18"/>
</g>
<!-- Node34&#45;&gt;Node32 -->
<g id="edge37" class="edge">
<title>Node34&#45;&gt;Node32</title>
<path fill="none" stroke="midnightblue" d="M388.33,-54.88C414.14,-60.55 451.19,-68.69 480.93,-75.22"/>
<polygon fill="midnightblue" stroke="midnightblue" points="480.19,-78.64 490.71,-77.37 481.69,-71.8 480.19,-78.64"/>
</g>
</g>
</svg>
