<?xml version="1.0" encoding="UTF-8" standalone="no"?>
<!DOCTYPE svg PUBLIC "-//W3C//DTD SVG 1.1//EN"
 "http://www.w3.org/Graphics/SVG/1.1/DTD/svg11.dtd">
<!-- Generated by graphviz version 2.43.0 (0)
 -->
<!-- Title: parse_tree_cleanup Pages: 1 -->
<svg width="345pt" height="58pt"
 viewBox="0.00 0.00 345.00 57.61" xmlns="http://www.w3.org/2000/svg" xmlns:xlink="http://www.w3.org/1999/xlink">
<g id="graph0" class="graph" transform="scale(1 1) rotate(0) translate(4 53.61)">
<title>parse_tree_cleanup</title>
<polygon fill="white" stroke="transparent" points="-4,4 -4,-53.61 341,-53.61 341,4 -4,4"/>
<!-- Node1 -->
<g id="node1" class="node">
<title>Node1</title>
<g id="a_node1"><a xlink:title="Deallocates all memory associated with the parse tree.">
<polygon fill="#bfbfbf" stroke="black" points="225,-28.5 225,-47.5 337,-47.5 337,-28.5 225,-28.5"/>
<text text-anchor="middle" x="281" y="-35.5" font-family="Helvetica,sans-Serif" font-size="10.00">parse_tree_cleanup</text>
</a>
</g>
</g>
<!-- Node2 -->
<g id="node2" class="node">
<title>Node2</title>
<g id="a_node2"><a xlink:href="driver_8c.html#a0ddf1224851353fc92bfbff6f499fa97" target="_top" xlink:title=" ">
<polygon fill="white" stroke="black" points="0,-28.5 0,-47.5 41,-47.5 41,-28.5 0,-28.5"/>
<text text-anchor="middle" x="20.5" y="-35.5" font-family="Helvetica,sans-Serif" font-size="10.00">main</text>
</a>
</g>
</g>
<!-- Node1&#45;&gt;Node2 -->
<g id="edge1" class="edge">
<title>Node1&#45;&gt;Node2</title>
<path fill="none" stroke="midnightblue" d="M214.68,-45.24C206.05,-45.97 197.32,-46.59 189,-47 139.28,-49.45 126.62,-51 77,-47 65.03,-46.04 51.75,-43.92 41.18,-41.98"/>
<polygon fill="midnightblue" stroke="midnightblue" points="215.07,-48.72 224.72,-44.35 214.45,-41.75 215.07,-48.72"/>
</g>
<!-- Node3 -->
<g id="node3" class="node">
<title>Node3</title>
<g id="a_node3"><a xlink:href="parser_8h.html#aad20e8a12c7bfb6d97191c3a26363f1a" target="_top" xlink:title="Deallocates all memory associated with the parse tree.">
<polygon fill="white" stroke="black" points="77,-0.5 77,-19.5 189,-19.5 189,-0.5 77,-0.5"/>
<text text-anchor="middle" x="133" y="-7.5" font-family="Helvetica,sans-Serif" font-size="10.00">parse_tree_cleanup</text>
</a>
</g>
</g>
<!-- Node1&#45;&gt;Node3 -->
<g id="edge2" class="edge">
<title>Node1&#45;&gt;Node3</title>
<path fill="none" stroke="midnightblue" d="M220.12,-26.52C207.98,-24.19 195.35,-21.77 183.61,-19.51"/>
<polygon fill="midnightblue" stroke="midnightblue" points="219.68,-30 230.16,-28.44 221,-23.12 219.68,-30"/>
</g>
<!-- Node3&#45;&gt;Node2 -->
<g id="edge3" class="edge">
<title>Node3&#45;&gt;Node2</title>
<path fill="none" stroke="midnightblue" d="M84.43,-22.05C69.18,-25.92 53.14,-29.98 41.07,-33.04"/>
<polygon fill="midnightblue" stroke="midnightblue" points="85.45,-25.41 94.28,-19.56 83.73,-18.62 85.45,-25.41"/>
</g>
<!-- Node3&#45;&gt;Node3 -->
<g id="edge4" class="edge">
<title>Node3&#45;&gt;Node3</title>
<path fill="none" stroke="midnightblue" d="M153.74,-29.4C152.35,-34.31 145.44,-38 133,-38 113.09,-38 107.34,-28.57 115.74,-19.76"/>
<polygon fill="midnightblue" stroke="midnightblue" points="156.95,-27.98 150.26,-19.76 150.36,-30.35 156.95,-27.98"/>
</g>
</g>
</svg>
