<?xml version="1.0" encoding="UTF-8" standalone="no"?>
<!DOCTYPE svg PUBLIC "-//W3C//DTD SVG 1.1//EN"
 "http://www.w3.org/Graphics/SVG/1.1/DTD/svg11.dtd">
<!-- Generated by graphviz version 2.43.0 (0)
 -->
<!-- Title: print_parse_tree_inorder Pages: 1 -->
<svg width="444pt" height="65pt"
 viewBox="0.00 0.00 444.00 65.00" xmlns="http://www.w3.org/2000/svg" xmlns:xlink="http://www.w3.org/1999/xlink">
<g id="graph0" class="graph" transform="scale(1 1) rotate(0) translate(4 61)">
<title>print_parse_tree_inorder</title>
<polygon fill="white" stroke="transparent" points="-4,4 -4,-61 440,-61 440,4 -4,4"/>
<!-- Node1 -->
<g id="node1" class="node">
<title>Node1</title>
<g id="a_node1"><a xlink:title="Prints the parse tree using in&#45;order traversal in the specified file.">
<polygon fill="#bfbfbf" stroke="black" points="0,-0.5 0,-19.5 136,-19.5 136,-0.5 0,-0.5"/>
<text text-anchor="middle" x="68" y="-7.5" font-family="Helvetica,sans-Serif" font-size="10.00">print_parse_tree_inorder</text>
</a>
</g>
</g>
<!-- Node2 -->
<g id="node2" class="node">
<title>Node2</title>
<g id="a_node2"><a xlink:href="parser_8c.html#a8c9a76dff4106d2e5eb33c33aa0c85f5" target="_top" xlink:title="Prints the parse tree using in&#45;order traversal in the specified file.">
<polygon fill="white" stroke="black" points="172,-19.5 172,-38.5 308,-38.5 308,-19.5 172,-19.5"/>
<text text-anchor="middle" x="240" y="-26.5" font-family="Helvetica,sans-Serif" font-size="10.00">print_parse_tree_inorder</text>
</a>
</g>
</g>
<!-- Node1&#45;&gt;Node2 -->
<g id="edge1" class="edge">
<title>Node1&#45;&gt;Node2</title>
<path fill="none" stroke="midnightblue" d="M136.19,-17.51C144.59,-18.45 153.24,-19.42 161.78,-20.37"/>
<polygon fill="midnightblue" stroke="midnightblue" points="161.42,-23.85 171.74,-21.48 162.19,-16.89 161.42,-23.85"/>
</g>
<!-- Node3 -->
<g id="node3" class="node">
<title>Node3</title>
<g id="a_node3"><a xlink:href="lexer_8h.html#aee1807f4e95bea666b6c994915907414" target="_top" xlink:title="Retrieves a string representation of a token type (for printing purposes).">
<polygon fill="white" stroke="black" points="344,-0.5 344,-19.5 436,-19.5 436,-0.5 344,-0.5"/>
<text text-anchor="middle" x="390" y="-7.5" font-family="Helvetica,sans-Serif" font-size="10.00">token_to_string</text>
</a>
</g>
</g>
<!-- Node1&#45;&gt;Node3 -->
<g id="edge4" class="edge">
<title>Node1&#45;&gt;Node3</title>
<path fill="none" stroke="midnightblue" d="M136.08,-10C194.62,-10 278.56,-10 333.42,-10"/>
<polygon fill="midnightblue" stroke="midnightblue" points="333.65,-13.5 343.65,-10 333.65,-6.5 333.65,-13.5"/>
</g>
<!-- Node2&#45;&gt;Node2 -->
<g id="edge2" class="edge">
<title>Node2&#45;&gt;Node2</title>
<path fill="none" stroke="midnightblue" d="M216.88,-38.76C205.63,-47.57 213.34,-57 240,-57 257.5,-57 266.83,-52.94 268,-47.65"/>
<polygon fill="midnightblue" stroke="midnightblue" points="271,-45.84 263.12,-38.76 264.86,-49.21 271,-45.84"/>
</g>
<!-- Node2&#45;&gt;Node3 -->
<g id="edge3" class="edge">
<title>Node2&#45;&gt;Node3</title>
<path fill="none" stroke="midnightblue" d="M308.07,-20.39C316.66,-19.29 325.38,-18.17 333.75,-17.09"/>
<polygon fill="midnightblue" stroke="midnightblue" points="334.29,-20.55 343.77,-15.81 333.4,-13.61 334.29,-20.55"/>
</g>
</g>
</svg>
