<?xml version="1.0" encoding="UTF-8" standalone="no"?>
<!DOCTYPE svg PUBLIC "-//W3C//DTD SVG 1.1//EN"
 "http://www.w3.org/Graphics/SVG/1.1/DTD/svg11.dtd">
<!-- Generated by graphviz version 2.43.0 (0)
 -->
<!-- Title: parse_tree_cleanup Pages: 1 -->
<svg width="268pt" height="46pt"
 viewBox="0.00 0.00 268.00 46.00" xmlns="http://www.w3.org/2000/svg" xmlns:xlink="http://www.w3.org/1999/xlink">
<g id="graph0" class="graph" transform="scale(1 1) rotate(0) translate(4 42)">
<title>parse_tree_cleanup</title>
<polygon fill="white" stroke="transparent" points="-4,4 -4,-42 264,-42 264,4 -4,4"/>
<!-- Node1 -->
<g id="node1" class="node">
<title>Node1</title>
<g id="a_node1"><a xlink:title="Deallocates all memory associated with the parse tree.">
<polygon fill="#bfbfbf" stroke="black" points="0,-0.5 0,-19.5 112,-19.5 112,-0.5 0,-0.5"/>
<text text-anchor="middle" x="56" y="-7.5" font-family="Helvetica,sans-Serif" font-size="10.00">parse_tree_cleanup</text>
</a>
</g>
</g>
<!-- Node2 -->
<g id="node2" class="node">
<title>Node2</title>
<g id="a_node2"><a xlink:href="parser_8c.html#aad20e8a12c7bfb6d97191c3a26363f1a" target="_top" xlink:title="Deallocates all memory associated with the parse tree.">
<polygon fill="white" stroke="black" points="148,-0.5 148,-19.5 260,-19.5 260,-0.5 148,-0.5"/>
<text text-anchor="middle" x="204" y="-7.5" font-family="Helvetica,sans-Serif" font-size="10.00">parse_tree_cleanup</text>
</a>
</g>
</g>
<!-- Node1&#45;&gt;Node2 -->
<g id="edge1" class="edge">
<title>Node1&#45;&gt;Node2</title>
<path fill="none" stroke="midnightblue" d="M112.2,-10C120.46,-10 129.05,-10 137.51,-10"/>
<polygon fill="midnightblue" stroke="midnightblue" points="137.73,-13.5 147.73,-10 137.73,-6.5 137.73,-13.5"/>
</g>
<!-- Node2&#45;&gt;Node2 -->
<g id="edge2" class="edge">
<title>Node2&#45;&gt;Node2</title>
<path fill="none" stroke="midnightblue" d="M181.19,-19.76C170.09,-28.57 177.7,-38 204,-38 221.26,-38 230.47,-33.94 231.63,-28.65"/>
<polygon fill="midnightblue" stroke="midnightblue" points="234.65,-26.89 226.81,-19.76 228.49,-30.22 234.65,-26.89"/>
</g>
</g>
</svg>
