<?xml version="1.0" encoding="UTF-8" standalone="no"?>
<!DOCTYPE svg PUBLIC "-//W3C//DTD SVG 1.1//EN"
 "http://www.w3.org/Graphics/SVG/1.1/DTD/svg11.dtd">
<!-- Generated by graphviz version 2.43.0 (0)
 -->
<!-- Title: stack_empty Pages: 1 -->
<svg width="528pt" height="78pt"
 viewBox="0.00 0.00 528.00 77.55" xmlns="http://www.w3.org/2000/svg" xmlns:xlink="http://www.w3.org/1999/xlink">
<g id="graph0" class="graph" transform="scale(1 1) rotate(0) translate(4 73.55)">
<title>stack_empty</title>
<polygon fill="white" stroke="transparent" points="-4,4 -4,-73.55 524,-73.55 524,4 -4,4"/>
<!-- Node1 -->
<g id="node1" class="node">
<title>Node1</title>
<g id="a_node1"><a xlink:title="Determines if the stack is empty.">
<polygon fill="#bfbfbf" stroke="black" points="440,-38.5 440,-57.5 520,-57.5 520,-38.5 440,-38.5"/>
<text text-anchor="middle" x="480" y="-45.5" font-family="Helvetica,sans-Serif" font-size="10.00">stack_empty</text>
</a>
</g>
</g>
<!-- Node2 -->
<g id="node2" class="node">
<title>Node2</title>
<g id="a_node2"><a xlink:href="parser_8c.html#a385276c7e31aeff5ad9c22370300ced6" target="_top" xlink:title="Generates a parse tree for the given source code.">
<polygon fill="white" stroke="black" points="185,-38.5 185,-57.5 302,-57.5 302,-38.5 185,-38.5"/>
<text text-anchor="middle" x="243.5" y="-45.5" font-family="Helvetica,sans-Serif" font-size="10.00">generate_parse_tree</text>
</a>
</g>
</g>
<!-- Node1&#45;&gt;Node2 -->
<g id="edge1" class="edge">
<title>Node1&#45;&gt;Node2</title>
<path fill="none" stroke="midnightblue" d="M438.77,-60.14C427.62,-62.97 415.43,-65.57 404,-67 374.89,-70.63 367.19,-69.94 338,-67 319.54,-65.14 299.34,-61.27 282.45,-57.51"/>
<polygon fill="midnightblue" stroke="midnightblue" points="439.91,-63.46 448.68,-57.5 438.11,-56.7 439.91,-63.46"/>
</g>
<!-- Node5 -->
<g id="node5" class="node">
<title>Node5</title>
<g id="a_node5"><a xlink:href="stack_8h.html#a6ee1c21725f3cd3803d491e0dcd1ecb8" target="_top" xlink:title="Removes and returns the topmost node from the stack.">
<polygon fill="white" stroke="black" points="338,-38.5 338,-57.5 404,-57.5 404,-38.5 338,-38.5"/>
<text text-anchor="middle" x="371" y="-45.5" font-family="Helvetica,sans-Serif" font-size="10.00">stack_pop</text>
</a>
</g>
</g>
<!-- Node1&#45;&gt;Node5 -->
<g id="edge4" class="edge">
<title>Node1&#45;&gt;Node5</title>
<path fill="none" stroke="midnightblue" d="M429.72,-48C421.06,-48 412.26,-48 404.22,-48"/>
<polygon fill="midnightblue" stroke="midnightblue" points="429.76,-51.5 439.76,-48 429.76,-44.5 429.76,-51.5"/>
</g>
<!-- Node6 -->
<g id="node6" class="node">
<title>Node6</title>
<g id="a_node6"><a xlink:href="stack_8h.html#af0faaa6f406636514cacd26f54be0a19" target="_top" xlink:title="Returns the topmost node from the stack without removing it.">
<polygon fill="white" stroke="black" points="339,-0.5 339,-19.5 403,-19.5 403,-0.5 339,-0.5"/>
<text text-anchor="middle" x="371" y="-7.5" font-family="Helvetica,sans-Serif" font-size="10.00">stack_top</text>
</a>
</g>
</g>
<!-- Node1&#45;&gt;Node6 -->
<g id="edge6" class="edge">
<title>Node1&#45;&gt;Node6</title>
<path fill="none" stroke="midnightblue" d="M442.47,-35.03C428.22,-29.97 412.17,-24.27 398.99,-19.59"/>
<polygon fill="midnightblue" stroke="midnightblue" points="441.4,-38.36 452,-38.41 443.75,-31.77 441.4,-38.36"/>
</g>
<!-- Node3 -->
<g id="node3" class="node">
<title>Node3</title>
<g id="a_node3"><a xlink:href="parser_8h.html#af8e858bd867bc61808a62e29963b3497" target="_top" xlink:title="Parses the given code based on the specified grammar.">
<polygon fill="white" stroke="black" points="77,-38.5 77,-57.5 149,-57.5 149,-38.5 77,-38.5"/>
<text text-anchor="middle" x="113" y="-45.5" font-family="Helvetica,sans-Serif" font-size="10.00">parse_code</text>
</a>
</g>
</g>
<!-- Node2&#45;&gt;Node3 -->
<g id="edge2" class="edge">
<title>Node2&#45;&gt;Node3</title>
<path fill="none" stroke="midnightblue" d="M174.38,-48C165.64,-48 157,-48 149.1,-48"/>
<polygon fill="midnightblue" stroke="midnightblue" points="174.64,-51.5 184.64,-48 174.64,-44.5 174.64,-51.5"/>
</g>
<!-- Node4 -->
<g id="node4" class="node">
<title>Node4</title>
<g id="a_node4"><a xlink:href="driver_8c.html#a0ddf1224851353fc92bfbff6f499fa97" target="_top" xlink:title=" ">
<polygon fill="white" stroke="black" points="0,-38.5 0,-57.5 41,-57.5 41,-38.5 0,-38.5"/>
<text text-anchor="middle" x="20.5" y="-45.5" font-family="Helvetica,sans-Serif" font-size="10.00">main</text>
</a>
</g>
</g>
<!-- Node3&#45;&gt;Node4 -->
<g id="edge3" class="edge">
<title>Node3&#45;&gt;Node4</title>
<path fill="none" stroke="midnightblue" d="M66.67,-48C57.67,-48 48.68,-48 41.11,-48"/>
<polygon fill="midnightblue" stroke="midnightblue" points="66.75,-51.5 76.75,-48 66.75,-44.5 66.75,-51.5"/>
</g>
<!-- Node5&#45;&gt;Node2 -->
<g id="edge5" class="edge">
<title>Node5&#45;&gt;Node2</title>
<path fill="none" stroke="midnightblue" d="M327.6,-48C319.38,-48 310.64,-48 302.04,-48"/>
<polygon fill="midnightblue" stroke="midnightblue" points="327.68,-51.5 337.68,-48 327.68,-44.5 327.68,-51.5"/>
</g>
<!-- Node6&#45;&gt;Node2 -->
<g id="edge7" class="edge">
<title>Node6&#45;&gt;Node2</title>
<path fill="none" stroke="midnightblue" d="M329.16,-22.37C311.91,-27.59 292.14,-33.58 276.04,-38.45"/>
<polygon fill="midnightblue" stroke="midnightblue" points="330.42,-25.64 338.98,-19.39 328.39,-18.94 330.42,-25.64"/>
</g>
</g>
</svg>
