<?xml version="1.0" encoding="UTF-8" standalone="no"?>
<!DOCTYPE svg PUBLIC "-//W3C//DTD SVG 1.1//EN"
 "http://www.w3.org/Graphics/SVG/1.1/DTD/svg11.dtd">
<!-- Generated by graphviz version 2.43.0 (0)
 -->
<!-- Title: HashMap Pages: 1 -->
<svg width="255pt" height="229pt"
 viewBox="0.00 0.00 255.00 229.00" xmlns="http://www.w3.org/2000/svg" xmlns:xlink="http://www.w3.org/1999/xlink">
<g id="graph0" class="graph" transform="scale(1 1) rotate(0) translate(4 225)">
<title>HashMap</title>
<polygon fill="white" stroke="transparent" points="-4,4 -4,-225 251,-225 251,4 -4,4"/>
<!-- Node1 -->
<g id="node1" class="node">
<title>Node1</title>
<g id="a_node1"><a xlink:title=" ">
<polygon fill="#bfbfbf" stroke="black" points="0,-67.5 0,-86.5 62,-86.5 62,-67.5 0,-67.5"/>
<text text-anchor="middle" x="31" y="-74.5" font-family="Helvetica,sans-Serif" font-size="10.00">HashMap</text>
</a>
</g>
</g>
<!-- Node2 -->
<g id="node2" class="node">
<title>Node2</title>
<g id="a_node2"><a xlink:href="structEntry.html" target="_top" xlink:title=" ">
<polygon fill="white" stroke="black" points="15,-134.5 15,-153.5 57,-153.5 57,-134.5 15,-134.5"/>
<text text-anchor="middle" x="36" y="-141.5" font-family="Helvetica,sans-Serif" font-size="10.00">Entry</text>
</a>
</g>
</g>
<!-- Node2&#45;&gt;Node1 -->
<g id="edge1" class="edge">
<title>Node2&#45;&gt;Node1</title>
<path fill="none" stroke="#9a32cd" stroke-dasharray="5,2" d="M34.54,-124.04C33.59,-111.67 32.39,-96.12 31.66,-86.63"/>
<polygon fill="#9a32cd" stroke="#9a32cd" points="31.07,-124.53 35.33,-134.23 38.05,-123.99 31.07,-124.53"/>
<text text-anchor="middle" x="52.5" y="-108" font-family="Helvetica,sans-Serif" font-size="10.00"> entries</text>
</g>
<!-- Node3 -->
<g id="node3" class="node">
<title>Node3</title>
<g id="a_node3"><a xlink:href="structProduction.html" target="_top" xlink:title=" ">
<polygon fill="white" stroke="black" points="84,-201.5 84,-220.5 152,-220.5 152,-201.5 84,-201.5"/>
<text text-anchor="middle" x="118" y="-208.5" font-family="Helvetica,sans-Serif" font-size="10.00">Production</text>
</a>
</g>
</g>
<!-- Node3&#45;&gt;Node2 -->
<g id="edge2" class="edge">
<title>Node3&#45;&gt;Node2</title>
<path fill="none" stroke="#9a32cd" stroke-dasharray="5,2" d="M98.72,-194.71C82.56,-181.91 60.08,-164.09 46.88,-153.63"/>
<polygon fill="#9a32cd" stroke="#9a32cd" points="96.93,-197.76 106.94,-201.23 101.28,-192.28 96.93,-197.76"/>
<text text-anchor="middle" x="97.5" y="-175" font-family="Helvetica,sans-Serif" font-size="10.00"> value</text>
</g>
<!-- Node6 -->
<g id="node6" class="node">
<title>Node6</title>
<g id="a_node6"><a xlink:href="structNonTerminal.html" target="_top" xlink:title=" ">
<polygon fill="white" stroke="black" points="81,-134.5 81,-153.5 159,-153.5 159,-134.5 81,-134.5"/>
<text text-anchor="middle" x="120" y="-141.5" font-family="Helvetica,sans-Serif" font-size="10.00">NonTerminal</text>
</a>
</g>
</g>
<!-- Node3&#45;&gt;Node6 -->
<g id="edge6" class="edge">
<title>Node3&#45;&gt;Node6</title>
<path fill="none" stroke="#9a32cd" stroke-dasharray="5,2" d="M118.47,-190.79C118.62,-184.77 118.81,-178.11 119,-172 119.2,-165.81 119.46,-158.83 119.66,-153.51"/>
<polygon fill="#9a32cd" stroke="#9a32cd" points="114.96,-191.16 118.2,-201.25 121.95,-191.34 114.96,-191.16"/>
<text text-anchor="middle" x="149.5" y="-175" font-family="Helvetica,sans-Serif" font-size="10.00"> productions</text>
</g>
<!-- Node4 -->
<g id="node4" class="node">
<title>Node4</title>
<g id="a_node4"><a xlink:href="structSymbol.html" target="_top" xlink:title=" ">
<polygon fill="white" stroke="black" points="132.5,-0.5 132.5,-19.5 185.5,-19.5 185.5,-0.5 132.5,-0.5"/>
<text text-anchor="middle" x="159" y="-7.5" font-family="Helvetica,sans-Serif" font-size="10.00">Symbol</text>
</a>
</g>
</g>
<!-- Node4&#45;&gt;Node3 -->
<g id="edge3" class="edge">
<title>Node4&#45;&gt;Node3</title>
<path fill="none" stroke="#9a32cd" stroke-dasharray="5,2" d="M173.88,-27.82C175.98,-31.01 177.82,-34.46 179,-38 258.51,-275.93 186.58,-172.95 180,-183 173.63,-192.72 162.91,-198.96 152.17,-202.96"/>
<polygon fill="#9a32cd" stroke="#9a32cd" points="176.5,-25.47 167.64,-19.66 170.94,-29.73 176.5,-25.47"/>
<text text-anchor="middle" x="224.5" y="-108" font-family="Helvetica,sans-Serif" font-size="10.00"> symbols</text>
</g>
<!-- Node5 -->
<g id="node5" class="node">
<title>Node5</title>
<g id="a_node5"><a xlink:href="unionsymbol__value.html" target="_top" xlink:title=" ">
<polygon fill="white" stroke="black" points="80.5,-67.5 80.5,-86.5 165.5,-86.5 165.5,-67.5 80.5,-67.5"/>
<text text-anchor="middle" x="123" y="-74.5" font-family="Helvetica,sans-Serif" font-size="10.00">symbol_value</text>
</a>
</g>
</g>
<!-- Node5&#45;&gt;Node4 -->
<g id="edge4" class="edge">
<title>Node5&#45;&gt;Node4</title>
<path fill="none" stroke="#9a32cd" stroke-dasharray="5,2" d="M132.88,-58.16C139.82,-45.63 148.8,-29.41 154.22,-19.63"/>
<polygon fill="#9a32cd" stroke="#9a32cd" points="129.64,-56.79 127.86,-67.23 135.76,-60.18 129.64,-56.79"/>
<text text-anchor="middle" x="159.5" y="-41" font-family="Helvetica,sans-Serif" font-size="10.00"> value</text>
</g>
<!-- Node6&#45;&gt;Node5 -->
<g id="edge5" class="edge">
<title>Node6&#45;&gt;Node5</title>
<path fill="none" stroke="#9a32cd" stroke-dasharray="5,2" d="M120.88,-124.04C121.45,-111.67 122.16,-96.12 122.6,-86.63"/>
<polygon fill="#9a32cd" stroke="#9a32cd" points="117.37,-124.08 120.4,-134.23 124.36,-124.41 117.37,-124.08"/>
<text text-anchor="middle" x="128.5" y="-108" font-family="Helvetica,sans-Serif" font-size="10.00"> nt</text>
</g>
</g>
</svg>
