<?xml version="1.0" encoding="UTF-8" standalone="no"?>
<!DOCTYPE svg PUBLIC "-//W3C//DTD SVG 1.1//EN"
 "http://www.w3.org/Graphics/SVG/1.1/DTD/svg11.dtd">
<!-- Generated by graphviz version 2.43.0 (0)
 -->
<!-- Title: NonTerminal Pages: 1 -->
<svg width="169pt" height="229pt"
 viewBox="0.00 0.00 168.50 229.00" xmlns="http://www.w3.org/2000/svg" xmlns:xlink="http://www.w3.org/1999/xlink">
<g id="graph0" class="graph" transform="scale(1 1) rotate(0) translate(4 225)">
<title>NonTerminal</title>
<polygon fill="white" stroke="transparent" points="-4,4 -4,-225 164.5,-225 164.5,4 -4,4"/>
<!-- Node1 -->
<g id="node1" class="node">
<title>Node1</title>
<g id="a_node1"><a xlink:title=" ">
<polygon fill="#bfbfbf" stroke="black" points="39.5,-201.5 39.5,-220.5 117.5,-220.5 117.5,-201.5 39.5,-201.5"/>
<text text-anchor="middle" x="78.5" y="-208.5" font-family="Helvetica,sans-Serif" font-size="10.00">NonTerminal</text>
</a>
</g>
</g>
<!-- Node4 -->
<g id="node4" class="node">
<title>Node4</title>
<g id="a_node4"><a xlink:href="unionsymbol__value.html" target="_top" xlink:title=" ">
<polygon fill="white" stroke="black" points="0,-134.5 0,-153.5 85,-153.5 85,-134.5 0,-134.5"/>
<text text-anchor="middle" x="42.5" y="-141.5" font-family="Helvetica,sans-Serif" font-size="10.00">symbol_value</text>
</a>
</g>
</g>
<!-- Node1&#45;&gt;Node4 -->
<g id="edge4" class="edge">
<title>Node1&#45;&gt;Node4</title>
<path fill="none" stroke="#9a32cd" stroke-dasharray="5,2" d="M68.62,-192.16C61.68,-179.63 52.7,-163.41 47.28,-153.63"/>
<polygon fill="#9a32cd" stroke="#9a32cd" points="65.74,-194.18 73.64,-201.23 71.86,-190.79 65.74,-194.18"/>
<text text-anchor="middle" x="70" y="-175" font-family="Helvetica,sans-Serif" font-size="10.00"> nt</text>
</g>
<!-- Node2 -->
<g id="node2" class="node">
<title>Node2</title>
<g id="a_node2"><a xlink:href="structProduction.html" target="_top" xlink:title=" ">
<polygon fill="white" stroke="black" points="48.5,-0.5 48.5,-19.5 116.5,-19.5 116.5,-0.5 48.5,-0.5"/>
<text text-anchor="middle" x="82.5" y="-7.5" font-family="Helvetica,sans-Serif" font-size="10.00">Production</text>
</a>
</g>
</g>
<!-- Node2&#45;&gt;Node1 -->
<g id="edge1" class="edge">
<title>Node2&#45;&gt;Node1</title>
<path fill="none" stroke="#9a32cd" stroke-dasharray="5,2" d="M95.35,-28.33C97.06,-31.42 98.55,-34.7 99.5,-38 100.86,-42.7 99.64,-44.11 99.5,-49 98.17,-95.72 100.92,-107.85 93.5,-154 90.75,-171.09 84.93,-190.5 81.4,-201.39"/>
<polygon fill="#9a32cd" stroke="#9a32cd" points="98.25,-26.37 89.88,-19.87 92.37,-30.17 98.25,-26.37"/>
<text text-anchor="middle" x="130" y="-108" font-family="Helvetica,sans-Serif" font-size="10.00"> productions</text>
</g>
<!-- Node3 -->
<g id="node3" class="node">
<title>Node3</title>
<g id="a_node3"><a xlink:href="structSymbol.html" target="_top" xlink:title=" ">
<polygon fill="white" stroke="black" points="24,-67.5 24,-86.5 77,-86.5 77,-67.5 24,-67.5"/>
<text text-anchor="middle" x="50.5" y="-74.5" font-family="Helvetica,sans-Serif" font-size="10.00">Symbol</text>
</a>
</g>
</g>
<!-- Node3&#45;&gt;Node2 -->
<g id="edge2" class="edge">
<title>Node3&#45;&gt;Node2</title>
<path fill="none" stroke="#9a32cd" stroke-dasharray="5,2" d="M49.94,-57.02C50.41,-50.71 51.66,-43.81 54.5,-38 58.06,-30.72 64.43,-24.33 70.2,-19.6"/>
<polygon fill="#9a32cd" stroke="#9a32cd" points="46.43,-57.34 49.78,-67.39 53.43,-57.45 46.43,-57.34"/>
<text text-anchor="middle" x="77" y="-41" font-family="Helvetica,sans-Serif" font-size="10.00"> symbols</text>
</g>
<!-- Node4&#45;&gt;Node3 -->
<g id="edge3" class="edge">
<title>Node4&#45;&gt;Node3</title>
<path fill="none" stroke="#9a32cd" stroke-dasharray="5,2" d="M44.83,-124.04C46.36,-111.67 48.27,-96.12 49.44,-86.63"/>
<polygon fill="#9a32cd" stroke="#9a32cd" points="41.33,-123.88 43.58,-134.23 48.27,-124.74 41.33,-123.88"/>
<text text-anchor="middle" x="63" y="-108" font-family="Helvetica,sans-Serif" font-size="10.00"> value</text>
</g>
</g>
</svg>
