<?xml version="1.0" encoding="UTF-8" standalone="no"?>
<!DOCTYPE svg PUBLIC "-//W3C//DTD SVG 1.1//EN"
 "http://www.w3.org/Graphics/SVG/1.1/DTD/svg11.dtd">
<!-- Generated by graphviz version 2.43.0 (0)
 -->
<!-- Title: Production Pages: 1 -->
<svg width="159pt" height="229pt"
 viewBox="0.00 0.00 158.50 229.00" xmlns="http://www.w3.org/2000/svg" xmlns:xlink="http://www.w3.org/1999/xlink">
<g id="graph0" class="graph" transform="scale(1 1) rotate(0) translate(4 225)">
<title>Production</title>
<polygon fill="white" stroke="transparent" points="-4,4 -4,-225 154.5,-225 154.5,4 -4,4"/>
<!-- Node1 -->
<g id="node1" class="node">
<title>Node1</title>
<g id="a_node1"><a xlink:title=" ">
<polygon fill="#bfbfbf" stroke="black" points="42.5,-201.5 42.5,-220.5 110.5,-220.5 110.5,-201.5 42.5,-201.5"/>
<text text-anchor="middle" x="76.5" y="-208.5" font-family="Helvetica,sans-Serif" font-size="10.00">Production</text>
</a>
</g>
</g>
<!-- Node4 -->
<g id="node4" class="node">
<title>Node4</title>
<g id="a_node4"><a xlink:href="structNonTerminal.html" target="_top" xlink:title=" ">
<polygon fill="white" stroke="black" points="0.5,-134.5 0.5,-153.5 78.5,-153.5 78.5,-134.5 0.5,-134.5"/>
<text text-anchor="middle" x="39.5" y="-141.5" font-family="Helvetica,sans-Serif" font-size="10.00">NonTerminal</text>
</a>
</g>
</g>
<!-- Node1&#45;&gt;Node4 -->
<g id="edge4" class="edge">
<title>Node1&#45;&gt;Node4</title>
<path fill="none" stroke="#9a32cd" stroke-dasharray="5,2" d="M49.73,-195.35C45.6,-191.87 41.91,-187.75 39.5,-183 34.84,-173.83 35.86,-161.72 37.37,-153.67"/>
<polygon fill="#9a32cd" stroke="#9a32cd" points="47.83,-198.29 57.99,-201.28 51.91,-192.61 47.83,-198.29"/>
<text text-anchor="middle" x="70" y="-175" font-family="Helvetica,sans-Serif" font-size="10.00"> productions</text>
</g>
<!-- Node2 -->
<g id="node2" class="node">
<title>Node2</title>
<g id="a_node2"><a xlink:href="structSymbol.html" target="_top" xlink:title=" ">
<polygon fill="white" stroke="black" points="52,-0.5 52,-19.5 105,-19.5 105,-0.5 52,-0.5"/>
<text text-anchor="middle" x="78.5" y="-7.5" font-family="Helvetica,sans-Serif" font-size="10.00">Symbol</text>
</a>
</g>
</g>
<!-- Node2&#45;&gt;Node1 -->
<g id="edge1" class="edge">
<title>Node2&#45;&gt;Node1</title>
<path fill="none" stroke="#9a32cd" stroke-dasharray="5,2" d="M93.36,-27.82C95.46,-31.01 97.3,-34.47 98.5,-38 117.59,-94.42 100.06,-112.44 100.5,-172 100.54,-176.89 102.24,-178.43 100.5,-183 97.78,-190.15 92.2,-196.62 87.11,-201.43"/>
<polygon fill="#9a32cd" stroke="#9a32cd" points="95.98,-25.48 87.12,-19.67 90.42,-29.74 95.98,-25.48"/>
<text text-anchor="middle" x="128" y="-108" font-family="Helvetica,sans-Serif" font-size="10.00"> symbols</text>
</g>
<!-- Node3 -->
<g id="node3" class="node">
<title>Node3</title>
<g id="a_node3"><a xlink:href="unionsymbol__value.html" target="_top" xlink:title=" ">
<polygon fill="white" stroke="black" points="0,-67.5 0,-86.5 85,-86.5 85,-67.5 0,-67.5"/>
<text text-anchor="middle" x="42.5" y="-74.5" font-family="Helvetica,sans-Serif" font-size="10.00">symbol_value</text>
</a>
</g>
</g>
<!-- Node3&#45;&gt;Node2 -->
<g id="edge2" class="edge">
<title>Node3&#45;&gt;Node2</title>
<path fill="none" stroke="#9a32cd" stroke-dasharray="5,2" d="M52.38,-58.16C59.32,-45.63 68.3,-29.41 73.72,-19.63"/>
<polygon fill="#9a32cd" stroke="#9a32cd" points="49.14,-56.79 47.36,-67.23 55.26,-60.18 49.14,-56.79"/>
<text text-anchor="middle" x="79" y="-41" font-family="Helvetica,sans-Serif" font-size="10.00"> value</text>
</g>
<!-- Node4&#45;&gt;Node3 -->
<g id="edge3" class="edge">
<title>Node4&#45;&gt;Node3</title>
<path fill="none" stroke="#9a32cd" stroke-dasharray="5,2" d="M40.38,-124.04C40.95,-111.67 41.66,-96.12 42.1,-86.63"/>
<polygon fill="#9a32cd" stroke="#9a32cd" points="36.87,-124.08 39.9,-134.23 43.86,-124.41 36.87,-124.08"/>
<text text-anchor="middle" x="48" y="-108" font-family="Helvetica,sans-Serif" font-size="10.00"> nt</text>
</g>
</g>
</svg>
