<?xml version="1.0" encoding="UTF-8" standalone="no"?>
<!DOCTYPE svg PUBLIC "-//W3C//DTD SVG 1.1//EN"
 "http://www.w3.org/Graphics/SVG/1.1/DTD/svg11.dtd">
<!-- Generated by graphviz version 2.43.0 (0)
 -->
<!-- Title: SymbolTable Pages: 1 -->
<svg width="112pt" height="162pt"
 viewBox="0.00 0.00 112.00 162.00" xmlns="http://www.w3.org/2000/svg" xmlns:xlink="http://www.w3.org/1999/xlink">
<g id="graph0" class="graph" transform="scale(1 1) rotate(0) translate(4 158)">
<title>SymbolTable</title>
<polygon fill="white" stroke="transparent" points="-4,4 -4,-158 108,-158 108,4 -4,4"/>
<!-- Node1 -->
<g id="node1" class="node">
<title>Node1</title>
<g id="a_node1"><a xlink:title=" ">
<polygon fill="#bfbfbf" stroke="black" points="12.5,-0.5 12.5,-19.5 91.5,-19.5 91.5,-0.5 12.5,-0.5"/>
<text text-anchor="middle" x="52" y="-7.5" font-family="Helvetica,sans-Serif" font-size="10.00">SymbolTable</text>
</a>
</g>
</g>
<!-- Node2 -->
<g id="node2" class="node">
<title>Node2</title>
<g id="a_node2"><a xlink:href="structSymbolTableNode.html" target="_top" xlink:title=" ">
<polygon fill="white" stroke="black" points="0,-67.5 0,-86.5 104,-86.5 104,-67.5 0,-67.5"/>
<text text-anchor="middle" x="52" y="-74.5" font-family="Helvetica,sans-Serif" font-size="10.00">SymbolTableNode</text>
</a>
</g>
</g>
<!-- Node2&#45;&gt;Node1 -->
<g id="edge1" class="edge">
<title>Node2&#45;&gt;Node1</title>
<path fill="none" stroke="#9a32cd" stroke-dasharray="5,2" d="M52,-57.04C52,-44.67 52,-29.12 52,-19.63"/>
<polygon fill="#9a32cd" stroke="#9a32cd" points="48.5,-57.23 52,-67.23 55.5,-57.23 48.5,-57.23"/>
<text text-anchor="middle" x="70.5" y="-41" font-family="Helvetica,sans-Serif" font-size="10.00"> entries</text>
</g>
<!-- Node3 -->
<g id="node3" class="node">
<title>Node3</title>
<g id="a_node3"><a xlink:href="structSymbolTableEntry.html" target="_top" xlink:title=" ">
<polygon fill="white" stroke="black" points="0,-134.5 0,-153.5 104,-153.5 104,-134.5 0,-134.5"/>
<text text-anchor="middle" x="52" y="-141.5" font-family="Helvetica,sans-Serif" font-size="10.00">SymbolTableEntry</text>
</a>
</g>
</g>
<!-- Node3&#45;&gt;Node2 -->
<g id="edge2" class="edge">
<title>Node3&#45;&gt;Node2</title>
<path fill="none" stroke="#9a32cd" stroke-dasharray="5,2" d="M52,-124.04C52,-111.67 52,-96.12 52,-86.63"/>
<polygon fill="#9a32cd" stroke="#9a32cd" points="48.5,-124.23 52,-134.23 55.5,-124.23 48.5,-124.23"/>
<text text-anchor="middle" x="67.5" y="-108" font-family="Helvetica,sans-Serif" font-size="10.00"> value</text>
</g>
</g>
</svg>
