<?xml version="1.0" encoding="UTF-8" standalone="no"?>
<!DOCTYPE svg PUBLIC "-//W3C//DTD SVG 1.1//EN"
 "http://www.w3.org/Graphics/SVG/1.1/DTD/svg11.dtd">
<!-- Generated by graphviz version 2.43.0 (0)
 -->
<!-- Title: TreeNode Pages: 1 -->
<svg width="303pt" height="229pt"
 viewBox="0.00 0.00 303.00 229.00" xmlns="http://www.w3.org/2000/svg" xmlns:xlink="http://www.w3.org/1999/xlink">
<g id="graph0" class="graph" transform="scale(1 1) rotate(0) translate(4 225)">
<title>TreeNode</title>
<polygon fill="white" stroke="transparent" points="-4,4 -4,-225 299,-225 299,4 -4,4"/>
<!-- Node1 -->
<g id="node1" class="node">
<title>Node1</title>
<g id="a_node1"><a xlink:title=" ">
<polygon fill="#bfbfbf" stroke="black" points="9,-134.5 9,-153.5 71,-153.5 71,-134.5 9,-134.5"/>
<text text-anchor="middle" x="40" y="-141.5" font-family="Helvetica,sans-Serif" font-size="10.00">TreeNode</text>
</a>
</g>
</g>
<!-- Node1&#45;&gt;Node1 -->
<g id="edge2" class="edge">
<title>Node1&#45;&gt;Node1</title>
<path fill="none" stroke="#9a32cd" stroke-dasharray="5,2" d="M81.15,-149.11C85.91,-148.16 89,-146.46 89,-144 89,-140.06 81.09,-138.06 71.1,-138"/>
<polygon fill="#9a32cd" stroke="#9a32cd" points="80.76,-145.63 71.1,-150 81.37,-152.61 80.76,-145.63"/>
<text text-anchor="middle" x="110.5" y="-141.5" font-family="Helvetica,sans-Serif" font-size="10.00"> children</text>
</g>
<!-- Node2 -->
<g id="node2" class="node">
<title>Node2</title>
<g id="a_node2"><a xlink:href="structToken.html" target="_top" xlink:title=" ">
<polygon fill="white" stroke="black" points="0,-201.5 0,-220.5 44,-220.5 44,-201.5 0,-201.5"/>
<text text-anchor="middle" x="22" y="-208.5" font-family="Helvetica,sans-Serif" font-size="10.00">Token</text>
</a>
</g>
</g>
<!-- Node2&#45;&gt;Node1 -->
<g id="edge1" class="edge">
<title>Node2&#45;&gt;Node1</title>
<path fill="none" stroke="#9a32cd" stroke-dasharray="5,2" d="M20.53,-191.18C20.56,-184.96 21.16,-178.08 23,-172 24.99,-165.43 29.04,-158.89 32.69,-153.89"/>
<polygon fill="#9a32cd" stroke="#9a32cd" points="17.04,-191.49 20.95,-201.34 24.04,-191.21 17.04,-191.49"/>
<text text-anchor="middle" x="54.5" y="-175" font-family="Helvetica,sans-Serif" font-size="10.00"> token_value</text>
</g>
<!-- Node3 -->
<g id="node3" class="node">
<title>Node3</title>
<g id="a_node3"><a xlink:href="structSymbol.html" target="_top" xlink:title=" ">
<polygon fill="white" stroke="black" points="175.5,-201.5 175.5,-220.5 228.5,-220.5 228.5,-201.5 175.5,-201.5"/>
<text text-anchor="middle" x="202" y="-208.5" font-family="Helvetica,sans-Serif" font-size="10.00">Symbol</text>
</a>
</g>
</g>
<!-- Node3&#45;&gt;Node1 -->
<g id="edge3" class="edge">
<title>Node3&#45;&gt;Node1</title>
<path fill="none" stroke="#9a32cd" stroke-dasharray="5,2" d="M165.71,-198.21C152.48,-193.71 137.47,-188.37 124,-183 100.8,-173.76 74.68,-161.67 57.82,-153.64"/>
<polygon fill="#9a32cd" stroke="#9a32cd" points="164.83,-201.6 175.42,-201.47 167.06,-194.97 164.83,-201.6"/>
<text text-anchor="middle" x="159.5" y="-175" font-family="Helvetica,sans-Serif" font-size="10.00"> stack_symbol</text>
</g>
<!-- Node6 -->
<g id="node6" class="node">
<title>Node6</title>
<g id="a_node6"><a xlink:href="structProduction.html" target="_top" xlink:title=" ">
<polygon fill="white" stroke="black" points="162,-134.5 162,-153.5 230,-153.5 230,-134.5 162,-134.5"/>
<text text-anchor="middle" x="196" y="-141.5" font-family="Helvetica,sans-Serif" font-size="10.00">Production</text>
</a>
</g>
</g>
<!-- Node3&#45;&gt;Node6 -->
<g id="edge7" class="edge">
<title>Node3&#45;&gt;Node6</title>
<path fill="none" stroke="#9a32cd" stroke-dasharray="5,2" d="M200.25,-191.04C199.11,-178.67 197.67,-163.12 196.8,-153.63"/>
<polygon fill="#9a32cd" stroke="#9a32cd" points="196.79,-191.6 201.19,-201.23 203.76,-190.95 196.79,-191.6"/>
<text text-anchor="middle" x="222.5" y="-175" font-family="Helvetica,sans-Serif" font-size="10.00"> symbols</text>
</g>
<!-- Node4 -->
<g id="node4" class="node">
<title>Node4</title>
<g id="a_node4"><a xlink:href="unionsymbol__value.html" target="_top" xlink:title=" ">
<polygon fill="white" stroke="black" points="194.5,-0.5 194.5,-19.5 279.5,-19.5 279.5,-0.5 194.5,-0.5"/>
<text text-anchor="middle" x="237" y="-7.5" font-family="Helvetica,sans-Serif" font-size="10.00">symbol_value</text>
</a>
</g>
</g>
<!-- Node4&#45;&gt;Node3 -->
<g id="edge4" class="edge">
<title>Node4&#45;&gt;Node3</title>
<path fill="none" stroke="#9a32cd" stroke-dasharray="5,2" d="M244.62,-29.04C257.36,-62.24 278.79,-134.09 249,-183 244.01,-191.2 235.53,-197.15 227.14,-201.34"/>
<polygon fill="#9a32cd" stroke="#9a32cd" points="247.84,-27.67 240.87,-19.69 241.35,-30.28 247.84,-27.67"/>
<text text-anchor="middle" x="279.5" y="-108" font-family="Helvetica,sans-Serif" font-size="10.00"> value</text>
</g>
<!-- Node5 -->
<g id="node5" class="node">
<title>Node5</title>
<g id="a_node5"><a xlink:href="structNonTerminal.html" target="_top" xlink:title=" ">
<polygon fill="white" stroke="black" points="160,-67.5 160,-86.5 238,-86.5 238,-67.5 160,-67.5"/>
<text text-anchor="middle" x="199" y="-74.5" font-family="Helvetica,sans-Serif" font-size="10.00">NonTerminal</text>
</a>
</g>
</g>
<!-- Node5&#45;&gt;Node4 -->
<g id="edge5" class="edge">
<title>Node5&#45;&gt;Node4</title>
<path fill="none" stroke="#9a32cd" stroke-dasharray="5,2" d="M209.21,-58.53C216.57,-45.95 226.18,-29.51 231.96,-19.63"/>
<polygon fill="#9a32cd" stroke="#9a32cd" points="206.15,-56.83 204.12,-67.23 212.19,-60.37 206.15,-56.83"/>
<text text-anchor="middle" x="227.5" y="-41" font-family="Helvetica,sans-Serif" font-size="10.00"> nt</text>
</g>
<!-- Node6&#45;&gt;Node5 -->
<g id="edge6" class="edge">
<title>Node6&#45;&gt;Node5</title>
<path fill="none" stroke="#9a32cd" stroke-dasharray="5,2" d="M191.48,-124.24C190.55,-118.1 190.09,-111.26 191,-105 191.9,-98.81 193.9,-92.06 195.67,-86.86"/>
<polygon fill="#9a32cd" stroke="#9a32cd" points="188.08,-125.12 193.48,-134.24 194.95,-123.74 188.08,-125.12"/>
<text text-anchor="middle" x="221.5" y="-108" font-family="Helvetica,sans-Serif" font-size="10.00"> productions</text>
</g>
</g>
</svg>
