<?xml version="1.0" encoding="UTF-8" standalone="no"?>
<!DOCTYPE svg PUBLIC "-//W3C//DTD SVG 1.1//EN"
 "http://www.w3.org/Graphics/SVG/1.1/DTD/svg11.dtd">
<!-- Generated by graphviz version 2.43.0 (0)
 -->
<!-- Title: symbol_table_insert Pages: 1 -->
<svg width="524pt" height="78pt"
 viewBox="0.00 0.00 524.00 77.50" xmlns="http://www.w3.org/2000/svg" xmlns:xlink="http://www.w3.org/1999/xlink">
<g id="graph0" class="graph" transform="scale(1 1) rotate(0) translate(4 73.5)">
<title>symbol_table_insert</title>
<polygon fill="white" stroke="transparent" points="-4,4 -4,-73.5 520,-73.5 520,4 -4,4"/>
<!-- Node1 -->
<g id="node1" class="node">
<title>Node1</title>
<g id="a_node1"><a xlink:title="Inserts a lexeme into the internal symbol table.">
<polygon fill="#bfbfbf" stroke="black" points="0,-28 0,-47 116,-47 116,-28 0,-28"/>
<text text-anchor="middle" x="58" y="-35" font-family="Helvetica,sans-Serif" font-size="10.00">symbol_table_insert</text>
</a>
</g>
</g>
<!-- Node2 -->
<g id="node2" class="node">
<title>Node2</title>
<g id="a_node2"><a xlink:href="symbol__table_8c.html#af00e4a3f1778752600e745a5f825e3ac" target="_top" xlink:title=" ">
<polygon fill="white" stroke="black" points="152,-28 152,-47 269,-47 269,-28 152,-28"/>
<text text-anchor="middle" x="210.5" y="-35" font-family="Helvetica,sans-Serif" font-size="10.00">symbol_table_resize</text>
</a>
</g>
</g>
<!-- Node1&#45;&gt;Node2 -->
<g id="edge1" class="edge">
<title>Node1&#45;&gt;Node2</title>
<path fill="none" stroke="midnightblue" d="M116.33,-37.5C124.59,-37.5 133.17,-37.5 141.62,-37.5"/>
<polygon fill="midnightblue" stroke="midnightblue" points="141.83,-41 151.83,-37.5 141.83,-34 141.83,-41"/>
</g>
<!-- Node3 -->
<g id="node3" class="node">
<title>Node3</title>
<g id="a_node3"><a xlink:href="symbol__table_8c.html#abd009617cc391aeb4c484a199286513e" target="_top" xlink:title=" ">
<polygon fill="white" stroke="black" points="327,-50 327,-69 399,-69 399,-50 327,-50"/>
<text text-anchor="middle" x="363" y="-57" font-family="Helvetica,sans-Serif" font-size="10.00">next_prime</text>
</a>
</g>
</g>
<!-- Node2&#45;&gt;Node3 -->
<g id="edge2" class="edge">
<title>Node2&#45;&gt;Node3</title>
<path fill="none" stroke="midnightblue" d="M269.26,-45.94C285.02,-48.25 301.86,-50.71 316.81,-52.89"/>
<polygon fill="midnightblue" stroke="midnightblue" points="316.42,-56.37 326.82,-54.36 317.43,-49.45 316.42,-56.37"/>
</g>
<!-- Node5 -->
<g id="node5" class="node">
<title>Node5</title>
<g id="a_node5"><a xlink:href="symbol__table_8c.html#a86044a0a95c64d3b677f00cba38ae8e1" target="_top" xlink:title=" ">
<polygon fill="white" stroke="black" points="305,-0.5 305,-30.5 421,-30.5 421,-0.5 305,-0.5"/>
<text text-anchor="start" x="313" y="-18.5" font-family="Helvetica,sans-Serif" font-size="10.00">symbol_table_insert</text>
<text text-anchor="middle" x="363" y="-7.5" font-family="Helvetica,sans-Serif" font-size="10.00">_entry</text>
</a>
</g>
</g>
<!-- Node2&#45;&gt;Node5 -->
<g id="edge4" class="edge">
<title>Node2&#45;&gt;Node5</title>
<path fill="none" stroke="midnightblue" d="M269.26,-29.06C277.6,-27.84 286.24,-26.57 294.75,-25.33"/>
<polygon fill="midnightblue" stroke="midnightblue" points="295.26,-28.79 304.65,-23.88 294.25,-21.87 295.26,-28.79"/>
</g>
<!-- Node4 -->
<g id="node4" class="node">
<title>Node4</title>
<g id="a_node4"><a xlink:href="symbol__table_8c.html#aa29f6b8604796044e39772a51c0f2c63" target="_top" xlink:title=" ">
<polygon fill="white" stroke="black" points="457,-50 457,-69 516,-69 516,-50 457,-50"/>
<text text-anchor="middle" x="486.5" y="-57" font-family="Helvetica,sans-Serif" font-size="10.00">is_prime</text>
</a>
</g>
</g>
<!-- Node3&#45;&gt;Node4 -->
<g id="edge3" class="edge">
<title>Node3&#45;&gt;Node4</title>
<path fill="none" stroke="midnightblue" d="M399.14,-59.5C414.06,-59.5 431.5,-59.5 446.79,-59.5"/>
<polygon fill="midnightblue" stroke="midnightblue" points="446.97,-63 456.97,-59.5 446.97,-56 446.97,-63"/>
</g>
</g>
</svg>
