<?xml version="1.0" encoding="UTF-8" standalone="no"?>
<!DOCTYPE svg PUBLIC "-//W3C//DTD SVG 1.1//EN"
 "http://www.w3.org/Graphics/SVG/1.1/DTD/svg11.dtd">
<!-- Generated by graphviz version 2.43.0 (0)
 -->
<!-- Title: include/symbol_table.h Pages: 1 -->
<svg width="508pt" height="196pt"
 viewBox="0.00 0.00 508.00 196.00" xmlns="http://www.w3.org/2000/svg" xmlns:xlink="http://www.w3.org/1999/xlink">
<g id="graph0" class="graph" transform="scale(1 1) rotate(0) translate(4 192)">
<title>include/symbol_table.h</title>
<polygon fill="white" stroke="transparent" points="-4,4 -4,-192 504,-192 504,4 -4,4"/>
<!-- Node1 -->
<g id="node1" class="node">
<title>Node1</title>
<g id="a_node1"><a xlink:title=" ">
<polygon fill="#bfbfbf" stroke="black" points="271,-168.5 271,-187.5 401,-187.5 401,-168.5 271,-168.5"/>
<text text-anchor="middle" x="336" y="-175.5" font-family="Helvetica,sans-Serif" font-size="10.00">include/symbol_table.h</text>
</a>
</g>
</g>
<!-- Node2 -->
<g id="node2" class="node">
<title>Node2</title>
<g id="a_node2"><a xlink:href="lexer_8h.html" target="_top" xlink:title=" ">
<polygon fill="white" stroke="black" points="208.5,-112.5 208.5,-131.5 295.5,-131.5 295.5,-112.5 208.5,-112.5"/>
<text text-anchor="middle" x="252" y="-119.5" font-family="Helvetica,sans-Serif" font-size="10.00">include/lexer.h</text>
</a>
</g>
</g>
<!-- Node1&#45;&gt;Node2 -->
<g id="edge1" class="edge">
<title>Node1&#45;&gt;Node2</title>
<path fill="none" stroke="midnightblue" d="M314.07,-162.9C298.66,-153 278.55,-140.07 265.46,-131.65"/>
<polygon fill="midnightblue" stroke="midnightblue" points="312.2,-165.86 322.5,-168.32 315.98,-159.97 312.2,-165.86"/>
</g>
<!-- Node6 -->
<g id="node6" class="node">
<title>Node6</title>
<g id="a_node6"><a xlink:href="lexer_8c.html" target="_top" xlink:title=" ">
<polygon fill="white" stroke="black" points="301.5,-56.5 301.5,-75.5 394.5,-75.5 394.5,-56.5 301.5,-56.5"/>
<text text-anchor="middle" x="348" y="-63.5" font-family="Helvetica,sans-Serif" font-size="10.00">src/main/lexer.c</text>
</a>
</g>
</g>
<!-- Node1&#45;&gt;Node6 -->
<g id="edge7" class="edge">
<title>Node1&#45;&gt;Node6</title>
<path fill="none" stroke="midnightblue" d="M338.03,-158.35C340.66,-134.25 345.13,-93.31 347.06,-75.59"/>
<polygon fill="midnightblue" stroke="midnightblue" points="334.55,-158.05 336.94,-168.37 341.51,-158.81 334.55,-158.05"/>
</g>
<!-- Node8 -->
<g id="node8" class="node">
<title>Node8</title>
<g id="a_node8"><a xlink:href="symbol__table_8c.html" target="_top" xlink:title=" ">
<polygon fill="white" stroke="black" points="364,-112.5 364,-131.5 500,-131.5 500,-112.5 364,-112.5"/>
<text text-anchor="middle" x="432" y="-119.5" font-family="Helvetica,sans-Serif" font-size="10.00">src/main/symbol_table.c</text>
</a>
</g>
</g>
<!-- Node1&#45;&gt;Node8 -->
<g id="edge8" class="edge">
<title>Node1&#45;&gt;Node8</title>
<path fill="none" stroke="midnightblue" d="M360.57,-163.18C378.24,-153.24 401.51,-140.15 416.61,-131.65"/>
<polygon fill="midnightblue" stroke="midnightblue" points="358.42,-160.37 351.42,-168.32 361.86,-166.47 358.42,-160.37"/>
</g>
<!-- Node3 -->
<g id="node3" class="node">
<title>Node3</title>
<g id="a_node3"><a xlink:href="parser_8h.html" target="_top" xlink:title=" ">
<polygon fill="white" stroke="black" points="60,-56.5 60,-75.5 154,-75.5 154,-56.5 60,-56.5"/>
<text text-anchor="middle" x="107" y="-63.5" font-family="Helvetica,sans-Serif" font-size="10.00">include/parser.h</text>
</a>
</g>
</g>
<!-- Node2&#45;&gt;Node3 -->
<g id="edge2" class="edge">
<title>Node2&#45;&gt;Node3</title>
<path fill="none" stroke="midnightblue" d="M219.52,-108.91C192.26,-98.75 154.01,-84.51 129.87,-75.52"/>
<polygon fill="midnightblue" stroke="midnightblue" points="218.43,-112.23 229.02,-112.44 220.87,-105.67 218.43,-112.23"/>
</g>
<!-- Node2&#45;&gt;Node6 -->
<g id="edge5" class="edge">
<title>Node2&#45;&gt;Node6</title>
<path fill="none" stroke="midnightblue" d="M276.57,-107.18C294.24,-97.24 317.51,-84.15 332.61,-75.65"/>
<polygon fill="midnightblue" stroke="midnightblue" points="274.42,-104.37 267.42,-112.32 277.86,-110.47 274.42,-104.37"/>
</g>
<!-- Node7 -->
<g id="node7" class="node">
<title>Node7</title>
<g id="a_node7"><a xlink:href="test__lexer_8c.html" target="_top" xlink:title=" ">
<polygon fill="white" stroke="black" points="172.5,-56.5 172.5,-75.5 283.5,-75.5 283.5,-56.5 172.5,-56.5"/>
<text text-anchor="middle" x="228" y="-63.5" font-family="Helvetica,sans-Serif" font-size="10.00">src/test/test_lexer.c</text>
</a>
</g>
</g>
<!-- Node2&#45;&gt;Node7 -->
<g id="edge6" class="edge">
<title>Node2&#45;&gt;Node7</title>
<path fill="none" stroke="midnightblue" d="M243.86,-102.69C239.82,-93.59 235.12,-83.01 231.89,-75.75"/>
<polygon fill="midnightblue" stroke="midnightblue" points="240.78,-104.37 248.04,-112.08 247.17,-101.52 240.78,-104.37"/>
</g>
<!-- Node4 -->
<g id="node4" class="node">
<title>Node4</title>
<g id="a_node4"><a xlink:href="driver_8c.html" target="_top" xlink:title=" ">
<polygon fill="white" stroke="black" points="0,-0.5 0,-19.5 98,-19.5 98,-0.5 0,-0.5"/>
<text text-anchor="middle" x="49" y="-7.5" font-family="Helvetica,sans-Serif" font-size="10.00">src/main/driver.c</text>
</a>
</g>
</g>
<!-- Node3&#45;&gt;Node4 -->
<g id="edge3" class="edge">
<title>Node3&#45;&gt;Node4</title>
<path fill="none" stroke="midnightblue" d="M90.09,-49.25C79.8,-39.67 67.03,-27.79 58.49,-19.83"/>
<polygon fill="midnightblue" stroke="midnightblue" points="87.98,-52.07 97.68,-56.32 92.75,-46.95 87.98,-52.07"/>
</g>
<!-- Node5 -->
<g id="node5" class="node">
<title>Node5</title>
<g id="a_node5"><a xlink:href="parser_8c.html" target="_top" xlink:title=" ">
<polygon fill="white" stroke="black" points="116,-0.5 116,-19.5 216,-19.5 216,-0.5 116,-0.5"/>
<text text-anchor="middle" x="166" y="-7.5" font-family="Helvetica,sans-Serif" font-size="10.00">src/main/parser.c</text>
</a>
</g>
</g>
<!-- Node3&#45;&gt;Node5 -->
<g id="edge4" class="edge">
<title>Node3&#45;&gt;Node5</title>
<path fill="none" stroke="midnightblue" d="M123.89,-49.54C134.41,-39.91 147.57,-27.87 156.35,-19.83"/>
<polygon fill="midnightblue" stroke="midnightblue" points="121.49,-46.99 116.48,-56.32 126.22,-52.15 121.49,-46.99"/>
</g>
</g>
</svg>
