<?xml version="1.0" encoding="UTF-8" standalone="no"?>
<!DOCTYPE svg PUBLIC "-//W3C//DTD SVG 1.1//EN"
 "http://www.w3.org/Graphics/SVG/1.1/DTD/svg11.dtd">
<!-- Generated by graphviz version 2.43.0 (0)
 -->
<!-- Title: symbol_value Pages: 1 -->
<svg width="132pt" height="229pt"
 viewBox="0.00 0.00 131.50 229.00" xmlns="http://www.w3.org/2000/svg" xmlns:xlink="http://www.w3.org/1999/xlink">
<g id="graph0" class="graph" transform="scale(1 1) rotate(0) translate(4 225)">
<title>symbol_value</title>
<polygon fill="white" stroke="transparent" points="-4,4 -4,-225 127.5,-225 127.5,4 -4,4"/>
<!-- Node1 -->
<g id="node1" class="node">
<title>Node1</title>
<g id="a_node1"><a xlink:title=" ">
<polygon fill="#bfbfbf" stroke="black" points="38.5,-201.5 38.5,-220.5 123.5,-220.5 123.5,-201.5 38.5,-201.5"/>
<text text-anchor="middle" x="81" y="-208.5" font-family="Helvetica,sans-Serif" font-size="10.00">symbol_value</text>
</a>
</g>
</g>
<!-- Node4 -->
<g id="node4" class="node">
<title>Node4</title>
<g id="a_node4"><a xlink:href="structSymbol.html" target="_top" xlink:title=" ">
<polygon fill="white" stroke="black" points="20.5,-134.5 20.5,-153.5 73.5,-153.5 73.5,-134.5 20.5,-134.5"/>
<text text-anchor="middle" x="47" y="-141.5" font-family="Helvetica,sans-Serif" font-size="10.00">Symbol</text>
</a>
</g>
</g>
<!-- Node1&#45;&gt;Node4 -->
<g id="edge4" class="edge">
<title>Node1&#45;&gt;Node4</title>
<path fill="none" stroke="#9a32cd" stroke-dasharray="5,2" d="M68.88,-192.87C66.81,-189.66 64.76,-186.27 63,-183 57.78,-173.29 53.05,-161.51 50.11,-153.67"/>
<polygon fill="#9a32cd" stroke="#9a32cd" points="66.06,-194.94 74.56,-201.26 71.86,-191.02 66.06,-194.94"/>
<text text-anchor="middle" x="78.5" y="-175" font-family="Helvetica,sans-Serif" font-size="10.00"> value</text>
</g>
<!-- Node2 -->
<g id="node2" class="node">
<title>Node2</title>
<g id="a_node2"><a xlink:href="structNonTerminal.html" target="_top" xlink:title=" ">
<polygon fill="white" stroke="black" points="31,-0.5 31,-19.5 109,-19.5 109,-0.5 31,-0.5"/>
<text text-anchor="middle" x="70" y="-7.5" font-family="Helvetica,sans-Serif" font-size="10.00">NonTerminal</text>
</a>
</g>
</g>
<!-- Node2&#45;&gt;Node1 -->
<g id="edge1" class="edge">
<title>Node2&#45;&gt;Node1</title>
<path fill="none" stroke="#9a32cd" stroke-dasharray="5,2" d="M87.52,-27.04C90.17,-30.38 92.51,-34.09 94,-38 116.9,-98.24 108.34,-120.17 94,-183 92.52,-189.49 89.27,-196.24 86.39,-201.37"/>
<polygon fill="#9a32cd" stroke="#9a32cd" points="89.97,-24.53 80.61,-19.57 84.83,-29.29 89.97,-24.53"/>
<text text-anchor="middle" x="115.5" y="-108" font-family="Helvetica,sans-Serif" font-size="10.00"> nt</text>
</g>
<!-- Node3 -->
<g id="node3" class="node">
<title>Node3</title>
<g id="a_node3"><a xlink:href="structProduction.html" target="_top" xlink:title=" ">
<polygon fill="white" stroke="black" points="0,-67.5 0,-86.5 68,-86.5 68,-67.5 0,-67.5"/>
<text text-anchor="middle" x="34" y="-74.5" font-family="Helvetica,sans-Serif" font-size="10.00">Production</text>
</a>
</g>
</g>
<!-- Node3&#45;&gt;Node2 -->
<g id="edge2" class="edge">
<title>Node3&#45;&gt;Node2</title>
<path fill="none" stroke="#9a32cd" stroke-dasharray="5,2" d="M30.01,-57.41C29.51,-50.96 30.01,-43.88 33,-38 36.96,-30.2 44.35,-24.12 51.49,-19.72"/>
<polygon fill="#9a32cd" stroke="#9a32cd" points="26.55,-57.98 31.53,-67.34 33.47,-56.92 26.55,-57.98"/>
<text text-anchor="middle" x="63.5" y="-41" font-family="Helvetica,sans-Serif" font-size="10.00"> productions</text>
</g>
<!-- Node4&#45;&gt;Node3 -->
<g id="edge3" class="edge">
<title>Node4&#45;&gt;Node3</title>
<path fill="none" stroke="#9a32cd" stroke-dasharray="5,2" d="M42.72,-124.14C42.12,-121.41 41.54,-118.64 41,-116 38.97,-106.01 36.88,-94.48 35.52,-86.77"/>
<polygon fill="#9a32cd" stroke="#9a32cd" points="39.33,-125.02 44.92,-134.02 46.16,-123.5 39.33,-125.02"/>
<text text-anchor="middle" x="63.5" y="-108" font-family="Helvetica,sans-Serif" font-size="10.00"> symbols</text>
</g>
</g>
</svg>
