<?xml version="1.0" encoding="UTF-8" standalone="no"?>
<!DOCTYPE svg PUBLIC "-//W3C//DTD SVG 1.1//EN"
 "http://www.w3.org/Graphics/SVG/1.1/DTD/svg11.dtd">
<!-- Generated by graphviz version 2.43.0 (0)
 -->
<!-- Title: main Pages: 1 -->
<svg width="1443pt" height="658pt"
 viewBox="0.00 0.00 1443.00 658.00" xmlns="http://www.w3.org/2000/svg" xmlns:xlink="http://www.w3.org/1999/xlink">
<g id="graph0" class="graph" transform="scale(1 1) rotate(0) translate(4 654)">
<title>main</title>
<polygon fill="white" stroke="transparent" points="-4,4 -4,-654 1439,-654 1439,4 -4,4"/>
<!-- Node1 -->
<g id="node1" class="node">
<title>Node1</title>
<g id="a_node1"><a xlink:title=" ">
<polygon fill="#bfbfbf" stroke="black" points="0,-475.5 0,-494.5 41,-494.5 41,-475.5 0,-475.5"/>
<text text-anchor="middle" x="20.5" y="-482.5" font-family="Helvetica,sans-Serif" font-size="10.00">main</text>
</a>
</g>
</g>
<!-- Node2 -->
<g id="node2" class="node">
<title>Node2</title>
<g id="a_node2"><a xlink:href="lexer_8c.html#a78c9ef2940e04bc9cd18a764bdb9e0a5" target="_top" xlink:title="Initializes an internal twin buffer and loads the active buffer with the first chunk of the file.">
<polygon fill="white" stroke="black" points="464,-589.5 464,-608.5 530,-608.5 530,-589.5 464,-589.5"/>
<text text-anchor="middle" x="497" y="-596.5" font-family="Helvetica,sans-Serif" font-size="10.00">buffer_init</text>
</a>
</g>
</g>
<!-- Node1&#45;&gt;Node2 -->
<g id="edge1" class="edge">
<title>Node1&#45;&gt;Node2</title>
<path fill="none" stroke="midnightblue" d="M23.85,-494.71C29.29,-514.77 44.8,-560.53 77,-580 197.03,-652.55 373.62,-626.69 453.72,-609.43"/>
<polygon fill="midnightblue" stroke="midnightblue" points="454.91,-612.75 463.91,-607.17 453.39,-605.92 454.91,-612.75"/>
</g>
<!-- Node13 -->
<g id="node13" class="node">
<title>Node13</title>
<g id="a_node13"><a xlink:href="lexer_8c.html#a68b169dd0377b22e0729c7e7a9988262" target="_top" xlink:title="A wrapper function that fetches the next token from the file.">
<polygon fill="white" stroke="black" points="451,-513.5 451,-532.5 543,-532.5 543,-513.5 451,-513.5"/>
<text text-anchor="middle" x="497" y="-520.5" font-family="Helvetica,sans-Serif" font-size="10.00">get_next_token</text>
</a>
</g>
</g>
<!-- Node1&#45;&gt;Node13 -->
<g id="edge14" class="edge">
<title>Node1&#45;&gt;Node13</title>
<path fill="none" stroke="midnightblue" d="M41.29,-485.88C96.14,-488.41 254.7,-496.33 386,-509 403.86,-510.72 423.3,-513.05 440.79,-515.31"/>
<polygon fill="midnightblue" stroke="midnightblue" points="440.48,-518.79 450.85,-516.62 441.39,-511.85 440.48,-518.79"/>
</g>
<!-- Node14 -->
<g id="node14" class="node">
<title>Node14</title>
<g id="a_node14"><a xlink:href="parser_8c.html#a6c4b340ccd44133e7a3dabdd3015afac" target="_top" xlink:title="Parses the given code based on the specified grammar.">
<polygon fill="white" stroke="black" points="109,-171.5 109,-190.5 181,-190.5 181,-171.5 109,-171.5"/>
<text text-anchor="middle" x="145" y="-178.5" font-family="Helvetica,sans-Serif" font-size="10.00">parse_code</text>
</a>
</g>
</g>
<!-- Node1&#45;&gt;Node14 -->
<g id="edge16" class="edge">
<title>Node1&#45;&gt;Node14</title>
<path fill="none" stroke="midnightblue" d="M25.44,-475.23C42.82,-432.08 112.9,-258.17 136.33,-200.03"/>
<polygon fill="midnightblue" stroke="midnightblue" points="139.65,-201.17 140.14,-190.58 133.15,-198.55 139.65,-201.17"/>
</g>
<!-- Node35 -->
<g id="node35" class="node">
<title>Node35</title>
<g id="a_node35"><a xlink:href="lexer_8c.html#aee1807f4e95bea666b6c994915907414" target="_top" xlink:title="Retrieves a string representation of a token type (for printing purposes).">
<polygon fill="white" stroke="black" points="451,-551.5 451,-570.5 543,-570.5 543,-551.5 451,-551.5"/>
<text text-anchor="middle" x="497" y="-558.5" font-family="Helvetica,sans-Serif" font-size="10.00">token_to_string</text>
</a>
</g>
</g>
<!-- Node1&#45;&gt;Node35 -->
<g id="edge47" class="edge">
<title>Node1&#45;&gt;Node35</title>
<path fill="none" stroke="midnightblue" d="M41.22,-493.27C51.69,-497.36 64.86,-502.04 77,-505 204.94,-536.22 359.39,-551.19 440.32,-557.35"/>
<polygon fill="midnightblue" stroke="midnightblue" points="440.54,-560.87 450.77,-558.12 441.06,-553.89 440.54,-560.87"/>
</g>
<!-- Node37 -->
<g id="node37" class="node">
<title>Node37</title>
<g id="a_node37"><a xlink:href="parser_8c.html#aad20e8a12c7bfb6d97191c3a26363f1a" target="_top" xlink:title="Deallocates all memory associated with the parse tree.">
<polygon fill="white" stroke="black" points="89,-133.5 89,-152.5 201,-152.5 201,-133.5 89,-133.5"/>
<text text-anchor="middle" x="145" y="-140.5" font-family="Helvetica,sans-Serif" font-size="10.00">parse_tree_cleanup</text>
</a>
</g>
</g>
<!-- Node1&#45;&gt;Node37 -->
<g id="edge43" class="edge">
<title>Node1&#45;&gt;Node37</title>
<path fill="none" stroke="midnightblue" d="M21.81,-475.35C23.58,-426.85 33.82,-210.02 77,-162 78.19,-160.67 79.48,-159.43 80.83,-158.28"/>
<polygon fill="midnightblue" stroke="midnightblue" points="82.96,-161.06 89.25,-152.54 79.02,-155.27 82.96,-161.06"/>
</g>
<!-- Node38 -->
<g id="node38" class="node">
<title>Node38</title>
<g id="a_node38"><a xlink:href="parser_8c.html#a8c9a76dff4106d2e5eb33c33aa0c85f5" target="_top" xlink:title="Prints the parse tree using in&#45;order traversal in the specified file.">
<polygon fill="white" stroke="black" points="77,-551.5 77,-570.5 213,-570.5 213,-551.5 77,-551.5"/>
<text text-anchor="middle" x="145" y="-558.5" font-family="Helvetica,sans-Serif" font-size="10.00">print_parse_tree_inorder</text>
</a>
</g>
</g>
<!-- Node1&#45;&gt;Node38 -->
<g id="edge44" class="edge">
<title>Node1&#45;&gt;Node38</title>
<path fill="none" stroke="midnightblue" d="M29.6,-494.7C39.66,-506.21 57.85,-525.3 77,-537 83.97,-541.26 91.81,-544.92 99.6,-548"/>
<polygon fill="midnightblue" stroke="midnightblue" points="98.43,-551.3 109.03,-551.49 100.86,-544.74 98.43,-551.3"/>
</g>
<!-- Node39 -->
<g id="node39" class="node">
<title>Node39</title>
<g id="a_node39"><a xlink:href="driver_8c.html#a1ade15436b308d5973cd74a8b631827d" target="_top" xlink:title="This function removes all comments and prints the resulting comment&#45;free code on the terminal.">
<polygon fill="white" stroke="black" points="91.5,-95.5 91.5,-114.5 198.5,-114.5 198.5,-95.5 91.5,-95.5"/>
<text text-anchor="middle" x="145" y="-102.5" font-family="Helvetica,sans-Serif" font-size="10.00">removeComments</text>
</a>
</g>
</g>
<!-- Node1&#45;&gt;Node39 -->
<g id="edge46" class="edge">
<title>Node1&#45;&gt;Node39</title>
<path fill="none" stroke="midnightblue" d="M21.62,-475.28C22.48,-423.27 29.04,-178.3 77,-124 78.75,-122.02 80.69,-120.24 82.78,-118.63"/>
<polygon fill="midnightblue" stroke="midnightblue" points="84.76,-121.53 91.44,-113.31 81.09,-115.56 84.76,-121.53"/>
</g>
<!-- Node3 -->
<g id="node3" class="node">
<title>Node3</title>
<g id="a_node3"><a xlink:href="lexer_8c.html#a67dd8f227181df843e25a314e262a10c" target="_top" xlink:title="Deallocates the twin buffer (automatically called at program termination).">
<polygon fill="white" stroke="black" points="627.5,-608.5 627.5,-627.5 716.5,-627.5 716.5,-608.5 627.5,-608.5"/>
<text text-anchor="middle" x="672" y="-615.5" font-family="Helvetica,sans-Serif" font-size="10.00">buffer_cleanup</text>
</a>
</g>
</g>
<!-- Node2&#45;&gt;Node3 -->
<g id="edge2" class="edge">
<title>Node2&#45;&gt;Node3</title>
<path fill="none" stroke="midnightblue" d="M530.13,-602.53C554.5,-605.21 588.55,-608.94 617.07,-612.08"/>
<polygon fill="midnightblue" stroke="midnightblue" points="616.97,-615.59 627.3,-613.2 617.74,-608.63 616.97,-615.59"/>
</g>
<!-- Node4 -->
<g id="node4" class="node">
<title>Node4</title>
<g id="a_node4"><a xlink:href="lexer_8c.html#a1ede1e9739c264c7e3af07630e5a68f3" target="_top" xlink:title=" ">
<polygon fill="white" stroke="black" points="608,-570.5 608,-589.5 736,-589.5 736,-570.5 608,-570.5"/>
<text text-anchor="middle" x="672" y="-577.5" font-family="Helvetica,sans-Serif" font-size="10.00">get_next_token_helper</text>
</a>
</g>
</g>
<!-- Node2&#45;&gt;Node4 -->
<g id="edge3" class="edge">
<title>Node2&#45;&gt;Node4</title>
<path fill="none" stroke="midnightblue" d="M530.13,-590.08C549.2,-586.87 574.19,-583.7 597.83,-581.36"/>
<polygon fill="midnightblue" stroke="midnightblue" points="598.23,-584.84 607.85,-580.41 597.57,-577.87 598.23,-584.84"/>
</g>
<!-- Node4&#45;&gt;Node2 -->
<g id="edge4" class="edge">
<title>Node4&#45;&gt;Node2</title>
<path fill="none" stroke="midnightblue" d="M635.16,-589.53C607.6,-593.99 569.47,-598.28 540.4,-600.24"/>
<polygon fill="midnightblue" stroke="midnightblue" points="539.91,-596.77 530.13,-600.86 540.33,-603.75 539.91,-596.77"/>
</g>
<!-- Node5 -->
<g id="node5" class="node">
<title>Node5</title>
<g id="a_node5"><a xlink:href="lexer_8c.html#ab8b57ff9976f6622383db94b907a00f3" target="_top" xlink:title=" ">
<polygon fill="white" stroke="black" points="787.5,-589.5 787.5,-608.5 867.5,-608.5 867.5,-589.5 787.5,-589.5"/>
<text text-anchor="middle" x="827.5" y="-596.5" font-family="Helvetica,sans-Serif" font-size="10.00">create_token</text>
</a>
</g>
</g>
<!-- Node4&#45;&gt;Node5 -->
<g id="edge5" class="edge">
<title>Node4&#45;&gt;Node5</title>
<path fill="none" stroke="midnightblue" d="M736.32,-587.84C750.01,-589.53 764.28,-591.3 777.32,-592.91"/>
<polygon fill="midnightblue" stroke="midnightblue" points="777.14,-596.42 787.49,-594.17 778,-589.47 777.14,-596.42"/>
</g>
<!-- Node6 -->
<g id="node6" class="node">
<title>Node6</title>
<g id="a_node6"><a xlink:href="symbol__table_8c.html#acadfe9a6832a8597ed3583053966ac3b" target="_top" xlink:title="Inserts a lexeme into the internal symbol table.">
<polygon fill="white" stroke="black" points="919,-608.5 919,-627.5 1035,-627.5 1035,-608.5 919,-608.5"/>
<text text-anchor="middle" x="977" y="-615.5" font-family="Helvetica,sans-Serif" font-size="10.00">symbol_table_insert</text>
</a>
</g>
</g>
<!-- Node4&#45;&gt;Node6 -->
<g id="edge13" class="edge">
<title>Node4&#45;&gt;Node6</title>
<path fill="none" stroke="midnightblue" d="M709.07,-589.57C717.99,-592.3 727.44,-595.49 736,-599 752.74,-605.87 754.44,-613.65 772,-618 816.69,-629.07 868.59,-628.9 908.85,-626.05"/>
<polygon fill="midnightblue" stroke="midnightblue" points="909.13,-629.54 918.83,-625.27 908.59,-622.56 909.13,-629.54"/>
</g>
<!-- Node11 -->
<g id="node11" class="node">
<title>Node11</title>
<g id="a_node11"><a xlink:href="lexer_8c.html#a960f17a4b92e6cce8b8edae91c728ead" target="_top" xlink:title=" ">
<polygon fill="white" stroke="black" points="772,-551.5 772,-570.5 883,-570.5 883,-551.5 772,-551.5"/>
<text text-anchor="middle" x="827.5" y="-558.5" font-family="Helvetica,sans-Serif" font-size="10.00">retract_and_update</text>
</a>
</g>
</g>
<!-- Node4&#45;&gt;Node11 -->
<g id="edge11" class="edge">
<title>Node4&#45;&gt;Node11</title>
<path fill="none" stroke="midnightblue" d="M736.32,-572.16C744.66,-571.13 753.21,-570.07 761.58,-569.04"/>
<polygon fill="midnightblue" stroke="midnightblue" points="762.16,-572.49 771.66,-567.79 761.3,-565.54 762.16,-572.49"/>
</g>
<!-- Node12 -->
<g id="node12" class="node">
<title>Node12</title>
<g id="a_node12"><a xlink:href="lexer_8c.html#a6d0bc199864425dd309933a88f06bb51" target="_top" xlink:title=" ">
<polygon fill="white" stroke="black" points="789.5,-513.5 789.5,-532.5 865.5,-532.5 865.5,-513.5 789.5,-513.5"/>
<text text-anchor="middle" x="827.5" y="-520.5" font-family="Helvetica,sans-Serif" font-size="10.00">swap_buffer</text>
</a>
</g>
</g>
<!-- Node4&#45;&gt;Node12 -->
<g id="edge12" class="edge">
<title>Node4&#45;&gt;Node12</title>
<path fill="none" stroke="midnightblue" d="M697.33,-570.42C717.32,-562.6 746.41,-551.37 772,-542 777.35,-540.04 783.02,-538.01 788.59,-536.05"/>
<polygon fill="midnightblue" stroke="midnightblue" points="790.15,-539.21 798.43,-532.6 787.84,-532.6 790.15,-539.21"/>
</g>
<!-- Node5&#45;&gt;Node6 -->
<g id="edge6" class="edge">
<title>Node5&#45;&gt;Node6</title>
<path fill="none" stroke="midnightblue" d="M867.64,-604.04C880.28,-605.67 894.67,-607.52 908.74,-609.34"/>
<polygon fill="midnightblue" stroke="midnightblue" points="908.53,-612.84 918.9,-610.64 909.43,-605.9 908.53,-612.84"/>
</g>
<!-- Node7 -->
<g id="node7" class="node">
<title>Node7</title>
<g id="a_node7"><a xlink:href="symbol__table_8c.html#af00e4a3f1778752600e745a5f825e3ac" target="_top" xlink:title=" ">
<polygon fill="white" stroke="black" points="1071,-608.5 1071,-627.5 1188,-627.5 1188,-608.5 1071,-608.5"/>
<text text-anchor="middle" x="1129.5" y="-615.5" font-family="Helvetica,sans-Serif" font-size="10.00">symbol_table_resize</text>
</a>
</g>
</g>
<!-- Node6&#45;&gt;Node7 -->
<g id="edge7" class="edge">
<title>Node6&#45;&gt;Node7</title>
<path fill="none" stroke="midnightblue" d="M1035.33,-618C1043.59,-618 1052.17,-618 1060.62,-618"/>
<polygon fill="midnightblue" stroke="midnightblue" points="1060.83,-621.5 1070.83,-618 1060.83,-614.5 1060.83,-621.5"/>
</g>
<!-- Node8 -->
<g id="node8" class="node">
<title>Node8</title>
<g id="a_node8"><a xlink:href="symbol__table_8c.html#abd009617cc391aeb4c484a199286513e" target="_top" xlink:title=" ">
<polygon fill="white" stroke="black" points="1246,-630.5 1246,-649.5 1318,-649.5 1318,-630.5 1246,-630.5"/>
<text text-anchor="middle" x="1282" y="-637.5" font-family="Helvetica,sans-Serif" font-size="10.00">next_prime</text>
</a>
</g>
</g>
<!-- Node7&#45;&gt;Node8 -->
<g id="edge8" class="edge">
<title>Node7&#45;&gt;Node8</title>
<path fill="none" stroke="midnightblue" d="M1188.26,-626.44C1204.02,-628.75 1220.86,-631.21 1235.81,-633.39"/>
<polygon fill="midnightblue" stroke="midnightblue" points="1235.42,-636.87 1245.82,-634.86 1236.43,-629.95 1235.42,-636.87"/>
</g>
<!-- Node10 -->
<g id="node10" class="node">
<title>Node10</title>
<g id="a_node10"><a xlink:href="symbol__table_8c.html#a86044a0a95c64d3b677f00cba38ae8e1" target="_top" xlink:title=" ">
<polygon fill="white" stroke="black" points="1224,-581 1224,-611 1340,-611 1340,-581 1224,-581"/>
<text text-anchor="start" x="1232" y="-599" font-family="Helvetica,sans-Serif" font-size="10.00">symbol_table_insert</text>
<text text-anchor="middle" x="1282" y="-588" font-family="Helvetica,sans-Serif" font-size="10.00">_entry</text>
</a>
</g>
</g>
<!-- Node7&#45;&gt;Node10 -->
<g id="edge10" class="edge">
<title>Node7&#45;&gt;Node10</title>
<path fill="none" stroke="midnightblue" d="M1188.26,-609.56C1196.6,-608.34 1205.24,-607.07 1213.75,-605.83"/>
<polygon fill="midnightblue" stroke="midnightblue" points="1214.26,-609.29 1223.65,-604.38 1213.25,-602.37 1214.26,-609.29"/>
</g>
<!-- Node9 -->
<g id="node9" class="node">
<title>Node9</title>
<g id="a_node9"><a xlink:href="symbol__table_8c.html#aa29f6b8604796044e39772a51c0f2c63" target="_top" xlink:title=" ">
<polygon fill="white" stroke="black" points="1376,-630.5 1376,-649.5 1435,-649.5 1435,-630.5 1376,-630.5"/>
<text text-anchor="middle" x="1405.5" y="-637.5" font-family="Helvetica,sans-Serif" font-size="10.00">is_prime</text>
</a>
</g>
</g>
<!-- Node8&#45;&gt;Node9 -->
<g id="edge9" class="edge">
<title>Node8&#45;&gt;Node9</title>
<path fill="none" stroke="midnightblue" d="M1318.14,-640C1333.06,-640 1350.5,-640 1365.79,-640"/>
<polygon fill="midnightblue" stroke="midnightblue" points="1365.97,-643.5 1375.97,-640 1365.97,-636.5 1365.97,-643.5"/>
</g>
<!-- Node13&#45;&gt;Node4 -->
<g id="edge15" class="edge">
<title>Node13&#45;&gt;Node4</title>
<path fill="none" stroke="midnightblue" d="M538.57,-532.52C549.49,-535.33 561.26,-538.57 572,-542 594.7,-549.24 619.76,-558.88 638.98,-566.63"/>
<polygon fill="midnightblue" stroke="midnightblue" points="637.88,-569.96 648.46,-570.49 640.52,-563.48 637.88,-569.96"/>
</g>
<!-- Node15 -->
<g id="node15" class="node">
<title>Node15</title>
<g id="a_node15"><a xlink:href="parser_8c.html#a38b7b58ee1b37118b65d39df4b90656a" target="_top" xlink:title="Computes the First set of a given non&#45;terminal.">
<polygon fill="white" stroke="black" points="265.5,-0.5 265.5,-19.5 369.5,-19.5 369.5,-0.5 265.5,-0.5"/>
<text text-anchor="middle" x="317.5" y="-7.5" font-family="Helvetica,sans-Serif" font-size="10.00">compute_first_set</text>
</a>
</g>
</g>
<!-- Node14&#45;&gt;Node15 -->
<g id="edge17" class="edge">
<title>Node14&#45;&gt;Node15</title>
<path fill="none" stroke="midnightblue" d="M181.2,-177.93C192.66,-175.28 204.59,-170.51 213,-162 256.04,-118.44 205.92,-72.52 249,-29 251.24,-26.74 253.73,-24.74 256.39,-22.97"/>
<polygon fill="midnightblue" stroke="midnightblue" points="258.26,-25.94 265.38,-18.09 254.92,-19.79 258.26,-25.94"/>
</g>
<!-- Node17 -->
<g id="node17" class="node">
<title>Node17</title>
<g id="a_node17"><a xlink:href="parser_8c.html#a1fe10306eb61573f8a6929b0987802d0" target="_top" xlink:title="Computes the Follow set of a given non&#45;terminal.">
<polygon fill="white" stroke="black" points="260,-190.5 260,-209.5 375,-209.5 375,-190.5 260,-190.5"/>
<text text-anchor="middle" x="317.5" y="-197.5" font-family="Helvetica,sans-Serif" font-size="10.00">compute_follow_set</text>
</a>
</g>
</g>
<!-- Node14&#45;&gt;Node17 -->
<g id="edge19" class="edge">
<title>Node14&#45;&gt;Node17</title>
<path fill="none" stroke="midnightblue" d="M181.33,-184.94C201.04,-187.13 226.25,-189.94 249.55,-192.54"/>
<polygon fill="midnightblue" stroke="midnightblue" points="249.41,-196.05 259.74,-193.67 250.19,-189.09 249.41,-196.05"/>
</g>
<!-- Node21 -->
<g id="node21" class="node">
<title>Node21</title>
<g id="a_node21"><a xlink:href="parser_8c.html#ad3a905e9370709865b9e0a8b31653443" target="_top" xlink:title="Finds a non&#45;terminal based on its name.">
<polygon fill="white" stroke="black" points="265.5,-152.5 265.5,-171.5 369.5,-171.5 369.5,-152.5 265.5,-152.5"/>
<text text-anchor="middle" x="317.5" y="-159.5" font-family="Helvetica,sans-Serif" font-size="10.00">find_non_terminal</text>
</a>
</g>
</g>
<!-- Node14&#45;&gt;Node21 -->
<g id="edge23" class="edge">
<title>Node14&#45;&gt;Node21</title>
<path fill="none" stroke="midnightblue" d="M181.33,-177.06C202.67,-174.68 230.47,-171.59 255.3,-168.82"/>
<polygon fill="midnightblue" stroke="midnightblue" points="255.82,-172.28 265.37,-167.7 255.04,-165.33 255.82,-172.28"/>
</g>
<!-- Node22 -->
<g id="node22" class="node">
<title>Node22</title>
<g id="a_node22"><a xlink:href="parser_8c.html#a24f97716740e58254357ada9b7921b5e" target="_top" xlink:title="Deallocates memory associated with all non&#45;terminals, their first and follow sets,...">
<polygon fill="white" stroke="black" points="249,-76.5 249,-95.5 386,-95.5 386,-76.5 249,-76.5"/>
<text text-anchor="middle" x="317.5" y="-83.5" font-family="Helvetica,sans-Serif" font-size="10.00">first_and_follow_cleanup</text>
</a>
</g>
</g>
<!-- Node14&#45;&gt;Node22 -->
<g id="edge24" class="edge">
<title>Node14&#45;&gt;Node22</title>
<path fill="none" stroke="midnightblue" d="M181.25,-176.07C192.2,-173.27 203.8,-168.88 213,-162 237,-144.06 224.98,-122.92 249,-105 251.51,-103.13 254.19,-101.45 256.98,-99.93"/>
<polygon fill="midnightblue" stroke="midnightblue" points="258.65,-103.01 266.24,-95.62 255.69,-96.67 258.65,-103.01"/>
</g>
<!-- Node23 -->
<g id="node23" class="node">
<title>Node23</title>
<g id="a_node23"><a xlink:href="parser_8c.html#a2ae8d13411ecb85d283dbcd2045c2bd6" target="_top" xlink:title="Generates the parsing table for the given grammar using a hash map.">
<polygon fill="white" stroke="black" points="258,-114.5 258,-133.5 377,-133.5 377,-114.5 258,-114.5"/>
<text text-anchor="middle" x="317.5" y="-121.5" font-family="Helvetica,sans-Serif" font-size="10.00">generate_parse_map</text>
</a>
</g>
</g>
<!-- Node14&#45;&gt;Node23 -->
<g id="edge25" class="edge">
<title>Node14&#45;&gt;Node23</title>
<path fill="none" stroke="midnightblue" d="M181.24,-172.5C191.62,-169.6 202.9,-166.05 213,-162 229.79,-155.27 232.2,-149.71 249,-143 254.86,-140.66 261.12,-138.49 267.37,-136.51"/>
<polygon fill="midnightblue" stroke="midnightblue" points="268.56,-139.81 277.13,-133.57 266.54,-133.1 268.56,-139.81"/>
</g>
<!-- Node25 -->
<g id="node25" class="node">
<title>Node25</title>
<g id="a_node25"><a xlink:href="parser_8c.html#a385276c7e31aeff5ad9c22370300ced6" target="_top" xlink:title="Generates a parse tree for the given source code.">
<polygon fill="white" stroke="black" points="259,-342.5 259,-361.5 376,-361.5 376,-342.5 259,-342.5"/>
<text text-anchor="middle" x="317.5" y="-349.5" font-family="Helvetica,sans-Serif" font-size="10.00">generate_parse_tree</text>
</a>
</g>
</g>
<!-- Node14&#45;&gt;Node25 -->
<g id="edge28" class="edge">
<title>Node14&#45;&gt;Node25</title>
<path fill="none" stroke="midnightblue" d="M155.66,-190.68C183.56,-218.67 264.53,-299.88 299.78,-335.23"/>
<polygon fill="midnightblue" stroke="midnightblue" points="297.41,-337.81 306.95,-342.42 302.37,-332.87 297.41,-337.81"/>
</g>
<!-- Node36 -->
<g id="node36" class="node">
<title>Node36</title>
<g id="a_node36"><a xlink:href="lexer_8c.html#ab45c7162c82bb8baec1ef2a248bcf120" target="_top" xlink:title="Retrieves the token type based on the given string.">
<polygon fill="white" stroke="black" points="271.5,-38.5 271.5,-57.5 363.5,-57.5 363.5,-38.5 271.5,-38.5"/>
<text text-anchor="middle" x="317.5" y="-45.5" font-family="Helvetica,sans-Serif" font-size="10.00">string_to_token</text>
</a>
</g>
</g>
<!-- Node14&#45;&gt;Node36 -->
<g id="edge42" class="edge">
<title>Node14&#45;&gt;Node36</title>
<path fill="none" stroke="midnightblue" d="M181.08,-177.38C192.4,-174.67 204.27,-170.01 213,-162 246.27,-131.47 215.7,-97.49 249,-67 252.83,-63.49 257.26,-60.63 261.98,-58.29"/>
<polygon fill="midnightblue" stroke="midnightblue" points="263.44,-61.47 271.33,-54.4 260.76,-55 263.44,-61.47"/>
</g>
<!-- Node16 -->
<g id="node16" class="node">
<title>Node16</title>
<g id="a_node16"><a xlink:href="parser_8c.html#a2953594e876de2e3e2ec7d6f9b5c3c40" target="_top" xlink:title="Adds a given token to the first set of a non&#45;terminal.">
<polygon fill="white" stroke="black" points="450,-0.5 450,-19.5 544,-19.5 544,-0.5 450,-0.5"/>
<text text-anchor="middle" x="497" y="-7.5" font-family="Helvetica,sans-Serif" font-size="10.00">add_to_first_set</text>
</a>
</g>
</g>
<!-- Node15&#45;&gt;Node16 -->
<g id="edge18" class="edge">
<title>Node15&#45;&gt;Node16</title>
<path fill="none" stroke="midnightblue" d="M369.84,-10C391.77,-10 417.43,-10 439.86,-10"/>
<polygon fill="midnightblue" stroke="midnightblue" points="439.92,-13.5 449.92,-10 439.92,-6.5 439.92,-13.5"/>
</g>
<!-- Node18 -->
<g id="node18" class="node">
<title>Node18</title>
<g id="a_node18"><a xlink:href="parser_8c.html#ad57d45985f7e4a7acb09e809a7da75d8" target="_top" xlink:title="Adds a given token to the follow set of a non&#45;terminal.">
<polygon fill="white" stroke="black" points="444.5,-133.5 444.5,-152.5 549.5,-152.5 549.5,-133.5 444.5,-133.5"/>
<text text-anchor="middle" x="497" y="-140.5" font-family="Helvetica,sans-Serif" font-size="10.00">add_to_follow_set</text>
</a>
</g>
</g>
<!-- Node17&#45;&gt;Node18 -->
<g id="edge20" class="edge">
<title>Node17&#45;&gt;Node18</title>
<path fill="none" stroke="midnightblue" d="M357.87,-190.43C367.22,-187.74 377.07,-184.57 386,-181 402.8,-174.29 405.12,-168.52 422,-162 428.32,-159.56 435.06,-157.34 441.81,-155.34"/>
<polygon fill="midnightblue" stroke="midnightblue" points="442.96,-158.66 451.64,-152.59 441.07,-151.92 442.96,-158.66"/>
</g>
<!-- Node19 -->
<g id="node19" class="node">
<title>Node19</title>
<g id="a_node19"><a xlink:href="parser_8c.html#a66e98027ec5a1a7c880689156e4b664d" target="_top" xlink:title="Computes the first set of a sequence of symbols (terminals and non&#45;terminals).">
<polygon fill="white" stroke="black" points="422,-95.5 422,-114.5 572,-114.5 572,-95.5 422,-95.5"/>
<text text-anchor="middle" x="497" y="-102.5" font-family="Helvetica,sans-Serif" font-size="10.00">compute_first_of_sequence</text>
</a>
</g>
</g>
<!-- Node17&#45;&gt;Node19 -->
<g id="edge21" class="edge">
<title>Node17&#45;&gt;Node19</title>
<path fill="none" stroke="midnightblue" d="M368.76,-190.38C374.9,-187.93 380.83,-184.86 386,-181 410.02,-163.08 397.78,-141.64 422,-124 424.68,-122.05 427.54,-120.3 430.53,-118.72"/>
<polygon fill="midnightblue" stroke="midnightblue" points="432.12,-121.84 439.78,-114.52 429.23,-115.47 432.12,-121.84"/>
</g>
<!-- Node20 -->
<g id="node20" class="node">
<title>Node20</title>
<g id="a_node20"><a xlink:href="parser_8c.html#a2fb545f0baa318bfb9bdbab0e882cd32" target="_top" xlink:title="Adds a given token type to a set if it does not already exist.">
<polygon fill="white" stroke="black" points="637,-95.5 637,-114.5 707,-114.5 707,-95.5 637,-95.5"/>
<text text-anchor="middle" x="672" y="-102.5" font-family="Helvetica,sans-Serif" font-size="10.00">add_to_set</text>
</a>
</g>
</g>
<!-- Node19&#45;&gt;Node20 -->
<g id="edge22" class="edge">
<title>Node19&#45;&gt;Node20</title>
<path fill="none" stroke="midnightblue" d="M572.12,-105C590.63,-105 609.91,-105 626.47,-105"/>
<polygon fill="midnightblue" stroke="midnightblue" points="626.93,-108.5 636.93,-105 626.93,-101.5 626.93,-108.5"/>
</g>
<!-- Node23&#45;&gt;Node19 -->
<g id="edge26" class="edge">
<title>Node23&#45;&gt;Node19</title>
<path fill="none" stroke="midnightblue" d="M377.11,-117.73C388.2,-116.54 400.01,-115.28 411.7,-114.02"/>
<polygon fill="midnightblue" stroke="midnightblue" points="412.37,-117.47 421.94,-112.93 411.62,-110.51 412.37,-117.47"/>
</g>
<!-- Node24 -->
<g id="node24" class="node">
<title>Node24</title>
<g id="a_node24"><a xlink:href="hash__map_8c.html#a17fd9c089bb62d17bb6266babc287a82" target="_top" xlink:title="Inserts a production rule into the internal hash table for the LL(1) parser.">
<polygon fill="white" stroke="black" points="461.5,-57.5 461.5,-76.5 532.5,-76.5 532.5,-57.5 461.5,-57.5"/>
<text text-anchor="middle" x="497" y="-64.5" font-family="Helvetica,sans-Serif" font-size="10.00">map_insert</text>
</a>
</g>
</g>
<!-- Node23&#45;&gt;Node24 -->
<g id="edge27" class="edge">
<title>Node23&#45;&gt;Node24</title>
<path fill="none" stroke="midnightblue" d="M357.87,-114.43C367.22,-111.74 377.07,-108.57 386,-105 402.8,-98.29 405.12,-92.52 422,-86 431.28,-82.42 441.46,-79.31 451.23,-76.69"/>
<polygon fill="midnightblue" stroke="midnightblue" points="452.38,-80.01 461.21,-74.15 450.66,-73.23 452.38,-80.01"/>
</g>
<!-- Node25&#45;&gt;Node13 -->
<g id="edge31" class="edge">
<title>Node25&#45;&gt;Node13</title>
<path fill="none" stroke="midnightblue" d="M322.16,-361.61C332.96,-388.61 367.39,-465.66 422,-504 427.69,-507.99 434.15,-511.15 440.83,-513.64"/>
<polygon fill="midnightblue" stroke="midnightblue" points="440.11,-517.09 450.7,-516.84 442.27,-510.43 440.11,-517.09"/>
</g>
<!-- Node26 -->
<g id="node26" class="node">
<title>Node26</title>
<g id="a_node26"><a xlink:href="parser_8c.html#ad327f860dea11c0c1e3338a030858e0d" target="_top" xlink:title="Creates a new parse tree node corresponding to a given non&#45;terminal.">
<polygon fill="white" stroke="black" points="423,-247.5 423,-266.5 571,-266.5 571,-247.5 423,-247.5"/>
<text text-anchor="middle" x="497" y="-254.5" font-family="Helvetica,sans-Serif" font-size="10.00">create_tree_node_nonterm</text>
</a>
</g>
</g>
<!-- Node25&#45;&gt;Node26 -->
<g id="edge29" class="edge">
<title>Node25&#45;&gt;Node26</title>
<path fill="none" stroke="midnightblue" d="M328.79,-342.3C346.46,-326.17 384.32,-293.85 422,-276 427.02,-273.62 432.38,-271.51 437.83,-269.65"/>
<polygon fill="midnightblue" stroke="midnightblue" points="439.19,-272.89 447.69,-266.56 437.1,-266.21 439.19,-272.89"/>
</g>
<!-- Node27 -->
<g id="node27" class="node">
<title>Node27</title>
<g id="a_node27"><a xlink:href="parser_8c.html#a3bdbe5934ffe1853ff744dfef15843d8" target="_top" xlink:title="Creates a new parse tree node corresponding to a given terminal.">
<polygon fill="white" stroke="black" points="432,-209.5 432,-228.5 562,-228.5 562,-209.5 432,-209.5"/>
<text text-anchor="middle" x="497" y="-216.5" font-family="Helvetica,sans-Serif" font-size="10.00">create_tree_node_term</text>
</a>
</g>
</g>
<!-- Node25&#45;&gt;Node27 -->
<g id="edge30" class="edge">
<title>Node25&#45;&gt;Node27</title>
<path fill="none" stroke="midnightblue" d="M324.41,-342.32C338.42,-320.2 375.98,-265.74 422,-238 425.64,-235.8 429.53,-233.86 433.55,-232.14"/>
<polygon fill="midnightblue" stroke="midnightblue" points="435,-235.34 443.11,-228.52 432.52,-228.79 435,-235.34"/>
</g>
<!-- Node28 -->
<g id="node28" class="node">
<title>Node28</title>
<g id="a_node28"><a xlink:href="hash__map_8c.html#aa4630dffff2a5ef840da3cfd9572b79f" target="_top" xlink:title="Retrieves the production rule associated with a given key from the internal hash table.">
<polygon fill="white" stroke="black" points="463,-171.5 463,-190.5 531,-190.5 531,-171.5 463,-171.5"/>
<text text-anchor="middle" x="497" y="-178.5" font-family="Helvetica,sans-Serif" font-size="10.00">map_fetch</text>
</a>
</g>
</g>
<!-- Node25&#45;&gt;Node28 -->
<g id="edge32" class="edge">
<title>Node25&#45;&gt;Node28</title>
<path fill="none" stroke="midnightblue" d="M322.16,-342.39C332.96,-315.39 367.39,-238.34 422,-200 431.14,-193.58 442.28,-189.33 453.11,-186.51"/>
<polygon fill="midnightblue" stroke="midnightblue" points="453.91,-189.92 462.9,-184.31 452.37,-183.09 453.91,-189.92"/>
</g>
<!-- Node29 -->
<g id="node29" class="node">
<title>Node29</title>
<g id="a_node29"><a xlink:href="stack_8c.html#a0401a54893bb4a3c36be29b4f4d2a673" target="_top" xlink:title="Deallocates all memory associated with the stack.">
<polygon fill="white" stroke="black" points="454,-475.5 454,-494.5 540,-494.5 540,-475.5 454,-475.5"/>
<text text-anchor="middle" x="497" y="-482.5" font-family="Helvetica,sans-Serif" font-size="10.00">stack_cleanup</text>
</a>
</g>
</g>
<!-- Node25&#45;&gt;Node29 -->
<g id="edge33" class="edge">
<title>Node25&#45;&gt;Node29</title>
<path fill="none" stroke="midnightblue" d="M324.41,-361.68C338.42,-383.8 375.98,-438.26 422,-466 428.79,-470.09 436.44,-473.31 444.18,-475.84"/>
<polygon fill="midnightblue" stroke="midnightblue" points="443.4,-479.25 453.98,-478.68 445.36,-472.53 443.4,-479.25"/>
</g>
<!-- Node30 -->
<g id="node30" class="node">
<title>Node30</title>
<g id="a_node30"><a xlink:href="stack_8c.html#a12f8e38a7f5d0af1137cc4fff111ef3c" target="_top" xlink:title="Initializes a stack.">
<polygon fill="white" stroke="black" points="457.5,-437.5 457.5,-456.5 536.5,-456.5 536.5,-437.5 457.5,-437.5"/>
<text text-anchor="middle" x="497" y="-444.5" font-family="Helvetica,sans-Serif" font-size="10.00">stack_create</text>
</a>
</g>
</g>
<!-- Node25&#45;&gt;Node30 -->
<g id="edge34" class="edge">
<title>Node25&#45;&gt;Node30</title>
<path fill="none" stroke="midnightblue" d="M330.22,-361.73C348.71,-376.67 386.22,-405.39 422,-423 430.72,-427.29 440.39,-431.07 449.79,-434.28"/>
<polygon fill="midnightblue" stroke="midnightblue" points="448.83,-437.65 459.42,-437.42 451,-431 448.83,-437.65"/>
</g>
<!-- Node31 -->
<g id="node31" class="node">
<title>Node31</title>
<g id="a_node31"><a xlink:href="stack_8c.html#a4bf088087d46031158e6bdd2a93695f9" target="_top" xlink:title="Determines if the stack is empty.">
<polygon fill="white" stroke="black" points="632,-361.5 632,-380.5 712,-380.5 712,-361.5 632,-361.5"/>
<text text-anchor="middle" x="672" y="-368.5" font-family="Helvetica,sans-Serif" font-size="10.00">stack_empty</text>
</a>
</g>
</g>
<!-- Node25&#45;&gt;Node31 -->
<g id="edge35" class="edge">
<title>Node25&#45;&gt;Node31</title>
<path fill="none" stroke="midnightblue" d="M338.15,-361.59C358.54,-370.97 391.66,-384.61 422,-390 487.64,-401.67 505.63,-396.31 572,-390 588.29,-388.45 605.89,-385.5 621.67,-382.37"/>
<polygon fill="midnightblue" stroke="midnightblue" points="622.65,-385.75 631.74,-380.31 621.25,-378.89 622.65,-385.75"/>
</g>
<!-- Node32 -->
<g id="node32" class="node">
<title>Node32</title>
<g id="a_node32"><a xlink:href="stack_8c.html#a6ee1c21725f3cd3803d491e0dcd1ecb8" target="_top" xlink:title="Removes and returns the topmost node from the stack.">
<polygon fill="white" stroke="black" points="464,-361.5 464,-380.5 530,-380.5 530,-361.5 464,-361.5"/>
<text text-anchor="middle" x="497" y="-368.5" font-family="Helvetica,sans-Serif" font-size="10.00">stack_pop</text>
</a>
</g>
</g>
<!-- Node25&#45;&gt;Node32 -->
<g id="edge36" class="edge">
<title>Node25&#45;&gt;Node32</title>
<path fill="none" stroke="midnightblue" d="M376.13,-358.17C401.41,-360.87 430.55,-363.99 453.77,-366.48"/>
<polygon fill="midnightblue" stroke="midnightblue" points="453.67,-369.99 463.98,-367.57 454.41,-363.03 453.67,-369.99"/>
</g>
<!-- Node33 -->
<g id="node33" class="node">
<title>Node33</title>
<g id="a_node33"><a xlink:href="stack_8c.html#ac96c2f73b6cf10cdf5189330c7b02be8" target="_top" xlink:title="Adds a node to the top of the stack.">
<polygon fill="white" stroke="black" points="461.5,-285.5 461.5,-304.5 532.5,-304.5 532.5,-285.5 461.5,-285.5"/>
<text text-anchor="middle" x="497" y="-292.5" font-family="Helvetica,sans-Serif" font-size="10.00">stack_push</text>
</a>
</g>
</g>
<!-- Node25&#45;&gt;Node33 -->
<g id="edge38" class="edge">
<title>Node25&#45;&gt;Node33</title>
<path fill="none" stroke="midnightblue" d="M342.52,-342.4C363.35,-334.26 394.4,-322.59 422,-314 431.4,-311.08 441.57,-308.25 451.27,-305.71"/>
<polygon fill="midnightblue" stroke="midnightblue" points="452.34,-309.05 461.16,-303.18 450.61,-302.27 452.34,-309.05"/>
</g>
<!-- Node34 -->
<g id="node34" class="node">
<title>Node34</title>
<g id="a_node34"><a xlink:href="stack_8c.html#af0faaa6f406636514cacd26f54be0a19" target="_top" xlink:title="Returns the topmost node from the stack without removing it.">
<polygon fill="white" stroke="black" points="465,-323.5 465,-342.5 529,-342.5 529,-323.5 465,-323.5"/>
<text text-anchor="middle" x="497" y="-330.5" font-family="Helvetica,sans-Serif" font-size="10.00">stack_top</text>
</a>
</g>
</g>
<!-- Node25&#45;&gt;Node34 -->
<g id="edge39" class="edge">
<title>Node25&#45;&gt;Node34</title>
<path fill="none" stroke="midnightblue" d="M376.13,-345.83C401.88,-343.08 431.63,-339.89 455.05,-337.38"/>
<polygon fill="midnightblue" stroke="midnightblue" points="455.43,-340.86 465,-336.32 454.68,-333.9 455.43,-340.86"/>
</g>
<!-- Node25&#45;&gt;Node35 -->
<g id="edge41" class="edge">
<title>Node25&#45;&gt;Node35</title>
<path fill="none" stroke="midnightblue" d="M320.82,-361.68C328.87,-393.02 358.58,-492.61 422,-542 427.55,-546.33 433.99,-549.67 440.69,-552.27"/>
<polygon fill="midnightblue" stroke="midnightblue" points="440.05,-555.74 450.65,-555.54 442.25,-549.09 440.05,-555.74"/>
</g>
<!-- Node32&#45;&gt;Node31 -->
<g id="edge37" class="edge">
<title>Node32&#45;&gt;Node31</title>
<path fill="none" stroke="midnightblue" d="M530.13,-371C555.83,-371 592.3,-371 621.69,-371"/>
<polygon fill="midnightblue" stroke="midnightblue" points="621.76,-374.5 631.76,-371 621.76,-367.5 621.76,-374.5"/>
</g>
<!-- Node34&#45;&gt;Node31 -->
<g id="edge40" class="edge">
<title>Node34&#45;&gt;Node31</title>
<path fill="none" stroke="midnightblue" d="M529.33,-339.88C555.14,-345.55 592.19,-353.69 621.93,-360.22"/>
<polygon fill="midnightblue" stroke="midnightblue" points="621.19,-363.64 631.71,-362.37 622.69,-356.8 621.19,-363.64"/>
</g>
<!-- Node38&#45;&gt;Node35 -->
<g id="edge45" class="edge">
<title>Node38&#45;&gt;Node35</title>
<path fill="none" stroke="midnightblue" d="M213.07,-561C279.12,-561 378.82,-561 440.53,-561"/>
<polygon fill="midnightblue" stroke="midnightblue" points="440.85,-564.5 450.85,-561 440.85,-557.5 440.85,-564.5"/>
</g>
</g>
</svg>
