<?xml version="1.0" encoding="UTF-8" standalone="no"?>
<!DOCTYPE svg PUBLIC "-//W3C//DTD SVG 1.1//EN"
 "http://www.w3.org/Graphics/SVG/1.1/DTD/svg11.dtd">
<!-- Generated by graphviz version 2.43.0 (0)
 -->
<!-- Title: buffer_init Pages: 1 -->
<svg width="704pt" height="105pt"
 viewBox="0.00 0.00 704.00 104.72" xmlns="http://www.w3.org/2000/svg" xmlns:xlink="http://www.w3.org/1999/xlink">
<g id="graph0" class="graph" transform="scale(1 1) rotate(0) translate(4 100.72)">
<title>buffer_init</title>
<polygon fill="white" stroke="transparent" points="-4,4 -4,-100.72 700,-100.72 700,4 -4,4"/>
<!-- Node1 -->
<g id="node1" class="node">
<title>Node1</title>
<g id="a_node1"><a xlink:title="Initializes an internal twin buffer and loads the active buffer with the first chunk of the file.">
<polygon fill="#bfbfbf" stroke="black" points="630,-11.22 630,-30.22 696,-30.22 696,-11.22 630,-11.22"/>
<text text-anchor="middle" x="663" y="-18.22" font-family="Helvetica,sans-Serif" font-size="10.00">buffer_init</text>
</a>
</g>
</g>
<!-- Node2 -->
<g id="node2" class="node">
<title>Node2</title>
<g id="a_node2"><a xlink:href="lexer_8c.html#a1ede1e9739c264c7e3af07630e5a68f3" target="_top" xlink:title=" ">
<polygon fill="white" stroke="black" points="466,-49.22 466,-68.22 594,-68.22 594,-49.22 466,-49.22"/>
<text text-anchor="middle" x="530" y="-56.22" font-family="Helvetica,sans-Serif" font-size="10.00">get_next_token_helper</text>
</a>
</g>
</g>
<!-- Node1&#45;&gt;Node2 -->
<g id="edge1" class="edge">
<title>Node1&#45;&gt;Node2</title>
<path fill="none" stroke="midnightblue" d="M620.21,-32.85C602.06,-38.11 581.12,-44.19 564.08,-49.13"/>
<polygon fill="midnightblue" stroke="midnightblue" points="621.32,-36.17 629.95,-30.02 619.37,-29.44 621.32,-36.17"/>
</g>
<!-- Node4 -->
<g id="node4" class="node">
<title>Node4</title>
<g id="a_node4"><a xlink:href="driver_8c.html#a0ddf1224851353fc92bfbff6f499fa97" target="_top" xlink:title=" ">
<polygon fill="white" stroke="black" points="0,-49.22 0,-68.22 41,-68.22 41,-49.22 0,-49.22"/>
<text text-anchor="middle" x="20.5" y="-56.22" font-family="Helvetica,sans-Serif" font-size="10.00">main</text>
</a>
</g>
</g>
<!-- Node1&#45;&gt;Node4 -->
<g id="edge10" class="edge">
<title>Node1&#45;&gt;Node4</title>
<path fill="none" stroke="midnightblue" d="M619.69,-16.01C565.42,-10.39 468.32,-1.72 385,-1.72 385,-1.72 385,-1.72 242.5,-1.72 168.46,-1.72 146.36,5.17 77,-20.72 59.72,-27.18 42.63,-40.14 32.07,-49.12"/>
<polygon fill="midnightblue" stroke="midnightblue" points="619.33,-19.49 629.64,-17.06 620.06,-12.53 619.33,-19.49"/>
</g>
<!-- Node3 -->
<g id="node3" class="node">
<title>Node3</title>
<g id="a_node3"><a xlink:href="lexer_8h.html#a78c9ef2940e04bc9cd18a764bdb9e0a5" target="_top" xlink:title="Initializes an internal twin buffer and loads the active buffer with the first chunk of the file.">
<polygon fill="white" stroke="black" points="351,-77.22 351,-96.22 417,-96.22 417,-77.22 351,-77.22"/>
<text text-anchor="middle" x="384" y="-84.22" font-family="Helvetica,sans-Serif" font-size="10.00">buffer_init</text>
</a>
</g>
</g>
<!-- Node2&#45;&gt;Node3 -->
<g id="edge2" class="edge">
<title>Node2&#45;&gt;Node3</title>
<path fill="none" stroke="midnightblue" d="M455.6,-66.25C438.18,-69.66 420.86,-73.59 407.74,-77.22"/>
<polygon fill="midnightblue" stroke="midnightblue" points="456.67,-69.61 465.84,-64.3 455.36,-62.73 456.67,-69.61"/>
</g>
<!-- Node5 -->
<g id="node5" class="node">
<title>Node5</title>
<g id="a_node5"><a xlink:href="lexer_8h.html#a68b169dd0377b22e0729c7e7a9988262" target="_top" xlink:title="A wrapper function that fetches the next token from the file.">
<polygon fill="white" stroke="black" points="338,-39.22 338,-58.22 430,-58.22 430,-39.22 338,-39.22"/>
<text text-anchor="middle" x="384" y="-46.22" font-family="Helvetica,sans-Serif" font-size="10.00">get_next_token</text>
</a>
</g>
</g>
<!-- Node2&#45;&gt;Node5 -->
<g id="edge5" class="edge">
<title>Node2&#45;&gt;Node5</title>
<path fill="none" stroke="midnightblue" d="M455.72,-53.64C447.08,-53.04 438.46,-52.44 430.37,-51.88"/>
<polygon fill="midnightblue" stroke="midnightblue" points="455.62,-57.14 465.84,-54.34 456.11,-50.15 455.62,-57.14"/>
</g>
<!-- Node3&#45;&gt;Node2 -->
<g id="edge3" class="edge">
<title>Node3&#45;&gt;Node2</title>
<path fill="none" stroke="midnightblue" d="M427,-84.76C452.84,-80.74 484.97,-74.12 506.18,-68.25"/>
<polygon fill="midnightblue" stroke="midnightblue" points="426.47,-81.3 417.08,-86.21 427.48,-88.22 426.47,-81.3"/>
</g>
<!-- Node3&#45;&gt;Node4 -->
<g id="edge4" class="edge">
<title>Node3&#45;&gt;Node4</title>
<path fill="none" stroke="midnightblue" d="M340.46,-88.27C281.06,-89.71 170.09,-89.74 77,-74.72 64.82,-72.76 51.54,-68.99 41.02,-65.6"/>
<polygon fill="midnightblue" stroke="midnightblue" points="340.68,-91.77 350.59,-88 340.5,-84.77 340.68,-91.77"/>
</g>
<!-- Node5&#45;&gt;Node4 -->
<g id="edge9" class="edge">
<title>Node5&#45;&gt;Node4</title>
<path fill="none" stroke="midnightblue" d="M327.72,-56.47C319.13,-57.41 310.34,-58.21 302,-58.72 204.3,-64.73 87.1,-61.31 41.25,-59.56"/>
<polygon fill="midnightblue" stroke="midnightblue" points="328.15,-59.94 337.68,-55.32 327.34,-52.99 328.15,-59.94"/>
</g>
<!-- Node6 -->
<g id="node6" class="node">
<title>Node6</title>
<g id="a_node6"><a xlink:href="parser_8c.html#a385276c7e31aeff5ad9c22370300ced6" target="_top" xlink:title="Generates a parse tree for the given source code.">
<polygon fill="white" stroke="black" points="185,-30.22 185,-49.22 302,-49.22 302,-30.22 185,-30.22"/>
<text text-anchor="middle" x="243.5" y="-37.22" font-family="Helvetica,sans-Serif" font-size="10.00">generate_parse_tree</text>
</a>
</g>
</g>
<!-- Node5&#45;&gt;Node6 -->
<g id="edge6" class="edge">
<title>Node5&#45;&gt;Node6</title>
<path fill="none" stroke="midnightblue" d="M327.59,-45.12C319.2,-44.58 310.52,-44.01 302.08,-43.47"/>
<polygon fill="midnightblue" stroke="midnightblue" points="327.44,-48.62 337.65,-45.78 327.9,-41.64 327.44,-48.62"/>
</g>
<!-- Node7 -->
<g id="node7" class="node">
<title>Node7</title>
<g id="a_node7"><a xlink:href="parser_8h.html#af8e858bd867bc61808a62e29963b3497" target="_top" xlink:title="Parses the given code based on the specified grammar.">
<polygon fill="white" stroke="black" points="77,-30.22 77,-49.22 149,-49.22 149,-30.22 77,-30.22"/>
<text text-anchor="middle" x="113" y="-37.22" font-family="Helvetica,sans-Serif" font-size="10.00">parse_code</text>
</a>
</g>
</g>
<!-- Node6&#45;&gt;Node7 -->
<g id="edge7" class="edge">
<title>Node6&#45;&gt;Node7</title>
<path fill="none" stroke="midnightblue" d="M174.38,-39.72C165.64,-39.72 157,-39.72 149.1,-39.72"/>
<polygon fill="midnightblue" stroke="midnightblue" points="174.64,-43.22 184.64,-39.72 174.64,-36.22 174.64,-43.22"/>
</g>
<!-- Node7&#45;&gt;Node4 -->
<g id="edge8" class="edge">
<title>Node7&#45;&gt;Node4</title>
<path fill="none" stroke="midnightblue" d="M66.96,-49.18C57.86,-51.09 48.76,-53 41.11,-54.61"/>
<polygon fill="midnightblue" stroke="midnightblue" points="67.68,-52.6 76.75,-47.12 66.25,-45.75 67.68,-52.6"/>
</g>
</g>
</svg>
