<?xml version="1.0" encoding="UTF-8" standalone="no"?>
<!DOCTYPE svg PUBLIC "-//W3C//DTD SVG 1.1//EN"
 "http://www.w3.org/Graphics/SVG/1.1/DTD/svg11.dtd">
<!-- Generated by graphviz version 2.43.0 (0)
 -->
<!-- Title: token_to_string Pages: 1 -->
<svg width="532pt" height="201pt"
 viewBox="0.00 0.00 532.00 201.09" xmlns="http://www.w3.org/2000/svg" xmlns:xlink="http://www.w3.org/1999/xlink">
<g id="graph0" class="graph" transform="scale(1 1) rotate(0) translate(4 197.09)">
<title>token_to_string</title>
<polygon fill="white" stroke="transparent" points="-4,4 -4,-197.09 528,-197.09 528,4 -4,4"/>
<!-- Node1 -->
<g id="node1" class="node">
<title>Node1</title>
<g id="a_node1"><a xlink:title="Retrieves a string representation of a token type (for printing purposes).">
<polygon fill="#bfbfbf" stroke="black" points="432,-78.59 432,-97.59 524,-97.59 524,-78.59 432,-78.59"/>
<text text-anchor="middle" x="478" y="-85.59" font-family="Helvetica,sans-Serif" font-size="10.00">token_to_string</text>
</a>
</g>
</g>
<!-- Node2 -->
<g id="node2" class="node">
<title>Node2</title>
<g id="a_node2"><a xlink:href="parser_8c.html#a385276c7e31aeff5ad9c22370300ced6" target="_top" xlink:title="Generates a parse tree for the given source code.">
<polygon fill="white" stroke="black" points="264,-173.59 264,-192.59 381,-192.59 381,-173.59 264,-173.59"/>
<text text-anchor="middle" x="322.5" y="-180.59" font-family="Helvetica,sans-Serif" font-size="10.00">generate_parse_tree</text>
</a>
</g>
</g>
<!-- Node1&#45;&gt;Node2 -->
<g id="edge1" class="edge">
<title>Node1&#45;&gt;Node2</title>
<path fill="none" stroke="midnightblue" d="M461.37,-105.29C446.08,-121.21 421.43,-144.54 396,-159.09 385.53,-165.09 373.34,-169.85 361.98,-173.5"/>
<polygon fill="midnightblue" stroke="midnightblue" points="464.18,-107.41 468.47,-97.73 459.07,-102.62 464.18,-107.41"/>
</g>
<!-- Node4 -->
<g id="node4" class="node">
<title>Node4</title>
<g id="a_node4"><a xlink:href="driver_8c.html#a0ddf1224851353fc92bfbff6f499fa97" target="_top" xlink:title=" ">
<polygon fill="white" stroke="black" points="0,-135.59 0,-154.59 41,-154.59 41,-135.59 0,-135.59"/>
<text text-anchor="middle" x="20.5" y="-142.59" font-family="Helvetica,sans-Serif" font-size="10.00">main</text>
</a>
</g>
</g>
<!-- Node1&#45;&gt;Node4 -->
<g id="edge4" class="edge">
<title>Node1&#45;&gt;Node4</title>
<path fill="none" stroke="midnightblue" d="M452.28,-102.77C436.7,-111.23 415.84,-121.14 396,-126.09 263.99,-159.05 97.92,-150.86 41.39,-146.74"/>
<polygon fill="midnightblue" stroke="midnightblue" points="454.23,-105.69 461.25,-97.75 450.81,-99.58 454.23,-105.69"/>
</g>
<!-- Node5 -->
<g id="node5" class="node">
<title>Node5</title>
<g id="a_node5"><a xlink:href="parser_8c.html#a9f5ef3611435d73a8305d27de3927585" target="_top" xlink:title="Prints the first and/or follow sets of all non&#45;terminals.">
<polygon fill="white" stroke="black" points="249,-97.59 249,-116.59 396,-116.59 396,-97.59 249,-97.59"/>
<text text-anchor="middle" x="322.5" y="-104.59" font-family="Helvetica,sans-Serif" font-size="10.00">print_first_and_follow_sets</text>
</a>
</g>
</g>
<!-- Node1&#45;&gt;Node5 -->
<g id="edge5" class="edge">
<title>Node1&#45;&gt;Node5</title>
<path fill="none" stroke="midnightblue" d="M421.79,-94.93C413.43,-95.96 404.7,-97.04 396.04,-98.11"/>
<polygon fill="midnightblue" stroke="midnightblue" points="422.28,-98.39 431.78,-93.69 421.42,-91.45 422.28,-98.39"/>
</g>
<!-- Node6 -->
<g id="node6" class="node">
<title>Node6</title>
<g id="a_node6"><a xlink:href="parser_8c.html#a08659a3e07cbbaa0a0b7234f35654876" target="_top" xlink:title="Prints the parsing table.">
<polygon fill="white" stroke="black" points="273.5,-59.59 273.5,-78.59 371.5,-78.59 371.5,-59.59 273.5,-59.59"/>
<text text-anchor="middle" x="322.5" y="-66.59" font-family="Helvetica,sans-Serif" font-size="10.00">print_parse_map</text>
</a>
</g>
</g>
<!-- Node1&#45;&gt;Node6 -->
<g id="edge6" class="edge">
<title>Node1&#45;&gt;Node6</title>
<path fill="none" stroke="midnightblue" d="M421.77,-81.26C405.36,-79.23 387.53,-77.02 371.61,-75.05"/>
<polygon fill="midnightblue" stroke="midnightblue" points="421.42,-84.74 431.78,-82.5 422.28,-77.79 421.42,-84.74"/>
</g>
<!-- Node7 -->
<g id="node7" class="node">
<title>Node7</title>
<g id="a_node7"><a xlink:href="parser_8c.html#aceedd6d6c4ad5ddbc27d6d2b6aa8100f" target="_top" xlink:title="Prints the parse tree using pre&#45;order traversal.">
<polygon fill="white" stroke="black" points="274.5,-21.59 274.5,-40.59 370.5,-40.59 370.5,-21.59 274.5,-21.59"/>
<text text-anchor="middle" x="322.5" y="-28.59" font-family="Helvetica,sans-Serif" font-size="10.00">print_parse_tree</text>
</a>
</g>
</g>
<!-- Node1&#45;&gt;Node7 -->
<g id="edge7" class="edge">
<title>Node1&#45;&gt;Node7</title>
<path fill="none" stroke="midnightblue" d="M450.05,-73.93C434.53,-66.17 414.5,-56.8 396,-50.09 386.21,-46.55 375.46,-43.36 365.31,-40.66"/>
<polygon fill="midnightblue" stroke="midnightblue" points="448.57,-77.11 459.07,-78.52 451.74,-70.87 448.57,-77.11"/>
</g>
<!-- Node8 -->
<g id="node8" class="node">
<title>Node8</title>
<g id="a_node8"><a xlink:href="parser_8c.html#a8c9a76dff4106d2e5eb33c33aa0c85f5" target="_top" xlink:title="Prints the parse tree using in&#45;order traversal in the specified file.">
<polygon fill="white" stroke="black" points="77,-40.59 77,-59.59 213,-59.59 213,-40.59 77,-40.59"/>
<text text-anchor="middle" x="145" y="-47.59" font-family="Helvetica,sans-Serif" font-size="10.00">print_parse_tree_inorder</text>
</a>
</g>
</g>
<!-- Node1&#45;&gt;Node8 -->
<g id="edge8" class="edge">
<title>Node1&#45;&gt;Node8</title>
<path fill="none" stroke="midnightblue" d="M464.57,-70.26C450.42,-51.7 425.43,-23.74 396,-12.09 314.76,20.05 208.76,-20.74 165.58,-40.5"/>
<polygon fill="midnightblue" stroke="midnightblue" points="461.87,-72.51 470.61,-78.5 467.52,-68.37 461.87,-72.51"/>
</g>
<!-- Node3 -->
<g id="node3" class="node">
<title>Node3</title>
<g id="a_node3"><a xlink:href="parser_8c.html#a6c4b340ccd44133e7a3dabdd3015afac" target="_top" xlink:title="Parses the given code based on the specified grammar.">
<polygon fill="white" stroke="black" points="109,-173.59 109,-192.59 181,-192.59 181,-173.59 109,-173.59"/>
<text text-anchor="middle" x="145" y="-180.59" font-family="Helvetica,sans-Serif" font-size="10.00">parse_code</text>
</a>
</g>
</g>
<!-- Node2&#45;&gt;Node3 -->
<g id="edge2" class="edge">
<title>Node2&#45;&gt;Node3</title>
<path fill="none" stroke="midnightblue" d="M253.48,-183.09C228.75,-183.09 201.83,-183.09 181.11,-183.09"/>
<polygon fill="midnightblue" stroke="midnightblue" points="253.55,-186.59 263.55,-183.09 253.55,-179.59 253.55,-186.59"/>
</g>
<!-- Node3&#45;&gt;Node4 -->
<g id="edge3" class="edge">
<title>Node3&#45;&gt;Node4</title>
<path fill="none" stroke="midnightblue" d="M103.48,-170.52C82.58,-164.04 58.02,-156.42 41.28,-151.23"/>
<polygon fill="midnightblue" stroke="midnightblue" points="102.5,-173.89 113.09,-173.51 104.57,-167.2 102.5,-173.89"/>
</g>
<!-- Node8&#45;&gt;Node4 -->
<g id="edge9" class="edge">
<title>Node8&#45;&gt;Node4</title>
<path fill="none" stroke="midnightblue" d="M123.39,-66.08C97.79,-85.93 54.92,-119.17 33.9,-135.48"/>
<polygon fill="midnightblue" stroke="midnightblue" points="125.59,-68.8 131.35,-59.9 121.3,-63.27 125.59,-68.8"/>
</g>
</g>
</svg>
