<?xml version="1.0" encoding="UTF-8" standalone="no"?>
<!DOCTYPE svg PUBLIC "-//W3C//DTD SVG 1.1//EN"
 "http://www.w3.org/Graphics/SVG/1.1/DTD/svg11.dtd">
<!-- Generated by graphviz version 2.43.0 (0)
 -->
<!-- Title: retract_and_update Pages: 1 -->
<svg width="749pt" height="104pt"
 viewBox="0.00 0.00 749.00 104.00" xmlns="http://www.w3.org/2000/svg" xmlns:xlink="http://www.w3.org/1999/xlink">
<g id="graph0" class="graph" transform="scale(1 1) rotate(0) translate(4 100)">
<title>retract_and_update</title>
<polygon fill="white" stroke="transparent" points="-4,4 -4,-100 745,-100 745,4 -4,4"/>
<!-- Node1 -->
<g id="node1" class="node">
<title>Node1</title>
<g id="a_node1"><a xlink:title=" ">
<polygon fill="#bfbfbf" stroke="black" points="630,-76.5 630,-95.5 741,-95.5 741,-76.5 630,-76.5"/>
<text text-anchor="middle" x="685.5" y="-83.5" font-family="Helvetica,sans-Serif" font-size="10.00">retract_and_update</text>
</a>
</g>
</g>
<!-- Node2 -->
<g id="node2" class="node">
<title>Node2</title>
<g id="a_node2"><a xlink:href="lexer_8c.html#a1ede1e9739c264c7e3af07630e5a68f3" target="_top" xlink:title=" ">
<polygon fill="white" stroke="black" points="466,-76.5 466,-95.5 594,-95.5 594,-76.5 466,-76.5"/>
<text text-anchor="middle" x="530" y="-83.5" font-family="Helvetica,sans-Serif" font-size="10.00">get_next_token_helper</text>
</a>
</g>
</g>
<!-- Node1&#45;&gt;Node2 -->
<g id="edge1" class="edge">
<title>Node1&#45;&gt;Node2</title>
<path fill="none" stroke="midnightblue" d="M619.7,-86C611.2,-86 602.49,-86 594.02,-86"/>
<polygon fill="midnightblue" stroke="midnightblue" points="619.95,-89.5 629.95,-86 619.95,-82.5 619.95,-89.5"/>
</g>
<!-- Node3 -->
<g id="node3" class="node">
<title>Node3</title>
<g id="a_node3"><a xlink:href="lexer_8c.html#a78c9ef2940e04bc9cd18a764bdb9e0a5" target="_top" xlink:title="Initializes an internal twin buffer and loads the active buffer with the first chunk of the file.">
<polygon fill="white" stroke="black" points="351,-76.5 351,-95.5 417,-95.5 417,-76.5 351,-76.5"/>
<text text-anchor="middle" x="384" y="-83.5" font-family="Helvetica,sans-Serif" font-size="10.00">buffer_init</text>
</a>
</g>
</g>
<!-- Node2&#45;&gt;Node3 -->
<g id="edge2" class="edge">
<title>Node2&#45;&gt;Node3</title>
<path fill="none" stroke="midnightblue" d="M455.57,-79.25C442.11,-79.27 428.72,-79.61 417.28,-80.26"/>
<polygon fill="midnightblue" stroke="midnightblue" points="455.82,-82.75 465.84,-79.3 455.85,-75.75 455.82,-82.75"/>
</g>
<!-- Node5 -->
<g id="node5" class="node">
<title>Node5</title>
<g id="a_node5"><a xlink:href="lexer_8c.html#a68b169dd0377b22e0729c7e7a9988262" target="_top" xlink:title="A wrapper function that fetches the next token from the file.">
<polygon fill="white" stroke="black" points="338,-38.5 338,-57.5 430,-57.5 430,-38.5 338,-38.5"/>
<text text-anchor="middle" x="384" y="-45.5" font-family="Helvetica,sans-Serif" font-size="10.00">get_next_token</text>
</a>
</g>
</g>
<!-- Node2&#45;&gt;Node5 -->
<g id="edge5" class="edge">
<title>Node2&#45;&gt;Node5</title>
<path fill="none" stroke="midnightblue" d="M482.83,-73.82C462.84,-68.54 439.78,-62.46 421.08,-57.52"/>
<polygon fill="midnightblue" stroke="midnightblue" points="482.1,-77.24 492.66,-76.41 483.89,-70.48 482.1,-77.24"/>
</g>
<!-- Node3&#45;&gt;Node2 -->
<g id="edge3" class="edge">
<title>Node3&#45;&gt;Node2</title>
<path fill="none" stroke="midnightblue" d="M427.47,-92.22C439.5,-92.68 452.86,-92.84 465.84,-92.7"/>
<polygon fill="midnightblue" stroke="midnightblue" points="427.43,-88.71 417.28,-91.74 427.1,-95.7 427.43,-88.71"/>
</g>
<!-- Node4 -->
<g id="node4" class="node">
<title>Node4</title>
<g id="a_node4"><a xlink:href="driver_8c.html#a0ddf1224851353fc92bfbff6f499fa97" target="_top" xlink:title=" ">
<polygon fill="white" stroke="black" points="0,-38.5 0,-57.5 41,-57.5 41,-38.5 0,-38.5"/>
<text text-anchor="middle" x="20.5" y="-45.5" font-family="Helvetica,sans-Serif" font-size="10.00">main</text>
</a>
</g>
</g>
<!-- Node3&#45;&gt;Node4 -->
<g id="edge4" class="edge">
<title>Node3&#45;&gt;Node4</title>
<path fill="none" stroke="midnightblue" d="M340.51,-84.93C281.17,-82.92 170.26,-77.31 77,-62 64.94,-60.02 51.66,-56.71 41.11,-53.81"/>
<polygon fill="midnightblue" stroke="midnightblue" points="340.52,-88.43 350.62,-85.25 340.74,-81.44 340.52,-88.43"/>
</g>
<!-- Node5&#45;&gt;Node4 -->
<g id="edge9" class="edge">
<title>Node5&#45;&gt;Node4</title>
<path fill="none" stroke="midnightblue" d="M327.79,-48C245.58,-48 94.91,-48 41.18,-48"/>
<polygon fill="midnightblue" stroke="midnightblue" points="327.95,-51.5 337.95,-48 327.95,-44.5 327.95,-51.5"/>
</g>
<!-- Node6 -->
<g id="node6" class="node">
<title>Node6</title>
<g id="a_node6"><a xlink:href="parser_8c.html#a385276c7e31aeff5ad9c22370300ced6" target="_top" xlink:title="Generates a parse tree for the given source code.">
<polygon fill="white" stroke="black" points="185,-0.5 185,-19.5 302,-19.5 302,-0.5 185,-0.5"/>
<text text-anchor="middle" x="243.5" y="-7.5" font-family="Helvetica,sans-Serif" font-size="10.00">generate_parse_tree</text>
</a>
</g>
</g>
<!-- Node5&#45;&gt;Node6 -->
<g id="edge6" class="edge">
<title>Node5&#45;&gt;Node6</title>
<path fill="none" stroke="midnightblue" d="M338.37,-35.75C319.28,-30.52 297.32,-24.49 279.44,-19.59"/>
<polygon fill="midnightblue" stroke="midnightblue" points="337.48,-39.14 348.05,-38.41 339.33,-32.39 337.48,-39.14"/>
</g>
<!-- Node7 -->
<g id="node7" class="node">
<title>Node7</title>
<g id="a_node7"><a xlink:href="parser_8c.html#a6c4b340ccd44133e7a3dabdd3015afac" target="_top" xlink:title="Parses the given code based on the specified grammar.">
<polygon fill="white" stroke="black" points="77,-0.5 77,-19.5 149,-19.5 149,-0.5 77,-0.5"/>
<text text-anchor="middle" x="113" y="-7.5" font-family="Helvetica,sans-Serif" font-size="10.00">parse_code</text>
</a>
</g>
</g>
<!-- Node6&#45;&gt;Node7 -->
<g id="edge7" class="edge">
<title>Node6&#45;&gt;Node7</title>
<path fill="none" stroke="midnightblue" d="M174.38,-10C165.64,-10 157,-10 149.1,-10"/>
<polygon fill="midnightblue" stroke="midnightblue" points="174.64,-13.5 184.64,-10 174.64,-6.5 174.64,-13.5"/>
</g>
<!-- Node7&#45;&gt;Node4 -->
<g id="edge8" class="edge">
<title>Node7&#45;&gt;Node4</title>
<path fill="none" stroke="midnightblue" d="M79.71,-23.56C66.87,-28.95 52.5,-34.98 41.26,-39.7"/>
<polygon fill="midnightblue" stroke="midnightblue" points="81.3,-26.69 89.16,-19.59 78.59,-20.23 81.3,-26.69"/>
</g>
</g>
</svg>
