<?xml version="1.0" encoding="UTF-8" standalone="no"?>
<!DOCTYPE svg PUBLIC "-//W3C//DTD SVG 1.1//EN"
 "http://www.w3.org/Graphics/SVG/1.1/DTD/svg11.dtd">
<!-- Generated by graphviz version 2.43.0 (0)
 -->
<!-- Title: get_next_token Pages: 1 -->
<svg width="438pt" height="47pt"
 viewBox="0.00 0.00 438.00 47.00" xmlns="http://www.w3.org/2000/svg" xmlns:xlink="http://www.w3.org/1999/xlink">
<g id="graph0" class="graph" transform="scale(1 1) rotate(0) translate(4 43)">
<title>get_next_token</title>
<polygon fill="white" stroke="transparent" points="-4,4 -4,-43 434,-43 434,4 -4,4"/>
<!-- Node1 -->
<g id="node1" class="node">
<title>Node1</title>
<g id="a_node1"><a xlink:title="A wrapper function that fetches the next token from the file.">
<polygon fill="#bfbfbf" stroke="black" points="338,-0.5 338,-19.5 430,-19.5 430,-0.5 338,-0.5"/>
<text text-anchor="middle" x="384" y="-7.5" font-family="Helvetica,sans-Serif" font-size="10.00">get_next_token</text>
</a>
</g>
</g>
<!-- Node2 -->
<g id="node2" class="node">
<title>Node2</title>
<g id="a_node2"><a xlink:href="parser_8c.html#a385276c7e31aeff5ad9c22370300ced6" target="_top" xlink:title="Generates a parse tree for the given source code.">
<polygon fill="white" stroke="black" points="185,-19.5 185,-38.5 302,-38.5 302,-19.5 185,-19.5"/>
<text text-anchor="middle" x="243.5" y="-26.5" font-family="Helvetica,sans-Serif" font-size="10.00">generate_parse_tree</text>
</a>
</g>
</g>
<!-- Node1&#45;&gt;Node2 -->
<g id="edge1" class="edge">
<title>Node1&#45;&gt;Node2</title>
<path fill="none" stroke="midnightblue" d="M327.59,-17.6C319.2,-18.75 310.52,-19.94 302.08,-21.1"/>
<polygon fill="midnightblue" stroke="midnightblue" points="328.22,-21.05 337.65,-16.22 327.27,-14.11 328.22,-21.05"/>
</g>
<!-- Node4 -->
<g id="node4" class="node">
<title>Node4</title>
<g id="a_node4"><a xlink:href="driver_8c.html#a0ddf1224851353fc92bfbff6f499fa97" target="_top" xlink:title=" ">
<polygon fill="white" stroke="black" points="0,-0.5 0,-19.5 41,-19.5 41,-0.5 0,-0.5"/>
<text text-anchor="middle" x="20.5" y="-7.5" font-family="Helvetica,sans-Serif" font-size="10.00">main</text>
</a>
</g>
</g>
<!-- Node1&#45;&gt;Node4 -->
<g id="edge4" class="edge">
<title>Node1&#45;&gt;Node4</title>
<path fill="none" stroke="midnightblue" d="M327.79,-10C245.58,-10 94.91,-10 41.18,-10"/>
<polygon fill="midnightblue" stroke="midnightblue" points="327.95,-13.5 337.95,-10 327.95,-6.5 327.95,-13.5"/>
</g>
<!-- Node3 -->
<g id="node3" class="node">
<title>Node3</title>
<g id="a_node3"><a xlink:href="parser_8h.html#af8e858bd867bc61808a62e29963b3497" target="_top" xlink:title="Parses the given code based on the specified grammar.">
<polygon fill="white" stroke="black" points="77,-19.5 77,-38.5 149,-38.5 149,-19.5 77,-19.5"/>
<text text-anchor="middle" x="113" y="-26.5" font-family="Helvetica,sans-Serif" font-size="10.00">parse_code</text>
</a>
</g>
</g>
<!-- Node2&#45;&gt;Node3 -->
<g id="edge2" class="edge">
<title>Node2&#45;&gt;Node3</title>
<path fill="none" stroke="midnightblue" d="M174.38,-29C165.64,-29 157,-29 149.1,-29"/>
<polygon fill="midnightblue" stroke="midnightblue" points="174.64,-32.5 184.64,-29 174.64,-25.5 174.64,-32.5"/>
</g>
<!-- Node3&#45;&gt;Node4 -->
<g id="edge3" class="edge">
<title>Node3&#45;&gt;Node4</title>
<path fill="none" stroke="midnightblue" d="M66.96,-19.54C57.86,-17.63 48.76,-15.72 41.11,-14.12"/>
<polygon fill="midnightblue" stroke="midnightblue" points="66.25,-22.97 76.75,-21.6 67.68,-16.12 66.25,-22.97"/>
</g>
</g>
</svg>
