<?xml version="1.0" encoding="UTF-8" standalone="no"?>
<!DOCTYPE svg PUBLIC "-//W3C//DTD SVG 1.1//EN"
 "http://www.w3.org/Graphics/SVG/1.1/DTD/svg11.dtd">
<!-- Generated by graphviz version 2.43.0 (0)
 -->
<!-- Title: src/main/lexer.c Pages: 1 -->
<svg width="403pt" height="252pt"
 viewBox="0.00 0.00 403.05 252.00" xmlns="http://www.w3.org/2000/svg" xmlns:xlink="http://www.w3.org/1999/xlink">
<g id="graph0" class="graph" transform="scale(1 1) rotate(0) translate(4 248)">
<title>src/main/lexer.c</title>
<polygon fill="white" stroke="transparent" points="-4,4 -4,-248 399.05,-248 399.05,4 -4,4"/>
<!-- Node1 -->
<g id="node1" class="node">
<title>Node1</title>
<g id="a_node1"><a xlink:title=" ">
<polygon fill="#bfbfbf" stroke="black" points="92.8,-224.5 92.8,-243.5 185.8,-243.5 185.8,-224.5 92.8,-224.5"/>
<text text-anchor="middle" x="139.3" y="-231.5" font-family="Helvetica,sans-Serif" font-size="10.00">src/main/lexer.c</text>
</a>
</g>
</g>
<!-- Node2 -->
<g id="node2" class="node">
<title>Node2</title>
<g id="a_node2"><a xlink:title=" ">
<polygon fill="white" stroke="#bfbfbf" points="12.3,-56.5 12.3,-75.5 68.3,-75.5 68.3,-56.5 12.3,-56.5"/>
<text text-anchor="middle" x="40.3" y="-63.5" font-family="Helvetica,sans-Serif" font-size="10.00">assert.h</text>
</a>
</g>
</g>
<!-- Node1&#45;&gt;Node2 -->
<g id="edge1" class="edge">
<title>Node1&#45;&gt;Node2</title>
<path fill="none" stroke="midnightblue" d="M133.98,-224.08C118.19,-197.61 71.43,-119.21 50.56,-84.21"/>
<polygon fill="midnightblue" stroke="midnightblue" points="53.54,-82.36 45.41,-75.57 47.52,-85.95 53.54,-82.36"/>
</g>
<!-- Node3 -->
<g id="node3" class="node">
<title>Node3</title>
<g id="a_node3"><a xlink:href="lexer_8h.html" target="_top" xlink:title=" ">
<polygon fill="white" stroke="black" points="182.8,-168.5 182.8,-187.5 287.8,-187.5 287.8,-168.5 182.8,-168.5"/>
<text text-anchor="middle" x="235.3" y="-175.5" font-family="Helvetica,sans-Serif" font-size="10.00">../../include/lexer.h</text>
</a>
</g>
</g>
<!-- Node1&#45;&gt;Node3 -->
<g id="edge2" class="edge">
<title>Node1&#45;&gt;Node3</title>
<path fill="none" stroke="midnightblue" d="M154.72,-224.32C169.84,-215.82 193.11,-202.73 210.77,-192.8"/>
<polygon fill="midnightblue" stroke="midnightblue" points="212.91,-195.61 219.91,-187.65 209.48,-189.51 212.91,-195.61"/>
</g>
<!-- Node10 -->
<g id="node10" class="node">
<title>Node10</title>
<g id="a_node10"><a xlink:href="symbol__table_8h.html" target="_top" xlink:title=" ">
<polygon fill="white" stroke="black" points="93.3,-112.5 93.3,-131.5 185.3,-131.5 185.3,-112.5 93.3,-112.5"/>
<text text-anchor="middle" x="139.3" y="-119.5" font-family="Helvetica,sans-Serif" font-size="10.00">symbol_table.h</text>
</a>
</g>
</g>
<!-- Node1&#45;&gt;Node10 -->
<g id="edge19" class="edge">
<title>Node1&#45;&gt;Node10</title>
<path fill="none" stroke="midnightblue" d="M139.3,-224.37C139.3,-206.62 139.3,-165.67 139.3,-141.6"/>
<polygon fill="midnightblue" stroke="midnightblue" points="142.8,-141.59 139.3,-131.59 135.8,-141.59 142.8,-141.59"/>
</g>
<!-- Node4 -->
<g id="node4" class="node">
<title>Node4</title>
<g id="a_node4"><a xlink:title=" ">
<polygon fill="white" stroke="#bfbfbf" points="279.8,-112.5 279.8,-131.5 332.8,-131.5 332.8,-112.5 279.8,-112.5"/>
<text text-anchor="middle" x="306.3" y="-119.5" font-family="Helvetica,sans-Serif" font-size="10.00">ctype.h</text>
</a>
</g>
</g>
<!-- Node3&#45;&gt;Node4 -->
<g id="edge3" class="edge">
<title>Node3&#45;&gt;Node4</title>
<path fill="none" stroke="midnightblue" d="M246.71,-168.32C257.41,-160.18 273.64,-147.84 286.46,-138.09"/>
<polygon fill="midnightblue" stroke="midnightblue" points="288.84,-140.67 294.68,-131.83 284.6,-135.1 288.84,-140.67"/>
</g>
<!-- Node5 -->
<g id="node5" class="node">
<title>Node5</title>
<g id="a_node5"><a xlink:title=" ">
<polygon fill="white" stroke="#bfbfbf" points="237.3,-0.5 237.3,-19.5 287.3,-19.5 287.3,-0.5 237.3,-0.5"/>
<text text-anchor="middle" x="262.3" y="-7.5" font-family="Helvetica,sans-Serif" font-size="10.00">stdio.h</text>
</a>
</g>
</g>
<!-- Node3&#45;&gt;Node5 -->
<g id="edge4" class="edge">
<title>Node3&#45;&gt;Node5</title>
<path fill="none" stroke="midnightblue" d="M288.07,-175.5C320.31,-171.51 359.27,-160.54 380.3,-132 400.33,-104.81 399.46,-83.82 380.3,-56 361.82,-29.18 325.07,-18.34 297.46,-13.95"/>
<polygon fill="midnightblue" stroke="midnightblue" points="297.77,-10.46 287.38,-12.57 296.82,-17.4 297.77,-10.46"/>
</g>
<!-- Node6 -->
<g id="node6" class="node">
<title>Node6</title>
<g id="a_node6"><a xlink:title=" ">
<polygon fill="white" stroke="#bfbfbf" points="69.8,-0.5 69.8,-19.5 122.8,-19.5 122.8,-0.5 69.8,-0.5"/>
<text text-anchor="middle" x="96.3" y="-7.5" font-family="Helvetica,sans-Serif" font-size="10.00">stdlib.h</text>
</a>
</g>
</g>
<!-- Node3&#45;&gt;Node6 -->
<g id="edge5" class="edge">
<title>Node3&#45;&gt;Node6</title>
<path fill="none" stroke="midnightblue" d="M182.77,-172.39C125.45,-164.09 37.32,-140.87 3.3,-76 -11.25,-48.25 28.17,-29.89 60.12,-19.97"/>
<polygon fill="midnightblue" stroke="midnightblue" points="61.12,-23.32 69.73,-17.16 59.15,-16.61 61.12,-23.32"/>
</g>
<!-- Node7 -->
<g id="node7" class="node">
<title>Node7</title>
<g id="a_node7"><a xlink:title=" ">
<polygon fill="white" stroke="#bfbfbf" points="284.8,-56.5 284.8,-75.5 337.8,-75.5 337.8,-56.5 284.8,-56.5"/>
<text text-anchor="middle" x="311.3" y="-63.5" font-family="Helvetica,sans-Serif" font-size="10.00">string.h</text>
</a>
</g>
</g>
<!-- Node3&#45;&gt;Node7 -->
<g id="edge6" class="edge">
<title>Node3&#45;&gt;Node7</title>
<path fill="none" stroke="midnightblue" d="M239.38,-168.23C245.53,-155.39 257.88,-130.95 271.3,-112 278.46,-101.89 287.56,-91.5 295.27,-83.25"/>
<polygon fill="midnightblue" stroke="midnightblue" points="298.01,-85.45 302.4,-75.81 292.95,-80.61 298.01,-85.45"/>
</g>
<!-- Node8 -->
<g id="node8" class="node">
<title>Node8</title>
<g id="a_node8"><a xlink:title=" ">
<polygon fill="white" stroke="#bfbfbf" points="157.3,-0.5 157.3,-19.5 219.3,-19.5 219.3,-0.5 157.3,-0.5"/>
<text text-anchor="middle" x="188.3" y="-7.5" font-family="Helvetica,sans-Serif" font-size="10.00">stdbool.h</text>
</a>
</g>
</g>
<!-- Node3&#45;&gt;Node8 -->
<g id="edge7" class="edge">
<title>Node3&#45;&gt;Node8</title>
<path fill="none" stroke="midnightblue" d="M283.38,-168.45C304.85,-162.08 328.39,-151.04 342.3,-132 362.26,-104.66 367.72,-83 347.3,-56 343.63,-51.15 275.07,-32.98 229.19,-21.27"/>
<polygon fill="midnightblue" stroke="midnightblue" points="230.04,-17.87 219.49,-18.8 228.32,-24.66 230.04,-17.87"/>
</g>
<!-- Node9 -->
<g id="node9" class="node">
<title>Node9</title>
<g id="a_node9"><a xlink:href="lexerDef_8h.html" target="_top" xlink:title=" ">
<polygon fill="white" stroke="black" points="162.3,-56.5 162.3,-75.5 228.3,-75.5 228.3,-56.5 162.3,-56.5"/>
<text text-anchor="middle" x="195.3" y="-63.5" font-family="Helvetica,sans-Serif" font-size="10.00">lexerDef.h</text>
</a>
</g>
</g>
<!-- Node3&#45;&gt;Node9 -->
<g id="edge8" class="edge">
<title>Node3&#45;&gt;Node9</title>
<path fill="none" stroke="midnightblue" d="M232.16,-168.37C225.67,-150.54 210.68,-109.3 201.94,-85.27"/>
<polygon fill="midnightblue" stroke="midnightblue" points="205.13,-83.79 198.42,-75.59 198.55,-86.19 205.13,-83.79"/>
</g>
<!-- Node3&#45;&gt;Node10 -->
<g id="edge12" class="edge">
<title>Node3&#45;&gt;Node10</title>
<path fill="none" stroke="midnightblue" d="M219.87,-168.32C204.76,-159.82 181.48,-146.73 163.83,-136.8"/>
<polygon fill="midnightblue" stroke="midnightblue" points="165.12,-133.51 154.68,-131.65 161.68,-139.61 165.12,-133.51"/>
</g>
<!-- Node9&#45;&gt;Node5 -->
<g id="edge9" class="edge">
<title>Node9&#45;&gt;Node5</title>
<path fill="none" stroke="midnightblue" d="M206.06,-56.32C216.06,-48.26 231.18,-36.08 243.23,-26.37"/>
<polygon fill="midnightblue" stroke="midnightblue" points="245.75,-28.83 251.34,-19.83 241.36,-23.38 245.75,-28.83"/>
</g>
<!-- Node9&#45;&gt;Node6 -->
<g id="edge10" class="edge">
<title>Node9&#45;&gt;Node6</title>
<path fill="none" stroke="midnightblue" d="M179.39,-56.32C163.66,-47.74 139.36,-34.49 121.09,-24.52"/>
<polygon fill="midnightblue" stroke="midnightblue" points="122.62,-21.37 112.16,-19.65 119.27,-27.52 122.62,-21.37"/>
</g>
<!-- Node9&#45;&gt;Node8 -->
<g id="edge11" class="edge">
<title>Node9&#45;&gt;Node8</title>
<path fill="none" stroke="midnightblue" d="M194.14,-56.08C193.21,-48.93 191.88,-38.64 190.72,-29.69"/>
<polygon fill="midnightblue" stroke="midnightblue" points="194.19,-29.22 189.43,-19.75 187.25,-30.12 194.19,-29.22"/>
</g>
<!-- Node10&#45;&gt;Node2 -->
<g id="edge14" class="edge">
<title>Node10&#45;&gt;Node2</title>
<path fill="none" stroke="midnightblue" d="M123.39,-112.32C107.66,-103.74 83.36,-90.49 65.09,-80.52"/>
<polygon fill="midnightblue" stroke="midnightblue" points="66.62,-77.37 56.16,-75.65 63.27,-83.52 66.62,-77.37"/>
</g>
<!-- Node10&#45;&gt;Node5 -->
<g id="edge13" class="edge">
<title>Node10&#45;&gt;Node5</title>
<path fill="none" stroke="midnightblue" d="M173.63,-112.39C194.47,-105.59 220.26,-94.16 237.3,-76 249.31,-63.2 255.74,-44.01 259.05,-29.8"/>
<polygon fill="midnightblue" stroke="midnightblue" points="262.55,-30.18 261.09,-19.68 255.69,-28.8 262.55,-30.18"/>
</g>
<!-- Node10&#45;&gt;Node6 -->
<g id="edge15" class="edge">
<title>Node10&#45;&gt;Node6</title>
<path fill="none" stroke="midnightblue" d="M135.54,-112.42C131.62,-103.4 125.35,-88.78 120.3,-76 114.15,-60.44 107.6,-42.61 102.9,-29.56"/>
<polygon fill="midnightblue" stroke="midnightblue" points="106.1,-28.12 99.43,-19.88 99.51,-30.47 106.1,-28.12"/>
</g>
<!-- Node10&#45;&gt;Node7 -->
<g id="edge16" class="edge">
<title>Node10&#45;&gt;Node7</title>
<path fill="none" stroke="midnightblue" d="M166.55,-112.44C195.91,-103.23 242.77,-88.52 275.18,-78.34"/>
<polygon fill="midnightblue" stroke="midnightblue" points="276.24,-81.67 284.74,-75.34 274.15,-75 276.24,-81.67"/>
</g>
<!-- Node10&#45;&gt;Node8 -->
<g id="edge17" class="edge">
<title>Node10&#45;&gt;Node8</title>
<path fill="none" stroke="midnightblue" d="M139.94,-112.19C141.16,-99.31 144.51,-74.83 153.3,-56 158.21,-45.48 165.96,-35.16 172.93,-27.06"/>
<polygon fill="midnightblue" stroke="midnightblue" points="175.64,-29.27 179.74,-19.5 170.45,-24.58 175.64,-29.27"/>
</g>
<!-- Node10&#45;&gt;Node9 -->
<g id="edge18" class="edge">
<title>Node10&#45;&gt;Node9</title>
<path fill="none" stroke="midnightblue" d="M148.3,-112.32C156.49,-104.42 168.8,-92.55 178.77,-82.94"/>
<polygon fill="midnightblue" stroke="midnightblue" points="181.37,-85.29 186.14,-75.83 176.51,-80.26 181.37,-85.29"/>
</g>
</g>
</svg>
