<?xml version="1.0" encoding="UTF-8" standalone="no"?>
<!DOCTYPE svg PUBLIC "-//W3C//DTD SVG 1.1//EN"
 "http://www.w3.org/Graphics/SVG/1.1/DTD/svg11.dtd">
<!-- Generated by graphviz version 2.43.0 (0)
 -->
<!-- Title: create_token Pages: 1 -->
<svg width="640pt" height="78pt"
 viewBox="0.00 0.00 640.00 77.50" xmlns="http://www.w3.org/2000/svg" xmlns:xlink="http://www.w3.org/1999/xlink">
<g id="graph0" class="graph" transform="scale(1 1) rotate(0) translate(4 73.5)">
<title>create_token</title>
<polygon fill="white" stroke="transparent" points="-4,4 -4,-73.5 636,-73.5 636,4 -4,4"/>
<!-- Node1 -->
<g id="node1" class="node">
<title>Node1</title>
<g id="a_node1"><a xlink:title=" ">
<polygon fill="#bfbfbf" stroke="black" points="0,-28 0,-47 80,-47 80,-28 0,-28"/>
<text text-anchor="middle" x="40" y="-35" font-family="Helvetica,sans-Serif" font-size="10.00">create_token</text>
</a>
</g>
</g>
<!-- Node2 -->
<g id="node2" class="node">
<title>Node2</title>
<g id="a_node2"><a xlink:href="symbol__table_8c.html#acadfe9a6832a8597ed3583053966ac3b" target="_top" xlink:title="Inserts a lexeme into the internal symbol table.">
<polygon fill="white" stroke="black" points="116,-28 116,-47 232,-47 232,-28 116,-28"/>
<text text-anchor="middle" x="174" y="-35" font-family="Helvetica,sans-Serif" font-size="10.00">symbol_table_insert</text>
</a>
</g>
</g>
<!-- Node1&#45;&gt;Node2 -->
<g id="edge1" class="edge">
<title>Node1&#45;&gt;Node2</title>
<path fill="none" stroke="midnightblue" d="M80.25,-37.5C88.22,-37.5 96.82,-37.5 105.46,-37.5"/>
<polygon fill="midnightblue" stroke="midnightblue" points="105.58,-41 115.58,-37.5 105.58,-34 105.58,-41"/>
</g>
<!-- Node3 -->
<g id="node3" class="node">
<title>Node3</title>
<g id="a_node3"><a xlink:href="symbol__table_8c.html#af00e4a3f1778752600e745a5f825e3ac" target="_top" xlink:title=" ">
<polygon fill="white" stroke="black" points="268,-28 268,-47 385,-47 385,-28 268,-28"/>
<text text-anchor="middle" x="326.5" y="-35" font-family="Helvetica,sans-Serif" font-size="10.00">symbol_table_resize</text>
</a>
</g>
</g>
<!-- Node2&#45;&gt;Node3 -->
<g id="edge2" class="edge">
<title>Node2&#45;&gt;Node3</title>
<path fill="none" stroke="midnightblue" d="M232.33,-37.5C240.59,-37.5 249.17,-37.5 257.62,-37.5"/>
<polygon fill="midnightblue" stroke="midnightblue" points="257.83,-41 267.83,-37.5 257.83,-34 257.83,-41"/>
</g>
<!-- Node4 -->
<g id="node4" class="node">
<title>Node4</title>
<g id="a_node4"><a xlink:href="symbol__table_8c.html#abd009617cc391aeb4c484a199286513e" target="_top" xlink:title=" ">
<polygon fill="white" stroke="black" points="443,-50 443,-69 515,-69 515,-50 443,-50"/>
<text text-anchor="middle" x="479" y="-57" font-family="Helvetica,sans-Serif" font-size="10.00">next_prime</text>
</a>
</g>
</g>
<!-- Node3&#45;&gt;Node4 -->
<g id="edge3" class="edge">
<title>Node3&#45;&gt;Node4</title>
<path fill="none" stroke="midnightblue" d="M385.26,-45.94C401.02,-48.25 417.86,-50.71 432.81,-52.89"/>
<polygon fill="midnightblue" stroke="midnightblue" points="432.42,-56.37 442.82,-54.36 433.43,-49.45 432.42,-56.37"/>
</g>
<!-- Node6 -->
<g id="node6" class="node">
<title>Node6</title>
<g id="a_node6"><a xlink:href="symbol__table_8c.html#a86044a0a95c64d3b677f00cba38ae8e1" target="_top" xlink:title=" ">
<polygon fill="white" stroke="black" points="421,-0.5 421,-30.5 537,-30.5 537,-0.5 421,-0.5"/>
<text text-anchor="start" x="429" y="-18.5" font-family="Helvetica,sans-Serif" font-size="10.00">symbol_table_insert</text>
<text text-anchor="middle" x="479" y="-7.5" font-family="Helvetica,sans-Serif" font-size="10.00">_entry</text>
</a>
</g>
</g>
<!-- Node3&#45;&gt;Node6 -->
<g id="edge5" class="edge">
<title>Node3&#45;&gt;Node6</title>
<path fill="none" stroke="midnightblue" d="M385.26,-29.06C393.6,-27.84 402.24,-26.57 410.75,-25.33"/>
<polygon fill="midnightblue" stroke="midnightblue" points="411.26,-28.79 420.65,-23.88 410.25,-21.87 411.26,-28.79"/>
</g>
<!-- Node5 -->
<g id="node5" class="node">
<title>Node5</title>
<g id="a_node5"><a xlink:href="symbol__table_8c.html#aa29f6b8604796044e39772a51c0f2c63" target="_top" xlink:title=" ">
<polygon fill="white" stroke="black" points="573,-50 573,-69 632,-69 632,-50 573,-50"/>
<text text-anchor="middle" x="602.5" y="-57" font-family="Helvetica,sans-Serif" font-size="10.00">is_prime</text>
</a>
</g>
</g>
<!-- Node4&#45;&gt;Node5 -->
<g id="edge4" class="edge">
<title>Node4&#45;&gt;Node5</title>
<path fill="none" stroke="midnightblue" d="M515.14,-59.5C530.06,-59.5 547.5,-59.5 562.79,-59.5"/>
<polygon fill="midnightblue" stroke="midnightblue" points="562.97,-63 572.97,-59.5 562.97,-56 562.97,-63"/>
</g>
</g>
</svg>
