<?xml version="1.0" encoding="UTF-8" standalone="no"?>
<!DOCTYPE svg PUBLIC "-//W3C//DTD SVG 1.1//EN"
 "http://www.w3.org/Graphics/SVG/1.1/DTD/svg11.dtd">
<!-- Generated by graphviz version 2.43.0 (0)
 -->
<!-- Title: include/lexerDef.h Pages: 1 -->
<svg width="602pt" height="252pt"
 viewBox="0.00 0.00 602.00 252.00" xmlns="http://www.w3.org/2000/svg" xmlns:xlink="http://www.w3.org/1999/xlink">
<g id="graph0" class="graph" transform="scale(1 1) rotate(0) translate(4 248)">
<title>include/lexerDef.h</title>
<polygon fill="white" stroke="transparent" points="-4,4 -4,-248 598,-248 598,4 -4,4"/>
<!-- Node1 -->
<g id="node1" class="node">
<title>Node1</title>
<g id="a_node1"><a xlink:title=" ">
<polygon fill="#bfbfbf" stroke="black" points="188,-224.5 188,-243.5 292,-243.5 292,-224.5 188,-224.5"/>
<text text-anchor="middle" x="240" y="-231.5" font-family="Helvetica,sans-Serif" font-size="10.00">include/lexerDef.h</text>
</a>
</g>
</g>
<!-- Node2 -->
<g id="node2" class="node">
<title>Node2</title>
<g id="a_node2"><a xlink:href="hash__map_8h.html" target="_top" xlink:title=" ">
<polygon fill="white" stroke="black" points="36,-112.5 36,-131.5 150,-131.5 150,-112.5 36,-112.5"/>
<text text-anchor="middle" x="93" y="-119.5" font-family="Helvetica,sans-Serif" font-size="10.00">include/hash_map.h</text>
</a>
</g>
</g>
<!-- Node1&#45;&gt;Node2 -->
<g id="edge1" class="edge">
<title>Node1&#45;&gt;Node2</title>
<path fill="none" stroke="midnightblue" d="M194.95,-221.34C174.08,-214.27 149.98,-203.53 132,-188 113.68,-172.17 101.55,-145.52 96.17,-131.78"/>
<polygon fill="midnightblue" stroke="midnightblue" points="193.99,-224.71 204.58,-224.44 196.13,-218.05 193.99,-224.71"/>
</g>
<!-- Node7 -->
<g id="node7" class="node">
<title>Node7</title>
<g id="a_node7"><a xlink:href="lexer_8h.html" target="_top" xlink:title=" ">
<polygon fill="white" stroke="black" points="314.5,-112.5 314.5,-131.5 401.5,-131.5 401.5,-112.5 314.5,-112.5"/>
<text text-anchor="middle" x="358" y="-119.5" font-family="Helvetica,sans-Serif" font-size="10.00">include/lexer.h</text>
</a>
</g>
</g>
<!-- Node1&#45;&gt;Node7 -->
<g id="edge6" class="edge">
<title>Node1&#45;&gt;Node7</title>
<path fill="none" stroke="midnightblue" d="M256.61,-217.51C281.83,-194.01 328.92,-150.11 348.78,-131.59"/>
<polygon fill="midnightblue" stroke="midnightblue" points="254.19,-214.99 249.26,-224.37 258.96,-220.11 254.19,-214.99"/>
</g>
<!-- Node9 -->
<g id="node9" class="node">
<title>Node9</title>
<g id="a_node9"><a xlink:href="parserDef_8h.html" target="_top" xlink:title=" ">
<polygon fill="white" stroke="black" points="141.5,-168.5 141.5,-187.5 252.5,-187.5 252.5,-168.5 141.5,-168.5"/>
<text text-anchor="middle" x="197" y="-175.5" font-family="Helvetica,sans-Serif" font-size="10.00">include/parserDef.h</text>
</a>
</g>
</g>
<!-- Node1&#45;&gt;Node9 -->
<g id="edge9" class="edge">
<title>Node1&#45;&gt;Node9</title>
<path fill="none" stroke="midnightblue" d="M226.58,-216.14C219.09,-206.74 210.06,-195.4 203.97,-187.75"/>
<polygon fill="midnightblue" stroke="midnightblue" points="223.93,-218.44 232.9,-224.08 229.41,-214.08 223.93,-218.44"/>
</g>
<!-- Node12 -->
<g id="node12" class="node">
<title>Node12</title>
<g id="a_node12"><a xlink:href="symbol__table_8h.html" target="_top" xlink:title=" ">
<polygon fill="white" stroke="black" points="329,-168.5 329,-187.5 459,-187.5 459,-168.5 329,-168.5"/>
<text text-anchor="middle" x="394" y="-175.5" font-family="Helvetica,sans-Serif" font-size="10.00">include/symbol_table.h</text>
</a>
</g>
</g>
<!-- Node1&#45;&gt;Node12 -->
<g id="edge15" class="edge">
<title>Node1&#45;&gt;Node12</title>
<path fill="none" stroke="midnightblue" d="M274.11,-221.04C303.09,-210.88 343.96,-196.55 369.71,-187.52"/>
<polygon fill="midnightblue" stroke="midnightblue" points="272.68,-217.83 264.4,-224.44 275,-224.44 272.68,-217.83"/>
</g>
<!-- Node3 -->
<g id="node3" class="node">
<title>Node3</title>
<g id="a_node3"><a xlink:href="hash__map_8c.html" target="_top" xlink:title=" ">
<polygon fill="white" stroke="black" points="0,-56.5 0,-75.5 120,-75.5 120,-56.5 0,-56.5"/>
<text text-anchor="middle" x="60" y="-63.5" font-family="Helvetica,sans-Serif" font-size="10.00">src/main/hash_map.c</text>
</a>
</g>
</g>
<!-- Node2&#45;&gt;Node3 -->
<g id="edge2" class="edge">
<title>Node2&#45;&gt;Node3</title>
<path fill="none" stroke="midnightblue" d="M82.17,-103.27C76.53,-94.05 69.88,-83.17 65.35,-75.75"/>
<polygon fill="midnightblue" stroke="midnightblue" points="79.35,-105.38 87.55,-112.08 85.32,-101.73 79.35,-105.38"/>
</g>
<!-- Node4 -->
<g id="node4" class="node">
<title>Node4</title>
<g id="a_node4"><a xlink:href="parser_8h.html" target="_top" xlink:title=" ">
<polygon fill="white" stroke="black" points="138,-56.5 138,-75.5 232,-75.5 232,-56.5 138,-56.5"/>
<text text-anchor="middle" x="185" y="-63.5" font-family="Helvetica,sans-Serif" font-size="10.00">include/parser.h</text>
</a>
</g>
</g>
<!-- Node2&#45;&gt;Node4 -->
<g id="edge3" class="edge">
<title>Node2&#45;&gt;Node4</title>
<path fill="none" stroke="midnightblue" d="M116.55,-107.18C133.48,-97.24 155.78,-84.15 170.26,-75.65"/>
<polygon fill="midnightblue" stroke="midnightblue" points="114.63,-104.24 107.78,-112.32 118.18,-110.28 114.63,-104.24"/>
</g>
<!-- Node5 -->
<g id="node5" class="node">
<title>Node5</title>
<g id="a_node5"><a xlink:href="driver_8c.html" target="_top" xlink:title=" ">
<polygon fill="white" stroke="black" points="77,-0.5 77,-19.5 175,-19.5 175,-0.5 77,-0.5"/>
<text text-anchor="middle" x="126" y="-7.5" font-family="Helvetica,sans-Serif" font-size="10.00">src/main/driver.c</text>
</a>
</g>
</g>
<!-- Node4&#45;&gt;Node5 -->
<g id="edge4" class="edge">
<title>Node4&#45;&gt;Node5</title>
<path fill="none" stroke="midnightblue" d="M168.11,-49.54C157.59,-39.91 144.43,-27.87 135.65,-19.83"/>
<polygon fill="midnightblue" stroke="midnightblue" points="165.78,-52.15 175.52,-56.32 170.51,-46.99 165.78,-52.15"/>
</g>
<!-- Node6 -->
<g id="node6" class="node">
<title>Node6</title>
<g id="a_node6"><a xlink:href="parser_8c.html" target="_top" xlink:title=" ">
<polygon fill="white" stroke="black" points="193,-0.5 193,-19.5 293,-19.5 293,-0.5 193,-0.5"/>
<text text-anchor="middle" x="243" y="-7.5" font-family="Helvetica,sans-Serif" font-size="10.00">src/main/parser.c</text>
</a>
</g>
</g>
<!-- Node4&#45;&gt;Node6 -->
<g id="edge5" class="edge">
<title>Node4&#45;&gt;Node6</title>
<path fill="none" stroke="midnightblue" d="M201.91,-49.25C212.2,-39.67 224.97,-27.79 233.51,-19.83"/>
<polygon fill="midnightblue" stroke="midnightblue" points="199.25,-46.95 194.32,-56.32 204.02,-52.07 199.25,-46.95"/>
</g>
<!-- Node7&#45;&gt;Node4 -->
<g id="edge8" class="edge">
<title>Node7&#45;&gt;Node4</title>
<path fill="none" stroke="midnightblue" d="M320.95,-109.44C288.34,-99.26 241.59,-84.66 212.28,-75.52"/>
<polygon fill="midnightblue" stroke="midnightblue" points="320,-112.8 330.59,-112.44 322.08,-106.12 320,-112.8"/>
</g>
<!-- Node8 -->
<g id="node8" class="node">
<title>Node8</title>
<g id="a_node8"><a xlink:href="lexer_8c.html" target="_top" xlink:title=" ">
<polygon fill="white" stroke="black" points="377.5,-56.5 377.5,-75.5 470.5,-75.5 470.5,-56.5 377.5,-56.5"/>
<text text-anchor="middle" x="424" y="-63.5" font-family="Helvetica,sans-Serif" font-size="10.00">src/main/lexer.c</text>
</a>
</g>
</g>
<!-- Node7&#45;&gt;Node8 -->
<g id="edge7" class="edge">
<title>Node7&#45;&gt;Node8</title>
<path fill="none" stroke="midnightblue" d="M376.55,-105.82C388.38,-96.15 403.29,-83.95 413.2,-75.83"/>
<polygon fill="midnightblue" stroke="midnightblue" points="374.13,-103.28 368.6,-112.32 378.56,-108.7 374.13,-103.28"/>
</g>
<!-- Node9&#45;&gt;Node2 -->
<g id="edge10" class="edge">
<title>Node9&#45;&gt;Node2</title>
<path fill="none" stroke="midnightblue" d="M171.17,-163.59C151.94,-153.61 126.26,-140.27 109.67,-131.65"/>
<polygon fill="midnightblue" stroke="midnightblue" points="169.8,-166.82 180.29,-168.32 173.03,-160.61 169.8,-166.82"/>
</g>
<!-- Node9&#45;&gt;Node4 -->
<g id="edge11" class="edge">
<title>Node9&#45;&gt;Node4</title>
<path fill="none" stroke="midnightblue" d="M194.97,-158.35C192.34,-134.25 187.87,-93.31 185.94,-75.59"/>
<polygon fill="midnightblue" stroke="midnightblue" points="191.49,-158.81 196.06,-168.37 198.45,-158.05 191.49,-158.81"/>
</g>
<!-- Node10 -->
<g id="node10" class="node">
<title>Node10</title>
<g id="a_node10"><a xlink:href="stack_8h.html" target="_top" xlink:title=" ">
<polygon fill="white" stroke="black" points="206,-112.5 206,-131.5 296,-131.5 296,-112.5 206,-112.5"/>
<text text-anchor="middle" x="251" y="-119.5" font-family="Helvetica,sans-Serif" font-size="10.00">include/stack.h</text>
</a>
</g>
</g>
<!-- Node9&#45;&gt;Node10 -->
<g id="edge12" class="edge">
<title>Node9&#45;&gt;Node10</title>
<path fill="none" stroke="midnightblue" d="M213,-161C222.57,-151.43 234.36,-139.64 242.25,-131.75"/>
<polygon fill="midnightblue" stroke="midnightblue" points="210.51,-158.54 205.92,-168.08 215.46,-163.49 210.51,-158.54"/>
</g>
<!-- Node10&#45;&gt;Node4 -->
<g id="edge14" class="edge">
<title>Node10&#45;&gt;Node4</title>
<path fill="none" stroke="midnightblue" d="M232.45,-105.82C220.62,-96.15 205.71,-83.95 195.8,-75.83"/>
<polygon fill="midnightblue" stroke="midnightblue" points="230.44,-108.7 240.4,-112.32 234.87,-103.28 230.44,-108.7"/>
</g>
<!-- Node11 -->
<g id="node11" class="node">
<title>Node11</title>
<g id="a_node11"><a xlink:href="stack_8c.html" target="_top" xlink:title=" ">
<polygon fill="white" stroke="black" points="250,-56.5 250,-75.5 346,-75.5 346,-56.5 250,-56.5"/>
<text text-anchor="middle" x="298" y="-63.5" font-family="Helvetica,sans-Serif" font-size="10.00">src/main/stack.c</text>
</a>
</g>
</g>
<!-- Node10&#45;&gt;Node11 -->
<g id="edge13" class="edge">
<title>Node10&#45;&gt;Node11</title>
<path fill="none" stroke="midnightblue" d="M265.42,-104.43C273.66,-94.97 283.65,-83.48 290.38,-75.75"/>
<polygon fill="midnightblue" stroke="midnightblue" points="262.69,-102.24 258.76,-112.08 267.97,-106.84 262.69,-102.24"/>
</g>
<!-- Node12&#45;&gt;Node7 -->
<g id="edge18" class="edge">
<title>Node12&#45;&gt;Node7</title>
<path fill="none" stroke="midnightblue" d="M382.38,-159.57C376.18,-150.27 368.83,-139.25 363.83,-131.75"/>
<polygon fill="midnightblue" stroke="midnightblue" points="379.6,-161.7 388.06,-168.08 385.42,-157.82 379.6,-161.7"/>
</g>
<!-- Node12&#45;&gt;Node8 -->
<g id="edge16" class="edge">
<title>Node12&#45;&gt;Node8</title>
<path fill="none" stroke="midnightblue" d="M401.7,-158.67C404.89,-150.6 408.44,-140.93 411,-132 416.71,-112.09 420.82,-88.04 422.75,-75.52"/>
<polygon fill="midnightblue" stroke="midnightblue" points="398.36,-157.6 397.82,-168.18 404.84,-160.24 398.36,-157.6"/>
</g>
<!-- Node13 -->
<g id="node13" class="node">
<title>Node13</title>
<g id="a_node13"><a xlink:href="symbol__table_8c.html" target="_top" xlink:title=" ">
<polygon fill="white" stroke="black" points="458,-112.5 458,-131.5 594,-131.5 594,-112.5 458,-112.5"/>
<text text-anchor="middle" x="526" y="-119.5" font-family="Helvetica,sans-Serif" font-size="10.00">src/main/symbol_table.c</text>
</a>
</g>
</g>
<!-- Node12&#45;&gt;Node13 -->
<g id="edge17" class="edge">
<title>Node12&#45;&gt;Node13</title>
<path fill="none" stroke="midnightblue" d="M424.22,-164.64C448.99,-154.5 483.4,-140.43 505.18,-131.52"/>
<polygon fill="midnightblue" stroke="midnightblue" points="422.85,-161.42 414.92,-168.44 425.5,-167.9 422.85,-161.42"/>
</g>
</g>
</svg>
