<?xml version="1.0" encoding="UTF-8" standalone="no"?>
<!DOCTYPE svg PUBLIC "-//W3C//DTD SVG 1.1//EN"
 "http://www.w3.org/Graphics/SVG/1.1/DTD/svg11.dtd">
<!-- Generated by graphviz version 2.43.0 (0)
 -->
<!-- Title: buffer_init Pages: 1 -->
<svg width="937pt" height="145pt"
 viewBox="0.00 0.00 937.00 145.00" xmlns="http://www.w3.org/2000/svg" xmlns:xlink="http://www.w3.org/1999/xlink">
<g id="graph0" class="graph" transform="scale(1 1) rotate(0) translate(4 141)">
<title>buffer_init</title>
<polygon fill="white" stroke="transparent" points="-4,4 -4,-141 933,-141 933,4 -4,4"/>
<!-- Node1 -->
<g id="node1" class="node">
<title>Node1</title>
<g id="a_node1"><a xlink:title="Initializes an internal twin buffer and loads the active buffer with the first chunk of the file.">
<polygon fill="#bfbfbf" stroke="black" points="0,-57.5 0,-76.5 66,-76.5 66,-57.5 0,-57.5"/>
<text text-anchor="middle" x="33" y="-64.5" font-family="Helvetica,sans-Serif" font-size="10.00">buffer_init</text>
</a>
</g>
</g>
<!-- Node2 -->
<g id="node2" class="node">
<title>Node2</title>
<g id="a_node2"><a xlink:href="lexer_8c.html#a67dd8f227181df843e25a314e262a10c" target="_top" xlink:title="Deallocates the twin buffer (automatically called at program termination).">
<polygon fill="white" stroke="black" points="121.5,-95.5 121.5,-114.5 210.5,-114.5 210.5,-95.5 121.5,-95.5"/>
<text text-anchor="middle" x="166" y="-102.5" font-family="Helvetica,sans-Serif" font-size="10.00">buffer_cleanup</text>
</a>
</g>
</g>
<!-- Node1&#45;&gt;Node2 -->
<g id="edge1" class="edge">
<title>Node1&#45;&gt;Node2</title>
<path fill="none" stroke="midnightblue" d="M66.05,-76.3C82.92,-81.19 103.84,-87.26 122.09,-92.55"/>
<polygon fill="midnightblue" stroke="midnightblue" points="121.34,-95.98 131.92,-95.4 123.29,-89.26 121.34,-95.98"/>
</g>
<!-- Node3 -->
<g id="node3" class="node">
<title>Node3</title>
<g id="a_node3"><a xlink:href="lexer_8c.html#a1ede1e9739c264c7e3af07630e5a68f3" target="_top" xlink:title=" ">
<polygon fill="white" stroke="black" points="102,-57.5 102,-76.5 230,-76.5 230,-57.5 102,-57.5"/>
<text text-anchor="middle" x="166" y="-64.5" font-family="Helvetica,sans-Serif" font-size="10.00">get_next_token_helper</text>
</a>
</g>
</g>
<!-- Node1&#45;&gt;Node3 -->
<g id="edge2" class="edge">
<title>Node1&#45;&gt;Node3</title>
<path fill="none" stroke="midnightblue" d="M66.05,-61.1C73.92,-60.66 82.67,-60.39 91.62,-60.29"/>
<polygon fill="midnightblue" stroke="midnightblue" points="91.78,-63.79 101.77,-60.25 91.76,-56.79 91.78,-63.79"/>
</g>
<!-- Node3&#45;&gt;Node1 -->
<g id="edge3" class="edge">
<title>Node3&#45;&gt;Node1</title>
<path fill="none" stroke="midnightblue" d="M101.77,-73.75C93.06,-73.77 84.29,-73.64 76.09,-73.35"/>
<polygon fill="midnightblue" stroke="midnightblue" points="76.19,-69.85 66.05,-72.9 75.88,-76.85 76.19,-69.85"/>
</g>
<!-- Node4 -->
<g id="node4" class="node">
<title>Node4</title>
<g id="a_node4"><a xlink:href="lexer_8c.html#ab8b57ff9976f6622383db94b907a00f3" target="_top" xlink:title=" ">
<polygon fill="white" stroke="black" points="281.5,-114.5 281.5,-133.5 361.5,-133.5 361.5,-114.5 281.5,-114.5"/>
<text text-anchor="middle" x="321.5" y="-121.5" font-family="Helvetica,sans-Serif" font-size="10.00">create_token</text>
</a>
</g>
</g>
<!-- Node3&#45;&gt;Node4 -->
<g id="edge4" class="edge">
<title>Node3&#45;&gt;Node4</title>
<path fill="none" stroke="midnightblue" d="M200.89,-76.51C210.38,-79.36 220.65,-82.64 230,-86 250.24,-93.28 272.52,-102.62 289.91,-110.22"/>
<polygon fill="midnightblue" stroke="midnightblue" points="288.97,-113.63 299.54,-114.46 291.8,-107.22 288.97,-113.63"/>
</g>
<!-- Node5 -->
<g id="node5" class="node">
<title>Node5</title>
<g id="a_node5"><a xlink:href="symbol__table_8h.html#a838379e0d91707a08998e494fb420bf5" target="_top" xlink:title="Inserts a lexeme into the internal symbol table.">
<polygon fill="white" stroke="black" points="413,-95.5 413,-114.5 529,-114.5 529,-95.5 413,-95.5"/>
<text text-anchor="middle" x="471" y="-102.5" font-family="Helvetica,sans-Serif" font-size="10.00">symbol_table_insert</text>
</a>
</g>
</g>
<!-- Node3&#45;&gt;Node5 -->
<g id="edge12" class="edge">
<title>Node3&#45;&gt;Node5</title>
<path fill="none" stroke="midnightblue" d="M230.15,-74.92C280.64,-81.25 351.25,-90.11 402.78,-96.57"/>
<polygon fill="midnightblue" stroke="midnightblue" points="402.46,-100.06 412.82,-97.83 403.33,-93.11 402.46,-100.06"/>
</g>
<!-- Node10 -->
<g id="node10" class="node">
<title>Node10</title>
<g id="a_node10"><a xlink:href="lexer_8c.html#a960f17a4b92e6cce8b8edae91c728ead" target="_top" xlink:title=" ">
<polygon fill="white" stroke="black" points="266,-38.5 266,-57.5 377,-57.5 377,-38.5 266,-38.5"/>
<text text-anchor="middle" x="321.5" y="-45.5" font-family="Helvetica,sans-Serif" font-size="10.00">retract_and_update</text>
</a>
</g>
</g>
<!-- Node3&#45;&gt;Node10 -->
<g id="edge10" class="edge">
<title>Node3&#45;&gt;Node10</title>
<path fill="none" stroke="midnightblue" d="M230.32,-59.16C238.66,-58.13 247.21,-57.07 255.58,-56.04"/>
<polygon fill="midnightblue" stroke="midnightblue" points="256.16,-59.49 265.66,-54.79 255.3,-52.54 256.16,-59.49"/>
</g>
<!-- Node11 -->
<g id="node11" class="node">
<title>Node11</title>
<g id="a_node11"><a xlink:href="lexer_8c.html#a6d0bc199864425dd309933a88f06bb51" target="_top" xlink:title=" ">
<polygon fill="white" stroke="black" points="283.5,-0.5 283.5,-19.5 359.5,-19.5 359.5,-0.5 283.5,-0.5"/>
<text text-anchor="middle" x="321.5" y="-7.5" font-family="Helvetica,sans-Serif" font-size="10.00">swap_buffer</text>
</a>
</g>
</g>
<!-- Node3&#45;&gt;Node11 -->
<g id="edge11" class="edge">
<title>Node3&#45;&gt;Node11</title>
<path fill="none" stroke="midnightblue" d="M191.33,-57.42C211.32,-49.6 240.41,-38.37 266,-29 271.35,-27.04 277.02,-25.01 282.59,-23.05"/>
<polygon fill="midnightblue" stroke="midnightblue" points="284.15,-26.21 292.43,-19.6 281.84,-19.6 284.15,-26.21"/>
</g>
<!-- Node4&#45;&gt;Node5 -->
<g id="edge5" class="edge">
<title>Node4&#45;&gt;Node5</title>
<path fill="none" stroke="midnightblue" d="M361.64,-118.96C374.28,-117.33 388.67,-115.48 402.74,-113.66"/>
<polygon fill="midnightblue" stroke="midnightblue" points="403.43,-117.1 412.9,-112.36 402.53,-110.16 403.43,-117.1"/>
</g>
<!-- Node6 -->
<g id="node6" class="node">
<title>Node6</title>
<g id="a_node6"><a xlink:href="symbol__table_8c.html#af00e4a3f1778752600e745a5f825e3ac" target="_top" xlink:title=" ">
<polygon fill="white" stroke="black" points="565,-95.5 565,-114.5 682,-114.5 682,-95.5 565,-95.5"/>
<text text-anchor="middle" x="623.5" y="-102.5" font-family="Helvetica,sans-Serif" font-size="10.00">symbol_table_resize</text>
</a>
</g>
</g>
<!-- Node5&#45;&gt;Node6 -->
<g id="edge6" class="edge">
<title>Node5&#45;&gt;Node6</title>
<path fill="none" stroke="midnightblue" d="M529.33,-105C537.59,-105 546.17,-105 554.62,-105"/>
<polygon fill="midnightblue" stroke="midnightblue" points="554.83,-108.5 564.83,-105 554.83,-101.5 554.83,-108.5"/>
</g>
<!-- Node7 -->
<g id="node7" class="node">
<title>Node7</title>
<g id="a_node7"><a xlink:href="symbol__table_8c.html#abd009617cc391aeb4c484a199286513e" target="_top" xlink:title=" ">
<polygon fill="white" stroke="black" points="740,-117.5 740,-136.5 812,-136.5 812,-117.5 740,-117.5"/>
<text text-anchor="middle" x="776" y="-124.5" font-family="Helvetica,sans-Serif" font-size="10.00">next_prime</text>
</a>
</g>
</g>
<!-- Node6&#45;&gt;Node7 -->
<g id="edge7" class="edge">
<title>Node6&#45;&gt;Node7</title>
<path fill="none" stroke="midnightblue" d="M682.26,-113.44C698.02,-115.75 714.86,-118.21 729.81,-120.39"/>
<polygon fill="midnightblue" stroke="midnightblue" points="729.42,-123.87 739.82,-121.86 730.43,-116.95 729.42,-123.87"/>
</g>
<!-- Node9 -->
<g id="node9" class="node">
<title>Node9</title>
<g id="a_node9"><a xlink:href="symbol__table_8c.html#a86044a0a95c64d3b677f00cba38ae8e1" target="_top" xlink:title=" ">
<polygon fill="white" stroke="black" points="718,-68 718,-98 834,-98 834,-68 718,-68"/>
<text text-anchor="start" x="726" y="-86" font-family="Helvetica,sans-Serif" font-size="10.00">symbol_table_insert</text>
<text text-anchor="middle" x="776" y="-75" font-family="Helvetica,sans-Serif" font-size="10.00">_entry</text>
</a>
</g>
</g>
<!-- Node6&#45;&gt;Node9 -->
<g id="edge9" class="edge">
<title>Node6&#45;&gt;Node9</title>
<path fill="none" stroke="midnightblue" d="M682.26,-96.56C690.6,-95.34 699.24,-94.07 707.75,-92.83"/>
<polygon fill="midnightblue" stroke="midnightblue" points="708.26,-96.29 717.65,-91.38 707.25,-89.37 708.26,-96.29"/>
</g>
<!-- Node8 -->
<g id="node8" class="node">
<title>Node8</title>
<g id="a_node8"><a xlink:href="symbol__table_8c.html#aa29f6b8604796044e39772a51c0f2c63" target="_top" xlink:title=" ">
<polygon fill="white" stroke="black" points="870,-117.5 870,-136.5 929,-136.5 929,-117.5 870,-117.5"/>
<text text-anchor="middle" x="899.5" y="-124.5" font-family="Helvetica,sans-Serif" font-size="10.00">is_prime</text>
</a>
</g>
</g>
<!-- Node7&#45;&gt;Node8 -->
<g id="edge8" class="edge">
<title>Node7&#45;&gt;Node8</title>
<path fill="none" stroke="midnightblue" d="M812.14,-127C827.06,-127 844.5,-127 859.79,-127"/>
<polygon fill="midnightblue" stroke="midnightblue" points="859.97,-130.5 869.97,-127 859.97,-123.5 859.97,-130.5"/>
</g>
</g>
</svg>
