<?xml version="1.0" encoding="UTF-8" standalone="no"?>
<!DOCTYPE svg PUBLIC "-//W3C//DTD SVG 1.1//EN"
 "http://www.w3.org/Graphics/SVG/1.1/DTD/svg11.dtd">
<!-- Generated by graphviz version 2.43.0 (0)
 -->
<!-- Title: buffer_init Pages: 1 -->
<svg width="937pt" height="191pt"
 viewBox="0.00 0.00 937.00 190.82" xmlns="http://www.w3.org/2000/svg" xmlns:xlink="http://www.w3.org/1999/xlink">
<g id="graph0" class="graph" transform="scale(1 1) rotate(0) translate(4 186.82)">
<title>buffer_init</title>
<polygon fill="white" stroke="transparent" points="-4,4 -4,-186.82 933,-186.82 933,4 -4,4"/>
<!-- Node1 -->
<g id="node1" class="node">
<title>Node1</title>
<g id="a_node1"><a xlink:title="Initializes an internal twin buffer and loads the active buffer with the first chunk of the file.">
<polygon fill="#bfbfbf" stroke="black" points="0,-152.5 0,-171.5 66,-171.5 66,-152.5 0,-152.5"/>
<text text-anchor="middle" x="33" y="-159.5" font-family="Helvetica,sans-Serif" font-size="10.00">buffer_init</text>
</a>
</g>
</g>
<!-- Node2 -->
<g id="node2" class="node">
<title>Node2</title>
<g id="a_node2"><a xlink:href="lexer_8c.html#a67dd8f227181df843e25a314e262a10c" target="_top" xlink:title="Deallocates the twin buffer (automatically called at program termination).">
<polygon fill="white" stroke="black" points="426.5,-161.5 426.5,-180.5 515.5,-180.5 515.5,-161.5 426.5,-161.5"/>
<text text-anchor="middle" x="471" y="-168.5" font-family="Helvetica,sans-Serif" font-size="10.00">buffer_cleanup</text>
</a>
</g>
</g>
<!-- Node1&#45;&gt;Node2 -->
<g id="edge1" class="edge">
<title>Node1&#45;&gt;Node2</title>
<path fill="none" stroke="midnightblue" d="M66.15,-166.12C126.89,-173.38 262.66,-187.13 377,-181 389.67,-180.32 403.26,-179.13 416.04,-177.79"/>
<polygon fill="midnightblue" stroke="midnightblue" points="416.52,-181.26 426.08,-176.7 415.76,-174.3 416.52,-181.26"/>
</g>
<!-- Node3 -->
<g id="node3" class="node">
<title>Node3</title>
<g id="a_node3"><a xlink:href="lexer_8c.html#a1ede1e9739c264c7e3af07630e5a68f3" target="_top" xlink:title=" ">
<polygon fill="white" stroke="black" points="102,-114.5 102,-133.5 230,-133.5 230,-114.5 102,-114.5"/>
<text text-anchor="middle" x="166" y="-121.5" font-family="Helvetica,sans-Serif" font-size="10.00">get_next_token_helper</text>
</a>
</g>
</g>
<!-- Node1&#45;&gt;Node3 -->
<g id="edge2" class="edge">
<title>Node1&#45;&gt;Node3</title>
<path fill="none" stroke="midnightblue" d="M66.05,-152.7C82.92,-147.81 103.84,-141.74 122.09,-136.45"/>
<polygon fill="midnightblue" stroke="midnightblue" points="123.29,-139.74 131.92,-133.6 121.34,-133.02 123.29,-139.74"/>
</g>
<!-- Node4 -->
<g id="node4" class="node">
<title>Node4</title>
<g id="a_node4"><a xlink:href="lexer_8c.html#a78c9ef2940e04bc9cd18a764bdb9e0a5" target="_top" xlink:title="Initializes an internal twin buffer and loads the active buffer with the first chunk of the file.">
<polygon fill="white" stroke="black" points="288.5,-152.5 288.5,-171.5 354.5,-171.5 354.5,-152.5 288.5,-152.5"/>
<text text-anchor="middle" x="321.5" y="-159.5" font-family="Helvetica,sans-Serif" font-size="10.00">buffer_init</text>
</a>
</g>
</g>
<!-- Node3&#45;&gt;Node4 -->
<g id="edge3" class="edge">
<title>Node3&#45;&gt;Node4</title>
<path fill="none" stroke="midnightblue" d="M230.32,-133.02C251.25,-137.91 273.55,-143.82 290.74,-149.16"/>
<polygon fill="midnightblue" stroke="midnightblue" points="290.13,-152.65 300.72,-152.4 292.29,-145.99 290.13,-152.65"/>
</g>
<!-- Node5 -->
<g id="node5" class="node">
<title>Node5</title>
<g id="a_node5"><a xlink:href="lexer_8c.html#ab8b57ff9976f6622383db94b907a00f3" target="_top" xlink:title=" ">
<polygon fill="white" stroke="black" points="281.5,-114.5 281.5,-133.5 361.5,-133.5 361.5,-114.5 281.5,-114.5"/>
<text text-anchor="middle" x="321.5" y="-121.5" font-family="Helvetica,sans-Serif" font-size="10.00">create_token</text>
</a>
</g>
</g>
<!-- Node3&#45;&gt;Node5 -->
<g id="edge6" class="edge">
<title>Node3&#45;&gt;Node5</title>
<path fill="none" stroke="midnightblue" d="M230.32,-124C244.01,-124 258.28,-124 271.32,-124"/>
<polygon fill="midnightblue" stroke="midnightblue" points="271.49,-127.5 281.49,-124 271.49,-120.5 271.49,-127.5"/>
</g>
<!-- Node6 -->
<g id="node6" class="node">
<title>Node6</title>
<g id="a_node6"><a xlink:href="symbol__table_8h.html#a838379e0d91707a08998e494fb420bf5" target="_top" xlink:title="Inserts a lexeme into the internal symbol table.">
<polygon fill="white" stroke="black" points="413,-104.5 413,-123.5 529,-123.5 529,-104.5 413,-104.5"/>
<text text-anchor="middle" x="471" y="-111.5" font-family="Helvetica,sans-Serif" font-size="10.00">symbol_table_insert</text>
</a>
</g>
</g>
<!-- Node3&#45;&gt;Node6 -->
<g id="edge14" class="edge">
<title>Node3&#45;&gt;Node6</title>
<path fill="none" stroke="midnightblue" d="M207.21,-114.49C225.1,-110.72 246.49,-106.86 266,-105 315.11,-100.33 327.72,-102.62 377,-105 385.27,-105.4 393.94,-106 402.51,-106.7"/>
<polygon fill="midnightblue" stroke="midnightblue" points="402.25,-110.19 412.52,-107.56 402.85,-103.21 402.25,-110.19"/>
</g>
<!-- Node11 -->
<g id="node11" class="node">
<title>Node11</title>
<g id="a_node11"><a xlink:href="lexer_8c.html#a960f17a4b92e6cce8b8edae91c728ead" target="_top" xlink:title=" ">
<polygon fill="white" stroke="black" points="266,-38.5 266,-57.5 377,-57.5 377,-38.5 266,-38.5"/>
<text text-anchor="middle" x="321.5" y="-45.5" font-family="Helvetica,sans-Serif" font-size="10.00">retract_and_update</text>
</a>
</g>
</g>
<!-- Node3&#45;&gt;Node11 -->
<g id="edge12" class="edge">
<title>Node3&#45;&gt;Node11</title>
<path fill="none" stroke="midnightblue" d="M184.34,-114.43C203.96,-103.71 236.97,-86 266,-72 273.11,-68.57 280.82,-65.06 288.15,-61.81"/>
<polygon fill="midnightblue" stroke="midnightblue" points="290.05,-64.8 297.8,-57.58 287.24,-58.39 290.05,-64.8"/>
</g>
<!-- Node12 -->
<g id="node12" class="node">
<title>Node12</title>
<g id="a_node12"><a xlink:href="lexer_8c.html#a6d0bc199864425dd309933a88f06bb51" target="_top" xlink:title=" ">
<polygon fill="white" stroke="black" points="283.5,-0.5 283.5,-19.5 359.5,-19.5 359.5,-0.5 283.5,-0.5"/>
<text text-anchor="middle" x="321.5" y="-7.5" font-family="Helvetica,sans-Serif" font-size="10.00">swap_buffer</text>
</a>
</g>
</g>
<!-- Node3&#45;&gt;Node12 -->
<g id="edge13" class="edge">
<title>Node3&#45;&gt;Node12</title>
<path fill="none" stroke="midnightblue" d="M174.68,-114.23C190.06,-95.26 226.61,-53.16 266,-29 269.22,-27.02 272.68,-25.22 276.23,-23.57"/>
<polygon fill="midnightblue" stroke="midnightblue" points="277.87,-26.68 285.75,-19.6 275.18,-20.22 277.87,-26.68"/>
</g>
<!-- Node4&#45;&gt;Node2 -->
<g id="edge4" class="edge">
<title>Node4&#45;&gt;Node2</title>
<path fill="none" stroke="midnightblue" d="M354.51,-163.95C372.48,-165.05 395.39,-166.45 416.06,-167.71"/>
<polygon fill="midnightblue" stroke="midnightblue" points="416.11,-171.22 426.31,-168.33 416.54,-164.23 416.11,-171.22"/>
</g>
<!-- Node4&#45;&gt;Node3 -->
<g id="edge5" class="edge">
<title>Node4&#45;&gt;Node3</title>
<path fill="none" stroke="midnightblue" d="M288.25,-159.63C261.17,-154.49 222.81,-144.94 196.53,-136.76"/>
<polygon fill="midnightblue" stroke="midnightblue" points="197.35,-133.35 186.75,-133.59 195.19,-140.01 197.35,-133.35"/>
</g>
<!-- Node5&#45;&gt;Node6 -->
<g id="edge7" class="edge">
<title>Node5&#45;&gt;Node6</title>
<path fill="none" stroke="midnightblue" d="M361.64,-121.35C374.28,-120.49 388.67,-119.51 402.74,-118.56"/>
<polygon fill="midnightblue" stroke="midnightblue" points="403.16,-122.04 412.9,-117.87 402.69,-115.06 403.16,-122.04"/>
</g>
<!-- Node7 -->
<g id="node7" class="node">
<title>Node7</title>
<g id="a_node7"><a xlink:href="symbol__table_8c.html#af00e4a3f1778752600e745a5f825e3ac" target="_top" xlink:title=" ">
<polygon fill="white" stroke="black" points="565,-104.5 565,-123.5 682,-123.5 682,-104.5 565,-104.5"/>
<text text-anchor="middle" x="623.5" y="-111.5" font-family="Helvetica,sans-Serif" font-size="10.00">symbol_table_resize</text>
</a>
</g>
</g>
<!-- Node6&#45;&gt;Node7 -->
<g id="edge8" class="edge">
<title>Node6&#45;&gt;Node7</title>
<path fill="none" stroke="midnightblue" d="M529.33,-114C537.59,-114 546.17,-114 554.62,-114"/>
<polygon fill="midnightblue" stroke="midnightblue" points="554.83,-117.5 564.83,-114 554.83,-110.5 554.83,-117.5"/>
</g>
<!-- Node8 -->
<g id="node8" class="node">
<title>Node8</title>
<g id="a_node8"><a xlink:href="symbol__table_8c.html#abd009617cc391aeb4c484a199286513e" target="_top" xlink:title=" ">
<polygon fill="white" stroke="black" points="740,-126.5 740,-145.5 812,-145.5 812,-126.5 740,-126.5"/>
<text text-anchor="middle" x="776" y="-133.5" font-family="Helvetica,sans-Serif" font-size="10.00">next_prime</text>
</a>
</g>
</g>
<!-- Node7&#45;&gt;Node8 -->
<g id="edge9" class="edge">
<title>Node7&#45;&gt;Node8</title>
<path fill="none" stroke="midnightblue" d="M682.26,-122.44C698.02,-124.75 714.86,-127.21 729.81,-129.39"/>
<polygon fill="midnightblue" stroke="midnightblue" points="729.42,-132.87 739.82,-130.86 730.43,-125.95 729.42,-132.87"/>
</g>
<!-- Node10 -->
<g id="node10" class="node">
<title>Node10</title>
<g id="a_node10"><a xlink:href="symbol__table_8c.html#a86044a0a95c64d3b677f00cba38ae8e1" target="_top" xlink:title=" ">
<polygon fill="white" stroke="black" points="718,-77 718,-107 834,-107 834,-77 718,-77"/>
<text text-anchor="start" x="726" y="-95" font-family="Helvetica,sans-Serif" font-size="10.00">symbol_table_insert</text>
<text text-anchor="middle" x="776" y="-84" font-family="Helvetica,sans-Serif" font-size="10.00">_entry</text>
</a>
</g>
</g>
<!-- Node7&#45;&gt;Node10 -->
<g id="edge11" class="edge">
<title>Node7&#45;&gt;Node10</title>
<path fill="none" stroke="midnightblue" d="M682.26,-105.56C690.6,-104.34 699.24,-103.07 707.75,-101.83"/>
<polygon fill="midnightblue" stroke="midnightblue" points="708.26,-105.29 717.65,-100.38 707.25,-98.37 708.26,-105.29"/>
</g>
<!-- Node9 -->
<g id="node9" class="node">
<title>Node9</title>
<g id="a_node9"><a xlink:href="symbol__table_8c.html#aa29f6b8604796044e39772a51c0f2c63" target="_top" xlink:title=" ">
<polygon fill="white" stroke="black" points="870,-126.5 870,-145.5 929,-145.5 929,-126.5 870,-126.5"/>
<text text-anchor="middle" x="899.5" y="-133.5" font-family="Helvetica,sans-Serif" font-size="10.00">is_prime</text>
</a>
</g>
</g>
<!-- Node8&#45;&gt;Node9 -->
<g id="edge10" class="edge">
<title>Node8&#45;&gt;Node9</title>
<path fill="none" stroke="midnightblue" d="M812.14,-136C827.06,-136 844.5,-136 859.79,-136"/>
<polygon fill="midnightblue" stroke="midnightblue" points="859.97,-139.5 869.97,-136 859.97,-132.5 859.97,-139.5"/>
</g>
</g>
</svg>
