<?xml version="1.0" encoding="UTF-8" standalone="no"?>
<!DOCTYPE svg PUBLIC "-//W3C//DTD SVG 1.1//EN"
 "http://www.w3.org/Graphics/SVG/1.1/DTD/svg11.dtd">
<!-- Generated by graphviz version 2.43.0 (0)
 -->
<!-- Title: buffer_cleanup Pages: 1 -->
<svg width="829pt" height="94pt"
 viewBox="0.00 0.00 829.00 94.00" xmlns="http://www.w3.org/2000/svg" xmlns:xlink="http://www.w3.org/1999/xlink">
<g id="graph0" class="graph" transform="scale(1 1) rotate(0) translate(4 90)">
<title>buffer_cleanup</title>
<polygon fill="white" stroke="transparent" points="-4,4 -4,-90 825,-90 825,4 -4,4"/>
<!-- Node1 -->
<g id="node1" class="node">
<title>Node1</title>
<g id="a_node1"><a xlink:title="Deallocates the twin buffer (automatically called at program termination).">
<polygon fill="#bfbfbf" stroke="black" points="732,-28.5 732,-47.5 821,-47.5 821,-28.5 732,-28.5"/>
<text text-anchor="middle" x="776.5" y="-35.5" font-family="Helvetica,sans-Serif" font-size="10.00">buffer_cleanup</text>
</a>
</g>
</g>
<!-- Node2 -->
<g id="node2" class="node">
<title>Node2</title>
<g id="a_node2"><a xlink:href="lexer_8c.html#a78c9ef2940e04bc9cd18a764bdb9e0a5" target="_top" xlink:title="Initializes an internal twin buffer and loads the active buffer with the first chunk of the file.">
<polygon fill="white" stroke="black" points="630,-28.5 630,-47.5 696,-47.5 696,-28.5 630,-28.5"/>
<text text-anchor="middle" x="663" y="-35.5" font-family="Helvetica,sans-Serif" font-size="10.00">buffer_init</text>
</a>
</g>
</g>
<!-- Node1&#45;&gt;Node2 -->
<g id="edge1" class="edge">
<title>Node1&#45;&gt;Node2</title>
<path fill="none" stroke="midnightblue" d="M721.64,-38C712.95,-38 704.21,-38 696.24,-38"/>
<polygon fill="midnightblue" stroke="midnightblue" points="721.75,-41.5 731.75,-38 721.75,-34.5 721.75,-41.5"/>
</g>
<!-- Node3 -->
<g id="node3" class="node">
<title>Node3</title>
<g id="a_node3"><a xlink:href="lexer_8c.html#a1ede1e9739c264c7e3af07630e5a68f3" target="_top" xlink:title=" ">
<polygon fill="white" stroke="black" points="466,-28.5 466,-47.5 594,-47.5 594,-28.5 466,-28.5"/>
<text text-anchor="middle" x="530" y="-35.5" font-family="Helvetica,sans-Serif" font-size="10.00">get_next_token_helper</text>
</a>
</g>
</g>
<!-- Node2&#45;&gt;Node3 -->
<g id="edge2" class="edge">
<title>Node2&#45;&gt;Node3</title>
<path fill="none" stroke="midnightblue" d="M619.91,-31.65C611.71,-31.36 602.94,-31.23 594.23,-31.25"/>
<polygon fill="midnightblue" stroke="midnightblue" points="619.81,-35.15 629.95,-32.1 620.12,-28.15 619.81,-35.15"/>
</g>
<!-- Node7 -->
<g id="node7" class="node">
<title>Node7</title>
<g id="a_node7"><a xlink:href="driver_8c.html#a0ddf1224851353fc92bfbff6f499fa97" target="_top" xlink:title=" ">
<polygon fill="white" stroke="black" points="0,-28.5 0,-47.5 41,-47.5 41,-28.5 0,-28.5"/>
<text text-anchor="middle" x="20.5" y="-35.5" font-family="Helvetica,sans-Serif" font-size="10.00">main</text>
</a>
</g>
</g>
<!-- Node2&#45;&gt;Node7 -->
<g id="edge9" class="edge">
<title>Node2&#45;&gt;Node7</title>
<path fill="none" stroke="midnightblue" d="M622.67,-25.71C613.35,-23.15 603.39,-20.72 594,-19 502.26,-2.16 478.27,0 385,0 385,0 385,0 242.5,0 167.17,0 79.45,-21.71 41.12,-32.31"/>
<polygon fill="midnightblue" stroke="midnightblue" points="621.91,-29.13 632.48,-28.49 623.82,-22.39 621.91,-29.13"/>
</g>
<!-- Node3&#45;&gt;Node2 -->
<g id="edge3" class="edge">
<title>Node3&#45;&gt;Node2</title>
<path fill="none" stroke="midnightblue" d="M604.38,-44.71C613.33,-44.61 622.08,-44.34 629.95,-43.9"/>
<polygon fill="midnightblue" stroke="midnightblue" points="604.22,-41.21 594.23,-44.75 604.24,-48.21 604.22,-41.21"/>
</g>
<!-- Node4 -->
<g id="node4" class="node">
<title>Node4</title>
<g id="a_node4"><a xlink:href="lexer_8c.html#a68b169dd0377b22e0729c7e7a9988262" target="_top" xlink:title="A wrapper function that fetches the next token from the file.">
<polygon fill="white" stroke="black" points="338,-28.5 338,-47.5 430,-47.5 430,-28.5 338,-28.5"/>
<text text-anchor="middle" x="384" y="-35.5" font-family="Helvetica,sans-Serif" font-size="10.00">get_next_token</text>
</a>
</g>
</g>
<!-- Node3&#45;&gt;Node4 -->
<g id="edge4" class="edge">
<title>Node3&#45;&gt;Node4</title>
<path fill="none" stroke="midnightblue" d="M455.72,-38C447.08,-38 438.46,-38 430.37,-38"/>
<polygon fill="midnightblue" stroke="midnightblue" points="455.84,-41.5 465.84,-38 455.84,-34.5 455.84,-41.5"/>
</g>
<!-- Node5 -->
<g id="node5" class="node">
<title>Node5</title>
<g id="a_node5"><a xlink:href="parser_8c.html#a385276c7e31aeff5ad9c22370300ced6" target="_top" xlink:title="Generates a parse tree for the given source code.">
<polygon fill="white" stroke="black" points="185,-66.5 185,-85.5 302,-85.5 302,-66.5 185,-66.5"/>
<text text-anchor="middle" x="243.5" y="-73.5" font-family="Helvetica,sans-Serif" font-size="10.00">generate_parse_tree</text>
</a>
</g>
</g>
<!-- Node4&#45;&gt;Node5 -->
<g id="edge5" class="edge">
<title>Node4&#45;&gt;Node5</title>
<path fill="none" stroke="midnightblue" d="M338.37,-50.25C319.28,-55.48 297.32,-61.51 279.44,-66.41"/>
<polygon fill="midnightblue" stroke="midnightblue" points="339.33,-53.61 348.05,-47.59 337.48,-46.86 339.33,-53.61"/>
</g>
<!-- Node4&#45;&gt;Node7 -->
<g id="edge8" class="edge">
<title>Node4&#45;&gt;Node7</title>
<path fill="none" stroke="midnightblue" d="M327.79,-38C245.58,-38 94.91,-38 41.18,-38"/>
<polygon fill="midnightblue" stroke="midnightblue" points="327.95,-41.5 337.95,-38 327.95,-34.5 327.95,-41.5"/>
</g>
<!-- Node6 -->
<g id="node6" class="node">
<title>Node6</title>
<g id="a_node6"><a xlink:href="parser_8c.html#a6c4b340ccd44133e7a3dabdd3015afac" target="_top" xlink:title="Parses the given code based on the specified grammar.">
<polygon fill="white" stroke="black" points="77,-66.5 77,-85.5 149,-85.5 149,-66.5 77,-66.5"/>
<text text-anchor="middle" x="113" y="-73.5" font-family="Helvetica,sans-Serif" font-size="10.00">parse_code</text>
</a>
</g>
</g>
<!-- Node5&#45;&gt;Node6 -->
<g id="edge6" class="edge">
<title>Node5&#45;&gt;Node6</title>
<path fill="none" stroke="midnightblue" d="M174.38,-76C165.64,-76 157,-76 149.1,-76"/>
<polygon fill="midnightblue" stroke="midnightblue" points="174.64,-79.5 184.64,-76 174.64,-72.5 174.64,-79.5"/>
</g>
<!-- Node6&#45;&gt;Node7 -->
<g id="edge7" class="edge">
<title>Node6&#45;&gt;Node7</title>
<path fill="none" stroke="midnightblue" d="M79.71,-62.44C66.87,-57.05 52.5,-51.02 41.26,-46.3"/>
<polygon fill="midnightblue" stroke="midnightblue" points="78.59,-65.77 89.16,-66.41 81.3,-59.31 78.59,-65.77"/>
</g>
</g>
</svg>
