<?xml version="1.0" encoding="UTF-8" standalone="no"?>
<!DOCTYPE svg PUBLIC "-//W3C//DTD SVG 1.1//EN"
 "http://www.w3.org/Graphics/SVG/1.1/DTD/svg11.dtd">
<!-- Generated by graphviz version 2.43.0 (0)
 -->
<!-- Title: include/parserDef.h Pages: 1 -->
<svg width="354pt" height="196pt"
 viewBox="0.00 0.00 354.00 196.00" xmlns="http://www.w3.org/2000/svg" xmlns:xlink="http://www.w3.org/1999/xlink">
<g id="graph0" class="graph" transform="scale(1 1) rotate(0) translate(4 192)">
<title>include/parserDef.h</title>
<polygon fill="white" stroke="transparent" points="-4,4 -4,-192 350,-192 350,4 -4,4"/>
<!-- Node1 -->
<g id="node1" class="node">
<title>Node1</title>
<g id="a_node1"><a xlink:title=" ">
<polygon fill="#bfbfbf" stroke="black" points="129.5,-168.5 129.5,-187.5 240.5,-187.5 240.5,-168.5 129.5,-168.5"/>
<text text-anchor="middle" x="185" y="-175.5" font-family="Helvetica,sans-Serif" font-size="10.00">include/parserDef.h</text>
</a>
</g>
</g>
<!-- Node2 -->
<g id="node2" class="node">
<title>Node2</title>
<g id="a_node2"><a xlink:href="hash__map_8h.html" target="_top" xlink:title=" ">
<polygon fill="white" stroke="black" points="43,-112.5 43,-131.5 157,-131.5 157,-112.5 43,-112.5"/>
<text text-anchor="middle" x="100" y="-119.5" font-family="Helvetica,sans-Serif" font-size="10.00">include/hash_map.h</text>
</a>
</g>
</g>
<!-- Node1&#45;&gt;Node2 -->
<g id="edge1" class="edge">
<title>Node1&#45;&gt;Node2</title>
<path fill="none" stroke="midnightblue" d="M162.81,-162.9C147.22,-153 126.87,-140.07 113.62,-131.65"/>
<polygon fill="midnightblue" stroke="midnightblue" points="161.03,-165.92 171.34,-168.32 164.78,-160.01 161.03,-165.92"/>
</g>
<!-- Node4 -->
<g id="node4" class="node">
<title>Node4</title>
<g id="a_node4"><a xlink:href="parser_8h.html" target="_top" xlink:title=" ">
<polygon fill="white" stroke="black" points="138,-56.5 138,-75.5 232,-75.5 232,-56.5 138,-56.5"/>
<text text-anchor="middle" x="185" y="-63.5" font-family="Helvetica,sans-Serif" font-size="10.00">include/parser.h</text>
</a>
</g>
</g>
<!-- Node1&#45;&gt;Node4 -->
<g id="edge6" class="edge">
<title>Node1&#45;&gt;Node4</title>
<path fill="none" stroke="midnightblue" d="M185,-158.35C185,-134.25 185,-93.31 185,-75.59"/>
<polygon fill="midnightblue" stroke="midnightblue" points="181.5,-158.37 185,-168.37 188.5,-158.37 181.5,-158.37"/>
</g>
<!-- Node7 -->
<g id="node7" class="node">
<title>Node7</title>
<g id="a_node7"><a xlink:href="stack_8h.html" target="_top" xlink:title=" ">
<polygon fill="white" stroke="black" points="213,-112.5 213,-131.5 303,-131.5 303,-112.5 213,-112.5"/>
<text text-anchor="middle" x="258" y="-119.5" font-family="Helvetica,sans-Serif" font-size="10.00">include/stack.h</text>
</a>
</g>
</g>
<!-- Node1&#45;&gt;Node7 -->
<g id="edge7" class="edge">
<title>Node1&#45;&gt;Node7</title>
<path fill="none" stroke="midnightblue" d="M205.14,-162.1C218.28,-152.38 234.98,-140.03 246.06,-131.83"/>
<polygon fill="midnightblue" stroke="midnightblue" points="202.69,-159.56 196.73,-168.32 206.85,-165.19 202.69,-159.56"/>
</g>
<!-- Node3 -->
<g id="node3" class="node">
<title>Node3</title>
<g id="a_node3"><a xlink:href="hash__map_8c.html" target="_top" xlink:title=" ">
<polygon fill="white" stroke="black" points="0,-56.5 0,-75.5 120,-75.5 120,-56.5 0,-56.5"/>
<text text-anchor="middle" x="60" y="-63.5" font-family="Helvetica,sans-Serif" font-size="10.00">src/main/hash_map.c</text>
</a>
</g>
</g>
<!-- Node2&#45;&gt;Node3 -->
<g id="edge2" class="edge">
<title>Node2&#45;&gt;Node3</title>
<path fill="none" stroke="midnightblue" d="M87.3,-103.86C80.37,-94.5 72.09,-83.33 66.48,-75.75"/>
<polygon fill="midnightblue" stroke="midnightblue" points="84.63,-106.13 93.39,-112.08 90.25,-101.96 84.63,-106.13"/>
</g>
<!-- Node2&#45;&gt;Node4 -->
<g id="edge3" class="edge">
<title>Node2&#45;&gt;Node4</title>
<path fill="none" stroke="midnightblue" d="M122.19,-106.9C137.78,-97 158.13,-84.07 171.38,-75.65"/>
<polygon fill="midnightblue" stroke="midnightblue" points="120.22,-104.01 113.66,-112.32 123.97,-109.92 120.22,-104.01"/>
</g>
<!-- Node5 -->
<g id="node5" class="node">
<title>Node5</title>
<g id="a_node5"><a xlink:href="driver_8c.html" target="_top" xlink:title=" ">
<polygon fill="white" stroke="black" points="77,-0.5 77,-19.5 175,-19.5 175,-0.5 77,-0.5"/>
<text text-anchor="middle" x="126" y="-7.5" font-family="Helvetica,sans-Serif" font-size="10.00">src/main/driver.c</text>
</a>
</g>
</g>
<!-- Node4&#45;&gt;Node5 -->
<g id="edge4" class="edge">
<title>Node4&#45;&gt;Node5</title>
<path fill="none" stroke="midnightblue" d="M168.11,-49.54C157.59,-39.91 144.43,-27.87 135.65,-19.83"/>
<polygon fill="midnightblue" stroke="midnightblue" points="165.78,-52.15 175.52,-56.32 170.51,-46.99 165.78,-52.15"/>
</g>
<!-- Node6 -->
<g id="node6" class="node">
<title>Node6</title>
<g id="a_node6"><a xlink:href="parser_8c.html" target="_top" xlink:title=" ">
<polygon fill="white" stroke="black" points="193,-0.5 193,-19.5 293,-19.5 293,-0.5 193,-0.5"/>
<text text-anchor="middle" x="243" y="-7.5" font-family="Helvetica,sans-Serif" font-size="10.00">src/main/parser.c</text>
</a>
</g>
</g>
<!-- Node4&#45;&gt;Node6 -->
<g id="edge5" class="edge">
<title>Node4&#45;&gt;Node6</title>
<path fill="none" stroke="midnightblue" d="M201.91,-49.25C212.2,-39.67 224.97,-27.79 233.51,-19.83"/>
<polygon fill="midnightblue" stroke="midnightblue" points="199.25,-46.95 194.32,-56.32 204.02,-52.07 199.25,-46.95"/>
</g>
<!-- Node7&#45;&gt;Node4 -->
<g id="edge9" class="edge">
<title>Node7&#45;&gt;Node4</title>
<path fill="none" stroke="midnightblue" d="M237.86,-106.1C224.72,-96.38 208.02,-84.03 196.94,-75.83"/>
<polygon fill="midnightblue" stroke="midnightblue" points="236.15,-109.19 246.27,-112.32 240.31,-103.56 236.15,-109.19"/>
</g>
<!-- Node8 -->
<g id="node8" class="node">
<title>Node8</title>
<g id="a_node8"><a xlink:href="stack_8c.html" target="_top" xlink:title=" ">
<polygon fill="white" stroke="black" points="250,-56.5 250,-75.5 346,-75.5 346,-56.5 250,-56.5"/>
<text text-anchor="middle" x="298" y="-63.5" font-family="Helvetica,sans-Serif" font-size="10.00">src/main/stack.c</text>
</a>
</g>
</g>
<!-- Node7&#45;&gt;Node8 -->
<g id="edge8" class="edge">
<title>Node7&#45;&gt;Node8</title>
<path fill="none" stroke="midnightblue" d="M270.7,-103.86C277.63,-94.5 285.91,-83.33 291.52,-75.75"/>
<polygon fill="midnightblue" stroke="midnightblue" points="267.75,-101.96 264.61,-112.08 273.37,-106.13 267.75,-101.96"/>
</g>
</g>
</svg>
