<?xml version="1.0" encoding="UTF-8" standalone="no"?>
<!DOCTYPE svg PUBLIC "-//W3C//DTD SVG 1.1//EN"
 "http://www.w3.org/Graphics/SVG/1.1/DTD/svg11.dtd">
<!-- Generated by graphviz version 2.43.0 (0)
 -->
<!-- Title: print_parse_map Pages: 1 -->
<svg width="252pt" height="104pt"
 viewBox="0.00 0.00 252.00 104.00" xmlns="http://www.w3.org/2000/svg" xmlns:xlink="http://www.w3.org/1999/xlink">
<g id="graph0" class="graph" transform="scale(1 1) rotate(0) translate(4 100)">
<title>print_parse_map</title>
<polygon fill="white" stroke="transparent" points="-4,4 -4,-100 248,-100 248,4 -4,4"/>
<!-- Node1 -->
<g id="node1" class="node">
<title>Node1</title>
<g id="a_node1"><a xlink:title="Prints the parsing table.">
<polygon fill="#bfbfbf" stroke="black" points="0,-38.5 0,-57.5 98,-57.5 98,-38.5 0,-38.5"/>
<text text-anchor="middle" x="49" y="-45.5" font-family="Helvetica,sans-Serif" font-size="10.00">print_parse_map</text>
</a>
</g>
</g>
<!-- Node2 -->
<g id="node2" class="node">
<title>Node2</title>
<g id="a_node2"><a xlink:href="hash__map_8c.html#ace1e626381c749513ff589ea45382892" target="_top" xlink:title="Returns the total number of hash collisions encountered so far.">
<polygon fill="white" stroke="black" points="134,-76.5 134,-95.5 244,-95.5 244,-76.5 134,-76.5"/>
<text text-anchor="middle" x="189" y="-83.5" font-family="Helvetica,sans-Serif" font-size="10.00">get_collision_count</text>
</a>
</g>
</g>
<!-- Node1&#45;&gt;Node2 -->
<g id="edge1" class="edge">
<title>Node1&#45;&gt;Node2</title>
<path fill="none" stroke="midnightblue" d="M84.82,-57.59C102.64,-62.49 124.52,-68.52 143.54,-73.76"/>
<polygon fill="midnightblue" stroke="midnightblue" points="142.62,-77.13 153.19,-76.41 144.48,-70.38 142.62,-77.13"/>
</g>
<!-- Node3 -->
<g id="node3" class="node">
<title>Node3</title>
<g id="a_node3"><a xlink:href="hash__map_8c.html#aa4630dffff2a5ef840da3cfd9572b79f" target="_top" xlink:title="Retrieves the production rule associated with a given key from the internal hash table.">
<polygon fill="white" stroke="black" points="155,-38.5 155,-57.5 223,-57.5 223,-38.5 155,-38.5"/>
<text text-anchor="middle" x="189" y="-45.5" font-family="Helvetica,sans-Serif" font-size="10.00">map_fetch</text>
</a>
</g>
</g>
<!-- Node1&#45;&gt;Node3 -->
<g id="edge2" class="edge">
<title>Node1&#45;&gt;Node3</title>
<path fill="none" stroke="midnightblue" d="M98.27,-48C113.28,-48 129.73,-48 144.4,-48"/>
<polygon fill="midnightblue" stroke="midnightblue" points="144.73,-51.5 154.73,-48 144.73,-44.5 144.73,-51.5"/>
</g>
<!-- Node4 -->
<g id="node4" class="node">
<title>Node4</title>
<g id="a_node4"><a xlink:href="lexer_8c.html#aee1807f4e95bea666b6c994915907414" target="_top" xlink:title="Retrieves a string representation of a token type (for printing purposes).">
<polygon fill="white" stroke="black" points="143,-0.5 143,-19.5 235,-19.5 235,-0.5 143,-0.5"/>
<text text-anchor="middle" x="189" y="-7.5" font-family="Helvetica,sans-Serif" font-size="10.00">token_to_string</text>
</a>
</g>
</g>
<!-- Node1&#45;&gt;Node4 -->
<g id="edge3" class="edge">
<title>Node1&#45;&gt;Node4</title>
<path fill="none" stroke="midnightblue" d="M84.82,-38.41C102.64,-33.51 124.52,-27.48 143.54,-22.24"/>
<polygon fill="midnightblue" stroke="midnightblue" points="144.48,-25.62 153.19,-19.59 142.62,-18.87 144.48,-25.62"/>
</g>
</g>
</svg>
