<?xml version="1.0" encoding="UTF-8" standalone="no"?>
<!DOCTYPE svg PUBLIC "-//W3C//DTD SVG 1.1//EN"
 "http://www.w3.org/Graphics/SVG/1.1/DTD/svg11.dtd">
<!-- Generated by graphviz version 2.43.0 (0)
 -->
<!-- Title: first_and_follow_cleanup Pages: 1 -->
<svg width="330pt" height="28pt"
 viewBox="0.00 0.00 330.00 28.00" xmlns="http://www.w3.org/2000/svg" xmlns:xlink="http://www.w3.org/1999/xlink">
<g id="graph0" class="graph" transform="scale(1 1) rotate(0) translate(4 24)">
<title>first_and_follow_cleanup</title>
<polygon fill="white" stroke="transparent" points="-4,4 -4,-24 326,-24 326,4 -4,4"/>
<!-- Node1 -->
<g id="node1" class="node">
<title>Node1</title>
<g id="a_node1"><a xlink:title="Deallocates memory associated with all non&#45;terminals, their first and follow sets,...">
<polygon fill="#bfbfbf" stroke="black" points="185,-0.5 185,-19.5 322,-19.5 322,-0.5 185,-0.5"/>
<text text-anchor="middle" x="253.5" y="-7.5" font-family="Helvetica,sans-Serif" font-size="10.00">first_and_follow_cleanup</text>
</a>
</g>
</g>
<!-- Node2 -->
<g id="node2" class="node">
<title>Node2</title>
<g id="a_node2"><a xlink:href="parser_8h.html#af8e858bd867bc61808a62e29963b3497" target="_top" xlink:title="Parses the given code based on the specified grammar.">
<polygon fill="white" stroke="black" points="77,-0.5 77,-19.5 149,-19.5 149,-0.5 77,-0.5"/>
<text text-anchor="middle" x="113" y="-7.5" font-family="Helvetica,sans-Serif" font-size="10.00">parse_code</text>
</a>
</g>
</g>
<!-- Node1&#45;&gt;Node2 -->
<g id="edge1" class="edge">
<title>Node1&#45;&gt;Node2</title>
<path fill="none" stroke="midnightblue" d="M174.75,-10C165.83,-10 157.1,-10 149.16,-10"/>
<polygon fill="midnightblue" stroke="midnightblue" points="174.87,-13.5 184.87,-10 174.87,-6.5 174.87,-13.5"/>
</g>
<!-- Node3 -->
<g id="node3" class="node">
<title>Node3</title>
<g id="a_node3"><a xlink:href="driver_8c.html#a0ddf1224851353fc92bfbff6f499fa97" target="_top" xlink:title=" ">
<polygon fill="white" stroke="black" points="0,-0.5 0,-19.5 41,-19.5 41,-0.5 0,-0.5"/>
<text text-anchor="middle" x="20.5" y="-7.5" font-family="Helvetica,sans-Serif" font-size="10.00">main</text>
</a>
</g>
</g>
<!-- Node2&#45;&gt;Node3 -->
<g id="edge2" class="edge">
<title>Node2&#45;&gt;Node3</title>
<path fill="none" stroke="midnightblue" d="M66.67,-10C57.67,-10 48.68,-10 41.11,-10"/>
<polygon fill="midnightblue" stroke="midnightblue" points="66.75,-13.5 76.75,-10 66.75,-6.5 66.75,-13.5"/>
</g>
</g>
</svg>
