<?xml version="1.0" encoding="UTF-8" standalone="no"?>
<!DOCTYPE svg PUBLIC "-//W3C//DTD SVG 1.1//EN"
 "http://www.w3.org/Graphics/SVG/1.1/DTD/svg11.dtd">
<!-- Generated by graphviz version 2.43.0 (0)
 -->
<!-- Title: compute_first_of_sequence Pages: 1 -->
<svg width="498pt" height="66pt"
 viewBox="0.00 0.00 498.00 66.00" xmlns="http://www.w3.org/2000/svg" xmlns:xlink="http://www.w3.org/1999/xlink">
<g id="graph0" class="graph" transform="scale(1 1) rotate(0) translate(4 62)">
<title>compute_first_of_sequence</title>
<polygon fill="white" stroke="transparent" points="-4,4 -4,-62 494,-62 494,4 -4,4"/>
<!-- Node1 -->
<g id="node1" class="node">
<title>Node1</title>
<g id="a_node1"><a xlink:title="Computes the first set of a sequence of symbols (terminals and non&#45;terminals).">
<polygon fill="#bfbfbf" stroke="black" points="340,-19.5 340,-38.5 490,-38.5 490,-19.5 340,-19.5"/>
<text text-anchor="middle" x="415" y="-26.5" font-family="Helvetica,sans-Serif" font-size="10.00">compute_first_of_sequence</text>
</a>
</g>
</g>
<!-- Node2 -->
<g id="node2" class="node">
<title>Node2</title>
<g id="a_node2"><a xlink:href="parser_8c.html#a1fe10306eb61573f8a6929b0987802d0" target="_top" xlink:title="Computes the Follow set of a given non&#45;terminal.">
<polygon fill="white" stroke="black" points="187,-38.5 187,-57.5 302,-57.5 302,-38.5 187,-38.5"/>
<text text-anchor="middle" x="244.5" y="-45.5" font-family="Helvetica,sans-Serif" font-size="10.00">compute_follow_set</text>
</a>
</g>
</g>
<!-- Node1&#45;&gt;Node2 -->
<g id="edge1" class="edge">
<title>Node1&#45;&gt;Node2</title>
<path fill="none" stroke="midnightblue" d="M329.52,-38.53C320.2,-39.58 310.89,-40.63 302.04,-41.62"/>
<polygon fill="midnightblue" stroke="midnightblue" points="330.06,-41.99 339.6,-37.39 329.27,-35.03 330.06,-41.99"/>
</g>
<!-- Node5 -->
<g id="node5" class="node">
<title>Node5</title>
<g id="a_node5"><a xlink:href="parser_8c.html#a2ae8d13411ecb85d283dbcd2045c2bd6" target="_top" xlink:title="Generates the parsing table for the given grammar using a hash map.">
<polygon fill="white" stroke="black" points="185,-0.5 185,-19.5 304,-19.5 304,-0.5 185,-0.5"/>
<text text-anchor="middle" x="244.5" y="-7.5" font-family="Helvetica,sans-Serif" font-size="10.00">generate_parse_map</text>
</a>
</g>
</g>
<!-- Node1&#45;&gt;Node5 -->
<g id="edge4" class="edge">
<title>Node1&#45;&gt;Node5</title>
<path fill="none" stroke="midnightblue" d="M329.52,-19.47C320.91,-18.5 312.31,-17.53 304.07,-16.6"/>
<polygon fill="midnightblue" stroke="midnightblue" points="329.27,-22.97 339.6,-20.61 330.06,-16.01 329.27,-22.97"/>
</g>
<!-- Node3 -->
<g id="node3" class="node">
<title>Node3</title>
<g id="a_node3"><a xlink:href="parser_8h.html#af8e858bd867bc61808a62e29963b3497" target="_top" xlink:title="Parses the given code based on the specified grammar.">
<polygon fill="white" stroke="black" points="77,-19.5 77,-38.5 149,-38.5 149,-19.5 77,-19.5"/>
<text text-anchor="middle" x="113" y="-26.5" font-family="Helvetica,sans-Serif" font-size="10.00">parse_code</text>
</a>
</g>
</g>
<!-- Node2&#45;&gt;Node3 -->
<g id="edge2" class="edge">
<title>Node2&#45;&gt;Node3</title>
<path fill="none" stroke="midnightblue" d="M176.77,-38.21C167.23,-36.81 157.74,-35.42 149.14,-34.16"/>
<polygon fill="midnightblue" stroke="midnightblue" points="176.3,-41.68 186.7,-39.67 177.31,-34.75 176.3,-41.68"/>
</g>
<!-- Node4 -->
<g id="node4" class="node">
<title>Node4</title>
<g id="a_node4"><a xlink:href="driver_8c.html#a0ddf1224851353fc92bfbff6f499fa97" target="_top" xlink:title=" ">
<polygon fill="white" stroke="black" points="0,-19.5 0,-38.5 41,-38.5 41,-19.5 0,-19.5"/>
<text text-anchor="middle" x="20.5" y="-26.5" font-family="Helvetica,sans-Serif" font-size="10.00">main</text>
</a>
</g>
</g>
<!-- Node3&#45;&gt;Node4 -->
<g id="edge3" class="edge">
<title>Node3&#45;&gt;Node4</title>
<path fill="none" stroke="midnightblue" d="M66.67,-29C57.67,-29 48.68,-29 41.11,-29"/>
<polygon fill="midnightblue" stroke="midnightblue" points="66.75,-32.5 76.75,-29 66.75,-25.5 66.75,-32.5"/>
</g>
<!-- Node5&#45;&gt;Node3 -->
<g id="edge5" class="edge">
<title>Node5&#45;&gt;Node3</title>
<path fill="none" stroke="midnightblue" d="M174.79,-20.08C165.92,-21.38 157.15,-22.67 149.15,-23.84"/>
<polygon fill="midnightblue" stroke="midnightblue" points="175.43,-23.53 184.81,-18.61 174.41,-16.6 175.43,-23.53"/>
</g>
</g>
</svg>
