<?xml version="1.0" encoding="UTF-8" standalone="no"?>
<!DOCTYPE svg PUBLIC "-//W3C//DTD SVG 1.1//EN"
 "http://www.w3.org/Graphics/SVG/1.1/DTD/svg11.dtd">
<!-- Generated by graphviz version 2.43.0 (0)
 -->
<!-- Title: generate_parse_tree Pages: 1 -->
<svg width="1172pt" height="408pt"
 viewBox="0.00 0.00 1172.00 408.00" xmlns="http://www.w3.org/2000/svg" xmlns:xlink="http://www.w3.org/1999/xlink">
<g id="graph0" class="graph" transform="scale(1 1) rotate(0) translate(4 404)">
<title>generate_parse_tree</title>
<polygon fill="white" stroke="transparent" points="-4,4 -4,-404 1168,-404 1168,4 -4,4"/>
<!-- Node1 -->
<g id="node1" class="node">
<title>Node1</title>
<g id="a_node1"><a xlink:title="Generates a parse tree for the given source code.">
<polygon fill="#bfbfbf" stroke="black" points="0,-190.5 0,-209.5 117,-209.5 117,-190.5 0,-190.5"/>
<text text-anchor="middle" x="58.5" y="-197.5" font-family="Helvetica,sans-Serif" font-size="10.00">generate_parse_tree</text>
</a>
</g>
</g>
<!-- Node2 -->
<g id="node2" class="node">
<title>Node2</title>
<g id="a_node2"><a xlink:href="parser_8c.html#ad327f860dea11c0c1e3338a030858e0d" target="_top" xlink:title="Creates a new parse tree node corresponding to a given non&#45;terminal.">
<polygon fill="white" stroke="black" points="153,-380.5 153,-399.5 301,-399.5 301,-380.5 153,-380.5"/>
<text text-anchor="middle" x="227" y="-387.5" font-family="Helvetica,sans-Serif" font-size="10.00">create_tree_node_nonterm</text>
</a>
</g>
</g>
<!-- Node1&#45;&gt;Node2 -->
<g id="edge1" class="edge">
<title>Node1&#45;&gt;Node2</title>
<path fill="none" stroke="midnightblue" d="M61.82,-209.51C69.44,-238.56 96.44,-326.88 153,-371 155.32,-372.81 157.8,-374.45 160.39,-375.94"/>
<polygon fill="midnightblue" stroke="midnightblue" points="159.03,-379.17 169.55,-380.41 162.1,-372.88 159.03,-379.17"/>
</g>
<!-- Node3 -->
<g id="node3" class="node">
<title>Node3</title>
<g id="a_node3"><a xlink:href="parser_8c.html#a3bdbe5934ffe1853ff744dfef15843d8" target="_top" xlink:title="Creates a new parse tree node corresponding to a given terminal.">
<polygon fill="white" stroke="black" points="162,-342.5 162,-361.5 292,-361.5 292,-342.5 162,-342.5"/>
<text text-anchor="middle" x="227" y="-349.5" font-family="Helvetica,sans-Serif" font-size="10.00">create_tree_node_term</text>
</a>
</g>
</g>
<!-- Node1&#45;&gt;Node3 -->
<g id="edge2" class="edge">
<title>Node1&#45;&gt;Node3</title>
<path fill="none" stroke="midnightblue" d="M63.49,-209.81C74.1,-234.58 105.45,-300.03 153,-333 155.89,-335 158.97,-336.79 162.17,-338.39"/>
<polygon fill="midnightblue" stroke="midnightblue" points="160.91,-341.66 171.47,-342.43 163.69,-335.24 160.91,-341.66"/>
</g>
<!-- Node4 -->
<g id="node4" class="node">
<title>Node4</title>
<g id="a_node4"><a xlink:href="lexer_8c.html#a68b169dd0377b22e0729c7e7a9988262" target="_top" xlink:title="A wrapper function that fetches the next token from the file.">
<polygon fill="white" stroke="black" points="181,-304.5 181,-323.5 273,-323.5 273,-304.5 181,-304.5"/>
<text text-anchor="middle" x="227" y="-311.5" font-family="Helvetica,sans-Serif" font-size="10.00">get_next_token</text>
</a>
</g>
</g>
<!-- Node1&#45;&gt;Node4 -->
<g id="edge3" class="edge">
<title>Node1&#45;&gt;Node4</title>
<path fill="none" stroke="midnightblue" d="M66.24,-209.77C80.13,-229.12 113.93,-272.42 153,-295 158.58,-298.22 164.71,-300.91 170.98,-303.15"/>
<polygon fill="midnightblue" stroke="midnightblue" points="170.29,-306.6 180.88,-306.31 172.42,-299.93 170.29,-306.6"/>
</g>
<!-- Node16 -->
<g id="node16" class="node">
<title>Node16</title>
<g id="a_node16"><a xlink:href="hash__map_8c.html#aa4630dffff2a5ef840da3cfd9572b79f" target="_top" xlink:title="Retrieves the production rule associated with a given key from the internal hash table.">
<polygon fill="white" stroke="black" points="193,-266.5 193,-285.5 261,-285.5 261,-266.5 193,-266.5"/>
<text text-anchor="middle" x="227" y="-273.5" font-family="Helvetica,sans-Serif" font-size="10.00">map_fetch</text>
</a>
</g>
</g>
<!-- Node1&#45;&gt;Node16 -->
<g id="edge17" class="edge">
<title>Node1&#45;&gt;Node16</title>
<path fill="none" stroke="midnightblue" d="M72.46,-209.61C89.92,-222.15 122.37,-244.01 153,-257 162.49,-261.03 173.06,-264.37 183.13,-267.08"/>
<polygon fill="midnightblue" stroke="midnightblue" points="182.43,-270.51 192.98,-269.57 184.14,-263.72 182.43,-270.51"/>
</g>
<!-- Node17 -->
<g id="node17" class="node">
<title>Node17</title>
<g id="a_node17"><a xlink:href="stack_8c.html#a0401a54893bb4a3c36be29b4f4d2a673" target="_top" xlink:title="Deallocates all memory associated with the stack.">
<polygon fill="white" stroke="black" points="184,-228.5 184,-247.5 270,-247.5 270,-228.5 184,-228.5"/>
<text text-anchor="middle" x="227" y="-235.5" font-family="Helvetica,sans-Serif" font-size="10.00">stack_cleanup</text>
</a>
</g>
</g>
<!-- Node1&#45;&gt;Node17 -->
<g id="edge18" class="edge">
<title>Node1&#45;&gt;Node17</title>
<path fill="none" stroke="midnightblue" d="M101.51,-209.59C123.68,-214.65 151.07,-220.9 174.51,-226.25"/>
<polygon fill="midnightblue" stroke="midnightblue" points="173.76,-229.67 184.29,-228.48 175.32,-222.84 173.76,-229.67"/>
</g>
<!-- Node18 -->
<g id="node18" class="node">
<title>Node18</title>
<g id="a_node18"><a xlink:href="stack_8c.html#a12f8e38a7f5d0af1137cc4fff111ef3c" target="_top" xlink:title="Initializes a stack.">
<polygon fill="white" stroke="black" points="187.5,-190.5 187.5,-209.5 266.5,-209.5 266.5,-190.5 187.5,-190.5"/>
<text text-anchor="middle" x="227" y="-197.5" font-family="Helvetica,sans-Serif" font-size="10.00">stack_create</text>
</a>
</g>
</g>
<!-- Node1&#45;&gt;Node18 -->
<g id="edge19" class="edge">
<title>Node1&#45;&gt;Node18</title>
<path fill="none" stroke="midnightblue" d="M117.27,-200C136.84,-200 158.5,-200 177.29,-200"/>
<polygon fill="midnightblue" stroke="midnightblue" points="177.41,-203.5 187.41,-200 177.41,-196.5 177.41,-203.5"/>
</g>
<!-- Node19 -->
<g id="node19" class="node">
<title>Node19</title>
<g id="a_node19"><a xlink:href="stack_8c.html#a4bf088087d46031158e6bdd2a93695f9" target="_top" xlink:title="Determines if the stack is empty.">
<polygon fill="white" stroke="black" points="361,-114.5 361,-133.5 441,-133.5 441,-114.5 361,-114.5"/>
<text text-anchor="middle" x="401" y="-121.5" font-family="Helvetica,sans-Serif" font-size="10.00">stack_empty</text>
</a>
</g>
</g>
<!-- Node1&#45;&gt;Node19 -->
<g id="edge20" class="edge">
<title>Node1&#45;&gt;Node19</title>
<path fill="none" stroke="midnightblue" d="M102.28,-190.45C165.65,-176.31 284.15,-149.86 350.95,-134.95"/>
<polygon fill="midnightblue" stroke="midnightblue" points="351.82,-138.34 360.82,-132.75 350.29,-131.51 351.82,-138.34"/>
</g>
<!-- Node20 -->
<g id="node20" class="node">
<title>Node20</title>
<g id="a_node20"><a xlink:href="stack_8c.html#a6ee1c21725f3cd3803d491e0dcd1ecb8" target="_top" xlink:title="Removes and returns the topmost node from the stack.">
<polygon fill="white" stroke="black" points="194,-114.5 194,-133.5 260,-133.5 260,-114.5 194,-114.5"/>
<text text-anchor="middle" x="227" y="-121.5" font-family="Helvetica,sans-Serif" font-size="10.00">stack_pop</text>
</a>
</g>
</g>
<!-- Node1&#45;&gt;Node20 -->
<g id="edge21" class="edge">
<title>Node1&#45;&gt;Node20</title>
<path fill="none" stroke="midnightblue" d="M74.59,-190.43C92.71,-179.22 124.24,-160.59 153,-148 162.91,-143.66 173.87,-139.66 184.21,-136.23"/>
<polygon fill="midnightblue" stroke="midnightblue" points="185.44,-139.51 193.89,-133.11 183.3,-132.84 185.44,-139.51"/>
</g>
<!-- Node21 -->
<g id="node21" class="node">
<title>Node21</title>
<g id="a_node21"><a xlink:href="stack_8c.html#ac96c2f73b6cf10cdf5189330c7b02be8" target="_top" xlink:title="Adds a node to the top of the stack.">
<polygon fill="white" stroke="black" points="191.5,-76.5 191.5,-95.5 262.5,-95.5 262.5,-76.5 191.5,-76.5"/>
<text text-anchor="middle" x="227" y="-83.5" font-family="Helvetica,sans-Serif" font-size="10.00">stack_push</text>
</a>
</g>
</g>
<!-- Node1&#45;&gt;Node21 -->
<g id="edge23" class="edge">
<title>Node1&#45;&gt;Node21</title>
<path fill="none" stroke="midnightblue" d="M66.24,-190.23C80.13,-170.88 113.93,-127.58 153,-105 161.76,-99.94 171.88,-96.2 181.74,-93.45"/>
<polygon fill="midnightblue" stroke="midnightblue" points="182.61,-96.84 191.46,-91.02 180.91,-90.05 182.61,-96.84"/>
</g>
<!-- Node22 -->
<g id="node22" class="node">
<title>Node22</title>
<g id="a_node22"><a xlink:href="stack_8c.html#af0faaa6f406636514cacd26f54be0a19" target="_top" xlink:title="Returns the topmost node from the stack without removing it.">
<polygon fill="white" stroke="black" points="195,-38.5 195,-57.5 259,-57.5 259,-38.5 195,-38.5"/>
<text text-anchor="middle" x="227" y="-45.5" font-family="Helvetica,sans-Serif" font-size="10.00">stack_top</text>
</a>
</g>
</g>
<!-- Node1&#45;&gt;Node22 -->
<g id="edge24" class="edge">
<title>Node1&#45;&gt;Node22</title>
<path fill="none" stroke="midnightblue" d="M63.49,-190.19C74.1,-165.42 105.45,-99.97 153,-67 162.39,-60.49 173.87,-56.21 184.91,-53.39"/>
<polygon fill="midnightblue" stroke="midnightblue" points="185.85,-56.77 194.86,-51.2 184.34,-49.93 185.85,-56.77"/>
</g>
<!-- Node23 -->
<g id="node23" class="node">
<title>Node23</title>
<g id="a_node23"><a xlink:href="lexer_8c.html#aee1807f4e95bea666b6c994915907414" target="_top" xlink:title="Retrieves a string representation of a token type (for printing purposes).">
<polygon fill="white" stroke="black" points="181,-0.5 181,-19.5 273,-19.5 273,-0.5 181,-0.5"/>
<text text-anchor="middle" x="227" y="-7.5" font-family="Helvetica,sans-Serif" font-size="10.00">token_to_string</text>
</a>
</g>
</g>
<!-- Node1&#45;&gt;Node23 -->
<g id="edge26" class="edge">
<title>Node1&#45;&gt;Node23</title>
<path fill="none" stroke="midnightblue" d="M61.82,-190.49C69.44,-161.44 96.44,-73.12 153,-29 158.41,-24.78 164.67,-21.49 171.19,-18.93"/>
<polygon fill="midnightblue" stroke="midnightblue" points="172.52,-22.17 180.88,-15.67 170.29,-15.54 172.52,-22.17"/>
</g>
<!-- Node5 -->
<g id="node5" class="node">
<title>Node5</title>
<g id="a_node5"><a xlink:href="lexer_8c.html#a1ede1e9739c264c7e3af07630e5a68f3" target="_top" xlink:title=" ">
<polygon fill="white" stroke="black" points="337,-304.5 337,-323.5 465,-323.5 465,-304.5 337,-304.5"/>
<text text-anchor="middle" x="401" y="-311.5" font-family="Helvetica,sans-Serif" font-size="10.00">get_next_token_helper</text>
</a>
</g>
</g>
<!-- Node4&#45;&gt;Node5 -->
<g id="edge4" class="edge">
<title>Node4&#45;&gt;Node5</title>
<path fill="none" stroke="midnightblue" d="M273.19,-314C289.49,-314 308.34,-314 326.43,-314"/>
<polygon fill="midnightblue" stroke="midnightblue" points="326.68,-317.5 336.68,-314 326.68,-310.5 326.68,-317.5"/>
</g>
<!-- Node6 -->
<g id="node6" class="node">
<title>Node6</title>
<g id="a_node6"><a xlink:href="lexer_8c.html#a78c9ef2940e04bc9cd18a764bdb9e0a5" target="_top" xlink:title="Initializes an internal twin buffer and loads the active buffer with the first chunk of the file.">
<polygon fill="white" stroke="black" points="523.5,-361.5 523.5,-380.5 589.5,-380.5 589.5,-361.5 523.5,-361.5"/>
<text text-anchor="middle" x="556.5" y="-368.5" font-family="Helvetica,sans-Serif" font-size="10.00">buffer_init</text>
</a>
</g>
</g>
<!-- Node5&#45;&gt;Node6 -->
<g id="edge5" class="edge">
<title>Node5&#45;&gt;Node6</title>
<path fill="none" stroke="midnightblue" d="M448.22,-323.62C464.82,-329.49 483.71,-336.67 501,-343 512.98,-347.39 526.52,-352.11 537.11,-356.86"/>
<polygon fill="midnightblue" stroke="midnightblue" points="535.7,-360.06 546.21,-361.4 538.83,-353.8 535.7,-360.06"/>
</g>
<!-- Node8 -->
<g id="node8" class="node">
<title>Node8</title>
<g id="a_node8"><a xlink:href="lexer_8c.html#ab8b57ff9976f6622383db94b907a00f3" target="_top" xlink:title=" ">
<polygon fill="white" stroke="black" points="516.5,-323.5 516.5,-342.5 596.5,-342.5 596.5,-323.5 516.5,-323.5"/>
<text text-anchor="middle" x="556.5" y="-330.5" font-family="Helvetica,sans-Serif" font-size="10.00">create_token</text>
</a>
</g>
</g>
<!-- Node5&#45;&gt;Node8 -->
<g id="edge8" class="edge">
<title>Node5&#45;&gt;Node8</title>
<path fill="none" stroke="midnightblue" d="M465.32,-321.84C479.01,-323.53 493.28,-325.3 506.32,-326.91"/>
<polygon fill="midnightblue" stroke="midnightblue" points="506.14,-330.42 516.49,-328.17 507,-323.47 506.14,-330.42"/>
</g>
<!-- Node9 -->
<g id="node9" class="node">
<title>Node9</title>
<g id="a_node9"><a xlink:href="symbol__table_8c.html#acadfe9a6832a8597ed3583053966ac3b" target="_top" xlink:title="Inserts a lexeme into the internal symbol table.">
<polygon fill="white" stroke="black" points="648,-304.5 648,-323.5 764,-323.5 764,-304.5 648,-304.5"/>
<text text-anchor="middle" x="706" y="-311.5" font-family="Helvetica,sans-Serif" font-size="10.00">symbol_table_insert</text>
</a>
</g>
</g>
<!-- Node5&#45;&gt;Node9 -->
<g id="edge16" class="edge">
<title>Node5&#45;&gt;Node9</title>
<path fill="none" stroke="midnightblue" d="M465.15,-314C515.64,-314 586.25,-314 637.78,-314"/>
<polygon fill="midnightblue" stroke="midnightblue" points="637.82,-317.5 647.82,-314 637.82,-310.5 637.82,-317.5"/>
</g>
<!-- Node14 -->
<g id="node14" class="node">
<title>Node14</title>
<g id="a_node14"><a xlink:href="lexer_8c.html#a960f17a4b92e6cce8b8edae91c728ead" target="_top" xlink:title=" ">
<polygon fill="white" stroke="black" points="501,-247.5 501,-266.5 612,-266.5 612,-247.5 501,-247.5"/>
<text text-anchor="middle" x="556.5" y="-254.5" font-family="Helvetica,sans-Serif" font-size="10.00">retract_and_update</text>
</a>
</g>
</g>
<!-- Node5&#45;&gt;Node14 -->
<g id="edge14" class="edge">
<title>Node5&#45;&gt;Node14</title>
<path fill="none" stroke="midnightblue" d="M427.69,-304.46C453.04,-295.05 491.98,-280.59 520.22,-270.1"/>
<polygon fill="midnightblue" stroke="midnightblue" points="521.57,-273.33 529.72,-266.57 519.13,-266.77 521.57,-273.33"/>
</g>
<!-- Node15 -->
<g id="node15" class="node">
<title>Node15</title>
<g id="a_node15"><a xlink:href="lexer_8c.html#a6d0bc199864425dd309933a88f06bb51" target="_top" xlink:title=" ">
<polygon fill="white" stroke="black" points="518.5,-209.5 518.5,-228.5 594.5,-228.5 594.5,-209.5 518.5,-209.5"/>
<text text-anchor="middle" x="556.5" y="-216.5" font-family="Helvetica,sans-Serif" font-size="10.00">swap_buffer</text>
</a>
</g>
</g>
<!-- Node5&#45;&gt;Node15 -->
<g id="edge15" class="edge">
<title>Node5&#45;&gt;Node15</title>
<path fill="none" stroke="midnightblue" d="M412.2,-304.36C429.34,-288.59 465.54,-257.15 501,-238 504.93,-235.88 509.13,-233.92 513.41,-232.14"/>
<polygon fill="midnightblue" stroke="midnightblue" points="514.73,-235.38 522.78,-228.5 512.19,-228.85 514.73,-235.38"/>
</g>
<!-- Node6&#45;&gt;Node5 -->
<g id="edge7" class="edge">
<title>Node6&#45;&gt;Node5</title>
<path fill="none" stroke="midnightblue" d="M523.45,-368.77C516.06,-366.43 508.25,-363.65 501,-361 473.2,-350.82 441.25,-338.43 421.35,-328.4"/>
<polygon fill="midnightblue" stroke="midnightblue" points="422.83,-325.22 412.36,-323.54 419.49,-331.37 422.83,-325.22"/>
</g>
<!-- Node7 -->
<g id="node7" class="node">
<title>Node7</title>
<g id="a_node7"><a xlink:href="lexer_8c.html#a67dd8f227181df843e25a314e262a10c" target="_top" xlink:title="Deallocates the twin buffer (automatically called at program termination).">
<polygon fill="white" stroke="black" points="661.5,-361.5 661.5,-380.5 750.5,-380.5 750.5,-361.5 661.5,-361.5"/>
<text text-anchor="middle" x="706" y="-368.5" font-family="Helvetica,sans-Serif" font-size="10.00">buffer_cleanup</text>
</a>
</g>
</g>
<!-- Node6&#45;&gt;Node7 -->
<g id="edge6" class="edge">
<title>Node6&#45;&gt;Node7</title>
<path fill="none" stroke="midnightblue" d="M589.51,-371C607.48,-371 630.39,-371 651.06,-371"/>
<polygon fill="midnightblue" stroke="midnightblue" points="651.31,-374.5 661.31,-371 651.31,-367.5 651.31,-374.5"/>
</g>
<!-- Node8&#45;&gt;Node9 -->
<g id="edge9" class="edge">
<title>Node8&#45;&gt;Node9</title>
<path fill="none" stroke="midnightblue" d="M596.64,-327.96C609.28,-326.33 623.67,-324.48 637.74,-322.66"/>
<polygon fill="midnightblue" stroke="midnightblue" points="638.43,-326.1 647.9,-321.36 637.53,-319.16 638.43,-326.1"/>
</g>
<!-- Node10 -->
<g id="node10" class="node">
<title>Node10</title>
<g id="a_node10"><a xlink:href="symbol__table_8c.html#af00e4a3f1778752600e745a5f825e3ac" target="_top" xlink:title=" ">
<polygon fill="white" stroke="black" points="800,-304.5 800,-323.5 917,-323.5 917,-304.5 800,-304.5"/>
<text text-anchor="middle" x="858.5" y="-311.5" font-family="Helvetica,sans-Serif" font-size="10.00">symbol_table_resize</text>
</a>
</g>
</g>
<!-- Node9&#45;&gt;Node10 -->
<g id="edge10" class="edge">
<title>Node9&#45;&gt;Node10</title>
<path fill="none" stroke="midnightblue" d="M764.33,-314C772.59,-314 781.17,-314 789.62,-314"/>
<polygon fill="midnightblue" stroke="midnightblue" points="789.83,-317.5 799.83,-314 789.83,-310.5 789.83,-317.5"/>
</g>
<!-- Node11 -->
<g id="node11" class="node">
<title>Node11</title>
<g id="a_node11"><a xlink:href="symbol__table_8c.html#abd009617cc391aeb4c484a199286513e" target="_top" xlink:title=" ">
<polygon fill="white" stroke="black" points="975,-326.5 975,-345.5 1047,-345.5 1047,-326.5 975,-326.5"/>
<text text-anchor="middle" x="1011" y="-333.5" font-family="Helvetica,sans-Serif" font-size="10.00">next_prime</text>
</a>
</g>
</g>
<!-- Node10&#45;&gt;Node11 -->
<g id="edge11" class="edge">
<title>Node10&#45;&gt;Node11</title>
<path fill="none" stroke="midnightblue" d="M917.26,-322.44C933.02,-324.75 949.86,-327.21 964.81,-329.39"/>
<polygon fill="midnightblue" stroke="midnightblue" points="964.42,-332.87 974.82,-330.86 965.43,-325.95 964.42,-332.87"/>
</g>
<!-- Node13 -->
<g id="node13" class="node">
<title>Node13</title>
<g id="a_node13"><a xlink:href="symbol__table_8c.html#a86044a0a95c64d3b677f00cba38ae8e1" target="_top" xlink:title=" ">
<polygon fill="white" stroke="black" points="953,-277 953,-307 1069,-307 1069,-277 953,-277"/>
<text text-anchor="start" x="961" y="-295" font-family="Helvetica,sans-Serif" font-size="10.00">symbol_table_insert</text>
<text text-anchor="middle" x="1011" y="-284" font-family="Helvetica,sans-Serif" font-size="10.00">_entry</text>
</a>
</g>
</g>
<!-- Node10&#45;&gt;Node13 -->
<g id="edge13" class="edge">
<title>Node10&#45;&gt;Node13</title>
<path fill="none" stroke="midnightblue" d="M917.26,-305.56C925.6,-304.34 934.24,-303.07 942.75,-301.83"/>
<polygon fill="midnightblue" stroke="midnightblue" points="943.26,-305.29 952.65,-300.38 942.25,-298.37 943.26,-305.29"/>
</g>
<!-- Node12 -->
<g id="node12" class="node">
<title>Node12</title>
<g id="a_node12"><a xlink:href="symbol__table_8c.html#aa29f6b8604796044e39772a51c0f2c63" target="_top" xlink:title=" ">
<polygon fill="white" stroke="black" points="1105,-326.5 1105,-345.5 1164,-345.5 1164,-326.5 1105,-326.5"/>
<text text-anchor="middle" x="1134.5" y="-333.5" font-family="Helvetica,sans-Serif" font-size="10.00">is_prime</text>
</a>
</g>
</g>
<!-- Node11&#45;&gt;Node12 -->
<g id="edge12" class="edge">
<title>Node11&#45;&gt;Node12</title>
<path fill="none" stroke="midnightblue" d="M1047.14,-336C1062.06,-336 1079.5,-336 1094.79,-336"/>
<polygon fill="midnightblue" stroke="midnightblue" points="1094.97,-339.5 1104.97,-336 1094.97,-332.5 1094.97,-339.5"/>
</g>
<!-- Node20&#45;&gt;Node19 -->
<g id="edge22" class="edge">
<title>Node20&#45;&gt;Node19</title>
<path fill="none" stroke="midnightblue" d="M260.35,-124C285.75,-124 321.53,-124 350.52,-124"/>
<polygon fill="midnightblue" stroke="midnightblue" points="350.86,-127.5 360.86,-124 350.86,-120.5 350.86,-127.5"/>
</g>
<!-- Node22&#45;&gt;Node19 -->
<g id="edge25" class="edge">
<title>Node22&#45;&gt;Node19</title>
<path fill="none" stroke="midnightblue" d="M259.14,-54.17C272.32,-57.27 287.67,-61.54 301,-67 328.73,-78.35 358.21,-96.15 377.71,-108.84"/>
<polygon fill="midnightblue" stroke="midnightblue" points="375.91,-111.85 386.19,-114.44 379.77,-106.01 375.91,-111.85"/>
</g>
</g>
</svg>
