<?xml version="1.0" encoding="UTF-8" standalone="no"?>
<!DOCTYPE svg PUBLIC "-//W3C//DTD SVG 1.1//EN"
 "http://www.w3.org/Graphics/SVG/1.1/DTD/svg11.dtd">
<!-- Generated by graphviz version 2.43.0 (0)
 -->
<!-- Title: src/main/parser.c Pages: 1 -->
<svg width="749pt" height="308pt"
 viewBox="0.00 0.00 748.85 308.00" xmlns="http://www.w3.org/2000/svg" xmlns:xlink="http://www.w3.org/1999/xlink">
<g id="graph0" class="graph" transform="scale(1 1) rotate(0) translate(4 304)">
<title>src/main/parser.c</title>
<polygon fill="white" stroke="transparent" points="-4,4 -4,-304 744.85,-304 744.85,4 -4,4"/>
<!-- Node1 -->
<g id="node1" class="node">
<title>Node1</title>
<g id="a_node1"><a xlink:title=" ">
<polygon fill="#bfbfbf" stroke="black" points="203.91,-280.5 203.91,-299.5 303.91,-299.5 303.91,-280.5 203.91,-280.5"/>
<text text-anchor="middle" x="253.91" y="-287.5" font-family="Helvetica,sans-Serif" font-size="10.00">src/main/parser.c</text>
</a>
</g>
</g>
<!-- Node2 -->
<g id="node2" class="node">
<title>Node2</title>
<g id="a_node2"><a xlink:href="parser_8h.html" target="_top" xlink:title=" ">
<polygon fill="white" stroke="black" points="197.91,-224.5 197.91,-243.5 309.91,-243.5 309.91,-224.5 197.91,-224.5"/>
<text text-anchor="middle" x="253.91" y="-231.5" font-family="Helvetica,sans-Serif" font-size="10.00">../../include/parser.h</text>
</a>
</g>
</g>
<!-- Node1&#45;&gt;Node2 -->
<g id="edge1" class="edge">
<title>Node1&#45;&gt;Node2</title>
<path fill="none" stroke="midnightblue" d="M253.91,-280.08C253.91,-273.01 253.91,-262.86 253.91,-253.99"/>
<polygon fill="midnightblue" stroke="midnightblue" points="257.41,-253.75 253.91,-243.75 250.41,-253.75 257.41,-253.75"/>
</g>
<!-- Node3 -->
<g id="node3" class="node">
<title>Node3</title>
<g id="a_node3"><a xlink:title=" ">
<polygon fill="white" stroke="#bfbfbf" points="231.91,-0.5 231.91,-19.5 281.91,-19.5 281.91,-0.5 231.91,-0.5"/>
<text text-anchor="middle" x="256.91" y="-7.5" font-family="Helvetica,sans-Serif" font-size="10.00">stdio.h</text>
</a>
</g>
</g>
<!-- Node2&#45;&gt;Node3 -->
<g id="edge2" class="edge">
<title>Node2&#45;&gt;Node3</title>
<path fill="none" stroke="midnightblue" d="M197.81,-228.32C144.23,-222.54 69.04,-210.59 50.91,-188 11.74,-139.2 49.69,-93.34 99.91,-56 136,-29.17 187.63,-18.31 221.69,-13.93"/>
<polygon fill="midnightblue" stroke="midnightblue" points="222.14,-17.41 231.66,-12.77 221.33,-10.45 222.14,-17.41"/>
</g>
<!-- Node4 -->
<g id="node4" class="node">
<title>Node4</title>
<g id="a_node4"><a xlink:title=" ">
<polygon fill="white" stroke="#bfbfbf" points="108.41,-0.5 108.41,-19.5 161.41,-19.5 161.41,-0.5 108.41,-0.5"/>
<text text-anchor="middle" x="134.91" y="-7.5" font-family="Helvetica,sans-Serif" font-size="10.00">stdlib.h</text>
</a>
</g>
</g>
<!-- Node2&#45;&gt;Node4 -->
<g id="edge3" class="edge">
<title>Node2&#45;&gt;Node4</title>
<path fill="none" stroke="midnightblue" d="M197.79,-228.7C140.65,-223.09 57.48,-211.15 35.91,-188 -4.34,-144.81 -12.3,-104.82 20.91,-56 38.08,-30.76 71.81,-19.68 98.14,-14.81"/>
<polygon fill="midnightblue" stroke="midnightblue" points="98.87,-18.24 108.18,-13.18 97.75,-11.33 98.87,-18.24"/>
</g>
<!-- Node5 -->
<g id="node5" class="node">
<title>Node5</title>
<g id="a_node5"><a xlink:title=" ">
<polygon fill="white" stroke="#bfbfbf" points="660.41,-56.5 660.41,-75.5 713.41,-75.5 713.41,-56.5 660.41,-56.5"/>
<text text-anchor="middle" x="686.91" y="-63.5" font-family="Helvetica,sans-Serif" font-size="10.00">string.h</text>
</a>
</g>
</g>
<!-- Node2&#45;&gt;Node5 -->
<g id="edge4" class="edge">
<title>Node2&#45;&gt;Node5</title>
<path fill="none" stroke="midnightblue" d="M310.18,-229.91C423.73,-222.32 673.5,-198.29 720.91,-132 732.06,-116.41 718.36,-96.69 705.16,-83.08"/>
<polygon fill="midnightblue" stroke="midnightblue" points="707.28,-80.26 697.65,-75.85 702.43,-85.31 707.28,-80.26"/>
</g>
<!-- Node6 -->
<g id="node6" class="node">
<title>Node6</title>
<g id="a_node6"><a xlink:title=" ">
<polygon fill="white" stroke="#bfbfbf" points="449.91,-0.5 449.91,-19.5 511.91,-19.5 511.91,-0.5 449.91,-0.5"/>
<text text-anchor="middle" x="480.91" y="-7.5" font-family="Helvetica,sans-Serif" font-size="10.00">stdbool.h</text>
</a>
</g>
</g>
<!-- Node2&#45;&gt;Node6 -->
<g id="edge5" class="edge">
<title>Node2&#45;&gt;Node6</title>
<path fill="none" stroke="midnightblue" d="M309.92,-229.79C403.8,-223.87 588.65,-209.85 649.91,-188 693.22,-172.55 714.89,-172.37 736.91,-132 747.82,-112.01 733.57,-66.02 722.91,-56 694.52,-29.29 583.68,-17.8 522.33,-13.39"/>
<polygon fill="midnightblue" stroke="midnightblue" points="522.42,-9.89 512.21,-12.7 521.95,-16.88 522.42,-9.89"/>
</g>
<!-- Node7 -->
<g id="node7" class="node">
<title>Node7</title>
<g id="a_node7"><a xlink:title=" ">
<polygon fill="white" stroke="#bfbfbf" points="658.41,-112.5 658.41,-131.5 711.41,-131.5 711.41,-112.5 658.41,-112.5"/>
<text text-anchor="middle" x="684.91" y="-119.5" font-family="Helvetica,sans-Serif" font-size="10.00">ctype.h</text>
</a>
</g>
</g>
<!-- Node2&#45;&gt;Node7 -->
<g id="edge6" class="edge">
<title>Node2&#45;&gt;Node7</title>
<path fill="none" stroke="midnightblue" d="M310.1,-226.53C363.43,-219.63 445.52,-207.05 514.91,-188 566,-173.97 623.08,-150.44 656.4,-135.87"/>
<polygon fill="midnightblue" stroke="midnightblue" points="658.21,-138.9 665.94,-131.65 655.38,-132.49 658.21,-138.9"/>
</g>
<!-- Node8 -->
<g id="node8" class="node">
<title>Node8</title>
<g id="a_node8"><a xlink:href="stack_8h.html" target="_top" xlink:title=" ">
<polygon fill="white" stroke="black" points="59.91,-168.5 59.91,-187.5 111.91,-187.5 111.91,-168.5 59.91,-168.5"/>
<text text-anchor="middle" x="85.91" y="-175.5" font-family="Helvetica,sans-Serif" font-size="10.00">stack.h</text>
</a>
</g>
</g>
<!-- Node2&#45;&gt;Node8 -->
<g id="edge7" class="edge">
<title>Node2&#45;&gt;Node8</title>
<path fill="none" stroke="midnightblue" d="M227.29,-224.44C198.82,-215.29 153.51,-200.73 121.88,-190.56"/>
<polygon fill="midnightblue" stroke="midnightblue" points="122.72,-187.16 112.13,-187.43 120.58,-193.82 122.72,-187.16"/>
</g>
<!-- Node9 -->
<g id="node9" class="node">
<title>Node9</title>
<g id="a_node9"><a xlink:href="parserDef_8h.html" target="_top" xlink:title=" ">
<polygon fill="white" stroke="black" points="114.41,-112.5 114.41,-131.5 187.41,-131.5 187.41,-112.5 114.41,-112.5"/>
<text text-anchor="middle" x="150.91" y="-119.5" font-family="Helvetica,sans-Serif" font-size="10.00">parserDef.h</text>
</a>
</g>
</g>
<!-- Node2&#45;&gt;Node9 -->
<g id="edge36" class="edge">
<title>Node2&#45;&gt;Node9</title>
<path fill="none" stroke="midnightblue" d="M244.29,-224.29C234.6,-215.41 219.35,-201.11 206.91,-188 191.77,-172.05 175.47,-152.87 164.38,-139.5"/>
<polygon fill="midnightblue" stroke="midnightblue" points="166.97,-137.14 157.91,-131.64 161.56,-141.59 166.97,-137.14"/>
</g>
<!-- Node11 -->
<g id="node11" class="node">
<title>Node11</title>
<g id="a_node11"><a xlink:href="lexer_8h.html" target="_top" xlink:title=" ">
<polygon fill="white" stroke="black" points="456.41,-168.5 456.41,-187.5 505.41,-187.5 505.41,-168.5 456.41,-168.5"/>
<text text-anchor="middle" x="480.91" y="-175.5" font-family="Helvetica,sans-Serif" font-size="10.00">lexer.h</text>
</a>
</g>
</g>
<!-- Node2&#45;&gt;Node11 -->
<g id="edge16" class="edge">
<title>Node2&#45;&gt;Node11</title>
<path fill="none" stroke="midnightblue" d="M289.88,-224.44C332.84,-214.22 404.2,-197.25 446.47,-187.19"/>
<polygon fill="midnightblue" stroke="midnightblue" points="447.39,-190.57 456.3,-184.85 445.77,-183.76 447.39,-190.57"/>
</g>
<!-- Node14 -->
<g id="node14" class="node">
<title>Node14</title>
<g id="a_node14"><a xlink:href="hash__map_8h.html" target="_top" xlink:title=" ">
<polygon fill="white" stroke="black" points="215.91,-168.5 215.91,-187.5 291.91,-187.5 291.91,-168.5 215.91,-168.5"/>
<text text-anchor="middle" x="253.91" y="-175.5" font-family="Helvetica,sans-Serif" font-size="10.00">hash_map.h</text>
</a>
</g>
</g>
<!-- Node2&#45;&gt;Node14 -->
<g id="edge30" class="edge">
<title>Node2&#45;&gt;Node14</title>
<path fill="none" stroke="midnightblue" d="M253.91,-224.08C253.91,-217.01 253.91,-206.86 253.91,-197.99"/>
<polygon fill="midnightblue" stroke="midnightblue" points="257.41,-197.75 253.91,-187.75 250.41,-197.75 257.41,-197.75"/>
</g>
<!-- Node8&#45;&gt;Node3 -->
<g id="edge8" class="edge">
<title>Node8&#45;&gt;Node3</title>
<path fill="none" stroke="midnightblue" d="M80.39,-168.38C72.79,-155.3 61.19,-130.07 71.91,-112 104.33,-57.37 177.84,-30.39 221.81,-18.68"/>
<polygon fill="midnightblue" stroke="midnightblue" points="222.95,-22 231.78,-16.15 221.23,-15.22 222.95,-22"/>
</g>
<!-- Node8&#45;&gt;Node4 -->
<g id="edge9" class="edge">
<title>Node8&#45;&gt;Node4</title>
<path fill="none" stroke="midnightblue" d="M70.13,-168.47C57.71,-160.77 41.31,-148.18 33.91,-132 19.87,-101.28 15.52,-84.33 33.91,-56 48.05,-34.22 75.45,-22.89 98.15,-17.05"/>
<polygon fill="midnightblue" stroke="midnightblue" points="99.22,-20.4 108.18,-14.74 97.65,-13.57 99.22,-20.4"/>
</g>
<!-- Node8&#45;&gt;Node6 -->
<g id="edge10" class="edge">
<title>Node8&#45;&gt;Node6</title>
<path fill="none" stroke="midnightblue" d="M86.04,-168.19C86.72,-154.41 90.02,-127.69 104.91,-112 151.13,-63.3 352.07,-29.36 439.75,-16.6"/>
<polygon fill="midnightblue" stroke="midnightblue" points="440.46,-20.03 449.86,-15.15 439.46,-13.1 440.46,-20.03"/>
</g>
<!-- Node8&#45;&gt;Node9 -->
<g id="edge11" class="edge">
<title>Node8&#45;&gt;Node9</title>
<path fill="none" stroke="midnightblue" d="M96.35,-168.32C106.06,-160.26 120.73,-148.08 132.41,-138.37"/>
<polygon fill="midnightblue" stroke="midnightblue" points="134.82,-140.92 140.28,-131.83 130.35,-135.53 134.82,-140.92"/>
</g>
<!-- Node10 -->
<g id="node10" class="node">
<title>Node10</title>
<g id="a_node10"><a xlink:href="lexerDef_8h.html" target="_top" xlink:title=" ">
<polygon fill="white" stroke="black" points="273.91,-56.5 273.91,-75.5 339.91,-75.5 339.91,-56.5 273.91,-56.5"/>
<text text-anchor="middle" x="306.91" y="-63.5" font-family="Helvetica,sans-Serif" font-size="10.00">lexerDef.h</text>
</a>
</g>
</g>
<!-- Node9&#45;&gt;Node10 -->
<g id="edge12" class="edge">
<title>Node9&#45;&gt;Node10</title>
<path fill="none" stroke="midnightblue" d="M175.63,-112.44C201.76,-103.4 243.17,-89.06 272.49,-78.92"/>
<polygon fill="midnightblue" stroke="midnightblue" points="274,-82.1 282.31,-75.52 271.71,-75.48 274,-82.1"/>
</g>
<!-- Node10&#45;&gt;Node3 -->
<g id="edge13" class="edge">
<title>Node10&#45;&gt;Node3</title>
<path fill="none" stroke="midnightblue" d="M298.65,-56.08C291.45,-48.3 280.8,-36.8 272.07,-27.37"/>
<polygon fill="midnightblue" stroke="midnightblue" points="274.38,-24.71 265.01,-19.75 269.24,-29.47 274.38,-24.71"/>
</g>
<!-- Node10&#45;&gt;Node4 -->
<g id="edge14" class="edge">
<title>Node10&#45;&gt;Node4</title>
<path fill="none" stroke="midnightblue" d="M279.66,-56.44C250.3,-47.23 203.44,-32.52 171.03,-22.34"/>
<polygon fill="midnightblue" stroke="midnightblue" points="172.06,-19 161.47,-19.34 169.96,-25.67 172.06,-19"/>
</g>
<!-- Node10&#45;&gt;Node6 -->
<g id="edge15" class="edge">
<title>Node10&#45;&gt;Node6</title>
<path fill="none" stroke="midnightblue" d="M334.48,-56.44C364.01,-47.28 411.03,-32.69 443.79,-22.52"/>
<polygon fill="midnightblue" stroke="midnightblue" points="444.96,-25.82 453.47,-19.52 442.88,-19.14 444.96,-25.82"/>
</g>
<!-- Node11&#45;&gt;Node3 -->
<g id="edge18" class="edge">
<title>Node11&#45;&gt;Node3</title>
<path fill="none" stroke="midnightblue" d="M473.27,-168.47C454.02,-147.35 401.31,-91.73 348.91,-56 329.86,-43.01 306.5,-31.63 288.09,-23.57"/>
<polygon fill="midnightblue" stroke="midnightblue" points="289.26,-20.26 278.69,-19.55 286.51,-26.7 289.26,-20.26"/>
</g>
<!-- Node11&#45;&gt;Node4 -->
<g id="edge19" class="edge">
<title>Node11&#45;&gt;Node4</title>
<path fill="none" stroke="midnightblue" d="M459.4,-168.47C437.66,-159.73 403.17,-145.54 373.91,-132 294.65,-95.32 203.06,-47.34 159.89,-24.38"/>
<polygon fill="midnightblue" stroke="midnightblue" points="161.42,-21.23 150.95,-19.61 158.12,-27.41 161.42,-21.23"/>
</g>
<!-- Node11&#45;&gt;Node5 -->
<g id="edge20" class="edge">
<title>Node11&#45;&gt;Node5</title>
<path fill="none" stroke="midnightblue" d="M505.43,-170.78C531.41,-163.6 573.12,-150.38 605.91,-132 630.33,-118.31 654.92,-97.32 670.49,-82.92"/>
<polygon fill="midnightblue" stroke="midnightblue" points="673.29,-85.09 678.16,-75.68 668.49,-80 673.29,-85.09"/>
</g>
<!-- Node11&#45;&gt;Node6 -->
<g id="edge21" class="edge">
<title>Node11&#45;&gt;Node6</title>
<path fill="none" stroke="midnightblue" d="M503.48,-168.39C527.5,-158.82 563.34,-143.24 572.91,-132 595.35,-105.65 609.16,-84.77 589.91,-56 574.82,-33.44 546.13,-22.18 521.97,-16.56"/>
<polygon fill="midnightblue" stroke="midnightblue" points="522.45,-13.09 511.95,-14.49 521.03,-19.94 522.45,-13.09"/>
</g>
<!-- Node11&#45;&gt;Node7 -->
<g id="edge17" class="edge">
<title>Node11&#45;&gt;Node7</title>
<path fill="none" stroke="midnightblue" d="M505.52,-170.49C541.08,-161.07 607.08,-143.6 648.35,-132.68"/>
<polygon fill="midnightblue" stroke="midnightblue" points="649.51,-135.99 658.28,-130.05 647.72,-129.23 649.51,-135.99"/>
</g>
<!-- Node11&#45;&gt;Node10 -->
<g id="edge22" class="edge">
<title>Node11&#45;&gt;Node10</title>
<path fill="none" stroke="midnightblue" d="M467.26,-168.37C437.27,-149.41 365.44,-104 328.97,-80.94"/>
<polygon fill="midnightblue" stroke="midnightblue" points="330.82,-77.98 320.5,-75.59 327.08,-83.89 330.82,-77.98"/>
</g>
<!-- Node12 -->
<g id="node12" class="node">
<title>Node12</title>
<g id="a_node12"><a xlink:href="symbol__table_8h.html" target="_top" xlink:title=" ">
<polygon fill="white" stroke="black" points="471.91,-112.5 471.91,-131.5 563.91,-131.5 563.91,-112.5 471.91,-112.5"/>
<text text-anchor="middle" x="517.91" y="-119.5" font-family="Helvetica,sans-Serif" font-size="10.00">symbol_table.h</text>
</a>
</g>
</g>
<!-- Node11&#45;&gt;Node12 -->
<g id="edge23" class="edge">
<title>Node11&#45;&gt;Node12</title>
<path fill="none" stroke="midnightblue" d="M487.02,-168.08C492.19,-160.53 499.76,-149.49 506.11,-140.23"/>
<polygon fill="midnightblue" stroke="midnightblue" points="509.15,-141.98 511.92,-131.75 503.38,-138.02 509.15,-141.98"/>
</g>
<!-- Node12&#45;&gt;Node3 -->
<g id="edge24" class="edge">
<title>Node12&#45;&gt;Node3</title>
<path fill="none" stroke="midnightblue" d="M512.46,-112.28C503.12,-98.11 482.66,-70.26 457.91,-56 405.36,-25.71 334.2,-15.81 292.17,-12.57"/>
<polygon fill="midnightblue" stroke="midnightblue" points="292.35,-9.07 282.14,-11.88 291.87,-16.06 292.35,-9.07"/>
</g>
<!-- Node12&#45;&gt;Node4 -->
<g id="edge26" class="edge">
<title>Node12&#45;&gt;Node4</title>
<path fill="none" stroke="midnightblue" d="M498.49,-112.36C467.42,-98.8 404.38,-72.39 348.91,-56 287.69,-37.92 214.58,-24.18 171.6,-16.87"/>
<polygon fill="midnightblue" stroke="midnightblue" points="172.05,-13.4 161.61,-15.2 170.89,-20.3 172.05,-13.4"/>
</g>
<!-- Node12&#45;&gt;Node5 -->
<g id="edge27" class="edge">
<title>Node12&#45;&gt;Node5</title>
<path fill="none" stroke="midnightblue" d="M544.69,-112.44C573.24,-103.32 618.64,-88.81 650.45,-78.65"/>
<polygon fill="midnightblue" stroke="midnightblue" points="651.8,-81.89 660.26,-75.52 649.67,-75.23 651.8,-81.89"/>
</g>
<!-- Node12&#45;&gt;Node6 -->
<g id="edge28" class="edge">
<title>Node12&#45;&gt;Node6</title>
<path fill="none" stroke="midnightblue" d="M535.26,-112.47C556.77,-100.69 588.99,-78.35 574.91,-56 563.2,-37.4 541.43,-26.32 521.8,-19.81"/>
<polygon fill="midnightblue" stroke="midnightblue" points="522.67,-16.42 512.08,-16.89 520.65,-23.12 522.67,-16.42"/>
</g>
<!-- Node12&#45;&gt;Node10 -->
<g id="edge29" class="edge">
<title>Node12&#45;&gt;Node10</title>
<path fill="none" stroke="midnightblue" d="M484.48,-112.44C448.06,-103.12 389.68,-88.18 349.88,-78"/>
<polygon fill="midnightblue" stroke="midnightblue" points="350.74,-74.61 340.19,-75.52 349.01,-81.39 350.74,-74.61"/>
</g>
<!-- Node13 -->
<g id="node13" class="node">
<title>Node13</title>
<g id="a_node13"><a xlink:title=" ">
<polygon fill="white" stroke="#bfbfbf" points="509.91,-56.5 509.91,-75.5 565.91,-75.5 565.91,-56.5 509.91,-56.5"/>
<text text-anchor="middle" x="537.91" y="-63.5" font-family="Helvetica,sans-Serif" font-size="10.00">assert.h</text>
</a>
</g>
</g>
<!-- Node12&#45;&gt;Node13 -->
<g id="edge25" class="edge">
<title>Node12&#45;&gt;Node13</title>
<path fill="none" stroke="midnightblue" d="M521.21,-112.08C523.89,-104.85 527.76,-94.41 531.1,-85.4"/>
<polygon fill="midnightblue" stroke="midnightblue" points="534.48,-86.34 534.67,-75.75 527.91,-83.91 534.48,-86.34"/>
</g>
<!-- Node14&#45;&gt;Node3 -->
<g id="edge31" class="edge">
<title>Node14&#45;&gt;Node3</title>
<path fill="none" stroke="midnightblue" d="M254.07,-168.08C254.54,-141.95 255.93,-65.21 256.58,-29.58"/>
<polygon fill="midnightblue" stroke="midnightblue" points="260.08,-29.63 256.76,-19.57 253.08,-29.5 260.08,-29.63"/>
</g>
<!-- Node14&#45;&gt;Node4 -->
<g id="edge32" class="edge">
<title>Node14&#45;&gt;Node4</title>
<path fill="none" stroke="midnightblue" d="M246.87,-168.27C236.43,-155.48 216.01,-131.11 196.91,-112 179.77,-94.85 169.23,-96.27 155.91,-76 146.65,-61.91 141.2,-43.42 138.18,-29.76"/>
<polygon fill="midnightblue" stroke="midnightblue" points="141.55,-28.77 136.19,-19.63 134.69,-30.12 141.55,-28.77"/>
</g>
<!-- Node14&#45;&gt;Node6 -->
<g id="edge33" class="edge">
<title>Node14&#45;&gt;Node6</title>
<path fill="none" stroke="midnightblue" d="M265.8,-168.31C302.57,-141.42 414.79,-59.35 460.86,-25.67"/>
<polygon fill="midnightblue" stroke="midnightblue" points="463.14,-28.33 469.14,-19.61 459.01,-22.68 463.14,-28.33"/>
</g>
<!-- Node14&#45;&gt;Node9 -->
<g id="edge35" class="edge">
<title>Node14&#45;&gt;Node9</title>
<path fill="none" stroke="midnightblue" d="M237.36,-168.32C220.92,-159.7 195.48,-146.36 176.44,-136.39"/>
<polygon fill="midnightblue" stroke="midnightblue" points="177.9,-133.2 167.42,-131.65 174.65,-139.4 177.9,-133.2"/>
</g>
<!-- Node14&#45;&gt;Node10 -->
<g id="edge34" class="edge">
<title>Node14&#45;&gt;Node10</title>
<path fill="none" stroke="midnightblue" d="M258.07,-168.37C266.74,-150.38 286.89,-108.55 298.42,-84.63"/>
<polygon fill="midnightblue" stroke="midnightblue" points="301.58,-86.12 302.77,-75.59 295.28,-83.08 301.58,-86.12"/>
</g>
</g>
</svg>
