<?xml version="1.0" encoding="UTF-8" standalone="no"?>
<!DOCTYPE svg PUBLIC "-//W3C//DTD SVG 1.1//EN"
 "http://www.w3.org/Graphics/SVG/1.1/DTD/svg11.dtd">
<!-- Generated by graphviz version 2.43.0 (0)
 -->
<!-- Title: generate_parse_map Pages: 1 -->
<svg width="419pt" height="66pt"
 viewBox="0.00 0.00 419.00 66.00" xmlns="http://www.w3.org/2000/svg" xmlns:xlink="http://www.w3.org/1999/xlink">
<g id="graph0" class="graph" transform="scale(1 1) rotate(0) translate(4 62)">
<title>generate_parse_map</title>
<polygon fill="white" stroke="transparent" points="-4,4 -4,-62 415,-62 415,4 -4,4"/>
<!-- Node1 -->
<g id="node1" class="node">
<title>Node1</title>
<g id="a_node1"><a xlink:title="Generates the parsing table for the given grammar using a hash map.">
<polygon fill="#bfbfbf" stroke="black" points="0,-19.5 0,-38.5 119,-38.5 119,-19.5 0,-19.5"/>
<text text-anchor="middle" x="59.5" y="-26.5" font-family="Helvetica,sans-Serif" font-size="10.00">generate_parse_map</text>
</a>
</g>
</g>
<!-- Node2 -->
<g id="node2" class="node">
<title>Node2</title>
<g id="a_node2"><a xlink:href="parser_8c.html#a66e98027ec5a1a7c880689156e4b664d" target="_top" xlink:title="Computes the first set of a sequence of symbols (terminals and non&#45;terminals).">
<polygon fill="white" stroke="black" points="155,-38.5 155,-57.5 305,-57.5 305,-38.5 155,-38.5"/>
<text text-anchor="middle" x="230" y="-45.5" font-family="Helvetica,sans-Serif" font-size="10.00">compute_first_of_sequence</text>
</a>
</g>
</g>
<!-- Node1&#45;&gt;Node2 -->
<g id="edge1" class="edge">
<title>Node1&#45;&gt;Node2</title>
<path fill="none" stroke="midnightblue" d="M119.43,-35.65C127.69,-36.58 136.3,-37.55 144.91,-38.52"/>
<polygon fill="midnightblue" stroke="midnightblue" points="144.66,-42.01 154.99,-39.65 145.45,-35.06 144.66,-42.01"/>
</g>
<!-- Node4 -->
<g id="node4" class="node">
<title>Node4</title>
<g id="a_node4"><a xlink:href="hash__map_8h.html#a17fd9c089bb62d17bb6266babc287a82" target="_top" xlink:title="Inserts a production rule into the internal hash table for the LL(1) parser.">
<polygon fill="white" stroke="black" points="194.5,-0.5 194.5,-19.5 265.5,-19.5 265.5,-0.5 194.5,-0.5"/>
<text text-anchor="middle" x="230" y="-7.5" font-family="Helvetica,sans-Serif" font-size="10.00">map_insert</text>
</a>
</g>
</g>
<!-- Node1&#45;&gt;Node4 -->
<g id="edge3" class="edge">
<title>Node1&#45;&gt;Node4</title>
<path fill="none" stroke="midnightblue" d="M119.43,-22.35C140.77,-19.95 164.49,-17.27 184.39,-15.03"/>
<polygon fill="midnightblue" stroke="midnightblue" points="184.87,-18.5 194.42,-13.9 184.09,-11.54 184.87,-18.5"/>
</g>
<!-- Node3 -->
<g id="node3" class="node">
<title>Node3</title>
<g id="a_node3"><a xlink:href="parser_8c.html#a2fb545f0baa318bfb9bdbab0e882cd32" target="_top" xlink:title="Adds a given token type to a set if it does not already exist.">
<polygon fill="white" stroke="black" points="341,-38.5 341,-57.5 411,-57.5 411,-38.5 341,-38.5"/>
<text text-anchor="middle" x="376" y="-45.5" font-family="Helvetica,sans-Serif" font-size="10.00">add_to_set</text>
</a>
</g>
</g>
<!-- Node2&#45;&gt;Node3 -->
<g id="edge2" class="edge">
<title>Node2&#45;&gt;Node3</title>
<path fill="none" stroke="midnightblue" d="M305.11,-48C313.93,-48 322.7,-48 330.91,-48"/>
<polygon fill="midnightblue" stroke="midnightblue" points="330.96,-51.5 340.96,-48 330.96,-44.5 330.96,-51.5"/>
</g>
</g>
</svg>
