<?xml version="1.0" encoding="UTF-8" standalone="no"?>
<!DOCTYPE svg PUBLIC "-//W3C//DTD SVG 1.1//EN"
 "http://www.w3.org/Graphics/SVG/1.1/DTD/svg11.dtd">
<!-- Generated by graphviz version 2.43.0 (0)
 -->
<!-- Title: include/stack.h Pages: 1 -->
<svg width="218pt" height="196pt"
 viewBox="0.00 0.00 218.00 196.00" xmlns="http://www.w3.org/2000/svg" xmlns:xlink="http://www.w3.org/1999/xlink">
<g id="graph0" class="graph" transform="scale(1 1) rotate(0) translate(4 192)">
<title>include/stack.h</title>
<polygon fill="white" stroke="transparent" points="-4,4 -4,-192 214,-192 214,4 -4,4"/>
<!-- Node1 -->
<g id="node1" class="node">
<title>Node1</title>
<g id="a_node1"><a xlink:title=" ">
<polygon fill="#bfbfbf" stroke="black" points="66,-168.5 66,-187.5 156,-187.5 156,-168.5 66,-168.5"/>
<text text-anchor="middle" x="111" y="-175.5" font-family="Helvetica,sans-Serif" font-size="10.00">include/stack.h</text>
</a>
</g>
</g>
<!-- Node2 -->
<g id="node2" class="node">
<title>Node2</title>
<g id="a_node2"><a xlink:title=" ">
<polygon fill="white" stroke="#bfbfbf" points="0,-0.5 0,-19.5 50,-19.5 50,-0.5 0,-0.5"/>
<text text-anchor="middle" x="25" y="-7.5" font-family="Helvetica,sans-Serif" font-size="10.00">stdio.h</text>
</a>
</g>
</g>
<!-- Node1&#45;&gt;Node2 -->
<g id="edge1" class="edge">
<title>Node1&#45;&gt;Node2</title>
<path fill="none" stroke="midnightblue" d="M82.67,-168.35C65.23,-161.45 44.15,-149.92 33,-132 13.42,-100.54 16.98,-55.13 21.12,-29.83"/>
<polygon fill="midnightblue" stroke="midnightblue" points="24.61,-30.22 22.98,-19.75 17.73,-28.94 24.61,-30.22"/>
</g>
<!-- Node3 -->
<g id="node3" class="node">
<title>Node3</title>
<g id="a_node3"><a xlink:title=" ">
<polygon fill="white" stroke="#bfbfbf" points="73.5,-0.5 73.5,-19.5 126.5,-19.5 126.5,-0.5 73.5,-0.5"/>
<text text-anchor="middle" x="100" y="-7.5" font-family="Helvetica,sans-Serif" font-size="10.00">stdlib.h</text>
</a>
</g>
</g>
<!-- Node1&#45;&gt;Node3 -->
<g id="edge2" class="edge">
<title>Node1&#45;&gt;Node3</title>
<path fill="none" stroke="midnightblue" d="M114.34,-168.2C117.55,-159.24 122.18,-144.88 124,-132 126.16,-116.77 127.55,-74.17 123,-56 120.61,-46.44 115.89,-36.6 111.34,-28.58"/>
<polygon fill="midnightblue" stroke="midnightblue" points="114.22,-26.57 106.05,-19.82 108.23,-30.19 114.22,-26.57"/>
</g>
<!-- Node4 -->
<g id="node4" class="node">
<title>Node4</title>
<g id="a_node4"><a xlink:title=" ">
<polygon fill="white" stroke="#bfbfbf" points="148,-0.5 148,-19.5 210,-19.5 210,-0.5 148,-0.5"/>
<text text-anchor="middle" x="179" y="-7.5" font-family="Helvetica,sans-Serif" font-size="10.00">stdbool.h</text>
</a>
</g>
</g>
<!-- Node1&#45;&gt;Node4 -->
<g id="edge3" class="edge">
<title>Node1&#45;&gt;Node4</title>
<path fill="none" stroke="midnightblue" d="M117.23,-168.39C123.38,-159.58 132.76,-145.33 139,-132 155.28,-97.23 167.87,-54.01 174.29,-29.76"/>
<polygon fill="midnightblue" stroke="midnightblue" points="177.76,-30.34 176.87,-19.78 170.98,-28.59 177.76,-30.34"/>
</g>
<!-- Node5 -->
<g id="node5" class="node">
<title>Node5</title>
<g id="a_node5"><a xlink:href="parserDef_8h.html" target="_top" xlink:title=" ">
<polygon fill="white" stroke="black" points="42.5,-112.5 42.5,-131.5 115.5,-131.5 115.5,-112.5 42.5,-112.5"/>
<text text-anchor="middle" x="79" y="-119.5" font-family="Helvetica,sans-Serif" font-size="10.00">parserDef.h</text>
</a>
</g>
</g>
<!-- Node1&#45;&gt;Node5 -->
<g id="edge4" class="edge">
<title>Node1&#45;&gt;Node5</title>
<path fill="none" stroke="midnightblue" d="M105.72,-168.08C101.29,-160.61 94.84,-149.72 89.38,-140.52"/>
<polygon fill="midnightblue" stroke="midnightblue" points="92.29,-138.57 84.19,-131.75 86.27,-142.14 92.29,-138.57"/>
</g>
<!-- Node6 -->
<g id="node6" class="node">
<title>Node6</title>
<g id="a_node6"><a xlink:href="lexerDef_8h.html" target="_top" xlink:title=" ">
<polygon fill="white" stroke="black" points="48,-56.5 48,-75.5 114,-75.5 114,-56.5 48,-56.5"/>
<text text-anchor="middle" x="81" y="-63.5" font-family="Helvetica,sans-Serif" font-size="10.00">lexerDef.h</text>
</a>
</g>
</g>
<!-- Node5&#45;&gt;Node6 -->
<g id="edge5" class="edge">
<title>Node5&#45;&gt;Node6</title>
<path fill="none" stroke="midnightblue" d="M79.33,-112.08C79.59,-105.01 79.97,-94.86 80.3,-85.99"/>
<polygon fill="midnightblue" stroke="midnightblue" points="83.8,-85.87 80.68,-75.75 76.81,-85.61 83.8,-85.87"/>
</g>
<!-- Node6&#45;&gt;Node2 -->
<g id="edge6" class="edge">
<title>Node6&#45;&gt;Node2</title>
<path fill="none" stroke="midnightblue" d="M72,-56.32C63.81,-48.42 51.49,-36.55 41.53,-26.94"/>
<polygon fill="midnightblue" stroke="midnightblue" points="43.79,-24.26 34.16,-19.83 38.93,-29.29 43.79,-24.26"/>
</g>
<!-- Node6&#45;&gt;Node3 -->
<g id="edge7" class="edge">
<title>Node6&#45;&gt;Node3</title>
<path fill="none" stroke="midnightblue" d="M84.14,-56.08C86.68,-48.85 90.36,-38.41 93.53,-29.4"/>
<polygon fill="midnightblue" stroke="midnightblue" points="96.9,-30.35 96.92,-19.75 90.3,-28.02 96.9,-30.35"/>
</g>
<!-- Node6&#45;&gt;Node4 -->
<g id="edge8" class="edge">
<title>Node6&#45;&gt;Node4</title>
<path fill="none" stroke="midnightblue" d="M96.75,-56.32C112.32,-47.74 136.38,-34.49 154.46,-24.52"/>
<polygon fill="midnightblue" stroke="midnightblue" points="156.22,-27.55 163.29,-19.65 152.85,-21.42 156.22,-27.55"/>
</g>
</g>
</svg>
