<?xml version="1.0" encoding="UTF-8" standalone="no"?>
<!DOCTYPE svg PUBLIC "-//W3C//DTD SVG 1.1//EN"
 "http://www.w3.org/Graphics/SVG/1.1/DTD/svg11.dtd">
<!-- Generated by graphviz version 2.43.0 (0)
 -->
<!-- Title: include/stack.h Pages: 1 -->
<svg width="277pt" height="140pt"
 viewBox="0.00 0.00 277.00 140.00" xmlns="http://www.w3.org/2000/svg" xmlns:xlink="http://www.w3.org/1999/xlink">
<g id="graph0" class="graph" transform="scale(1 1) rotate(0) translate(4 136)">
<title>include/stack.h</title>
<polygon fill="white" stroke="transparent" points="-4,4 -4,-136 273,-136 273,4 -4,4"/>
<!-- Node1 -->
<g id="node1" class="node">
<title>Node1</title>
<g id="a_node1"><a xlink:title=" ">
<polygon fill="#bfbfbf" stroke="black" points="59,-112.5 59,-131.5 149,-131.5 149,-112.5 59,-112.5"/>
<text text-anchor="middle" x="104" y="-119.5" font-family="Helvetica,sans-Serif" font-size="10.00">include/stack.h</text>
</a>
</g>
</g>
<!-- Node2 -->
<g id="node2" class="node">
<title>Node2</title>
<g id="a_node2"><a xlink:href="stack_8c.html" target="_top" xlink:title=" ">
<polygon fill="white" stroke="black" points="0,-56.5 0,-75.5 96,-75.5 96,-56.5 0,-56.5"/>
<text text-anchor="middle" x="48" y="-63.5" font-family="Helvetica,sans-Serif" font-size="10.00">src/main/stack.c</text>
</a>
</g>
</g>
<!-- Node1&#45;&gt;Node2 -->
<g id="edge1" class="edge">
<title>Node1&#45;&gt;Node2</title>
<path fill="none" stroke="midnightblue" d="M87.67,-105.25C77.74,-95.67 65.41,-83.79 57.16,-75.83"/>
<polygon fill="midnightblue" stroke="midnightblue" points="85.37,-107.9 95,-112.32 90.23,-102.86 85.37,-107.9"/>
</g>
<!-- Node3 -->
<g id="node3" class="node">
<title>Node3</title>
<g id="a_node3"><a xlink:href="parser_8h.html" target="_top" xlink:title=" ">
<polygon fill="white" stroke="black" points="114,-56.5 114,-75.5 208,-75.5 208,-56.5 114,-56.5"/>
<text text-anchor="middle" x="161" y="-63.5" font-family="Helvetica,sans-Serif" font-size="10.00">include/parser.h</text>
</a>
</g>
</g>
<!-- Node1&#45;&gt;Node3 -->
<g id="edge2" class="edge">
<title>Node1&#45;&gt;Node3</title>
<path fill="none" stroke="midnightblue" d="M120.62,-105.25C130.73,-95.67 143.28,-83.79 151.68,-75.83"/>
<polygon fill="midnightblue" stroke="midnightblue" points="118.01,-102.91 113.16,-112.32 122.82,-107.99 118.01,-102.91"/>
</g>
<!-- Node4 -->
<g id="node4" class="node">
<title>Node4</title>
<g id="a_node4"><a xlink:href="driver_8c.html" target="_top" xlink:title=" ">
<polygon fill="white" stroke="black" points="53,-0.5 53,-19.5 151,-19.5 151,-0.5 53,-0.5"/>
<text text-anchor="middle" x="102" y="-7.5" font-family="Helvetica,sans-Serif" font-size="10.00">src/main/driver.c</text>
</a>
</g>
</g>
<!-- Node3&#45;&gt;Node4 -->
<g id="edge3" class="edge">
<title>Node3&#45;&gt;Node4</title>
<path fill="none" stroke="midnightblue" d="M144.11,-49.54C133.59,-39.91 120.43,-27.87 111.65,-19.83"/>
<polygon fill="midnightblue" stroke="midnightblue" points="141.78,-52.15 151.52,-56.32 146.51,-46.99 141.78,-52.15"/>
</g>
<!-- Node5 -->
<g id="node5" class="node">
<title>Node5</title>
<g id="a_node5"><a xlink:href="parser_8c.html" target="_top" xlink:title=" ">
<polygon fill="white" stroke="black" points="169,-0.5 169,-19.5 269,-19.5 269,-0.5 169,-0.5"/>
<text text-anchor="middle" x="219" y="-7.5" font-family="Helvetica,sans-Serif" font-size="10.00">src/main/parser.c</text>
</a>
</g>
</g>
<!-- Node3&#45;&gt;Node5 -->
<g id="edge4" class="edge">
<title>Node3&#45;&gt;Node5</title>
<path fill="none" stroke="midnightblue" d="M177.91,-49.25C188.2,-39.67 200.97,-27.79 209.51,-19.83"/>
<polygon fill="midnightblue" stroke="midnightblue" points="175.25,-46.95 170.32,-56.32 180.02,-52.07 175.25,-46.95"/>
</g>
</g>
</svg>
