<?xml version="1.0" encoding="UTF-8" standalone="no"?>
<!DOCTYPE svg PUBLIC "-//W3C//DTD SVG 1.1//EN"
 "http://www.w3.org/Graphics/SVG/1.1/DTD/svg11.dtd">
<!-- Generated by graphviz version 2.43.0 (0)
 -->
<!-- Title: Stack Pages: 1 -->
<svg width="297pt" height="229pt"
 viewBox="0.00 0.00 297.00 229.00" xmlns="http://www.w3.org/2000/svg" xmlns:xlink="http://www.w3.org/1999/xlink">
<g id="graph0" class="graph" transform="scale(1 1) rotate(0) translate(4 225)">
<title>Stack</title>
<polygon fill="white" stroke="transparent" points="-4,4 -4,-225 293,-225 293,4 -4,4"/>
<!-- Node1 -->
<g id="node1" class="node">
<title>Node1</title>
<g id="a_node1"><a xlink:title=" ">
<polygon fill="#bfbfbf" stroke="black" points="9,-67.5 9,-86.5 53,-86.5 53,-67.5 9,-67.5"/>
<text text-anchor="middle" x="31" y="-74.5" font-family="Helvetica,sans-Serif" font-size="10.00">Stack</text>
</a>
</g>
</g>
<!-- Node2 -->
<g id="node2" class="node">
<title>Node2</title>
<g id="a_node2"><a xlink:href="structTreeNode.html" target="_top" xlink:title=" ">
<polygon fill="white" stroke="black" points="0,-134.5 0,-153.5 62,-153.5 62,-134.5 0,-134.5"/>
<text text-anchor="middle" x="31" y="-141.5" font-family="Helvetica,sans-Serif" font-size="10.00">TreeNode</text>
</a>
</g>
</g>
<!-- Node2&#45;&gt;Node1 -->
<g id="edge1" class="edge">
<title>Node2&#45;&gt;Node1</title>
<path fill="none" stroke="#9a32cd" stroke-dasharray="5,2" d="M31,-124.04C31,-111.67 31,-96.12 31,-86.63"/>
<polygon fill="#9a32cd" stroke="#9a32cd" points="27.5,-124.23 31,-134.23 34.5,-124.23 27.5,-124.23"/>
<text text-anchor="middle" x="43.5" y="-108" font-family="Helvetica,sans-Serif" font-size="10.00"> data</text>
</g>
<!-- Node2&#45;&gt;Node2 -->
<g id="edge3" class="edge">
<title>Node2&#45;&gt;Node2</title>
<path fill="none" stroke="#9a32cd" stroke-dasharray="5,2" d="M72.15,-149.11C76.91,-148.16 80,-146.46 80,-144 80,-140.06 72.09,-138.06 62.1,-138"/>
<polygon fill="#9a32cd" stroke="#9a32cd" points="71.76,-145.63 62.1,-150 72.37,-152.61 71.76,-145.63"/>
<text text-anchor="middle" x="101.5" y="-141.5" font-family="Helvetica,sans-Serif" font-size="10.00"> children</text>
</g>
<!-- Node3 -->
<g id="node3" class="node">
<title>Node3</title>
<g id="a_node3"><a xlink:href="structToken.html" target="_top" xlink:title=" ">
<polygon fill="white" stroke="black" points="0,-201.5 0,-220.5 44,-220.5 44,-201.5 0,-201.5"/>
<text text-anchor="middle" x="22" y="-208.5" font-family="Helvetica,sans-Serif" font-size="10.00">Token</text>
</a>
</g>
</g>
<!-- Node3&#45;&gt;Node2 -->
<g id="edge2" class="edge">
<title>Node3&#45;&gt;Node2</title>
<path fill="none" stroke="#9a32cd" stroke-dasharray="5,2" d="M21.52,-191.4C21.62,-185.2 22.01,-178.27 23,-172 23.98,-165.82 25.98,-159.07 27.73,-153.86"/>
<polygon fill="#9a32cd" stroke="#9a32cd" points="18.02,-191.52 21.59,-201.49 25.02,-191.47 18.02,-191.52"/>
<text text-anchor="middle" x="54.5" y="-175" font-family="Helvetica,sans-Serif" font-size="10.00"> token_value</text>
</g>
<!-- Node4 -->
<g id="node4" class="node">
<title>Node4</title>
<g id="a_node4"><a xlink:href="structSymbol.html" target="_top" xlink:title=" ">
<polygon fill="white" stroke="black" points="175.5,-201.5 175.5,-220.5 228.5,-220.5 228.5,-201.5 175.5,-201.5"/>
<text text-anchor="middle" x="202" y="-208.5" font-family="Helvetica,sans-Serif" font-size="10.00">Symbol</text>
</a>
</g>
</g>
<!-- Node4&#45;&gt;Node2 -->
<g id="edge4" class="edge">
<title>Node4&#45;&gt;Node2</title>
<path fill="none" stroke="#9a32cd" stroke-dasharray="5,2" d="M165.42,-198.48C151.44,-193.9 135.4,-188.43 121,-183 96.24,-173.66 68.24,-161.6 50.14,-153.59"/>
<polygon fill="#9a32cd" stroke="#9a32cd" points="164.59,-201.89 175.18,-201.64 166.75,-195.23 164.59,-201.89"/>
<text text-anchor="middle" x="156.5" y="-175" font-family="Helvetica,sans-Serif" font-size="10.00"> stack_symbol</text>
</g>
<!-- Node7 -->
<g id="node7" class="node">
<title>Node7</title>
<g id="a_node7"><a xlink:href="structProduction.html" target="_top" xlink:title=" ">
<polygon fill="white" stroke="black" points="158,-134.5 158,-153.5 226,-153.5 226,-134.5 158,-134.5"/>
<text text-anchor="middle" x="192" y="-141.5" font-family="Helvetica,sans-Serif" font-size="10.00">Production</text>
</a>
</g>
</g>
<!-- Node4&#45;&gt;Node7 -->
<g id="edge8" class="edge">
<title>Node4&#45;&gt;Node7</title>
<path fill="none" stroke="#9a32cd" stroke-dasharray="5,2" d="M199.08,-191.04C197.18,-178.67 194.79,-163.12 193.33,-153.63"/>
<polygon fill="#9a32cd" stroke="#9a32cd" points="195.67,-191.88 200.65,-201.23 202.59,-190.82 195.67,-191.88"/>
<text text-anchor="middle" x="219.5" y="-175" font-family="Helvetica,sans-Serif" font-size="10.00"> symbols</text>
</g>
<!-- Node5 -->
<g id="node5" class="node">
<title>Node5</title>
<g id="a_node5"><a xlink:href="unionsymbol__value.html" target="_top" xlink:title=" ">
<polygon fill="white" stroke="black" points="187.5,-0.5 187.5,-19.5 272.5,-19.5 272.5,-0.5 187.5,-0.5"/>
<text text-anchor="middle" x="230" y="-7.5" font-family="Helvetica,sans-Serif" font-size="10.00">symbol_value</text>
</a>
</g>
</g>
<!-- Node5&#45;&gt;Node4 -->
<g id="edge5" class="edge">
<title>Node5&#45;&gt;Node4</title>
<path fill="none" stroke="#9a32cd" stroke-dasharray="5,2" d="M237.92,-28.81C251.23,-61.65 274.02,-132.94 246,-183 241.45,-191.13 233.33,-197.12 225.3,-201.35"/>
<polygon fill="#9a32cd" stroke="#9a32cd" points="241.13,-27.42 234.01,-19.58 234.68,-30.15 241.13,-27.42"/>
<text text-anchor="middle" x="273.5" y="-108" font-family="Helvetica,sans-Serif" font-size="10.00"> value</text>
</g>
<!-- Node6 -->
<g id="node6" class="node">
<title>Node6</title>
<g id="a_node6"><a xlink:href="structNonTerminal.html" target="_top" xlink:title=" ">
<polygon fill="white" stroke="black" points="149,-67.5 149,-86.5 227,-86.5 227,-67.5 149,-67.5"/>
<text text-anchor="middle" x="188" y="-74.5" font-family="Helvetica,sans-Serif" font-size="10.00">NonTerminal</text>
</a>
</g>
</g>
<!-- Node6&#45;&gt;Node5 -->
<g id="edge6" class="edge">
<title>Node6&#45;&gt;Node5</title>
<path fill="none" stroke="#9a32cd" stroke-dasharray="5,2" d="M199.29,-58.53C207.42,-45.95 218.04,-29.51 224.43,-19.63"/>
<polygon fill="#9a32cd" stroke="#9a32cd" points="196.15,-56.94 193.66,-67.23 202.03,-60.73 196.15,-56.94"/>
<text text-anchor="middle" x="217.5" y="-41" font-family="Helvetica,sans-Serif" font-size="10.00"> nt</text>
</g>
<!-- Node7&#45;&gt;Node6 -->
<g id="edge7" class="edge">
<title>Node7&#45;&gt;Node6</title>
<path fill="none" stroke="#9a32cd" stroke-dasharray="5,2" d="M182.79,-125.05C181.64,-122.09 180.64,-119.01 180,-116 177.87,-105.98 181.09,-94.46 184.06,-86.76"/>
<polygon fill="#9a32cd" stroke="#9a32cd" points="179.69,-126.67 187.02,-134.32 186.05,-123.77 179.69,-126.67"/>
<text text-anchor="middle" x="210.5" y="-108" font-family="Helvetica,sans-Serif" font-size="10.00"> productions</text>
</g>
</g>
</svg>
