<?xml version="1.0" encoding="UTF-8" standalone="no"?>
<!DOCTYPE svg PUBLIC "-//W3C//DTD SVG 1.1//EN"
 "http://www.w3.org/Graphics/SVG/1.1/DTD/svg11.dtd">
<!-- Generated by graphviz version 2.43.0 (0)
 -->
<!-- Title: Entry Pages: 1 -->
<svg width="231pt" height="229pt"
 viewBox="0.00 0.00 231.00 229.00" xmlns="http://www.w3.org/2000/svg" xmlns:xlink="http://www.w3.org/1999/xlink">
<g id="graph0" class="graph" transform="scale(1 1) rotate(0) translate(4 225)">
<title>Entry</title>
<polygon fill="white" stroke="transparent" points="-4,4 -4,-225 227,-225 227,4 -4,4"/>
<!-- Node1 -->
<g id="node1" class="node">
<title>Node1</title>
<g id="a_node1"><a xlink:title=" ">
<polygon fill="#bfbfbf" stroke="black" points="0,-134.5 0,-153.5 42,-153.5 42,-134.5 0,-134.5"/>
<text text-anchor="middle" x="21" y="-141.5" font-family="Helvetica,sans-Serif" font-size="10.00">Entry</text>
</a>
</g>
</g>
<!-- Node2 -->
<g id="node2" class="node">
<title>Node2</title>
<g id="a_node2"><a xlink:href="structProduction.html" target="_top" xlink:title=" ">
<polygon fill="white" stroke="black" points="60,-201.5 60,-220.5 128,-220.5 128,-201.5 60,-201.5"/>
<text text-anchor="middle" x="94" y="-208.5" font-family="Helvetica,sans-Serif" font-size="10.00">Production</text>
</a>
</g>
</g>
<!-- Node2&#45;&gt;Node1 -->
<g id="edge1" class="edge">
<title>Node2&#45;&gt;Node1</title>
<path fill="none" stroke="#9a32cd" stroke-dasharray="5,2" d="M74.3,-194.91C69.54,-191.11 64.53,-186.98 60,-183 49.07,-173.38 37.18,-161.58 29.44,-153.71"/>
<polygon fill="#9a32cd" stroke="#9a32cd" points="72.4,-197.87 82.43,-201.28 76.72,-192.36 72.4,-197.87"/>
<text text-anchor="middle" x="75.5" y="-175" font-family="Helvetica,sans-Serif" font-size="10.00"> value</text>
</g>
<!-- Node5 -->
<g id="node5" class="node">
<title>Node5</title>
<g id="a_node5"><a xlink:href="structNonTerminal.html" target="_top" xlink:title=" ">
<polygon fill="white" stroke="black" points="60,-134.5 60,-153.5 138,-153.5 138,-134.5 60,-134.5"/>
<text text-anchor="middle" x="99" y="-141.5" font-family="Helvetica,sans-Serif" font-size="10.00">NonTerminal</text>
</a>
</g>
</g>
<!-- Node2&#45;&gt;Node5 -->
<g id="edge5" class="edge">
<title>Node2&#45;&gt;Node5</title>
<path fill="none" stroke="#9a32cd" stroke-dasharray="5,2" d="M94.04,-191.23C94.18,-185.09 94.46,-178.25 95,-172 95.53,-165.96 96.53,-159.21 97.39,-153.97"/>
<polygon fill="#9a32cd" stroke="#9a32cd" points="90.55,-191.19 93.93,-201.23 97.54,-191.27 90.55,-191.19"/>
<text text-anchor="middle" x="125.5" y="-175" font-family="Helvetica,sans-Serif" font-size="10.00"> productions</text>
</g>
<!-- Node3 -->
<g id="node3" class="node">
<title>Node3</title>
<g id="a_node3"><a xlink:href="structSymbol.html" target="_top" xlink:title=" ">
<polygon fill="white" stroke="black" points="108.5,-0.5 108.5,-19.5 161.5,-19.5 161.5,-0.5 108.5,-0.5"/>
<text text-anchor="middle" x="135" y="-7.5" font-family="Helvetica,sans-Serif" font-size="10.00">Symbol</text>
</a>
</g>
</g>
<!-- Node3&#45;&gt;Node2 -->
<g id="edge2" class="edge">
<title>Node3&#45;&gt;Node2</title>
<path fill="none" stroke="#9a32cd" stroke-dasharray="5,2" d="M149.88,-27.82C151.98,-31.01 153.82,-34.46 155,-38 234.51,-275.93 162.58,-172.95 156,-183 149.63,-192.72 138.91,-198.96 128.17,-202.96"/>
<polygon fill="#9a32cd" stroke="#9a32cd" points="152.5,-25.47 143.64,-19.66 146.94,-29.73 152.5,-25.47"/>
<text text-anchor="middle" x="200.5" y="-108" font-family="Helvetica,sans-Serif" font-size="10.00"> symbols</text>
</g>
<!-- Node4 -->
<g id="node4" class="node">
<title>Node4</title>
<g id="a_node4"><a xlink:href="unionsymbol__value.html" target="_top" xlink:title=" ">
<polygon fill="white" stroke="black" points="56.5,-67.5 56.5,-86.5 141.5,-86.5 141.5,-67.5 56.5,-67.5"/>
<text text-anchor="middle" x="99" y="-74.5" font-family="Helvetica,sans-Serif" font-size="10.00">symbol_value</text>
</a>
</g>
</g>
<!-- Node4&#45;&gt;Node3 -->
<g id="edge3" class="edge">
<title>Node4&#45;&gt;Node3</title>
<path fill="none" stroke="#9a32cd" stroke-dasharray="5,2" d="M108.88,-58.16C115.82,-45.63 124.8,-29.41 130.22,-19.63"/>
<polygon fill="#9a32cd" stroke="#9a32cd" points="105.64,-56.79 103.86,-67.23 111.76,-60.18 105.64,-56.79"/>
<text text-anchor="middle" x="135.5" y="-41" font-family="Helvetica,sans-Serif" font-size="10.00"> value</text>
</g>
<!-- Node5&#45;&gt;Node4 -->
<g id="edge4" class="edge">
<title>Node5&#45;&gt;Node4</title>
<path fill="none" stroke="#9a32cd" stroke-dasharray="5,2" d="M99,-124.04C99,-111.67 99,-96.12 99,-86.63"/>
<polygon fill="#9a32cd" stroke="#9a32cd" points="95.5,-124.23 99,-134.23 102.5,-124.23 95.5,-124.23"/>
<text text-anchor="middle" x="105.5" y="-108" font-family="Helvetica,sans-Serif" font-size="10.00"> nt</text>
</g>
</g>
</svg>
