<?xml version="1.0" encoding="UTF-8" standalone="no"?>
<!DOCTYPE svg PUBLIC "-//W3C//DTD SVG 1.1//EN"
 "http://www.w3.org/Graphics/SVG/1.1/DTD/svg11.dtd">
<!-- Generated by graphviz version 2.43.0 (0)
 -->
<!-- Title: Symbol Pages: 1 -->
<svg width="147pt" height="229pt"
 viewBox="0.00 0.00 147.00 229.00" xmlns="http://www.w3.org/2000/svg" xmlns:xlink="http://www.w3.org/1999/xlink">
<g id="graph0" class="graph" transform="scale(1 1) rotate(0) translate(4 225)">
<title>Symbol</title>
<polygon fill="white" stroke="transparent" points="-4,4 -4,-225 143,-225 143,4 -4,4"/>
<!-- Node1 -->
<g id="node1" class="node">
<title>Node1</title>
<g id="a_node1"><a xlink:title=" ">
<polygon fill="#bfbfbf" stroke="black" points="46.5,-201.5 46.5,-220.5 99.5,-220.5 99.5,-201.5 46.5,-201.5"/>
<text text-anchor="middle" x="73" y="-208.5" font-family="Helvetica,sans-Serif" font-size="10.00">Symbol</text>
</a>
</g>
</g>
<!-- Node4 -->
<g id="node4" class="node">
<title>Node4</title>
<g id="a_node4"><a xlink:href="structProduction.html" target="_top" xlink:title=" ">
<polygon fill="white" stroke="black" points="7,-134.5 7,-153.5 75,-153.5 75,-134.5 7,-134.5"/>
<text text-anchor="middle" x="41" y="-141.5" font-family="Helvetica,sans-Serif" font-size="10.00">Production</text>
</a>
</g>
</g>
<!-- Node1&#45;&gt;Node4 -->
<g id="edge4" class="edge">
<title>Node1&#45;&gt;Node4</title>
<path fill="none" stroke="#9a32cd" stroke-dasharray="5,2" d="M60.76,-192.94C58.7,-189.71 56.69,-186.31 55,-183 50.09,-173.35 46.02,-161.56 43.56,-153.69"/>
<polygon fill="#9a32cd" stroke="#9a32cd" points="57.94,-195.01 66.45,-201.32 63.73,-191.08 57.94,-195.01"/>
<text text-anchor="middle" x="77.5" y="-175" font-family="Helvetica,sans-Serif" font-size="10.00"> symbols</text>
</g>
<!-- Node2 -->
<g id="node2" class="node">
<title>Node2</title>
<g id="a_node2"><a xlink:href="unionsymbol__value.html" target="_top" xlink:title=" ">
<polygon fill="white" stroke="black" points="38.5,-0.5 38.5,-19.5 123.5,-19.5 123.5,-0.5 38.5,-0.5"/>
<text text-anchor="middle" x="81" y="-7.5" font-family="Helvetica,sans-Serif" font-size="10.00">symbol_value</text>
</a>
</g>
</g>
<!-- Node2&#45;&gt;Node1 -->
<g id="edge1" class="edge">
<title>Node2&#45;&gt;Node1</title>
<path fill="none" stroke="#9a32cd" stroke-dasharray="5,2" d="M88.58,-29.11C100.89,-61.38 121.79,-130.38 100,-183 96.96,-190.35 90.83,-196.74 85.19,-201.46"/>
<polygon fill="#9a32cd" stroke="#9a32cd" points="91.76,-27.64 84.8,-19.65 85.26,-30.23 91.76,-27.64"/>
<text text-anchor="middle" x="123.5" y="-108" font-family="Helvetica,sans-Serif" font-size="10.00"> value</text>
</g>
<!-- Node3 -->
<g id="node3" class="node">
<title>Node3</title>
<g id="a_node3"><a xlink:href="structNonTerminal.html" target="_top" xlink:title=" ">
<polygon fill="white" stroke="black" points="0,-67.5 0,-86.5 78,-86.5 78,-67.5 0,-67.5"/>
<text text-anchor="middle" x="39" y="-74.5" font-family="Helvetica,sans-Serif" font-size="10.00">NonTerminal</text>
</a>
</g>
</g>
<!-- Node3&#45;&gt;Node2 -->
<g id="edge2" class="edge">
<title>Node3&#45;&gt;Node2</title>
<path fill="none" stroke="#9a32cd" stroke-dasharray="5,2" d="M50.29,-58.53C58.42,-45.95 69.04,-29.51 75.43,-19.63"/>
<polygon fill="#9a32cd" stroke="#9a32cd" points="47.15,-56.94 44.66,-67.23 53.03,-60.73 47.15,-56.94"/>
<text text-anchor="middle" x="68.5" y="-41" font-family="Helvetica,sans-Serif" font-size="10.00"> nt</text>
</g>
<!-- Node4&#45;&gt;Node3 -->
<g id="edge3" class="edge">
<title>Node4&#45;&gt;Node3</title>
<path fill="none" stroke="#9a32cd" stroke-dasharray="5,2" d="M33.23,-124.65C32.3,-121.8 31.51,-118.85 31,-116 29.19,-105.91 32.35,-94.41 35.22,-86.72"/>
<polygon fill="#9a32cd" stroke="#9a32cd" points="30.03,-126.11 36.85,-134.22 36.58,-123.63 30.03,-126.11"/>
<text text-anchor="middle" x="61.5" y="-108" font-family="Helvetica,sans-Serif" font-size="10.00"> productions</text>
</g>
</g>
</svg>
