<?xml version="1.0" encoding="UTF-8" standalone="no"?>
<!DOCTYPE svg PUBLIC "-//W3C//DTD SVG 1.1//EN"
 "http://www.w3.org/Graphics/SVG/1.1/DTD/svg11.dtd">
<!-- Generated by graphviz version 2.43.0 (0)
 -->
<!-- Title: include/symbol_table.h Pages: 1 -->
<svg width="342pt" height="140pt"
 viewBox="0.00 0.00 341.50 140.00" xmlns="http://www.w3.org/2000/svg" xmlns:xlink="http://www.w3.org/1999/xlink">
<g id="graph0" class="graph" transform="scale(1 1) rotate(0) translate(4 136)">
<title>include/symbol_table.h</title>
<polygon fill="white" stroke="transparent" points="-4,4 -4,-136 337.5,-136 337.5,4 -4,4"/>
<!-- Node1 -->
<g id="node1" class="node">
<title>Node1</title>
<g id="a_node1"><a xlink:title=" ">
<polygon fill="#bfbfbf" stroke="black" points="94,-112.5 94,-131.5 224,-131.5 224,-112.5 94,-112.5"/>
<text text-anchor="middle" x="159" y="-119.5" font-family="Helvetica,sans-Serif" font-size="10.00">include/symbol_table.h</text>
</a>
</g>
</g>
<!-- Node2 -->
<g id="node2" class="node">
<title>Node2</title>
<g id="a_node2"><a xlink:title=" ">
<polygon fill="white" stroke="#bfbfbf" points="0,-0.5 0,-19.5 50,-19.5 50,-0.5 0,-0.5"/>
<text text-anchor="middle" x="25" y="-7.5" font-family="Helvetica,sans-Serif" font-size="10.00">stdio.h</text>
</a>
</g>
</g>
<!-- Node1&#45;&gt;Node2 -->
<g id="edge1" class="edge">
<title>Node1&#45;&gt;Node2</title>
<path fill="none" stroke="midnightblue" d="M101.46,-112.49C78.22,-106.17 53.14,-95.17 37,-76 26.27,-63.26 23.85,-44.06 23.77,-29.83"/>
<polygon fill="midnightblue" stroke="midnightblue" points="27.27,-29.81 24.09,-19.7 20.27,-29.58 27.27,-29.81"/>
</g>
<!-- Node3 -->
<g id="node3" class="node">
<title>Node3</title>
<g id="a_node3"><a xlink:title=" ">
<polygon fill="white" stroke="#bfbfbf" points="206,-56.5 206,-75.5 262,-75.5 262,-56.5 206,-56.5"/>
<text text-anchor="middle" x="234" y="-63.5" font-family="Helvetica,sans-Serif" font-size="10.00">assert.h</text>
</a>
</g>
</g>
<!-- Node1&#45;&gt;Node3 -->
<g id="edge2" class="edge">
<title>Node1&#45;&gt;Node3</title>
<path fill="none" stroke="midnightblue" d="M171.05,-112.32C182.46,-104.11 199.83,-91.6 213.43,-81.81"/>
<polygon fill="midnightblue" stroke="midnightblue" points="215.66,-84.52 221.73,-75.83 211.57,-78.84 215.66,-84.52"/>
</g>
<!-- Node4 -->
<g id="node4" class="node">
<title>Node4</title>
<g id="a_node4"><a xlink:title=" ">
<polygon fill="white" stroke="#bfbfbf" points="71.5,-0.5 71.5,-19.5 124.5,-19.5 124.5,-0.5 71.5,-0.5"/>
<text text-anchor="middle" x="98" y="-7.5" font-family="Helvetica,sans-Serif" font-size="10.00">stdlib.h</text>
</a>
</g>
</g>
<!-- Node1&#45;&gt;Node4 -->
<g id="edge3" class="edge">
<title>Node1&#45;&gt;Node4</title>
<path fill="none" stroke="midnightblue" d="M154.21,-112.37C144.24,-94.38 121.04,-52.55 107.77,-28.63"/>
<polygon fill="midnightblue" stroke="midnightblue" points="110.67,-26.64 102.76,-19.59 104.55,-30.03 110.67,-26.64"/>
</g>
<!-- Node5 -->
<g id="node5" class="node">
<title>Node5</title>
<g id="a_node5"><a xlink:title=" ">
<polygon fill="white" stroke="#bfbfbf" points="280.5,-56.5 280.5,-75.5 333.5,-75.5 333.5,-56.5 280.5,-56.5"/>
<text text-anchor="middle" x="307" y="-63.5" font-family="Helvetica,sans-Serif" font-size="10.00">string.h</text>
</a>
</g>
</g>
<!-- Node1&#45;&gt;Node5 -->
<g id="edge4" class="edge">
<title>Node1&#45;&gt;Node5</title>
<path fill="none" stroke="midnightblue" d="M182.45,-112.44C207.13,-103.44 246.19,-89.19 273.98,-79.05"/>
<polygon fill="midnightblue" stroke="midnightblue" points="275.46,-82.23 283.66,-75.52 273.06,-75.66 275.46,-82.23"/>
</g>
<!-- Node6 -->
<g id="node6" class="node">
<title>Node6</title>
<g id="a_node6"><a xlink:title=" ">
<polygon fill="white" stroke="#bfbfbf" points="145,-0.5 145,-19.5 207,-19.5 207,-0.5 145,-0.5"/>
<text text-anchor="middle" x="176" y="-7.5" font-family="Helvetica,sans-Serif" font-size="10.00">stdbool.h</text>
</a>
</g>
</g>
<!-- Node1&#45;&gt;Node6 -->
<g id="edge5" class="edge">
<title>Node1&#45;&gt;Node6</title>
<path fill="none" stroke="midnightblue" d="M160.33,-112.37C163.08,-94.62 169.41,-53.67 173.13,-29.6"/>
<polygon fill="midnightblue" stroke="midnightblue" points="176.6,-30.01 174.67,-19.59 169.69,-28.94 176.6,-30.01"/>
</g>
<!-- Node7 -->
<g id="node7" class="node">
<title>Node7</title>
<g id="a_node7"><a xlink:href="lexerDef_8h.html" target="_top" xlink:title=" ">
<polygon fill="white" stroke="black" points="46,-56.5 46,-75.5 112,-75.5 112,-56.5 46,-56.5"/>
<text text-anchor="middle" x="79" y="-63.5" font-family="Helvetica,sans-Serif" font-size="10.00">lexerDef.h</text>
</a>
</g>
</g>
<!-- Node1&#45;&gt;Node7 -->
<g id="edge6" class="edge">
<title>Node1&#45;&gt;Node7</title>
<path fill="none" stroke="midnightblue" d="M146.15,-112.32C133.78,-103.98 114.87,-91.21 100.26,-81.35"/>
<polygon fill="midnightblue" stroke="midnightblue" points="102.07,-78.35 91.82,-75.65 98.15,-84.15 102.07,-78.35"/>
</g>
<!-- Node7&#45;&gt;Node2 -->
<g id="edge7" class="edge">
<title>Node7&#45;&gt;Node2</title>
<path fill="none" stroke="midnightblue" d="M70.08,-56.08C62.22,-48.22 50.57,-36.57 41.08,-27.08"/>
<polygon fill="midnightblue" stroke="midnightblue" points="43.3,-24.35 33.75,-19.75 38.35,-29.3 43.3,-24.35"/>
</g>
<!-- Node7&#45;&gt;Node4 -->
<g id="edge8" class="edge">
<title>Node7&#45;&gt;Node4</title>
<path fill="none" stroke="midnightblue" d="M82.14,-56.08C84.68,-48.85 88.36,-38.41 91.53,-29.4"/>
<polygon fill="midnightblue" stroke="midnightblue" points="94.9,-30.35 94.92,-19.75 88.3,-28.02 94.9,-30.35"/>
</g>
<!-- Node7&#45;&gt;Node6 -->
<g id="edge9" class="edge">
<title>Node7&#45;&gt;Node6</title>
<path fill="none" stroke="midnightblue" d="M94.58,-56.32C110,-47.74 133.81,-34.49 151.71,-24.52"/>
<polygon fill="midnightblue" stroke="midnightblue" points="153.42,-27.58 160.45,-19.65 150.01,-21.46 153.42,-27.58"/>
</g>
</g>
</svg>
