<?xml version="1.0" encoding="UTF-8" standalone="no"?>
<!DOCTYPE svg PUBLIC "-//W3C//DTD SVG 1.1//EN"
 "http://www.w3.org/Graphics/SVG/1.1/DTD/svg11.dtd">
<!-- Generated by graphviz version 2.43.0 (0)
 -->
<!-- Title: include/symbol_table.h Pages: 1 -->
<svg width="332pt" height="196pt"
 viewBox="0.00 0.00 331.50 196.00" xmlns="http://www.w3.org/2000/svg" xmlns:xlink="http://www.w3.org/1999/xlink">
<g id="graph0" class="graph" transform="scale(1 1) rotate(0) translate(4 192)">
<title>include/symbol_table.h</title>
<polygon fill="white" stroke="transparent" points="-4,4 -4,-192 327.5,-192 327.5,4 -4,4"/>
<!-- Node1 -->
<g id="node1" class="node">
<title>Node1</title>
<g id="a_node1"><a xlink:title=" ">
<polygon fill="#bfbfbf" stroke="black" points="20.5,-168.5 20.5,-187.5 150.5,-187.5 150.5,-168.5 20.5,-168.5"/>
<text text-anchor="middle" x="85.5" y="-175.5" font-family="Helvetica,sans-Serif" font-size="10.00">include/symbol_table.h</text>
</a>
</g>
</g>
<!-- Node2 -->
<g id="node2" class="node">
<title>Node2</title>
<g id="a_node2"><a xlink:href="lexer_8c.html" target="_top" xlink:title=" ">
<polygon fill="white" stroke="black" points="0,-56.5 0,-75.5 93,-75.5 93,-56.5 0,-56.5"/>
<text text-anchor="middle" x="46.5" y="-63.5" font-family="Helvetica,sans-Serif" font-size="10.00">src/main/lexer.c</text>
</a>
</g>
</g>
<!-- Node1&#45;&gt;Node2 -->
<g id="edge1" class="edge">
<title>Node1&#45;&gt;Node2</title>
<path fill="none" stroke="midnightblue" d="M47.93,-164.54C32.89,-157.5 17.12,-147.01 8.5,-132 -3.15,-111.71 20.07,-88.01 35.09,-75.6"/>
<polygon fill="midnightblue" stroke="midnightblue" points="46.56,-167.76 57.13,-168.49 49.32,-161.33 46.56,-167.76"/>
</g>
<!-- Node3 -->
<g id="node3" class="node">
<title>Node3</title>
<g id="a_node3"><a xlink:href="symbol__table_8c.html" target="_top" xlink:title=" ">
<polygon fill="white" stroke="black" points="17.5,-112.5 17.5,-131.5 153.5,-131.5 153.5,-112.5 17.5,-112.5"/>
<text text-anchor="middle" x="85.5" y="-119.5" font-family="Helvetica,sans-Serif" font-size="10.00">src/main/symbol_table.c</text>
</a>
</g>
</g>
<!-- Node1&#45;&gt;Node3 -->
<g id="edge2" class="edge">
<title>Node1&#45;&gt;Node3</title>
<path fill="none" stroke="midnightblue" d="M85.5,-157.8C85.5,-148.91 85.5,-138.78 85.5,-131.75"/>
<polygon fill="midnightblue" stroke="midnightblue" points="82,-158.08 85.5,-168.08 89,-158.08 82,-158.08"/>
</g>
<!-- Node4 -->
<g id="node4" class="node">
<title>Node4</title>
<g id="a_node4"><a xlink:href="lexer_8h.html" target="_top" xlink:title=" ">
<polygon fill="white" stroke="black" points="172,-112.5 172,-131.5 259,-131.5 259,-112.5 172,-112.5"/>
<text text-anchor="middle" x="215.5" y="-119.5" font-family="Helvetica,sans-Serif" font-size="10.00">include/lexer.h</text>
</a>
</g>
</g>
<!-- Node1&#45;&gt;Node4 -->
<g id="edge3" class="edge">
<title>Node1&#45;&gt;Node4</title>
<path fill="none" stroke="midnightblue" d="M115.59,-164.5C139.96,-154.38 173.64,-140.39 195,-131.52"/>
<polygon fill="midnightblue" stroke="midnightblue" points="113.99,-161.38 106.1,-168.44 116.68,-167.84 113.99,-161.38"/>
</g>
<!-- Node4&#45;&gt;Node2 -->
<g id="edge4" class="edge">
<title>Node4&#45;&gt;Node2</title>
<path fill="none" stroke="midnightblue" d="M178.9,-109.3C147.05,-99.13 101.66,-84.62 73.15,-75.52"/>
<polygon fill="midnightblue" stroke="midnightblue" points="178.13,-112.73 188.72,-112.44 180.26,-106.07 178.13,-112.73"/>
</g>
<!-- Node5 -->
<g id="node5" class="node">
<title>Node5</title>
<g id="a_node5"><a xlink:href="parser_8h.html" target="_top" xlink:title=" ">
<polygon fill="white" stroke="black" points="168.5,-56.5 168.5,-75.5 262.5,-75.5 262.5,-56.5 168.5,-56.5"/>
<text text-anchor="middle" x="215.5" y="-63.5" font-family="Helvetica,sans-Serif" font-size="10.00">include/parser.h</text>
</a>
</g>
</g>
<!-- Node4&#45;&gt;Node5 -->
<g id="edge5" class="edge">
<title>Node4&#45;&gt;Node5</title>
<path fill="none" stroke="midnightblue" d="M215.5,-101.8C215.5,-92.91 215.5,-82.78 215.5,-75.75"/>
<polygon fill="midnightblue" stroke="midnightblue" points="212,-102.08 215.5,-112.08 219,-102.08 212,-102.08"/>
</g>
<!-- Node6 -->
<g id="node6" class="node">
<title>Node6</title>
<g id="a_node6"><a xlink:href="driver_8c.html" target="_top" xlink:title=" ">
<polygon fill="white" stroke="black" points="107.5,-0.5 107.5,-19.5 205.5,-19.5 205.5,-0.5 107.5,-0.5"/>
<text text-anchor="middle" x="156.5" y="-7.5" font-family="Helvetica,sans-Serif" font-size="10.00">src/main/driver.c</text>
</a>
</g>
</g>
<!-- Node5&#45;&gt;Node6 -->
<g id="edge6" class="edge">
<title>Node5&#45;&gt;Node6</title>
<path fill="none" stroke="midnightblue" d="M198.61,-49.54C188.09,-39.91 174.93,-27.87 166.15,-19.83"/>
<polygon fill="midnightblue" stroke="midnightblue" points="196.28,-52.15 206.02,-56.32 201.01,-46.99 196.28,-52.15"/>
</g>
<!-- Node7 -->
<g id="node7" class="node">
<title>Node7</title>
<g id="a_node7"><a xlink:href="parser_8c.html" target="_top" xlink:title=" ">
<polygon fill="white" stroke="black" points="223.5,-0.5 223.5,-19.5 323.5,-19.5 323.5,-0.5 223.5,-0.5"/>
<text text-anchor="middle" x="273.5" y="-7.5" font-family="Helvetica,sans-Serif" font-size="10.00">src/main/parser.c</text>
</a>
</g>
</g>
<!-- Node5&#45;&gt;Node7 -->
<g id="edge7" class="edge">
<title>Node5&#45;&gt;Node7</title>
<path fill="none" stroke="midnightblue" d="M232.41,-49.25C242.7,-39.67 255.47,-27.79 264.01,-19.83"/>
<polygon fill="midnightblue" stroke="midnightblue" points="229.75,-46.95 224.82,-56.32 234.52,-52.07 229.75,-46.95"/>
</g>
</g>
</svg>
