<?xml version="1.0" encoding="UTF-8" standalone="no"?>
<!DOCTYPE svg PUBLIC "-//W3C//DTD SVG 1.1//EN"
 "http://www.w3.org/Graphics/SVG/1.1/DTD/svg11.dtd">
<!-- Generated by graphviz version 2.43.0 (0)
 -->
<!-- Title: src/main/symbol_table.c Pages: 1 -->
<svg width="342pt" height="207pt"
 viewBox="0.00 0.00 341.50 207.00" xmlns="http://www.w3.org/2000/svg" xmlns:xlink="http://www.w3.org/1999/xlink">
<g id="graph0" class="graph" transform="scale(1 1) rotate(0) translate(4 203)">
<title>src/main/symbol_table.c</title>
<polygon fill="white" stroke="transparent" points="-4,4 -4,-203 337.5,-203 337.5,4 -4,4"/>
<!-- Node1 -->
<g id="node1" class="node">
<title>Node1</title>
<g id="a_node1"><a xlink:title=" ">
<polygon fill="#bfbfbf" stroke="black" points="91,-179.5 91,-198.5 227,-198.5 227,-179.5 91,-179.5"/>
<text text-anchor="middle" x="159" y="-186.5" font-family="Helvetica,sans-Serif" font-size="10.00">src/main/symbol_table.c</text>
</a>
</g>
</g>
<!-- Node2 -->
<g id="node2" class="node">
<title>Node2</title>
<g id="a_node2"><a xlink:href="symbol__table_8h.html" target="_top" xlink:title=" ">
<polygon fill="white" stroke="black" points="104.5,-112.5 104.5,-142.5 213.5,-142.5 213.5,-112.5 104.5,-112.5"/>
<text text-anchor="start" x="112.5" y="-130.5" font-family="Helvetica,sans-Serif" font-size="10.00">../../include/symbol</text>
<text text-anchor="middle" x="159" y="-119.5" font-family="Helvetica,sans-Serif" font-size="10.00">_table.h</text>
</a>
</g>
</g>
<!-- Node1&#45;&gt;Node2 -->
<g id="edge1" class="edge">
<title>Node1&#45;&gt;Node2</title>
<path fill="none" stroke="midnightblue" d="M159,-179.48C159,-172.47 159,-162.19 159,-152.7"/>
<polygon fill="midnightblue" stroke="midnightblue" points="162.5,-152.52 159,-142.52 155.5,-152.52 162.5,-152.52"/>
</g>
<!-- Node3 -->
<g id="node3" class="node">
<title>Node3</title>
<g id="a_node3"><a xlink:title=" ">
<polygon fill="white" stroke="#bfbfbf" points="0,-0.5 0,-19.5 50,-19.5 50,-0.5 0,-0.5"/>
<text text-anchor="middle" x="25" y="-7.5" font-family="Helvetica,sans-Serif" font-size="10.00">stdio.h</text>
</a>
</g>
</g>
<!-- Node2&#45;&gt;Node3 -->
<g id="edge2" class="edge">
<title>Node2&#45;&gt;Node3</title>
<path fill="none" stroke="midnightblue" d="M104.46,-116.25C80.35,-108.98 53.73,-96.67 37,-76 26.52,-63.05 24.07,-43.88 23.91,-29.71"/>
<polygon fill="midnightblue" stroke="midnightblue" points="27.41,-29.72 24.16,-19.64 20.41,-29.55 27.41,-29.72"/>
</g>
<!-- Node4 -->
<g id="node4" class="node">
<title>Node4</title>
<g id="a_node4"><a xlink:title=" ">
<polygon fill="white" stroke="#bfbfbf" points="206,-56.5 206,-75.5 262,-75.5 262,-56.5 206,-56.5"/>
<text text-anchor="middle" x="234" y="-63.5" font-family="Helvetica,sans-Serif" font-size="10.00">assert.h</text>
</a>
</g>
</g>
<!-- Node2&#45;&gt;Node4 -->
<g id="edge3" class="edge">
<title>Node2&#45;&gt;Node4</title>
<path fill="none" stroke="midnightblue" d="M176.77,-112.4C188.35,-103.22 203.42,-91.26 215.2,-81.92"/>
<polygon fill="midnightblue" stroke="midnightblue" points="217.43,-84.61 223.09,-75.66 213.08,-79.13 217.43,-84.61"/>
</g>
<!-- Node5 -->
<g id="node5" class="node">
<title>Node5</title>
<g id="a_node5"><a xlink:title=" ">
<polygon fill="white" stroke="#bfbfbf" points="71.5,-0.5 71.5,-19.5 124.5,-19.5 124.5,-0.5 71.5,-0.5"/>
<text text-anchor="middle" x="98" y="-7.5" font-family="Helvetica,sans-Serif" font-size="10.00">stdlib.h</text>
</a>
</g>
</g>
<!-- Node2&#45;&gt;Node5 -->
<g id="edge4" class="edge">
<title>Node2&#45;&gt;Node5</title>
<path fill="none" stroke="midnightblue" d="M151.52,-112.34C140.38,-91.24 119.44,-51.6 107.32,-28.65"/>
<polygon fill="midnightblue" stroke="midnightblue" points="110.34,-26.88 102.58,-19.67 104.15,-30.15 110.34,-26.88"/>
</g>
<!-- Node6 -->
<g id="node6" class="node">
<title>Node6</title>
<g id="a_node6"><a xlink:title=" ">
<polygon fill="white" stroke="#bfbfbf" points="280.5,-56.5 280.5,-75.5 333.5,-75.5 333.5,-56.5 280.5,-56.5"/>
<text text-anchor="middle" x="307" y="-63.5" font-family="Helvetica,sans-Serif" font-size="10.00">string.h</text>
</a>
</g>
</g>
<!-- Node2&#45;&gt;Node6 -->
<g id="edge5" class="edge">
<title>Node2&#45;&gt;Node6</title>
<path fill="none" stroke="midnightblue" d="M194.07,-112.4C219.02,-102.37 252.21,-89.03 276.14,-79.4"/>
<polygon fill="midnightblue" stroke="midnightblue" points="277.49,-82.64 285.46,-75.66 274.88,-76.14 277.49,-82.64"/>
</g>
<!-- Node7 -->
<g id="node7" class="node">
<title>Node7</title>
<g id="a_node7"><a xlink:title=" ">
<polygon fill="white" stroke="#bfbfbf" points="145,-0.5 145,-19.5 207,-19.5 207,-0.5 145,-0.5"/>
<text text-anchor="middle" x="176" y="-7.5" font-family="Helvetica,sans-Serif" font-size="10.00">stdbool.h</text>
</a>
</g>
</g>
<!-- Node2&#45;&gt;Node7 -->
<g id="edge6" class="edge">
<title>Node2&#45;&gt;Node7</title>
<path fill="none" stroke="midnightblue" d="M161.08,-112.34C164.15,-91.53 169.87,-52.66 173.26,-29.58"/>
<polygon fill="midnightblue" stroke="midnightblue" points="176.73,-30.07 174.72,-19.67 169.81,-29.05 176.73,-30.07"/>
</g>
<!-- Node8 -->
<g id="node8" class="node">
<title>Node8</title>
<g id="a_node8"><a xlink:href="lexerDef_8h.html" target="_top" xlink:title=" ">
<polygon fill="white" stroke="black" points="46,-56.5 46,-75.5 112,-75.5 112,-56.5 46,-56.5"/>
<text text-anchor="middle" x="79" y="-63.5" font-family="Helvetica,sans-Serif" font-size="10.00">lexerDef.h</text>
</a>
</g>
</g>
<!-- Node2&#45;&gt;Node8 -->
<g id="edge7" class="edge">
<title>Node2&#45;&gt;Node8</title>
<path fill="none" stroke="midnightblue" d="M140.04,-112.4C127.58,-103.13 111.3,-91.03 98.69,-81.65"/>
<polygon fill="midnightblue" stroke="midnightblue" points="100.75,-78.82 90.64,-75.66 96.58,-84.43 100.75,-78.82"/>
</g>
<!-- Node8&#45;&gt;Node3 -->
<g id="edge8" class="edge">
<title>Node8&#45;&gt;Node3</title>
<path fill="none" stroke="midnightblue" d="M70.08,-56.08C62.22,-48.22 50.57,-36.57 41.08,-27.08"/>
<polygon fill="midnightblue" stroke="midnightblue" points="43.3,-24.35 33.75,-19.75 38.35,-29.3 43.3,-24.35"/>
</g>
<!-- Node8&#45;&gt;Node5 -->
<g id="edge9" class="edge">
<title>Node8&#45;&gt;Node5</title>
<path fill="none" stroke="midnightblue" d="M82.14,-56.08C84.68,-48.85 88.36,-38.41 91.53,-29.4"/>
<polygon fill="midnightblue" stroke="midnightblue" points="94.9,-30.35 94.92,-19.75 88.3,-28.02 94.9,-30.35"/>
</g>
<!-- Node8&#45;&gt;Node7 -->
<g id="edge10" class="edge">
<title>Node8&#45;&gt;Node7</title>
<path fill="none" stroke="midnightblue" d="M94.58,-56.32C110,-47.74 133.81,-34.49 151.71,-24.52"/>
<polygon fill="midnightblue" stroke="midnightblue" points="153.42,-27.58 160.45,-19.65 150.01,-21.46 153.42,-27.58"/>
</g>
</g>
</svg>
